0
SECTION
2
HEADER
9
$ACADVER
1
AC1021
9
$INSUNITS
70
4
0
ENDSEC
0
SECTION
2
ENTITIES
0
CIRCLE
8
band-group-dial-face
10
0
20
0
40
12.25
0
CIRCLE
8
band-group-dial-face
10
0
20
0
40
0
0
CIRCLE
8
band-group-chapter-ring
10
0
20
0
40
13.5
0
CIRCLE
8
band-group-chapter-ring
10
0
20
0
40
12.4
0
CIRCLE
8
band-group-inner-bezel
10
0
20
0
40
15.5
0
CIRCLE
8
band-group-inner-bezel
10
0
20
0
40
13.5
0
CIRCLE
8
band-group-outer-bezel
10
0
20
0
40
19
0
CIRCLE
8
band-group-outer-bezel
10
0
20
0
40
15.5
999
Scale text uses the DXF viewer font; use SVG with outlined text for font-exact manufacture.
0
TEXT
8
dial-hour-markers
420
2502973
10
0
20
11.3256740119069
11
0
21
11.3256740119069
40
1.2674999999999996
72
1
73
2
1
XII
0
TEXT
8
dial-hour-markers
420
2502973
10
5.700107268025945
20
9.872875396813566
11
5.700107268025945
21
9.872875396813566
40
1.2674999999999996
72
1
73
2
1
I
0
TEXT
8
dial-hour-markers
420
2502973
10
9.848714128288263
20
5.6861577531389
11
9.848714128288263
21
5.6861577531389
40
1.2674999999999996
72
1
73
2
1
II
0
TEXT
8
dial-hour-markers
420
2502973
10
11.3256740119069
20
6.934975213434073e-16
11
11.3256740119069
21
6.934975213434073e-16
40
1.2674999999999996
72
1
73
2
1
III
0
TEXT
8
dial-hour-markers
420
2502973
10
9.75150830067053
20
-5.630035942396997
11
9.75150830067053
21
-5.630035942396997
40
1.2674999999999996
72
1
73
2
1
IIII
0
TEXT
8
dial-hour-markers
420
2502973
10
5.700107268025945
20
-9.872875396813566
11
5.700107268025945
21
-9.872875396813566
40
1.2674999999999996
72
1
73
2
1
V
0
TEXT
8
dial-hour-markers
420
2502973
10
1.3927069783656919e-15
20
-11.372315506277799
11
1.3927069783656919e-15
21
-11.372315506277799
40
1.2674999999999996
72
1
73
2
1
VI
0
TEXT
8
dial-hour-markers
420
2502973
10
-5.662837005953451
20
-9.808321409292596
11
-5.662837005953451
21
-9.808321409292596
40
1.2674999999999996
72
1
73
2
1
VII
0
TEXT
8
dial-hour-markers
420
2502973
10
-9.751508300670526
20
-5.630035942397005
11
-9.751508300670526
21
-5.630035942397005
40
1.2674999999999996
72
1
73
2
1
VIII
0
TEXT
8
dial-hour-markers
420
2502973
10
-11.372315506277799
20
-2.0890604675485374e-15
11
-11.372315506277799
21
-2.0890604675485374e-15
40
1.2674999999999996
72
1
73
2
1
IX
0
TEXT
8
dial-hour-markers
420
2502973
10
-9.872875396813566
20
5.700107268025946
11
-9.872875396813566
21
5.700107268025946
40
1.2674999999999996
72
1
73
2
1
X
0
TEXT
8
dial-hour-markers
420
2502973
10
-5.686157753138905
20
9.848714128288261
11
-5.686157753138905
21
9.848714128288261
40
1.2674999999999996
72
1
73
2
1
XI
0
TEXT
8
dial-typography
420
1120295
10
-5.664085572996055
20
7.2496989331818416
11
-5.664085572996055
21
7.2496989331818416
40
0.95
72
1
73
2
1
A
0
TEXT
8
dial-typography
420
1120295
10
-4.655510629914706
20
7.935125756706769
11
-4.655510629914706
21
7.935125756706769
40
0.95
72
1
73
2
1
U
0
TEXT
8
dial-typography
420
1120295
10
-3.5651433953593465
20
8.481140994614204
11
-3.5651433953593465
21
8.481140994614204
40
0.95
72
1
73
2
1
T
0
TEXT
8
dial-typography
420
1120295
10
-2.412140443495955
20
8.878151749145264
11
-2.412140443495955
21
8.878151749145264
40
0.95
72
1
73
2
1
O
0
TEXT
8
dial-typography
420
1120295
10
-1.2167587903655261
20
9.119182970314183
11
-1.2167587903655261
21
9.119182970314183
40
0.95
72
1
73
2
1
M
0
TEXT
8
dial-typography
420
1120295
10
0
20
9.2
11
0
21
9.2
40
0.95
72
1
73
2
1
A
0
TEXT
8
dial-typography
420
1120295
10
1.2167587903655266
20
9.119182970314183
11
1.2167587903655266
21
9.119182970314183
40
0.95
72
1
73
2
1
T
0
TEXT
8
dial-typography
420
1120295
10
2.412140443495956
20
8.878151749145264
11
2.412140443495956
21
8.878151749145264
40
0.95
72
1
73
2
1
I
0
TEXT
8
dial-typography
420
1120295
10
3.5651433953593474
20
8.481140994614204
11
3.5651433953593474
21
8.481140994614204
40
0.95
72
1
73
2
1
C
0
ENDSEC
0
EOF