0
SECTION
2
HEADER
9
$ACADVER
1
AC1021
9
$INSUNITS
70
4
0
ENDSEC
0
SECTION
2
ENTITIES
0
CIRCLE
8
band-group-dial-face
10
0
20
0
40
13.45
0
CIRCLE
8
band-group-dial-face
10
0
20
0
40
0
0
CIRCLE
8
band-group-chapter-ring
10
0
20
0
40
15.25
0
CIRCLE
8
band-group-chapter-ring
10
0
20
0
40
13.45
0
CIRCLE
8
band-group-inner-bezel
10
0
20
0
40
15.5
0
CIRCLE
8
band-group-inner-bezel
10
0
20
0
40
15.25
0
CIRCLE
8
band-group-outer-bezel
10
0
20
0
40
19
0
CIRCLE
8
band-group-outer-bezel
10
0
20
0
40
15.5
999
Scale text uses the DXF viewer font; use SVG with outlined text for font-exact manufacture.
0
HATCH
100
AcDbEntity
8
scale-outer-substrate
420
1121325
100
AcDbHatch
10
0
20
0
30
0
210
0
220
0
230
1
2
SOLID
70
1
71
0
91
2
92
1
93
1
72
2
10
0
20
0
40
18.823809523809523
50
0
51
360
73
1
97
0
92
0
93
1
72
2
10
0
20
0
40
15.5
50
0
51
360
73
0
97
0
75
0
76
1
98
0
0
HATCH
100
AcDbEntity
8
scale-inner-substrate
420
860988
100
AcDbHatch
10
0
20
0
30
0
210
0
220
0
230
1
2
SOLID
70
1
71
0
91
2
92
1
93
1
72
2
10
0
20
0
40
14.64913043478261
50
0
51
360
73
1
97
0
92
0
93
1
72
2
10
0
20
0
40
13.45
50
0
51
360
73
0
97
0
75
0
76
1
98
0
0
HATCH
100
AcDbEntity
8
scale-inner-substrate
420
16711678
100
AcDbHatch
10
0
20
0
30
0
210
0
220
0
230
1
2
SOLID
70
1
71
0
91
2
92
1
93
1
72
2
10
0
20
0
40
15.25
50
0
51
360
73
1
97
0
92
0
93
1
72
2
10
0
20
0
40
14.64913043478261
50
0
51
360
73
0
97
0
75
0
76
1
98
0
0
LWPOLYLINE
8
scale-outer
420
16382974
90
2
70
0
43
0.111304347826087
10
15.411385793325154
20
2.754747342288192
10
15.897592587960164
20
2.84165561214043
0
LWPOLYLINE
8
scale-outer
420
16382974
90
2
70
0
43
0.0556521739130435
10
15.480492957507945
20
2.3353335485739724
10
15.817548791730513
20
2.386180624281648
0
LWPOLYLINE
8
scale-outer
420
16382974
90
2
70
0
43
0.0556521739130435
10
15.537675502110684
20
1.9183547590729277
10
15.875976368408583
20
1.9601229808878904
0
LWPOLYLINE
8
scale-outer
420
16382974
90
2
70
0
43
0.0556521739130435
10
15.583234504091239
20
1.504076919924136
10
15.922527323775961
20
1.5368250954745837
0
LWPOLYLINE
8
scale-outer
420
16382974
90
2
70
0
43
0.0556521739130435
10
15.617469118022317
20
1.092750354915273
10
15.957507325879723
20
1.1165427421140504
0
LWPOLYLINE
8
scale-outer
420
16382974
90
2
70
0
43
0.111304347826087
10
15.640676250280874
20
0.6846104180101455
10
16.13411682516199
20
0.7062088804312611
0
LWPOLYLINE
8
scale-outer
420
16382974
90
2
70
0
43
0.0556521739130435
10
15.653150265260907
20
0.2798781229582155
10
15.993965356572964
20
0.2859718923538843
0
LWPOLYLINE
8
scale-outer
420
16382974
90
2
70
0
43
0.0556521739130435
10
15.65518272122449
20
-0.12123924951267424
10
15.996042065076967
20
-0.12387898433876668
0
LWPOLYLINE
8
scale-outer
420
16382974
90
2
70
0
43
0.0556521739130435
10
15.647062133574343
20
-0.5185475663930391
10
15.987744668364451
20
-0.5298378711045516
0
LWPOLYLINE
8
scale-outer
420
16382974
90
2
70
0
43
0.0556521739130435
10
15.62907376348774
20
-0.9118652784306305
10
15.969364638587008
20
-0.9317192658303642
0
LWPOLYLINE
8
scale-outer
420
16382974
90
2
70
0
43
0.111304347826087
10
15.601499429997101
20
-1.30102287695042
10
16.09370403320963
20
-1.3420682554278605
0
LWPOLYLINE
8
scale-outer
420
16382974
90
2
70
0
43
0.0556521739130435
10
15.564617343737924
20
-1.6858623708834641
10
15.903504813119465
20
-1.7225685500317822
0
LWPOLYLINE
8
scale-outer
420
16382974
90
2
70
0
43
0.0556521739130435
10
15.518701960710485
20
-2.0662367834274873
10
15.856589717242283
20
-2.111224831589205
0
LWPOLYLINE
8
scale-outer
420
16382974
90
2
70
0
43
0.0556521739130435
10
15.464023854518674
20
-2.442009667758439
10
15.800721107960758
20
-2.4951793961388713
0
LWPOLYLINE
8
scale-outer
420
16382974
90
2
70
0
43
0.0556521739130435
10
15.400849605658115
20
-2.813054641212737
10
15.736171370011478
20
-2.874303109295129
0
LWPOLYLINE
8
scale-outer
420
16382974
90
2
70
0
43
0.111304347826087
10
15.329441706526744
20
-3.1792549373629404
10
15.813063284470935
20
-3.279555804082678
0
LWPOLYLINE
8
scale-outer
420
16382974
90
2
70
0
43
0.0556521739130435
10
15.250058480925068
20
-3.540502975413752
10
15.582097079265582
20
-3.617590131954642
0
LWPOLYLINE
8
scale-outer
420
16382974
90
2
70
0
43
0.0556521739130435
10
15.162954016900777
20
-3.8966999463521477
10
15.493096095029253
20
-3.981542557936798
0
LWPOLYLINE
8
scale-outer
420
16382974
90
2
70
0
43
0.0556521739130435
10
15.068378111873686
20
-4.247755415293373
10
15.396460994558339
20
-4.340241536310646
0
LWPOLYLINE
8
scale-outer
420
16382974
90
2
70
0
43
0.0556521739130435
10
14.966576229052409
20
-4.593586939474597
10
15.292442585517001
20
-4.693602829292084
0
LWPOLYLINE
8
scale-outer
420
16382974
90
2
70
0
43
0.111304347826087
10
14.857789464224773
20
-4.934119701357027
10
15.326531100287852
20
-5.089783997645118
0
LWPOLYLINE
8
scale-outer
420
16382974
90
2
70
0
43
0.0556521739130435
10
14.74225452206924
20
-5.269286156309718
10
15.063236735613515
20
-5.384014004192045
0
LWPOLYLINE
8
scale-outer
420
16382974
90
2
70
0
43
0.0556521739130435
10
14.620203701195324
20
-5.599025694359935
10
14.938528509619482
20
-5.720932941204475
0
LWPOLYLINE
8
scale-outer
420
16382974
90
2
70
0
43
0.0556521739130435
10
14.491864887177833
20
-5.923284315506929
10
14.807395382388549
20
-6.052251625642382
0
LWPOLYLINE
8
scale-outer
420
16382974
90
2
70
0
43
0.0556521739130435
10
14.35746155290226
20
-6.242014318109309
10
14.670065692467784
20
-6.377921317259434
0
LWPOLYLINE
8
scale-outer
420
16382974
90
2
70
0
43
0.111304347826087
10
14.217212765587576
20
-6.555173999869256
10
14.665745138996472
20
-6.761980200265043
0
LWPOLYLINE
8
scale-outer
420
16382974
90
2
70
0
43
0.0556521739130435
10
14.071333199898444
20
-6.862727370949834
10
14.377707484188612
20
-7.012149117751229
0
LWPOLYLINE
8
scale-outer
420
16382974
90
2
70
0
43
0.0556521739130435
10
13.920033156601082
20
-7.1646438787754665
10
14.223113194225366
20
-7.32063923538955
0
LWPOLYLINE
8
scale-outer
420
16382974
90
2
70
0
43
0.0556521739130435
10
13.763518586256508
20
-7.460898144078894
10
14.063190841633787
20
-7.623343826842665
0
LWPOLYLINE
8
scale-outer
420
16382974
90
2
70
0
43
0.0556521739130435
10
13.601991117481722
20
-7.75146970777133
10
13.898146445078524
20
-7.920241987567284
0
LWPOLYLINE
8
scale-outer
420
16382974
90
2
70
0
43
0.111304347826087
10
13.43564808934337
20
-8.036342788226
10
13.859523234574823
20
-8.289877708449971
0
LWPOLYLINE
8
scale-outer
420
16382974
90
2
70
0
43
0.0556521739130435
10
13.264682587480223
20
-8.315506048578593
10
13.553493716912142
20
-8.496559057412341
0
LWPOLYLINE
8
scale-outer
420
16382974
90
2
70
0
43
0.0556521739130435
10
13.089283483580711
20
-8.588952373660561
10
13.37427565896194
20
-8.775959112744927
0
LWPOLYLINE
8
scale-outer
420
16382974
90
2
70
0
43
0.0556521739130435
10
12.909635477868697
20
-8.856678656195113
10
13.190716188117781
20
-9.049514583390652
0
LWPOLYLINE
8
scale-outer
420
16382974
90
2
70
0
43
0.0556521739130435
10
12.725919144276904
20
-9.118685591897266
10
13.002999809937677
20
-9.317226180212291
0
LWPOLYLINE
8
scale-outer
420
16382974
90
2
70
0
43
0.111304347826087
10
12.538310978010848
20
-9.374977483132472
10
12.933876443213592
20
-9.67074437995647
0
LWPOLYLINE
8
scale-outer
420
16382974
90
2
70
0
43
0.0556521739130435
10
12.346983445228284
20
-9.625562050800301
10
12.61581356689733
20
-9.835138829511349
0
LWPOLYLINE
8
scale-outer
420
16382974
90
2
70
0
43
0.0556521739130435
10
12.15210503458037
20
-9.870450254120863
10
12.416692080434375
20
-10.08535896882956
0
LWPOLYLINE
8
scale-outer
420
16382974
90
2
70
0
43
0.0556521739130435
10
11.953840310379142
20
-10.109656118014248
10
12.214110550418502
20
-10.329773047488898
0
LWPOLYLINE
8
scale-outer
420
16382974
90
2
70
0
43
0.0556521739130435
10
11.75234996717443
20
-10.34319656777359
10
12.008233170192225
20
-10.568398359295877
0
LWPOLYLINE
8
scale-outer
420
16382974
90
2
70
0
43
0.111304347826087
10
11.547790885539808
20
-10.571091270743619
10
11.912106883261794
20
-10.904593816943486
0
LWPOLYLINE
8
scale-outer
420
16382974
90
2
70
0
43
0.0556521739130435
10
11.340316188882158
20
-10.793362484727615
10
11.587228205436357
20
-11.028365711455743
0
LWPOLYLINE
8
scale-outer
420
16382974
90
2
70
0
43
0.0556521739130435
10
11.130075301105109
20
-11.010034912854646
10
11.372409755561518
20
-11.249755735218512
0
LWPOLYLINE
8
scale-outer
420
16382974
90
2
70
0
43
0.0556521739130435
10
10.917214004968177
20
-11.221135564650973
10
11.154913843334514
20
-11.465452668702472
0
LWPOLYLINE
8
scale-outer
420
16382974
90
2
70
0
43
0.0556521739130435
10
10.701874500997626
20
-11.42669362306722
10
10.934885765405038
20
-11.675486330256863
0
LWPOLYLINE
8
scale-outer
420
16382974
90
2
70
0
43
0.111304347826087
10
10.484195466815633
20
-11.626740317223513
10
10.81495657685514
20
-11.993547054625367
0
LWPOLYLINE
8
scale-outer
420
16382974
90
2
70
0
43
0.0556521739130435
10
10.264312116765439
20
-11.821308800643456
10
10.487796361920518
20
-12.078693440159798
0
LWPOLYLINE
8
scale-outer
420
16382974
90
2
70
0
43
0.0556521739130435
10
10.042356261720336
20
-12.010434034756386
10
10.261007875505848
20
-12.271936486524021
0
LWPOLYLINE
8
scale-outer
420
16382974
90
2
70
0
43
0.0556521739130435
10
9.818456368973129
20
-12.194152677456486
10
10.032233023974099
20
-12.45965522408851
0
LWPOLYLINE
8
scale-outer
420
16382974
90
2
70
0
43
0.0556521739130435
10
9.5927376221125
20
-12.372502976514317
10
9.801599716528635
20
-12.64188873339021
0
LWPOLYLINE
8
scale-outer
420
16382974
90
2
70
0
43
0.111304347826087
10
9.365321980799067
20
-12.545524667645832
10
9.660784260575443
20
-12.941317714258965
0
LWPOLYLINE
8
scale-outer
420
16382974
90
2
70
0
43
0.0556521739130435
10
8.905872091153048
20
-12.875748028233913
10
9.099779104024186
20
-13.15609090909748
0
LWPOLYLINE
8
scale-outer
420
16382974
90
2
70
0
43
0.0556521739130435
10
8.441020156702418
20
-13.185166806100396
10
8.624805976599516
20
-13.472246643247216
0
LWPOLYLINE
8
scale-outer
420
16382974
90
2
70
0
43
0.0556521739130435
10
7.971631833986169
20
-13.474143048592238
10
8.145197690402664
20
-13.7675147479395
0
LWPOLYLINE
8
scale-outer
420
16382974
90
2
70
0
43
0.0556521739130435
10
7.498526834342773
20
-13.743054256794213
10
7.6617918042973585
20
-14.042280943567338
0
LWPOLYLINE
8
scale-outer
420
16382974
90
2
70
0
43
0.111304347826087
10
7.022480745709734
20
-13.992291062105744
10
7.244029793896977
20
-14.433727483083086
0
LWPOLYLINE
8
scale-outer
420
16382974
90
2
70
0
43
0.0556521739130435
10
6.544226816500029
20
-14.222255108271337
10
6.686713870047463
20
-14.531915406118612
0
LWPOLYLINE
8
scale-outer
420
16382974
90
2
70
0
43
0.0556521739130435
10
6.064457697746796
20
-14.433357122401837
10
6.196498767371144
20
-14.747613731598767
0
LWPOLYLINE
8
scale-outer
420
16382974
90
2
70
0
43
0.0556521739130435
10
5.58382714055409
20
-14.626015159808901
10
5.705403470208455
20
-14.94446650076897
0
LWPOLYLINE
8
scale-outer
420
16382974
90
2
70
0
43
0.0556521739130435
10
5.10295164661581
20
-14.80065300866314
10
5.214057903307289
20
-15.12290672891397
0
LWPOLYLINE
8
scale-outer
420
16382974
90
2
70
0
43
0.111304347826087
10
4.622412070184776
20
-14.957698741583156
10
4.768242444316355
20
-15.429592369955698
0
LWPOLYLINE
8
scale-outer
420
16382974
90
2
70
0
43
0.0556521739130435
10
4.142755170400981
20
-15.097583402275482
10
4.232955127454812
20
-15.42630216997666
0
LWPOLYLINE
8
scale-outer
420
16382974
90
2
70
0
43
0.0556521739130435
10
3.664495113337317
20
-15.220739816279467
10
3.7442819431766985
20
-15.552140061112924
0
LWPOLYLINE
8
scale-outer
420
16382974
90
2
70
0
43
0.0556521739130435
10
3.1881149234982025
20
-15.327601515733512
10
3.2575295563581945
20
-15.661328453867679
0
LWPOLYLINE
8
scale-outer
420
16382974
90
2
70
0
43
0.0556521739130435
10
2.7140678848287965
20
-15.418601768872856
10
2.7731611202683037
20
-15.75431004999917
0
LWPOLYLINE
8
scale-outer
420
16382974
90
2
70
0
43
0.111304347826087
10
2.2427788915569
20
-15.494172705702457
10
2.3135353018215254
20
-15.982991306948794
0
LWPOLYLINE
8
scale-outer
420
16382974
90
2
70
0
43
0.0556521739130435
10
1.7746457494152812
20
-15.554744531962925
10
1.8132850036793775
20
-15.893417041212507
0
LWPOLYLINE
8
scale-outer
420
16382974
90
2
70
0
43
0.0556521739130435
10
1.3100404279737565
20
-15.600744824130116
10
1.3385638587539004
20
-15.940418894950987
0
LWPOLYLINE
8
scale-outer
420
16382974
90
2
70
0
43
0.0556521739130435
10
0.8493102649619344
20
-15.632597898762013
10
0.8678022458475753
20
-15.972965504644854
0
LWPOLYLINE
8
scale-outer
420
16382974
90
2
70
0
43
0.0556521739130435
10
0.3927791235848241
20
-15.650724250034697
10
0.4013310796193304
20
-15.99148651986438
0
LWPOLYLINE
8
scale-outer
420
16382974
90
2
70
0
43
0.111304347826087
10
-0.059251496070664315
20
-15.655540049795842
10
-0.06112079454701053
20
-16.14944955592137
0
LWPOLYLINE
8
scale-outer
420
16382974
90
2
70
0
43
0.0556521739130435
10
-0.5065013903641209
20
-15.647456704912381
10
-0.5175294144155946
20
-15.988147830680303
0
LWPOLYLINE
8
scale-outer
420
16382974
90
2
70
0
43
0.0556521739130435
10
-0.9487106289352033
20
-15.626880467101985
10
-0.9693668479166851
20
-15.967123587692075
0
LWPOLYLINE
8
scale-outer
420
16382974
90
2
70
0
43
0.0556521739130435
10
-1.385638573770939
20
-15.594212090818383
10
-1.4158079983942564
20
-15.93374392483309
0
LWPOLYLINE
8
scale-outer
420
16382974
90
2
70
0
43
0.0556521739130435
10
-1.8170629392082467
20
-15.549846535111017
10
-1.8566257403729673
20
-15.888412400572221
0
LWPOLYLINE
8
scale-outer
420
16382974
90
2
70
0
43
0.111304347826087
10
-2.2427788915568687
20
-15.49417270570246
10
-2.3135353018214935
20
-15.982991306948797
0
LWPOLYLINE
8
scale-outer
420
16382974
90
2
70
0
43
0.0556521739130435
10
-2.6625981870218354
20
-15.42757323382444
10
-2.7205707758527926
20
-15.763476850112996
0
LWPOLYLINE
8
scale-outer
420
16382974
90
2
70
0
43
0.0556521739130435
10
-3.076348346606095
20
-15.350424288627405
10
-3.143329492566414
20
-15.684648145611517
0
LWPOLYLINE
8
scale-outer
420
16382974
90
2
70
0
43
0.0556521739130435
10
-3.4838718666830357
20
-15.2630954202312
10
-3.5597259975283895
20
-15.595417871060496
0
LWPOLYLINE
8
scale-outer
420
16382974
90
2
70
0
43
0.0556521739130435
10
-3.8850254639426387
20
-15.165949430717006
10
-3.969613887729881
20
-15.496156727808822
0
LWPOLYLINE
8
scale-outer
420
16382974
90
2
70
0
43
0.111304347826087
10
-4.279679353434531
20
-15.059342270575247
10
-4.414697009108316
20
-15.534442604372556
0
LWPOLYLINE
8
scale-outer
420
16382974
90
2
70
0
43
0.0556521739130435
10
-4.667716558454017
20
-14.943622958321802
10
-4.769346467969346
20
-15.268989554614967
0
LWPOLYLINE
8
scale-outer
420
16382974
90
2
70
0
43
0.0556521739130435
10
-5.049032251042965
20
-14.81913352117715
10
-5.158964524005019
20
-15.141789616506045
0
LWPOLYLINE
8
scale-outer
420
16382974
90
2
70
0
43
0.0556521739130435
10
-5.4235331219074885
20
-14.686208954870573
10
-5.541619379616205
20
-15.005970891679574
0
LWPOLYLINE
8
scale-outer
420
16382974
90
2
70
0
43
0.0556521739130435
10
-5.791136778582704
20
-14.545177200787034
10
-5.917226848411876
20
-14.8618684617684
0
LWPOLYLINE
8
scale-outer
420
16382974
90
2
70
0
43
0.111304347826087
10
-6.151771170709152
20
-14.396359138816313
10
-6.345850598889712
20
-14.85054331960101
0
LWPOLYLINE
8
scale-outer
420
16382974
90
2
70
0
43
0.0556521739130435
10
-6.505374041317241
20
-14.240068594396025
10
-6.647015155747165
20
-14.550116744196249
0
LWPOLYLINE
8
scale-outer
420
16382974
90
2
70
0
43
0.0556521739130435
10
-6.851892403050276
20
-14.076612358361302
10
-7.00107824075277
20
-14.383101585448484
0
LWPOLYLINE
8
scale-outer
420
16382974
90
2
70
0
43
0.0556521739130435
10
-7.191282038290981
20
-13.906290218325724
10
-7.347857385936508
20
-14.209071031788492
0
LWPOLYLINE
8
scale-outer
420
16382974
90
2
70
0
43
0.0556521739130435
10
-7.523507022190934
20
-13.729395000421247
10
-7.68731588426041
20
-14.02832428503384
0
LWPOLYLINE
8
scale-outer
420
16382974
90
2
70
0
43
0.111304347826087
10
-7.84853926763638
20
-13.546212620320043
10
-8.096149260083473
20
-13.973575915606746
0
LWPOLYLINE
8
scale-outer
420
16382974
90
2
70
0
43
0.0556521739130435
10
-8.166358091218552
20
-13.357022142548747
10
-8.344163710622999
20
-13.647843775512483
0
LWPOLYLINE
8
scale-outer
420
16382974
90
2
70
0
43
0.0556521739130435
10
-8.476949799309834
20
-13.162095847186693
10
-8.661517913136176
20
-13.448673361744412
0
LWPOLYLINE
8
scale-outer
420
16382974
90
2
70
0
43
0.0556521739130435
10
-8.780307293380856
20
-12.961699303114202
10
-8.971480391526006
20
-13.24391359587252
0
LWPOLYLINE
8
scale-outer
420
16382974
90
2
70
0
43
0.0556521739130435
10
-9.076429693726299
20
-12.756091447045673
10
-9.274050246933403
20
-13.033829052424583
0
LWPOLYLINE
8
scale-outer
420
16382974
90
2
70
0
43
0.111304347826087
10
-9.365321980799045
20
-12.545524667645848
10
-9.66078426057542
20
-12.94131771425898
0
LWPOLYLINE
8
scale-outer
420
16382974
90
2
70
0
43
0.0556521739130435
10
-9.646994653383153
20
-12.330244894086455
10
-9.85703808285028
20
-12.598710568296735
0
LWPOLYLINE
8
scale-outer
420
16382974
90
2
70
0
43
0.0556521739130435
10
-9.921463402867763
20
-12.110491688453605
10
-10.137482823770016
20
-12.374172689446373
0
LWPOLYLINE
8
scale-outer
420
16382974
90
2
70
0
43
0.0556521739130435
10
-10.188748802912752
20
-11.886498341466766
10
-10.410587812618472
20
-12.1453023489015
0
LWPOLYLINE
8
scale-outer
420
16382974
90
2
70
0
43
0.0556521739130435
10
-10.448876013825544
20
-11.65849197101621
10
-10.676378757516924
20
-11.912331609576437
0
LWPOLYLINE
8
scale-outer
420
16382974
90
2
70
0
43
0.111304347826087
10
-10.701874500997592
20
-11.42669362306725
10
-11.039503067792007
20
-11.787189178382858
0
LWPOLYLINE
8
scale-outer
420
16382974
90
2
70
0
43
0.048695652173913063
10
-10.947777766774733
20
-11.191318374519646
10
-11.113174098287882
20
-11.360394057582818
0
LWPOLYLINE
8
scale-outer
420
16382974
90
2
70
0
43
0.048695652173913063
10
-11.186623095162146
20
-10.952575437646304
10
-11.355627843100608
20
-11.11804425118995
0
LWPOLYLINE
8
scale-outer
420
16382974
90
2
70
0
43
0.048695652173913063
10
-11.418451308790832
20
-10.7106682657676
10
-11.590958460312223
20
-10.87248240530819
0
LWPOLYLINE
8
scale-outer
420
16382974
90
2
70
0
43
0.048695652173913063
10
-11.643306537594793
20
-10.465794659850276
10
-11.819210746560898
20
-10.623909309232596
0
LWPOLYLINE
8
scale-outer
420
16382974
90
2
70
0
43
0.0556521739130435
10
-11.861235998673733
20
-10.218146875745846
10
-12.119489970651076
20
-10.440625967908275
0
LWPOLYLINE
8
scale-outer
420
16382974
90
2
70
0
43
0.048695652173913063
10
-12.072289786836947
20
-9.96791173181126
10
-12.254674969130862
20
-10.11850448847937
0
LWPOLYLINE
8
scale-outer
420
16382974
90
2
70
0
43
0.048695652173913063
10
-12.27652067534702
20
-9.715270716677193
10
-12.461991327629535
20
-9.86204663508067
0
LWPOLYLINE
8
scale-outer
420
16382974
90
2
70
0
43
0.048695652173913063
10
-12.473983926401864
20
-9.460400096952357
10
-12.662437804872278
20
-9.6033254927739
0
LWPOLYLINE
8
scale-outer
420
16382974
90
2
70
0
43
0.048695652173913063
10
-12.664737110914297
20
-9.203471024672073
10
-12.856072841539085
20
-9.342514799317195
0
LWPOLYLINE
8
scale-outer
420
16382974
90
2
70
0
43
0.0556521739130435
10
-12.848839937167334
20
-8.944649644318215
10
-13.12859694979617
20
-9.139400958502437
0
LWPOLYLINE
8
scale-outer
420
16382974
90
2
70
0
43
0.048695652173913063
10
-13.026354087942146
20
-8.684097199254575
10
-13.223153038837516
20
-8.815294401998257
0
LWPOLYLINE
8
scale-outer
420
16382974
90
2
70
0
43
0.048695652173913063
10
-13.197343065732706
20
-8.421970137438453
10
-13.396725276012605
20
-8.549207189059386
0
LWPOLYLINE
8
scale-outer
420
16382974
90
2
70
0
43
0.048695652173913063
10
-13.361872045679174
20
-8.158420216282417
10
-13.563739919286414
20
-8.281675620571953
0
LWPOLYLINE
8
scale-outer
420
16382974
90
2
70
0
43
0.048695652173913063
10
-13.520007735867164
20
-7.893594606555383
10
-13.724264684553892
20
-8.012849090724627
0
LWPOLYLINE
8
scale-outer
420
16382974
90
2
70
0
43
0.0556521739130435
10
-13.671818244656858
20
-7.627635995222639
10
-13.969493914058408
20
-7.79371205110618
0
LWPOLYLINE
8
scale-outer
420
16382974
90
2
70
0
43
0.048695652173913063
10
-13.81737295471979
20
-7.36068268713754
10
-14.026122423931286
20
-7.4718860692138245
0
LWPOLYLINE
8
scale-outer
420
16382974
90
2
70
0
43
0.048695652173913063
10
-13.956742403476321
20
-7.092868705506553
10
-14.1675974320114
20
-7.200026019875459
0
LWPOLYLINE
8
scale-outer
420
16382974
90
2
70
0
43
0.048695652173913063
10
-14.089998169639884
20
-6.824323891060045
10
-14.302866393486921
20
-6.927424096479303
0
LWPOLYLINE
8
scale-outer
420
16382974
90
2
70
0
43
0.048695652173913063
10
-14.21721276558756
20
-6.55517399986929
10
-14.432002916234072
20
-6.6542079549884
0
LWPOLYLINE
8
scale-outer
420
16382974
90
2
70
0
43
0.0556521739130435
10
-14.33845953528916
20
-6.285540799758086
10
-14.650649945077728
20
-6.422395498353129
0
LWPOLYLINE
8
scale-outer
420
16382974
90
2
70
0
43
0.048695652173913063
10
-14.453812557538415
20
-6.01554216526599
10
-14.672177199598536
20
-6.106423495467743
0
LWPOLYLINE
8
scale-outer
420
16382974
90
2
70
0
43
0.048695652173913063
10
-14.563346554242173
20
-5.7452921711250555
10
-14.783366008960785
20
-5.832090630942097
0
LWPOLYLINE
8
scale-outer
420
16382974
90
2
70
0
43
0.048695652173913063
10
-14.667136803533927
20
-5.474901184219567
10
-14.88872429578905
20
-5.557614643567918
0
LWPOLYLINE
8
scale-outer
420
16382974
90
2
70
0
43
0.048695652173913063
10
-14.765259057488436
20
-5.204475954003816
10
-14.98832895660179
20
-5.283103895543976
0
LWPOLYLINE
8
scale-outer
420
16382974
90
2
70
0
43
0.111304347826087
10
-14.857789464224771
20
-4.934119701357034
10
-15.32653110028785
20
-5.089783997645125
0
LWPOLYLINE
8
scale-outer
420
16382974
90
2
70
0
43
0.048695652173913063
10
-15.065153592183446
20
-4.259177412889773
10
-15.29275422410268
20
-4.323524016772578
0
LWPOLYLINE
8
scale-outer
420
16382974
90
2
70
0
43
0.0556521739130435
10
-15.239247737766497
20
-3.586749695410448
10
-15.571050954451925
20
-3.6648437789808153
0
LWPOLYLINE
8
scale-outer
420
16382974
90
2
70
0
43
0.048695652173913063
10
-15.381276141445468
20
-2.9181825253312397
10
-15.61365267501985
20
-2.962269708562194
0
LWPOLYLINE
8
scale-outer
420
16382974
90
2
70
0
43
0.0556521739130435
10
-15.492441491953853
20
-2.254706546079753
10
-15.829757480892194
20
-2.303798134952407
0
LWPOLYLINE
8
scale-outer
420
16382974
90
2
70
0
43
0.048695652173913063
10
-15.573940298491786
20
-1.5974443870012387
10
-15.809227554723167
20
-1.6215781835611331
0
LWPOLYLINE
8
scale-outer
420
16382974
90
2
70
0
43
0.0556521739130435
10
-15.626958913267783
20
-0.9474176025326965
10
-15.967203741861482
20
-0.9680456685287427
0
LWPOLYLINE
8
scale-outer
420
16382974
90
2
70
0
43
0.048695652173913063
10
-15.652670130287769
20
-0.30555324077048235
10
-15.889146817437194
20
-0.3101694639147598
0
LWPOLYLINE
8
scale-outer
420
16382974
90
2
70
0
43
0.0556521739130435
10
-15.65223029439493
20
0.32730994756327575
10
-15.993025355237119
20
0.3344364471991791
0
LWPOLYLINE
8
scale-outer
420
16382974
90
2
70
0
43
0.048695652173913063
10
-15.626776861776111
20
0.9504156473917018
10
-15.862862359798946
20
0.9647742930310343
0
LWPOLYLINE
8
scale-outer
420
16382974
90
2
70
0
43
0.111304347826087
10
-15.577426359577107
20
1.563084451493441
10
-16.06887149244979
20
1.6123974912872798
0
LWPOLYLINE
8
scale-outer
420
16382974
90
2
70
0
43
0.048695652173913063
10
-15.505272697995798
20
2.164708652760071
10
-15.739522541022618
20
2.1974125382050134
0
LWPOLYLINE
8
scale-outer
420
16382974
90
2
70
0
43
0.0556521739130435
10
-15.411385793325158
20
2.7547473422881676
10
-15.746936961453542
20
2.814726289087599
0
LWPOLYLINE
8
scale-outer
420
16382974
90
2
70
0
43
0.048695652173913063
10
-15.296810464965725
20
3.3327217989900255
10
-15.527910911892556
20
3.3830717395213123
0
LWPOLYLINE
8
scale-outer
420
16382974
90
2
70
0
43
0.0556521739130435
10
-15.162565573480551
20
3.8982111564730033
10
-15.492699194054
20
3.9830866715439552
0
LWPOLYLINE
8
scale-outer
420
16382974
90
2
70
0
43
0.048695652173913063
10
-15.0096433703782
20
4.450848333139428
10
-15.236405367531214
20
4.51809065410221
0
LWPOLYLINE
8
scale-outer
420
16382974
90
2
70
0
43
0.0556521739130435
10
-14.83900903353059
20
4.990316211759106
10
-15.162097877184443
20
5.0989700639591495
0
LWPOLYLINE
8
scale-outer
420
16382974
90
2
70
0
43
0.048695652173913063
10
-14.651600365004022
20
5.516344055147598
10
-14.872953136570402
20
5.599683623188041
0
LWPOLYLINE
8
scale-outer
420
16382974
90
2
70
0
43
0.0556521739130435
10
-14.448327630642508
20
6.0287041450182715
10
-14.762910191807352
20
6.159966754707628
0
LWPOLYLINE
8
scale-outer
420
16382974
90
2
70
0
43
0.048695652173913063
10
-14.230073523027034
20
6.527208631550948
10
-14.445057970831042
20
6.625820092769669
0
LWPOLYLINE
8
scale-outer
420
16382974
90
2
70
0
43
0.111304347826087
10
-13.99769323147099
20
7.01170658172313
10
-14.439300083030396
20
7.232915720715507
0
LWPOLYLINE
8
scale-outer
420
16382974
90
2
70
0
43
0.048695652173913063
10
-13.752014604530121
20
7.482081214965425
10
-13.959776655876055
20
7.595118656115758
0
LWPOLYLINE
8
scale-outer
420
16382974
90
2
70
0
43
0.0556521739130435
10
-13.493838392126714
20
7.938247315227421
10
-13.787638916994169
20
8.11108629254186
0
LWPOLYLINE
8
scale-outer
420
16382974
90
2
70
0
43
0.048695652173913063
10
-13.223938555834978
20
8.380148809063556
10
-13.423722564232396
20
8.506754034350454
0
LWPOLYLINE
8
scale-outer
420
16382974
90
2
70
0
43
0.0556521739130435
10
-12.943062637165673
20
8.807756499867274
10
-13.224871154926667
20
8.999527247920371
0
LWPOLYLINE
8
scale-outer
420
16382974
90
2
70
0
43
0.048695652173913063
10
-12.651932174840736
20
9.221065948889965
10
-12.843074451643483
20
9.360375543318874
0
LWPOLYLINE
8
scale-outer
420
16382974
90
2
70
0
43
0.0556521739130435
10
-12.351243163077335
20
9.62009549417695
10
-12.620166031324741
20
9.829553249882201
0
LWPOLYLINE
8
scale-outer
420
16382974
90
2
70
0
43
0.048695652173913063
10
-12.04166654381839
20
10.004884399033957
10
-12.223589077695229
20
10.156035729656999
0
LWPOLYLINE
8
scale-outer
420
16382974
90
2
70
0
43
0.0556521739130435
10
-11.723848726666557
20
10.375491122100543
10
-11.979111373903464
20
10.601396060995423
0
LWPOLYLINE
8
scale-outer
420
16382974
90
2
70
0
43
0.048695652173913063
10
-11.398412131009614
20
10.731991701552936
10
-11.57061653556608
20
10.894127990312233
0
LWPOLYLINE
8
scale-outer
420
16382974
90
2
70
0
43
0.111304347826087
10
-11.065955745477762
20
11.074478246385963
10
-11.415070545712787
20
11.423861919122423
0
LWPOLYLINE
8
scale-outer
420
16382974
90
2
70
0
43
0.048695652173913063
10
-10.727055700455914
20
11.403057528130976
10
-10.88911741732572
20
11.575332114203606
0
LWPOLYLINE
8
scale-outer
420
16382974
90
2
70
0
43
0.0556521739130435
10
-10.382265849893026
20
11.717849666755981
10
-10.608318294525223
20
11.972981696825318
0
LWPOLYLINE
8
scale-outer
420
16382974
90
2
70
0
43
0.048695652173913063
10
-10.032118359115158
20
12.018986904862356
10
-10.18368113370299
20
12.200566800336837
0
LWPOLYLINE
8
scale-outer
420
16382974
90
2
70
0
43
0.0556521739130435
10
-9.677124295760168
20
12.306612464645033
10
-9.887823736103313
20
12.574563591402468
0
LWPOLYLINE
8
scale-outer
420
16382974
90
2
70
0
43
0.048695652173913063
10
-9.317774221322834
20
12.580879482412978
10
-9.458544860525222
20
12.770948312629393
0
LWPOLYLINE
8
scale-outer
420
16382974
90
2
70
0
43
0.0556521739130435
10
-8.954538781124972
20
12.841950015783317
10
-9.14950541088508
20
13.121557014571755
0
LWPOLYLINE
8
scale-outer
420
16382974
90
2
70
0
43
0.048695652173913063
10
-8.587869290819928
20
13.089994118957437
10
-8.717612706011163
20
13.287754527775279
0
LWPOLYLINE
8
scale-outer
420
16382974
90
2
70
0
43
0.0556521739130435
10
-8.218198317799033
20
13.325188981769577
10
-8.397132651312543
20
13.61531751325445
0
LWPOLYLINE
8
scale-outer
420
16382974
90
2
70
0
43
0.048695652173913063
10
-7.845940256101372
20
13.547718128461197
10
-7.9644747900749095
20
13.752393718937839
0
LWPOLYLINE
8
scale-outer
420
16382974
90
2
70
0
43
0.111304347826087
10
-7.471491893631797
20
13.75777067238521
10
-7.7072065901205145
20
14.191808316348485
0
LWPOLYLINE
8
scale-outer
420
16382974
90
2
70
0
43
0.048695652173913063
10
-7.09523297067784
20
13.95554062307707
10
-7.202426003782948
20
14.166377495409717
0
LWPOLYLINE
8
scale-outer
420
16382974
90
2
70
0
43
0.0556521739130435
10
-6.717526728876603
20
14.14122624235171
10
-6.86378703090502
20
14.449122303615976
0
LWPOLYLINE
8
scale-outer
420
16382974
90
2
70
0
43
0.048695652173913063
10
-6.338720449927573
20
14.31502944629239
10
-6.434484278097996
20
14.531297387271703
0
LWPOLYLINE
8
scale-outer
420
16382974
90
2
70
0
43
0.0556521739130435
10
-5.959145983475065
20
14.47715525019267
10
-6.088894107532066
20
14.792365473369493
0
LWPOLYLINE
8
scale-outer
420
16382974
90
2
70
0
43
0.048695652173913063
10
-5.579120263696789
20
14.627811253696024
10
-5.663408239242531
20
14.848804625224869
0
LWPOLYLINE
8
scale-outer
420
16382974
90
2
70
0
43
0.0556521739130435
10
-5.198945814234792
20
14.767207163549877
10
-5.312142146115487
20
15.088732669443651
0
LWPOLYLINE
8
scale-outer
420
16382974
90
2
70
0
43
0.048695652173913063
10
-4.818911241193028
20
14.8955543515524
10
-4.891714165965551
20
15.120592719894006
0
LWPOLYLINE
8
scale-outer
420
16382974
90
2
70
0
43
0.0556521739130435
10
-4.439291714003473
20
15.013065445422141
10
-4.535948143235275
20
15.339944008775033
0
LWPOLYLINE
8
scale-outer
420
16382974
90
2
70
0
43
0.048695652173913063
10
-4.060349434030597
20
15.1199539504628
10
-4.121692193753788
20
15.348382492704852
0
LWPOLYLINE
8
scale-outer
420
16382974
90
2
70
0
43
0.111304347826087
10
-3.6823340908436237
20
15.21643390002924
10
-3.7985063727587085
20
15.696490246131031
0
LWPOLYLINE
8
scale-outer
420
16382974
90
2
70
0
43
0.048695652173913063
10
-3.3054833061381856
20
15.302719532925838
10
-3.355421734224699
20
15.533909252596791
0
LWPOLYLINE
8
scale-outer
420
16382974
90
2
70
0
43
0.0556521739130435
10
-2.9300230653349764
20
15.37902499598571
10
-2.9938182798212742
20
15.713871574436409
0
LWPOLYLINE
8
scale-outer
420
16382974
90
2
70
0
43
0.048695652173913063
10
-2.556168136921296
20
15.44556407018975
10
-2.5947860958883364
20
15.678911849966001
0
LWPOLYLINE
8
scale-outer
420
16382974
90
2
70
0
43
0.0556521739130435
10
-2.1841224796366014
20
15.50254991878737
10
-2.231677245911737
20
15.84008599789005
0
LWPOLYLINE
8
scale-outer
420
16382974
90
2
70
0
43
0.048695652173913063
10
-1.8140796376318384
20
15.550194855977779
10
-1.841486306229698
20
15.785123371909014
0
LWPOLYLINE
8
scale-outer
420
16382974
90
2
70
0
43
0.0556521739130435
10
-1.4462231237576664
20
15.588710134801302
10
-1.4777116521131985
20
15.928122175061361
0
LWPOLYLINE
8
scale-outer
420
16382974
90
2
70
0
43
0.048695652173913063
10
-1.08072679115835
20
15.618305752975282
10
-1.0970541454793383
20
15.854263271571664
0
LWPOLYLINE
8
scale-outer
420
16382974
90
2
70
0
43
0.0556521739130435
10
-0.7177551933650824
20
15.63919027548887
10
-0.7333828336560795
20
15.979701416790338
0
LWPOLYLINE
8
scale-outer
420
16382974
90
2
70
0
43
0.048695652173913063
10
-0.35746393309812513
20
15.651570672845656
10
-0.3628644102033623
20
15.888030749662699
0
LWPOLYLINE
8
scale-outer
420
16382974
90
2
70
0
43
0.0556521739130435
10
0.7058990407361795
20
15.6397299060705
10
0.7212685377351009
20
15.980252796715892
0
LWPOLYLINE
8
scale-outer
420
16382974
90
2
70
0
43
0.0556521739130435
10
1.3989261142367058
20
15.593025707586543
10
1.4293848476726525
20
15.932531710551102
0
LWPOLYLINE
8
scale-outer
420
16382974
90
2
70
0
43
0.0556521739130435
10
2.078183374320282
20
15.517106652119363
10
2.1234315348809103
20
15.854959674093967
0
LWPOLYLINE
8
scale-outer
420
16382974
90
2
70
0
43
0.0556521739130435
10
2.742881940993879
20
15.413501991705775
10
2.802602543130604
20
15.749099235693148
0
LWPOLYLINE
8
scale-outer
420
16382974
90
2
70
0
43
0.111304347826087
10
3.3923334960245097
20
15.283701071478019
10
3.4993566811912467
20
15.765879598949665
0
LWPOLYLINE
8
scale-outer
420
16382974
90
2
70
0
43
0.0556521739130435
10
4.025942443850697
20
15.129151741897154
10
4.113599044494414
20
15.458557845142193
0
LWPOLYLINE
8
scale-outer
420
16382974
90
2
70
0
43
0.0556521739130435
10
4.643198605826403
20
14.95125920106397
10
4.744294687446263
20
15.276792060807196
0
LWPOLYLINE
8
scale-outer
420
16382974
90
2
70
0
43
0.0556521739130435
10
5.243670416553067
20
14.751385207942825
10
5.357840534487349
20
15.072566223356821
0
LWPOLYLINE
8
scale-outer
420
16382974
90
2
70
0
43
0.0556521739130435
10
5.826998592039413
20
14.53084761460662
10
5.953869478957844
20
14.847226878377215
0
LWPOLYLINE
8
scale-outer
420
16382974
90
2
70
0
43
0.111304347826087
10
6.392890240567013
20
14.290920172004714
10
6.594576624517361
20
14.741777906824682
0
LWPOLYLINE
8
scale-outer
420
16382974
90
2
70
0
43
0.0556521739130435
10
6.941113388381306
20
14.032832569377502
10
7.092241829185876
20
14.338368581774525
0
LWPOLYLINE
8
scale-outer
420
16382974
90
2
70
0
43
0.0556521739130435
10
7.47149189363177
20
13.757770672385226
10
7.63416823346201
20
14.057317778782414
0
LWPOLYLINE
8
scale-outer
420
16382974
90
2
70
0
43
0.0556521739130435
10
7.983900723319184
20
13.466876929367537
10
8.15773370951898
20
13.760090423941636
0
LWPOLYLINE
8
scale-outer
420
16382974
90
2
70
0
43
0.0556521739130435
10
8.478261569349923
20
13.16125091897546
10
8.662858244265784
20
13.447810036962483
0
LWPOLYLINE
8
scale-outer
420
16382974
90
2
70
0
43
0.111304347826087
10
8.954538781124954
20
12.841950015783327
10
9.237041448736539
20
13.247094850762496
0
LWPOLYLINE
8
scale-outer
420
16382974
90
2
70
0
43
0.0556521739130435
10
9.412735593393686
20
12.509990153449676
10
9.617678514556223
20
12.782369410289949
0
LWPOLYLINE
8
scale-outer
420
16382974
90
2
70
0
43
0.0556521739130435
10
9.85289062936767
20
12.166346667601863
10
10.067417019431662
20
12.431243795667845
0
LWPOLYLINE
8
scale-outer
420
16382974
90
2
70
0
43
0.0556521739130435
10
10.275074660309627
20
11.81195520291248
10
10.498793237672512
20
12.069136187112752
0
LWPOLYLINE
8
scale-outer
420
16382974
90
2
70
0
43
0.0556521739130435
10
10.679387603984598
20
11.447712670852999
10
10.911909262547248
20
11.696963024495211
0
LWPOLYLINE
8
scale-outer
420
16382974
90
2
70
0
43
0.111304347826087
10
11.065955745477758
20
11.074478246385969
10
11.415070545712782
20
11.423861919122428
0
LWPOLYLINE
8
scale-outer
420
16382974
90
2
70
0
43
0.0556521739130435
10
11.434929164947324
20
10.693074393418637
10
11.68390118409081
20
10.925894053617487
0
LWPOLYLINE
8
scale-outer
420
16382974
90
2
70
0
43
0.0556521739130435
10
11.786479357889055
20
10.30428791021502
10
12.043105658060822
20
10.528642545896219
0
LWPOLYLINE
8
scale-outer
420
16382974
90
2
70
0
43
0.0556521739130435
10
12.120797034441987
20
9.908870987171571
10
12.384702413107908
20
10.124616234170642
0
LWPOLYLINE
8
scale-outer
420
16382974
90
2
70
0
43
0.0556521739130435
10
12.438090085163893
20
9.50754227042383
10
12.708903866178346
20
9.714549411615018
0
LWPOLYLINE
8
scale-outer
420
16382974
90
2
70
0
43
0.111304347826087
10
12.738581701550855
20
9.100987925684878
10
13.140465416640886
20
9.388110850689822
0
LWPOLYLINE
8
scale-outer
420
16382974
90
2
70
0
43
0.0556521739130435
10
13.02250864036996
20
8.689862697536594
10
13.306046931140067
20
8.879066550982179
0
LWPOLYLINE
8
scale-outer
420
16382974
90
2
70
0
43
0.0556521739130435
10
13.290119621619999
20
8.274790960113696
10
13.579484590053404
20
8.454957481795798
0
LWPOLYLINE
8
scale-outer
420
16382974
90
2
70
0
43
0.0556521739130435
10
13.541673850632632
20
7.856367755753329
10
13.836515894036763
20
8.027423974385593
0
LWPOLYLINE
8
scale-outer
420
16382974
90
2
70
0
43
0.0556521739130435
10
13.777439655480714
20
7.4351598187352845
10
14.077415013453855
20
7.59704510250246
0
LWPOLYLINE
8
scale-outer
420
16382974
90
2
70
0
43
0.111304347826087
10
13.997693231470972
20
7.011706581723166
10
14.439300083030377
20
7.2329157207155435
0
LWPOLYLINE
8
scale-outer
420
16382974
90
2
70
0
43
0.0556521739130435
10
14.20271748506861
20
6.586521162941374
10
14.511952391430912
20
6.729929088728588
0
LWPOLYLINE
8
scale-outer
420
16382974
90
2
70
0
43
0.0556521739130435
10
14.392800970134251
20
6.160091332492628
10
14.706174552687719
20
6.294214627445811
0
LWPOLYLINE
8
scale-outer
420
16382974
90
2
70
0
43
0.0556521739130435
10
14.56823690985011
20
5.732880456544435
10
14.885430248478261
20
5.857702115007299
0
LWPOLYLINE
8
scale-outer
420
16382974
90
2
70
0
43
0.0556521739130435
10
14.729322298175118
20
5.305328418394989
10
15.050022939192928
20
5.42084101226362
0
LWPOLYLINE
8
scale-outer
420
16382974
90
2
70
0
43
0.111304347826087
10
14.87635707510043
20
4.877852515673023
10
15.345684492266452
20
5.031741664134603
0
LWPOLYLINE
8
scale-outer
420
16382974
90
2
70
0
43
0.0556521739130435
10
15.009643370378189
20
4.450848333139458
10
15.336447425098708
20
4.547756383938762
0
LWPOLYLINE
8
scale-outer
420
16382974
90
2
70
0
43
0.0556521739130435
10
15.129484810770512
20
4.0246905907426695
10
15.458898165903928
20
4.112319934864594
0
LWPOLYLINE
8
scale-outer
420
16382974
90
2
70
0
43
0.0556521739130435
10
15.236185886214123
20
3.599733966736671
10
15.567922437391413
20
3.6781107560590867
0
LWPOLYLINE
8
scale-outer
420
16382974
90
2
70
0
43
0.0556521739130435
10
15.33005137061949
20
3.176313895810004
10
15.663831649295496
20
3.2454715856099106
0
LWPOLYLINE
8
scale-inner
420
1842203
90
2
70
0
43
0.09739130434782613
10
14.858839163154558
20
2.6559809898416784
10
14.509592028980116
20
2.593553922764719
0
LWPOLYLINE
8
scale-inner
420
1842203
90
2
70
0
43
0.03478260869565219
10
14.925468618246038
20
2.2516044991624806
10
14.760380046381922
20
2.2266998090199452
0
LWPOLYLINE
8
scale-inner
420
1842203
90
2
70
0
43
0.03478260869565219
10
14.98060098885738
20
1.8495757101403807
10
14.814902605364532
20
1.82911780557795
0
LWPOLYLINE
8
scale-inner
420
1842203
90
2
70
0
43
0.03478260869565219
10
15.024526557391011
20
1.4501510339093042
10
14.858342319178083
20
1.4341111111907177
0
LWPOLYLINE
8
scale-inner
420
1842203
90
2
70
0
43
0.03478260869565219
10
15.057533752787734
20
1.0535718193621844
10
14.890984426490228
20
1.0419184052240078
0
LWPOLYLINE
8
scale-inner
420
1842203
90
2
70
0
43
0.0556521739130435
10
15.079908836397498
20
0.6600649822833321
10
14.70461600479778
20
0.6436379826954415
0
LWPOLYLINE
8
scale-inner
420
1842203
90
2
70
0
43
0.03478260869565219
10
15.091935618725364
20
0.26984361238448035
10
14.925005778082722
20
0.2668589090070099
0
LWPOLYLINE
8
scale-inner
420
1842203
90
2
70
0
43
0.03478260869565219
10
15.093895204753126
20
-0.11689244127225927
10
14.926943689396811
20
-0.11559950992886704
0
LWPOLYLINE
8
scale-inner
420
1842203
90
2
70
0
43
0.03478260869565219
10
15.086065765699301
20
-0.49995600595609696
10
14.919200850700063
20
-0.4944260607912745
0
LWPOLYLINE
8
scale-inner
420
1842203
90
2
70
0
43
0.03478260869565219
10
15.068722335231167
20
-0.8791720415262219
10
14.902049253549894
20
-0.8694476395345154
0
LWPOLYLINE
8
scale-inner
420
1842203
90
2
70
0
43
0.09739130434782613
10
15.042136628282863
20
-1.2543771167264977
10
14.660851372273159
20
-1.2225814010045366
0
LWPOLYLINE
8
scale-inner
420
1842203
90
2
70
0
43
0.03478260869565219
10
15.006576880763982
20
-1.6254189049644863
10
14.840591181475064
20
-1.6074403682387794
0
LWPOLYLINE
8
scale-inner
420
1842203
90
2
70
0
43
0.03478260869565219
10
14.96230770856437
20
-1.9921556990183311
10
14.796811664548796
20
-1.970120736653408
0
LWPOLYLINE
8
scale-inner
420
1842203
90
2
70
0
43
0.03478260869565219
10
14.909589984373603
20
-2.3544559441115784
10
14.744677043912175
20
-2.328413628170142
0
LWPOLYLINE
8
scale-inner
420
1842203
90
2
70
0
43
0.03478260869565219
10
14.848680730938478
20
-2.71219778879645
10
14.684441499418462
20
-2.6821985391234415
0
LWPOLYLINE
8
scale-inner
420
1842203
90
2
70
0
43
0.0556521739130435
10
14.779833029479255
20
-3.0652686530890136
10
14.412008167380856
20
-2.988983486851467
0
LWPOLYLINE
8
scale-inner
420
1842203
90
2
70
0
43
0.03478260869565219
10
14.703295942076082
20
-3.413564813303689
10
14.540664791868481
20
-3.375807838671416
0
LWPOLYLINE
8
scale-inner
420
1842203
90
2
70
0
43
0.03478260869565219
10
14.619314446921358
20
-3.7569910030411995
10
14.457612204572715
20
-3.7154354381834116
0
LWPOLYLINE
8
scale-inner
420
1842203
90
2
70
0
43
0.03478260869565219
10
14.528129385412097
20
-4.095460029791713
10
14.36743572858696
20
-4.050160705211823
0
LWPOLYLINE
8
scale-inner
420
1842203
90
2
70
0
43
0.03478260869565219
10
14.429977420129205
20
-4.428892406624628
10
14.270369408799608
20
-4.379905032020144
0
LWPOLYLINE
8
scale-inner
420
1842203
90
2
70
0
43
0.09739130434782613
10
14.32509100281858
20
-4.75721599844512
10
13.961981284741547
20
-4.636630980193782
0
LWPOLYLINE
8
scale-inner
420
1842203
90
2
70
0
43
0.03478260869565219
10
14.213698351551816
20
-5.080365682309611
10
14.056482573489312
20
-5.0241724506937775
0
LWPOLYLINE
8
scale-inner
420
1842203
90
2
70
0
43
0.03478260869565219
10
14.096023436302989
20
-5.3982830213034285
10
13.940109244421768
20
-5.338573349379573
0
LWPOLYLINE
8
scale-inner
420
1842203
90
2
70
0
43
0.03478260869565219
10
13.972285972232639
20
-5.710915951495613
10
13.817740423558002
20
-5.647748289388452
0
LWPOLYLINE
8
scale-inner
420
1842203
90
2
70
0
43
0.03478260869565219
10
13.842701420020767
20
-6.01821848149858
10
13.689589188396836
20
-5.951651788037294
0
LWPOLYLINE
8
scale-inner
420
1842203
90
2
70
0
43
0.0556521739130435
10
13.707480992637855
20
-6.3201504041729875
10
13.366343694552217
20
-6.162861181336757
0
LWPOLYLINE
8
scale-inner
420
1842203
90
2
70
0
43
0.03478260869565219
10
13.566831667986953
20
-6.616677020030697
10
13.416770794048912
20
-6.543490858332055
0
LWPOLYLINE
8
scale-inner
420
1842203
90
2
70
0
43
0.03478260869565219
10
13.420956206890683
20
-6.907768871902017
10
13.272508841523686
20
-6.83136298294818
0
LWPOLYLINE
8
scale-inner
420
1842203
90
2
70
0
43
0.03478260869565219
10
13.27005317593499
20
-7.193401490446205
10
13.12327492840326
20
-7.113836258072113
0
LWPOLYLINE
8
scale-inner
420
1842203
90
2
70
0
43
0.03478260869565219
10
13.114316974717088
20
-7.473555150097124
10
12.96926130405743
20
-7.3908911763195135
0
LWPOLYLINE
8
scale-inner
420
1842203
90
2
70
0
43
0.09739130434782613
10
12.953937867077698
20
-7.748214635048934
10
12.625583881335027
20
-7.551814344734591
0
LWPOLYLINE
8
scale-inner
420
1842203
90
2
70
0
43
0.03478260869565219
10
12.78910201592843
20
-8.01736901489955
10
12.647643503553613
20
-7.928689990164653
0
LWPOLYLINE
8
scale-inner
420
1842203
90
2
70
0
43
0.03478260869565219
10
12.619991521313917
20
-8.281011429581584
10
12.480403517045561
20
-8.189416292070874
0
LWPOLYLINE
8
scale-inner
420
1842203
90
2
70
0
43
0.03478260869565219
10
12.446784461374348
20
-8.539138883223886
10
12.309112276762551
20
-8.444688633168928
0
LWPOLYLINE
8
scale-inner
420
1842203
90
2
70
0
43
0.03478260869565219
10
12.26965493589928
20
-8.791752046597905
10
12.133941956800125
20
-8.694507676810954
0
LWPOLYLINE
8
scale-inner
420
1842203
90
2
70
0
43
0.0556521739130435
10
12.088773112186253
20
-9.038855067815765
10
11.787920504848957
20
-8.81390559699188
0
LWPOLYLINE
8
scale-inner
420
1842203
90
2
70
0
43
0.03478260869565219
10
11.904305272939078
20
-9.28045539095851
10
11.772633376611383
20
-9.17780554016126
0
LWPOLYLINE
8
scale-inner
420
1842203
90
2
70
0
43
0.03478260869565219
10
11.716413865961083
20
-9.516563582323762
10
11.586820210848918
20
-9.41130217103787
0
LWPOLYLINE
8
scale-inner
420
1842203
90
2
70
0
43
0.03478260869565219
10
11.52525755541637
20
-9.747193163994131
10
11.397778254172602
20
-9.639380790373894
0
LWPOLYLINE
8
scale-inner
420
1842203
90
2
70
0
43
0.03478260869565219
10
11.330991274449975
20
-9.972360454437784
10
11.205660726033095
20
-9.862057536141153
0
LWPOLYLINE
8
scale-inner
420
1842203
90
2
70
0
43
0.09739130434782613
10
11.133766278973715
20
-10.192084415863315
10
10.851549661020064
20
-9.933737373032432
0
LWPOLYLINE
8
scale-inner
420
1842203
90
2
70
0
43
0.03478260869565219
10
10.933730202438955
20
-10.40638650806178
10
10.812793704534856
20
-10.291282886807187
0
LWPOLYLINE
8
scale-inner
420
1842203
90
2
70
0
43
0.03478260869565219
10
10.731027111432628
20
-10.615290548477414
10
10.6123326847601
20
-10.49787626813593
0
LWPOLYLINE
8
scale-inner
420
1842203
90
2
70
0
43
0.03478260869565219
10
10.525797561944017
20
-10.818822578260049
10
10.409373151315608
20
-10.699157057908293
0
LWPOLYLINE
8
scale-inner
420
1842203
90
2
70
0
43
0.03478260869565219
10
10.318178656163479
20
-11.017010734059783
10
10.204050689923113
20
-10.895153081558732
0
LWPOLYLINE
8
scale-inner
420
1842203
90
2
70
0
43
0.0556521739130435
10
10.108304099684467
20
-11.209885125334612
10
9.856739311767097
20
-10.93090535322616
0
LWPOLYLINE
8
scale-inner
420
1842203
90
2
70
0
43
0.03478260869565219
10
9.89630425899094
20
-11.397477716950089
10
9.786842587894574
20
-11.271411771064534
0
LWPOLYLINE
8
scale-inner
420
1842203
90
2
70
0
43
0.03478260869565219
10
9.682306219121998
20
-11.579822216858405
10
9.575211551145419
20
-11.451739383339563
0
LWPOLYLINE
8
scale-inner
420
1842203
90
2
70
0
43
0.03478260869565219
10
9.466433841414133
20
-11.756953968652988
10
9.361726908352434
20
-11.626911904996488
0
LWPOLYLINE
8
scale-inner
420
1842203
90
2
70
0
43
0.03478260869565219
10
9.248807821230827
20
-11.928909848801586
10
9.146508019884148
20
-11.796965804617473
0
LWPOLYLINE
8
scale-inner
420
1842203
90
2
70
0
43
0.09739130434782613
10
9.029545745595456
20
-12.095728168369815
10
8.80066651478277
20
-11.789127920993446
0
LWPOLYLINE
8
scale-inner
420
1842203
90
2
70
0
43
0.03478260869565219
10
8.586568578886924
20
-12.414111983342499
10
8.491593715439834
20
-12.276801184552179
0
LWPOLYLINE
8
scale-inner
420
1842203
90
2
70
0
43
0.03478260869565219
10
8.138383047662682
20
-12.712437125288476
10
8.048365503223286
20
-12.5718265928084
0
LWPOLYLINE
8
scale-inner
420
1842203
90
2
70
0
43
0.03478260869565219
10
7.685823771953395
20
-12.991052661019125
10
7.600811923912662
20
-12.847360400114342
0
LWPOLYLINE
8
scale-inner
420
1842203
90
2
70
0
43
0.03478260869565219
10
7.229681073869085
20
-13.25032255701857
10
7.1497145579729615
20
-13.10376254717051
0
LWPOLYLINE
8
scale-inner
420
1842203
90
2
70
0
43
0.09739130434782613
10
6.770702734081449
20
-13.490623439322514
10
6.59908023196457
20
-13.148665648424574
0
LWPOLYLINE
8
scale-inner
420
1842203
90
2
70
0
43
0.03478260869565219
10
6.309595711742709
20
-13.712342551484557
10
6.2398061344949864
20
-13.560672201518544
0
LWPOLYLINE
8
scale-inner
420
1842203
90
2
70
0
43
0.03478260869565219
10
5.84702782416895
20
-13.915875894757404
10
5.782354647210085
20
-13.761954290252785
0
LWPOLYLINE
8
scale-inner
420
1842203
90
2
70
0
43
0.03478260869565219
10
5.383629383431913
20
-14.10162653585552
10
5.324081793397121
20
-13.94565036885467
0
LWPOLYLINE
8
scale-inner
420
1842203
90
2
70
0
43
0.03478260869565219
10
4.919994787701651
20
-14.270003068811326
10
4.86557539666909
20
-14.112164511953775
0
LWPOLYLINE
8
scale-inner
420
1842203
90
2
70
0
43
0.09739130434782613
10
4.456684065779961
20
-14.42141821849429
10
4.343716874551273
20
-14.055866816233872
0
LWPOLYLINE
8
scale-inner
420
1842203
90
2
70
0
43
0.03478260869565219
10
3.994224373772796
20
-14.556287574338977
10
3.9500448029709188
20
-14.395282463628197
0
LWPOLYLINE
8
scale-inner
420
1842203
90
2
70
0
43
0.03478260869565219
10
3.5331114432829267
20
-14.675028443728456
10
3.4940321796881277
20
-14.51270995646309
0
LWPOLYLINE
8
scale-inner
420
1842203
90
2
70
0
43
0.03478260869565219
10
3.073810980867782
20
-14.778058815311052
10
3.03981197701799
20
-14.614600723163704
0
LWPOLYLINE
8
scale-inner
420
1842203
90
2
70
0
43
0.03478260869565219
10
2.6167600188180775
20
-14.865796423293682
10
2.587816393296686
20
-14.701367877435896
0
LWPOLYLINE
8
scale-inner
420
1842203
90
2
70
0
43
0.09739130434782613
10
2.162368217567787
20
-14.938657904462126
10
2.107556913841669
20
-14.559995607722009
0
LWPOLYLINE
8
scale-inner
420
1842203
90
2
70
0
43
0.03478260869565219
10
1.7110191202635614
20
-14.997058040328728
10
1.6920937712362487
20
-14.831177627635055
0
LWPOLYLINE
8
scale-inner
420
1842203
90
2
70
0
43
0.03478260869565219
10
1.2630713601967591
20
-15.041409077408497
10
1.249100700222811
20
-14.875038103945212
0
LWPOLYLINE
8
scale-inner
420
1842203
90
2
70
0
43
0.03478260869565219
10
0.8188598219474416
20
-15.072120119176871
10
0.8098025251871276
20
-14.905409455070988
0
LWPOLYLINE
8
scale-inner
420
1842203
90
2
70
0
43
0.03478260869565219
10
0.3786967572065746
20
-15.089596583771788
10
0.3745080440468164
20
-14.922692614875618
0
LWPOLYLINE
8
scale-inner
420
1842203
90
2
70
0
43
0.09739130434782613
10
-0.057127143664887046
20
-15.094239721971846
10
-0.05567909554940759
20
-14.711633766522493
0
LWPOLYLINE
8
scale-inner
420
1842203
90
2
70
0
43
0.03478260869565219
10
-0.48834172320793107
20
-15.086446190414438
10
-0.48294024203986224
20
-14.919577067589335
0
LWPOLYLINE
8
scale-inner
420
1842203
90
2
70
0
43
0.03478260869565219
10
-0.9146963703827886
20
-15.066607675416007
10
-0.9045790386367566
20
-14.899957983698412
0
LWPOLYLINE
8
scale-inner
420
1842203
90
2
70
0
43
0.03478260869565219
10
-1.3359590748057566
20
-15.035110563123244
10
-1.3211822137657645
20
-14.86880925666706
0
LWPOLYLINE
8
scale-inner
420
1842203
90
2
70
0
43
0.03478260869565219
10
-1.7519155204535852
20
-14.99233565206202
10
-1.732537821923926
20
-14.826507473060612
0
LWPOLYLINE
8
scale-inner
420
1842203
90
2
70
0
43
0.09739130434782613
10
-2.162368217567757
20
-14.93865790446213
10
-2.1075569138416395
20
-14.559995607722012
0
LWPOLYLINE
8
scale-inner
420
1842203
90
2
70
0
43
0.03478260869565219
10
-2.5671356714851434
20
-14.874446233022747
10
-2.538740934098552
20
-14.709922012799778
0
LWPOLYLINE
8
scale-inner
420
1842203
90
2
70
0
43
0.03478260869565219
10
-2.9660515871229665
20
-14.8000633200477
10
-2.933244495224035
20
-14.63636183907589
0
LWPOLYLINE
8
scale-inner
420
1842203
90
2
70
0
43
0.03478260869565219
10
-3.3589641078547805
20
-14.715865466123267
10
-3.3218110641754235
20
-14.553095286125245
0
LWPOLYLINE
8
scale-inner
420
1842203
90
2
70
0
43
0.03478260869565219
10
-3.7457350875276765
20
-14.622202465735455
10
-3.7043040228155575
20
-14.46046827940477
0
LWPOLYLINE
8
scale-inner
420
1842203
90
2
70
0
43
0.09739130434782613
10
-4.126239394389764
20
-14.519417507430592
10
-4.021648252670635
20
-14.151382037587608
0
LWPOLYLINE
8
scale-inner
420
1842203
90
2
70
0
43
0.03478260869565219
10
-4.500364245718954
20
-14.40784709631354
10
-4.450586330854303
20
-14.248483865476071
0
LWPOLYLINE
8
scale-inner
420
1842203
90
2
70
0
43
0.03478260869565219
10
-4.868008571968968
20
-14.287820996853673
10
-4.814164193375308
20
-14.129785358325234
0
LWPOLYLINE
8
scale-inner
420
1842203
90
2
70
0
43
0.03478260869565219
10
-5.229082409277447
20
-14.15966219413024
10
-5.171244242236442
20
-14.003044102631952
0
LWPOLYLINE
8
scale-inner
420
1842203
90
2
70
0
43
0.03478260869565219
10
-5.58350631920839
20
-14.023686871798585
10
-5.5217479176594075
20
-13.868572784787304
0
LWPOLYLINE
8
scale-inner
420
1842203
90
2
70
0
43
0.09739130434782613
10
-5.931210834634237
20
-13.880204405195677
10
-5.780867615621127
20
-13.528371589094856
0
LWPOLYLINE
8
scale-inner
420
1842203
90
2
70
0
43
0.03478260869565219
10
-6.272135930693475
20
-13.729517368130603
10
-6.202760690972696
20
-13.577657049861106
0
LWPOLYLINE
8
scale-inner
420
1842203
90
2
70
0
43
0.03478260869565219
10
-6.6062305197927245
20
-13.571921552022587
10
-6.533159905407829
20
-13.421804379571721
0
LWPOLYLINE
8
scale-inner
420
1842203
90
2
70
0
43
0.03478260869565219
10
-6.933451969655298
20
-13.407705996156801
10
-6.85676200346157
20
-13.259405189562793
0
LWPOLYLINE
8
scale-inner
420
1842203
90
2
70
0
43
0.03478260869565219
10
-7.253765643451529
20
-13.237153027927805
10
-7.1735327314175
20
-13.090738684444085
0
LWPOLYLINE
8
scale-inner
420
1842203
90
2
70
0
43
0.09739130434782613
10
-7.567144461078987
20
-13.060538312032074
10
-7.375333903549549
20
-12.72948223821843
0
LWPOLYLINE
8
scale-inner
420
1842203
90
2
70
0
43
0.03478260869565219
10
-7.873568480694137
20
-12.878130907655654
10
-7.78648001404706
20
-12.735687658857088
0
LWPOLYLINE
8
scale-inner
420
1842203
90
2
70
0
43
0.03478260869565219
10
-8.173024499628957
20
-12.69019333278106
10
-8.082623790816054
20
-12.549828835854829
0
LWPOLYLINE
8
scale-inner
420
1842203
90
2
70
0
43
0.03478260869565219
10
-8.465505673858674
20
-12.496981634809368
10
-8.37186987068554
20
-12.358754226111415
0
LWPOLYLINE
8
scale-inner
420
1842203
90
2
70
0
43
0.03478260869565219
10
-8.75101115521817
20
-12.298745466759737
10
-8.654217414871834
20
-12.162710721268024
0
LWPOLYLINE
8
scale-inner
420
1842203
90
2
70
0
43
0.09739130434782613
10
-9.029545745595435
20
-12.095728168369831
10
-8.800666514782751
20
-11.789127920993462
0
LWPOLYLINE
8
scale-inner
420
1842203
90
2
70
0
43
0.03478260869565219
10
-9.30111956736011
20
-11.888166851477433
10
-9.198241152927231
20
-11.7566734600275
0
LWPOLYLINE
8
scale-inner
420
1842203
90
2
70
0
43
0.03478260869565219
10
-9.565747749315712
20
-11.676292489114745
10
-9.45994231866971
20
-11.54714261107747
0
LWPOLYLINE
8
scale-inner
420
1842203
90
2
70
0
43
0.03478260869565219
10
-9.823450127491723
20
-11.460330007795537
10
-9.714794286003206
20
-11.333568861296891
0
LWPOLYLINE
8
scale-inner
420
1842203
90
2
70
0
43
0.03478260869565219
10
-10.074250960119457
20
-11.24049838251971
10
-9.962821044842046
20
-11.116168763633068
0
LWPOLYLINE
8
scale-inner
420
1842203
90
2
70
0
43
0.09739130434782613
10
-10.318178656163447
20
-11.017010734059811
10
-10.056635400195942
20
-10.737753613744905
0
LWPOLYLINE
8
scale-inner
420
1842203
90
2
70
0
43
0.03478260869565219
10
-10.555265516805111
20
-10.790074428132597
10
-10.43851516514877
20
-10.670726887146827
0
LWPOLYLINE
8
scale-inner
420
1842203
90
2
70
0
43
0.03478260869565219
10
-10.785547489300827
20
-10.559891176093277
10
-10.666250020167793
20
-10.443089660650703
0
LWPOLYLINE
8
scale-inner
420
1842203
90
2
70
0
43
0.03478260869565219
10
-11.009063932661945
20
-10.326657136821089
10
-10.887294178646846
20
-10.212435391263025
0
LWPOLYLINE
8
scale-inner
420
1842203
90
2
70
0
43
0.03478260869565219
10
-11.225857394625594
20
-10.09056301949628
10
-11.101689717708341
20
-9.97895267875582
0
LWPOLYLINE
8
scale-inner
420
1842203
90
2
70
0
43
0.041739130434782626
10
-11.435973399410019
20
-9.851794186993683
10
-11.240965298121003
20
-9.683799770462867
0
LWPOLYLINE
8
scale-inner
420
1842203
90
2
70
0
43
0.03478260869565219
10
-11.639460245768115
20
-9.610530759644842
10
-11.51071776414888
20
-9.504229990232059
0
LWPOLYLINE
8
scale-inner
420
1842203
90
2
70
0
43
0.03478260869565219
10
-11.836368814875096
20
-9.366947719142471
10
-11.70544835444038
20
-9.263341188504722
0
LWPOLYLINE
8
scale-inner
420
1842203
90
2
70
0
43
0.03478260869565219
10
-12.026752387605352
20
-9.12121501238322
10
-11.893726120449767
20
-9.02032649768566
0
LWPOLYLINE
8
scale-inner
420
1842203
90
2
70
0
43
0.03478260869565219
10
-12.210666470773484
20
-8.873497655063884
10
-12.07560595503834
20
-8.775349108255561
0
LWPOLYLINE
8
scale-inner
420
1842203
90
2
70
0
43
0.041739130434782626
10
-12.388168631932857
20
-8.623955834864347
10
-12.176923540764141
20
-8.47689872007218
0
LWPOLYLINE
8
scale-inner
420
1842203
90
2
70
0
43
0.03478260869565219
10
-12.559318342343019
20
-8.372745014066902
10
-12.420401435828639
20
-8.280135223894893
0
LWPOLYLINE
8
scale-inner
420
1842203
90
2
70
0
43
0.03478260869565219
10
-12.724176827733901
20
-8.120016031477748
10
-12.583436444006914
20
-8.030201642098268
0
LWPOLYLINE
8
scale-inner
420
1842203
90
2
70
0
43
0.03478260869565219
10
-12.882806926511995
20
-7.865915203529123
10
-12.740311956906883
20
-7.778911388736509
0
LWPOLYLINE
8
scale-inner
420
1842203
90
2
70
0
43
0.03478260869565219
10
-13.035272955068326
20
-7.610584424455211
10
-12.891091579524753
20
-7.526404788571038
0
LWPOLYLINE
8
scale-inner
420
1842203
90
2
70
0
43
0.041739130434782626
10
-13.181640579864256
20
-7.354161265445022
10
-12.95686507439778
20
-7.228756896716633
0
LWPOLYLINE
8
scale-inner
420
1842203
90
2
70
0
43
0.03478260869565219
10
-13.321976695984418
20
-7.096779072688125
10
-13.174624129482185
20
-7.018282567693101
0
LWPOLYLINE
8
scale-inner
420
1842203
90
2
70
0
43
0.03478260869565219
10
-13.456349311860903
20
-6.838567064237697
10
-13.307510468189083
20
-6.762926607036116
0
LWPOLYLINE
8
scale-inner
420
1842203
90
2
70
0
43
0.03478260869565219
10
-13.584827439885244
20
-6.579650425625737
10
-13.434567517169688
20
-6.506873810035673
0
LWPOLYLINE
8
scale-inner
420
1842203
90
2
70
0
43
0.03478260869565219
10
-13.707480992637837
20
-6.320150404173021
10
-13.555864415710888
20
-6.250244082912474
0
LWPOLYLINE
8
scale-inner
420
1842203
90
2
70
0
43
0.041739130434782626
10
-13.82438068447661
20
-6.060184401944053
10
-13.588645068921979
20
-5.956845139739631
0
LWPOLYLINE
8
scale-inner
420
1842203
90
2
70
0
43
0.03478260869565219
10
-13.935597938237645
20
-5.799866067305581
10
-13.781458190901088
20
-5.735714540104344
0
LWPOLYLINE
8
scale-inner
420
1842203
90
2
70
0
43
0.03478260869565219
10
-14.041204796812528
20
-5.539305385051892
10
-13.88589694642292
20
-5.478035884004568
0
LWPOLYLINE
8
scale-inner
420
1842203
90
2
70
0
43
0.03478260869565219
10
-14.141273839377009
20
-5.278608765067504
10
-13.984859138961628
20
-5.220222793762785
0
LWPOLYLINE
8
scale-inner
420
1842203
90
2
70
0
43
0.03478260869565219
10
-14.235878102055821
20
-5.0178791295031795
10
-14.078416996799334
20
-4.96237705312189
0
LWPOLYLINE
8
scale-inner
420
1842203
90
2
70
0
43
0.09739130434782613
10
-14.325091002818578
20
-4.757215998445127
10
-13.961981284741546
20
-4.636630980193789
0
LWPOLYLINE
8
scale-inner
420
1842203
90
2
70
0
43
0.03478260869565219
10
-14.525020474889821
20
-4.106472512866426
10
-14.364361205299772
20
-4.061051380713858
0
LWPOLYLINE
8
scale-inner
420
1842203
90
2
70
0
43
0.041739130434782626
10
-14.692872798045974
20
-3.45815344300057
10
-14.442327511977384
20
-3.3991844411209042
0
LWPOLYLINE
8
scale-inner
420
1842203
90
2
70
0
43
0.03478260869565219
10
-14.829809036951852
20
-2.8135565077739573
10
-14.665778542664054
20
-2.7824361431403424
0
LWPOLYLINE
8
scale-inner
420
1842203
90
2
70
0
43
0.041739130434782626
10
-14.936988760168903
20
-2.173868228178482
10
-14.682280768521583
20
-2.136799069233825
0
LWPOLYLINE
8
scale-inner
420
1842203
90
2
70
0
43
0.03478260869565219
10
-15.015565578280919
20
-1.5401709837681072
10
-14.849480456235238
20
-1.5231353626670052
0
LWPOLYLINE
8
scale-inner
420
1842203
90
2
70
0
43
0.041739130434782626
10
-15.066683309040148
20
-0.913449703041758
10
-14.809763744591843
20
-0.8978734083100496
0
LWPOLYLINE
8
scale-inner
420
1842203
90
2
70
0
43
0.03478260869565219
10
-15.091472698100434
20
-0.29459819650713276
10
-14.924547977759662
20
-0.29133968605234867
0
LWPOLYLINE
8
scale-inner
420
1842203
90
2
70
0
43
0.041739130434782626
10
-15.091048631707086
20
0.3155748569638481
10
-14.833713585765022
20
0.3101936225449007
0
LWPOLYLINE
8
scale-inner
420
1842203
90
2
70
0
43
0.03478260869565219
10
-15.066507784666776
20
0.916340258567477
10
-14.899859197827126
20
0.9062047439985363
0
LWPOLYLINE
8
scale-inner
420
1842203
90
2
70
0
43
0.09739130434782613
10
-15.01892665311704
20
1.507042959967168
10
-14.638229719201581
20
1.4688427178733492
0
LWPOLYLINE
8
scale-inner
420
1842203
90
2
70
0
43
0.03478260869565219
10
-14.949359927136195
20
2.087097042264813
10
-14.784007096764322
20
2.0640119466566182
0
LWPOLYLINE
8
scale-inner
420
1842203
90
2
70
0
43
0.041739130434782626
10
-14.858839163154562
20
2.655980989841655
10
-14.605463791302514
20
2.6106907647073903
0
LWPOLYLINE
8
scale-inner
420
1842203
90
2
70
0
43
0.03478260869565219
10
-14.748371720512527
20
3.2132332452659607
10
-14.585241993270056
20
3.1776921107732874
0
LWPOLYLINE
8
scale-inner
420
1842203
90
2
70
0
43
0.041739130434782626
10
-14.618939930418914
20
3.7584480315283617
10
-14.36965535978182
20
3.694358356882949
0
LWPOLYLINE
8
scale-inner
420
1842203
90
2
70
0
43
0.03478260869565219
10
-14.47150046904632
20
4.2912714280604725
10
-14.31143317693831
20
4.243806260322039
0
LWPOLYLINE
8
scale-inner
420
1842203
90
2
70
0
43
0.041739130434782626
10
-14.306983909605684
20
4.81139768728174
10
-14.063018864397671
20
4.729352941742932
0
LWPOLYLINE
8
scale-inner
420
1842203
90
2
70
0
43
0.03478260869565219
10
-14.126294431011015
20
5.318565778786912
10
-13.970045415787688
20
5.259737848405423
0
LWPOLYLINE
8
scale-inner
420
1842203
90
2
70
0
43
0.041739130434782626
10
-13.930309663214173
20
5.812556148705824
10
-13.69276772927337
20
5.713439484246515
0
LWPOLYLINE
8
scale-inner
420
1842203
90
2
70
0
43
0.03478260869565219
10
-13.719880651492154
20
6.293187682224902
10
-13.568126923630503
20
6.223579591952863
0
LWPOLYLINE
8
scale-inner
420
1842203
90
2
70
0
43
0.09739130434782613
10
-13.495831923932968
20
6.760314857744999
10
-13.153742109344698
20
6.5889556655678065
0
LWPOLYLINE
8
scale-inner
420
1842203
90
2
70
0
43
0.03478260869565219
10
-13.25896164811909
20
7.213825081647263
10
-13.112306082463135
20
7.134033946717616
0
LWPOLYLINE
8
scale-inner
420
1842203
90
2
70
0
43
0.041739130434782626
10
-13.010041864570736
20
7.653636193144589
10
-12.788192488650413
20
7.523125128641849
0
LWPOLYLINE
8
scale-inner
420
1842203
90
2
70
0
43
0.03478260869565219
10
-12.749818785906546
20
8.07969412920072
10
-12.608794779978957
20
7.990325734880556
0
LWPOLYLINE
8
scale-inner
420
1842203
90
2
70
0
43
0.041739130434782626
10
-12.479013151924034
20
8.491970739999227
10
-12.266218965043283
20
8.347164256775457
0
LWPOLYLINE
8
scale-inner
420
1842203
90
2
70
0
43
0.03478260869565219
10
-12.198320631913624
20
8.890461745934596
10
-12.063396671817566
20
8.792125561631837
0
LWPOLYLINE
8
scale-inner
420
1842203
90
2
70
0
43
0.041739130434782626
10
-11.90841226651177
20
9.27518482757557
10
-11.705348059875972
20
9.117022848777726
0
LWPOLYLINE
8
scale-inner
420
1842203
90
2
70
0
43
0.03478260869565219
10
-11.609934942283466
20
9.646177840514937
10
-11.481519036017461
20
9.539482783604555
0
LWPOLYLINE
8
scale-inner
420
1842203
90
2
70
0
43
0.041739130434782626
10
-11.303511893014964
20
10.003497147466245
10
-11.110762547142196
20
9.832915867076233
0
LWPOLYLINE
8
scale-inner
420
1842203
90
2
70
0
43
0.03478260869565219
10
-10.989743222402264
20
10.347216060398058
10
-10.868187172127111
20
10.232766915391494
0
LWPOLYLINE
8
scale-inner
420
1842203
90
2
70
0
43
0.09739130434782613
10
-10.669206443450108
20
10.677423385908172
10
-10.398765401014526
20
10.406774061957393
0
LWPOLYLINE
8
scale-inner
420
1842203
90
2
70
0
43
0.03478260869565219
10
-10.342457030457895
20
10.994222067432878
10
-10.228060524432149
20
10.872616477263962
0
LWPOLYLINE
8
scale-inner
420
1842203
90
2
70
0
43
0.041739130434782626
10
-10.010028979969345
20
11.297727918261701
10
-9.839336317696054
20
11.105077201678732
0
LWPOLYLINE
8
scale-inner
420
1842203
90
2
70
0
43
0.03478260869565219
10
-9.67243537751058
20
11.588068439683026
10
-9.565449889566228
20
11.459894395818687
0
LWPOLYLINE
8
scale-inner
420
1842203
90
2
70
0
43
0.041739130434782626
10
-9.330168967337972
20
11.865381718925839
10
-9.171069389936005
20
11.663051276272265
0
LWPOLYLINE
8
scale-inner
420
1842203
90
2
70
0
43
0.03478260869565219
10
-8.983702722774517
20
12.12981540188101
10
-8.884335212749301
20
11.995649168787068
0
LWPOLYLINE
8
scale-inner
420
1842203
90
2
70
0
43
0.041739130434782626
10
-8.63349041502765
20
12.381525735890618
10
-8.48627071500471
20
12.170393920478938
0
LWPOLYLINE
8
scale-inner
420
1842203
90
2
70
0
43
0.03478260869565219
10
-8.279967178665723
20
12.62067667817833
10
-8.18838359147191
20
12.481081095483383
0
LWPOLYLINE
8
scale-inner
420
1842203
90
2
70
0
43
0.03478260869565219
10
-7.923550072179211
20
12.847439065765785
10
-7.8724259768896365
20
12.764545199627248
0
LWPOLYLINE
8
scale-inner
420
1842203
90
2
70
0
43
0.03478260869565219
10
-7.564638632278141
20
13.061989842973432
10
-7.515830294759626
20
12.977711658659521
0
LWPOLYLINE
8
scale-inner
420
1842203
90
2
70
0
43
0.09739130434782613
10
-7.2036154207735805
20
13.264511342845958
10
-7.1438567653257365
20
13.15447363029189
0
LWPOLYLINE
8
scale-inner
420
1842203
90
2
70
0
43
0.03478260869565219
10
-6.8408465630699435
20
13.455190619067059
10
-6.7651808926428085
20
13.30636459153813
0
LWPOLYLINE
8
scale-inner
420
1842203
90
2
70
0
43
0.041739130434782626
10
-6.476682277449706
20
13.634218825142309
10
-6.366240824897635
20
13.401725880922351
0
LWPOLYLINE
8
scale-inner
420
1842203
90
2
70
0
43
0.03478260869565219
10
-6.1114573944716595
20
13.801790637828619
10
-6.043859398116067
20
13.649130914784399
0
LWPOLYLINE
8
scale-inner
420
1842203
90
2
70
0
43
0.041739130434782626
10
-5.745491865927123
20
13.958103721976753
10
-5.647518792659592
20
13.720087839169762
0
LWPOLYLINE
8
scale-inner
420
1842203
90
2
70
0
43
0.03478260869565219
10
-5.379091262907171
20
14.103358234130328
10
-5.319593868404295
20
13.947362913051142
0
LWPOLYLINE
8
scale-inner
420
1842203
90
2
70
0
43
0.041739130434782626
10
-5.012547262630228
20
14.237756362390607
10
-4.927072481414193
20
13.994971796715715
0
LWPOLYLINE
8
scale-inner
420
1842203
90
2
70
0
43
0.03478260869565219
10
-4.646138123764118
20
14.361501900212305
10
-4.594747823924689
20
14.202651287265288
0
LWPOLYLINE
8
scale-inner
420
1842203
90
2
70
0
43
0.041739130434782626
10
-4.280129150051615
20
14.474799851941803
10
-4.2071436830806626
20
14.227973181654924
0
LWPOLYLINE
8
scale-inner
420
1842203
90
2
70
0
43
0.03478260869565219
10
-3.914773142113981
20
14.577856068046462
10
-3.87147237054467
20
14.41661239116972
0
LWPOLYLINE
8
scale-inner
420
1842203
90
2
70
0
43
0.09739130434782613
10
-3.5503108373644214
20
14.670876908112506
10
-3.4603182246132995
20
14.299002273808304
0
LWPOLYLINE
8
scale-inner
420
1842203
90
2
70
0
43
0.03478260869565219
10
-3.1869713380137576
20
14.754068929809662
10
-3.151720682893866
20
14.590876186512519
0
LWPOLYLINE
8
scale-inner
420
1842203
90
2
70
0
43
0.041739130434782626
10
-2.824972527194911
20
14.827638602133856
10
-2.776800630541992
20
14.574795267385367
0
LWPOLYLINE
8
scale-inner
420
1842203
90
2
70
0
43
0.03478260869565219
10
-2.4645214732697354
20
14.891792041345743
10
-2.4372617375282952
20
14.727075961503683
0
LWPOLYLINE
8
scale-inner
420
1842203
90
2
70
0
43
0.041739130434782626
10
-2.1058148224156823
20
14.946734768122115
10
-2.0699061213507837
20
14.691860585942539
0
LWPOLYLINE
8
scale-inner
420
1842203
90
2
70
0
43
0.03478260869565219
10
-1.7490391796174332
20
14.992671484530675
10
-1.7296932959012972
20
14.826839590932154
0
LWPOLYLINE
8
scale-inner
420
1842203
90
2
70
0
43
0.041739130434782626
10
-1.3943714782130332
20
15.029805869526127
10
-1.3705944261894678
20
14.773515145248123
0
LWPOLYLINE
8
scale-inner
420
1842203
90
2
70
0
43
0.03478260869565219
10
-1.0419793381649756
20
15.058340391747468
10
-1.030454146879572
20
14.891782143326491
0
LWPOLYLINE
8
scale-inner
420
1842203
90
2
70
0
43
0.03478260869565219
10
-0.692021413243045
20
15.078476138473315
10
-0.6875563731599029
20
14.981187240958608
0
LWPOLYLINE
8
scale-inner
420
1842203
90
2
70
0
43
0.03478260869565219
10
-0.3446477273208068
20
15.090412659664036
10
-0.34242400145394436
20
14.993046745680548
0
LWPOLYLINE
8
scale-inner
420
1842203
90
2
70
0
43
0.0904347826086957
10
0
20
15.094347826086956
10
0
20
14.969130434782608
0
LWPOLYLINE
8
scale-inner
420
1842203
90
2
70
0
43
0.03478260869565219
10
0.6805903409586187
20
15.078996421602131
10
0.676199056101784
20
14.981704167132017
0
LWPOLYLINE
8
scale-inner
420
1842203
90
2
70
0
43
0.03478260869565219
10
1.3487702151731757
20
15.033966715459954
10
1.3338516518576098
20
14.8676780609467
0
LWPOLYLINE
8
scale-inner
420
1842203
90
2
70
0
43
0.03478260869565219
10
2.003673967070574
20
14.960769596801486
10
1.981511602714348
20
14.79529056563025
0
LWPOLYLINE
8
scale-inner
420
1842203
90
2
70
0
43
0.03478260869565219
10
2.6445410004855723
20
14.860879489170445
10
2.6152900933165637
20
14.696505328850098
0
LWPOLYLINE
8
scale-inner
420
1842203
90
2
70
0
43
0.09739130434782613
10
3.2707076755577345
20
14.735732339993955
10
3.187802391273643
20
14.362213762375076
0
LWPOLYLINE
8
scale-inner
420
1842203
90
2
70
0
43
0.03478260869565219
10
3.881599750698863
20
14.586724089742376
10
3.838665905485614
20
14.425382324887662
0
LWPOLYLINE
8
scale-inner
420
1842203
90
2
70
0
43
0.03478260869565219
10
4.476725338771251
20
14.415209555746994
10
4.427208890630912
20
14.25576488975031
0
LWPOLYLINE
8
scale-inner
420
1842203
90
2
70
0
43
0.03478260869565219
10
5.055668347352611
20
14.222501673632276
10
4.999748289588882
20
14.065188523225421
0
LWPOLYLINE
8
scale-inner
420
1842203
90
2
70
0
43
0.03478260869565219
10
5.618082373912249
20
14.009871046331316
10
5.555941531339956
20
13.854909774280411
0
LWPOLYLINE
8
scale-inner
420
1842203
90
2
70
0
43
0.09739130434782613
10
6.163685027820622
20
13.778545756817586
10
6.00744909659148
20
13.42928976505564
0
LWPOLYLINE
8
scale-inner
420
1842203
90
2
70
0
43
0.03478260869565219
10
6.692252652311536
20
13.529711406106387
10
6.6182305588562365
20
13.380061114320089
0
LWPOLYLINE
8
scale-inner
420
1842203
90
2
70
0
43
0.03478260869565219
10
7.203615420773554
20
13.264511342845974
10
7.1239372135097625
20
13.117794392773881
0
LWPOLYLINE
8
scale-inner
420
1842203
90
2
70
0
43
0.03478260869565219
10
7.6976527830335515
20
12.984047055011462
10
7.612510095915284
20
12.840432282158844
0
LWPOLYLINE
8
scale-inner
420
1842203
90
2
70
0
43
0.03478260869565219
10
8.174289238589237
20
12.68937869790244
10
8.083874540671264
20
12.549023211541448
0
LWPOLYLINE
8
scale-inner
420
1842203
90
2
70
0
43
0.09739130434782613
10
8.633490415027634
20
12.381525735890628
10
8.414650320398941
20
12.06768114541381
0
LWPOLYLINE
8
scale-inner
420
1842203
90
2
70
0
43
0.03478260869565219
10
9.07525943112221
20
12.061467678219072
10
8.974879224838519
20
11.928057429970776
0
LWPOLYLINE
8
scale-inner
420
1842203
90
2
70
0
43
0.03478260869565219
10
9.499633525320966
20
11.730144891666681
10
9.394559375085542
20
11.60039935955273
0
LWPOLYLINE
8
scale-inner
420
1842203
90
2
70
0
43
0.03478260869565219
10
9.906680931514366
20
11.388459475103105
10
9.797104485459075
20
11.262493278760115
0
LWPOLYLINE
8
scale-inner
420
1842203
90
2
70
0
43
0.03478260869565219
10
10.296497985101457
20
11.037276182903899
10
10.182609825805464
20
10.915194377038326
0
LWPOLYLINE
8
scale-inner
420
1842203
90
2
70
0
43
0.09739130434782613
10
10.669206443450102
20
10.677423385908178
10
10.39876540101452
20
10.406774061957398
0
LWPOLYLINE
8
scale-inner
420
1842203
90
2
70
0
43
0.03478260869565219
10
11.024951005873033
20
10.309694060106498
10
10.903005527108876
20
10.19565994082543
0
LWPOLYLINE
8
scale-inner
420
1842203
90
2
70
0
43
0.03478260869565219
10
11.363897019213349
20
9.934846794571618
10
11.238202504843503
20
9.824958809748175
0
LWPOLYLINE
8
scale-inner
420
1842203
90
2
70
0
43
0.03478260869565219
10
11.686228356052055
20
9.553606811309583
10
11.556968578746298
20
9.447935669922282
0
LWPOLYLINE
8
scale-inner
420
1842203
90
2
70
0
43
0.03478260869565219
10
11.992145453416875
20
9.166666990732729
10
11.859501968838366
20
9.065275737904392
0
LWPOLYLINE
8
scale-inner
420
1842203
90
2
70
0
43
0.09739130434782613
10
12.281863500687098
20
8.774688897356196
10
11.97054512984271
20
8.552269730098844
0
LWPOLYLINE
8
scale-inner
420
1842203
90
2
70
0
43
0.03478260869565219
10
12.555610766155405
20
8.378303801110249
10
12.416734868635352
20
8.285632525953227
0
LWPOLYLINE
8
scale-inner
420
1842203
90
2
70
0
43
0.03478260869565219
10
12.813627052426723
20
7.978113690354009
10
12.671897271969545
20
7.889868863407673
0
LWPOLYLINE
8
scale-inner
420
1842203
90
2
70
0
43
0.03478260869565219
10
13.056162271506695
20
7.574692273286168
10
12.911749842084262
20
7.490909635588731
0
LWPOLYLINE
8
scale-inner
420
1842203
90
2
70
0
43
0.03478260869565219
10
13.283475131063206
20
7.168585964980918
10
13.136548425117176
20
7.089295213748015
0
LWPOLYLINE
8
scale-inner
420
1842203
90
2
70
0
43
0.09739130434782613
10
13.495831923932952
20
6.7603148577450325
10
13.153742109344682
20
6.588955665567839
0
LWPOLYLINE
8
scale-inner
420
1842203
90
2
70
0
43
0.03478260869565219
10
13.693505413494972
20
6.350373672901457
10
13.542043418542006
20
6.280133056189351
0
LWPOLYLINE
8
scale-inner
420
1842203
90
2
70
0
43
0.03478260869565219
10
13.876773808046844
20
5.939232692461301
10
13.723284706388002
20
5.873539650035252
0
LWPOLYLINE
8
scale-inner
420
1842203
90
2
70
0
43
0.03478260869565219
10
14.045919817797886
20
5.527338669458263
10
13.890559815204504
20
5.466201530619309
0
LWPOLYLINE
8
scale-inner
420
1842203
90
2
70
0
43
0.03478260869565219
10
14.201229788539923
20
5.115115715991414
10
14.044151923551608
20
5.058538118994533
0
LWPOLYLINE
8
scale-inner
420
1842203
90
2
70
0
43
0.09739130434782613
10
14.342992906472494
20
4.7029661682576185
10
13.979429414301633
20
4.583756264519775
0
LWPOLYLINE
8
scale-inner
420
1842203
90
2
70
0
43
0.03478260869565219
10
14.47150046904631
20
4.291271428060502
10
14.3114331769383
20
4.243806260322067
0
LWPOLYLINE
8
scale-inner
420
1842203
90
2
70
0
43
0.03478260869565219
10
14.58704521704954
20
3.880392780460266
10
14.4256999002495
20
3.8374722853801395
0
LWPOLYLINE
8
scale-inner
420
1842203
90
2
70
0
43
0.03478260869565219
10
14.689920723497437
20
3.4706721873804987
10
14.527437514757539
20
3.432283555875642
0
LWPOLYLINE
8
scale-inner
420
1842203
90
2
70
0
43
0.03478260869565219
10
14.780420835197644
20
3.0624330571216367
10
14.61693661707062
20
3.028559902933927
0
SOLID
8
scale-outer-unit-box
420
16382974
10
16.305833078800937
20
3.258494741749223
11
16.42495777764062
21
2.5920536989902563
12
15.96871090873136
22
2.51050069224511
13
15.96871090873136
23
2.51050069224511
0
SOLID
8
scale-outer-unit-box
420
16382974
10
16.305833078800937
20
3.258494741749223
11
15.96871090873136
21
2.51050069224511
12
15.849586209891676
22
3.176941735004077
13
15.849586209891676
23
3.176941735004077
0
TEXT
8
scale-outer
420
461327
10
16.13727199376615
20
2.8844977169971666
11
16.13727199376615
21
2.8844977169971666
40
0.5336509827278144
50
-79.86554986188827
72
1
73
2
1
10
0
TEXT
8
scale-outer
420
16382974
10
16.336340105215804
20
-1.3623018927054718
11
16.336340105215804
21
-1.3623018927054718
40
0.5336509827278144
50
-94.76691651884931
72
1
73
2
1
11
0
TEXT
8
scale-outer
420
16382974
10
15.557600920882324
20
-5.166519918350514
11
15.557600920882324
21
-5.166519918350514
40
0.5336509827278144
50
-108.37079843903325
72
1
73
2
1
12
0
TEXT
8
scale-outer
420
16382974
10
14.068475770956521
20
-8.414859711377279
11
14.068475770956521
21
-8.414859711377279
40
0.5336509827278144
50
-120.88515669234948
72
1
73
2
1
13
0
TEXT
8
scale-outer
420
16382974
10
12.091699276505024
20
-11.068996480563136
11
12.091699276505024
21
-11.068996480563136
40
0.5336509827278144
50
-132.4716427060539
72
1
73
2
1
14
0
TEXT
8
scale-outer
420
16382974
10
9.806434680183514
20
-13.13642696258938
11
9.806434680183514
21
-13.13642696258938
40
0.5336509827278144
50
-143.25840312193355
72
1
73
2
1
15
0
TEXT
8
scale-outer
420
16382974
10
7.353244113425899
20
-14.651336986381773
11
7.353244113425899
21
-14.651336986381773
40
0.5336509827278144
50
-153.34874361802122
72
1
73
2
1
16
0
TEXT
8
scale-outer
420
16382974
10
4.840130656916428
20
-15.662215989575962
11
4.840130656916428
21
-15.662215989575962
40
0.5336509827278144
50
-162.8271615580668
72
1
73
2
1
17
0
TEXT
8
scale-outer
420
16382974
10
2.3484152223745096
20
-16.223958223056137
11
2.3484152223745096
21
-16.223958223056137
40
0.5336509827278144
50
-171.76365169907842
72
1
73
2
1
18
0
TEXT
8
scale-outer
420
16382974
10
-0.062042279711406544
20
-16.392926073025503
11
-0.062042279711406544
21
-16.392926073025503
40
0.5336509827278144
50
-180.2168462049067
72
1
73
2
1
19
0
TEXT
8
scale-outer
420
16382974
10
-2.3484152223744768
20
-16.22395822305614
11
-2.3484152223744768
21
-16.22395822305614
40
0.5336509827278144
50
-188.23634830092146
72
1
73
2
1
20
0
TEXT
8
scale-outer
420
16382974
10
-4.4812550083841245
20
-15.768646994272634
11
-4.4812550083841245
21
-15.768646994272634
40
0.5336509827278144
50
-195.86449596609918
72
1
73
2
1
21
0
TEXT
8
scale-outer
420
16382974
10
-6.441523556443507
20
-15.074436929846984
11
-6.441523556443507
21
-15.074436929846984
40
0.5336509827278144
50
-203.1377149578825
72
1
73
2
1
22
0
TEXT
8
scale-outer
420
16382974
10
-8.218210523965842
20
-14.184247962579061
11
-8.218210523965842
21
-14.184247962579061
40
0.5336509827278144
50
-210.08757082822171
72
1
73
2
1
23
0
TEXT
8
scale-outer
420
16382974
10
-9.806434680183491
20
-13.136426962589397
11
-9.806434680183491
21
-13.136426962589397
40
0.5336509827278144
50
-216.7415968780664
72
1
73
2
1
24
0
TEXT
8
scale-outer
420
16382974
10
-11.205939685225871
20
-11.964898254946888
11
-11.205939685225871
21
-11.964898254946888
40
0.5336509827278144
50
-223.1239529838217
72
1
73
2
1
25
0
TEXT
8
scale-outer
420
16382974
10
-15.557600920882322
20
-5.166519918350521
11
-15.557600920882322
21
-5.166519918350521
40
0.5336509827278144
50
-251.62920156096675
72
1
73
2
1
30
0
TEXT
8
scale-outer
420
16382974
10
-16.311133177668715
20
1.6367067362560732
11
-16.311133177668715
21
1.6367067362560732
40
0.5336509827278144
50
-275.7300458279875
72
1
73
2
1
35
0
TEXT
8
scale-outer
420
16382974
10
-14.656993601404746
20
7.341962479373719
11
-14.656993601404746
21
7.341962479373719
40
0.5336509827278144
50
-296.6071467399547
72
1
73
2
1
40
0
TEXT
8
scale-outer
420
16382974
10
-11.587169390899064
20
11.596093307091099
11
-11.587169390899064
21
11.596093307091099
40
0.5336509827278144
50
-315.02205482101203
72
1
73
2
1
45
0
TEXT
8
scale-outer
420
16382974
10
-7.823403975713543
20
14.405770535203617
11
-7.823403975713543
21
14.405770535203617
40
0.5336509827278144
50
-331.49475142285496
72
1
73
2
1
50
0
TEXT
8
scale-outer
420
16382974
10
-3.855774399054876
20
15.933137740688247
11
-3.855774399054876
21
15.933137740688247
40
0.5336509827278144
50
-346.396118079816
72
1
73
2
1
55
0
TEXT
8
scale-outer
420
16382974
10
0
20
16.393043478260868
11
0
21
16.393043478260868
40
0.5336509827278144
50
0
72
1
73
2
1
60
0
TEXT
8
scale-outer
420
16382974
10
6.693999489844996
20
14.9640317197641
11
6.693999489844996
21
14.9640317197641
40
0.5336509827278144
50
-24.10084426702076
72
1
73
2
1
70
0
TEXT
8
scale-outer
420
16382974
10
11.587169390899058
20
11.596093307091104
11
11.587169390899058
21
11.596093307091104
40
0.5336509827278144
50
-44.977945178987966
72
1
73
2
1
80
0
TEXT
8
scale-outer
420
16382974
10
14.656993601404729
20
7.3419624793737555
11
14.656993601404729
21
7.3419624793737555
40
0.5336509827278144
50
-63.39285326004517
72
1
73
2
1
90
0
SOLID
8
scale-inner-unit-box
420
14597684
10
14.217586704328872
20
2.782910314959435
11
14.301266594011357
21
2.314764636681564
12
13.972991407844939
22
2.256086253779569
13
13.972991407844939
23
2.256086253779569
0
SOLID
8
scale-inner-unit-box
420
14597684
10
14.217586704328872
20
2.782910314959435
11
13.972991407844939
21
2.256086253779569
12
13.889311518162453
22
2.72423193205744
13
13.889311518162453
23
2.72423193205744
0
TEXT
8
scale-inner
420
1314304
10
14.095289056086905
20
2.519498284369502
11
14.095289056086905
21
2.519498284369502
40
0.3525908278737345
50
-79.86554986188827
72
1
73
2
1
10
0
TEXT
8
scale-inner
420
15791868
10
14.26916742746319
20
-1.1899185293992496
11
14.26916742746319
21
-1.1899185293992496
40
0.3525908278737345
50
-94.76691651884931
72
1
73
2
1
11
0
TEXT
8
scale-inner
420
15791868
10
13.588968574353322
20
-4.5127572796264985
11
13.588968574353322
21
-4.5127572796264985
40
0.3525908278737345
50
-108.37079843903325
72
1
73
2
1
12
0
TEXT
8
scale-inner
420
15791868
10
12.28827478689028
20
-7.35005768286622
11
12.28827478689028
21
-7.35005768286622
40
0.3525908278737345
50
-120.88515669234948
72
1
73
2
1
13
0
TEXT
8
scale-inner
420
15791868
10
10.561636226213134
20
-9.668344501760709
11
10.561636226213134
21
-9.668344501760709
40
0.3525908278737345
50
-132.4716427060539
72
1
73
2
1
14
0
TEXT
8
scale-inner
420
15791868
10
8.56554512312974
20
-11.47416584868863
11
8.56554512312974
21
-11.47416584868863
40
0.3525908278737345
50
-143.25840312193355
72
1
73
2
1
15
0
TEXT
8
scale-inner
420
15791868
10
6.422777116153595
20
-12.797381735956689
11
6.422777116153595
21
-12.797381735956689
40
0.3525908278737345
50
-153.34874361802122
72
1
73
2
1
16
0
TEXT
8
scale-inner
420
15791868
10
4.2276687599254394
20
-13.68034583027544
11
4.2276687599254394
21
-13.68034583027544
40
0.3525908278737345
50
-162.8271615580668
72
1
73
2
1
17
0
TEXT
8
scale-inner
420
15791868
10
2.0512507563775655
20
-14.171006157434432
11
2.0512507563775655
21
-14.171006157434432
40
0.3525908278737345
50
-171.76365169907842
72
1
73
2
1
18
0
TEXT
8
scale-inner
420
15791868
10
-0.05419155521259686
20
-14.318593103197246
11
-0.05419155521259686
21
-14.318593103197246
40
0.3525908278737345
50
-180.2168462049067
72
1
73
2
1
19
0
TEXT
8
scale-inner
420
15791868
10
-2.051250756377537
20
-14.171006157434435
11
-2.051250756377537
21
-14.171006157434435
40
0.3525908278737345
50
-188.23634830092146
72
1
73
2
1
20
0
TEXT
8
scale-inner
420
15791868
10
-3.914204625268258
20
-13.773309236748906
11
-3.914204625268258
21
-13.773309236748906
40
0.3525908278737345
50
-195.86449596609918
72
1
73
2
1
21
0
TEXT
8
scale-inner
420
15791868
10
-5.626424126998569
20
-13.166943332554922
11
-5.626424126998569
21
-13.166943332554922
40
0.3525908278737345
50
-203.1377149578825
72
1
73
2
1
22
0
TEXT
8
scale-inner
420
15791868
10
-7.178292148996581
20
-12.38939736239169
11
-7.178292148996581
21
-12.38939736239169
40
0.3525908278737345
50
-210.08757082822171
72
1
73
2
1
23
0
TEXT
8
scale-inner
420
15791868
10
-8.56554512312972
20
-11.474165848688644
11
-8.56554512312972
21
-11.474165848688644
40
0.3525908278737345
50
-216.7415968780664
72
1
73
2
1
24
0
TEXT
8
scale-inner
420
15791868
10
-9.787959146338416
20
-10.450880390148681
11
-9.787959146338416
21
-10.450880390148681
40
0.3525908278737345
50
-223.1239529838217
72
1
73
2
1
25
0
TEXT
8
scale-inner
420
15791868
10
-13.58896857435332
20
-4.512757279626505
11
-13.58896857435332
21
-4.512757279626505
40
0.3525908278737345
50
-251.62920156096675
72
1
73
2
1
30
0
TEXT
8
scale-inner
420
15791868
10
-14.247150141633881
20
1.4296006509951535
11
-14.247150141633881
21
1.4296006509951535
40
0.3525908278737345
50
-275.7300458279875
72
1
73
2
1
35
0
TEXT
8
scale-inner
420
15791868
10
-12.802322572540383
20
6.41292304087669
11
-12.802322572540383
21
6.41292304087669
40
0.3525908278737345
50
-296.6071467399547
72
1
73
2
1
40
0
TEXT
8
scale-inner
420
15791868
10
-10.120948693785246
20
10.128743392807957
11
-10.120948693785246
21
10.128743392807957
40
0.3525908278737345
50
-315.02205482101203
72
1
73
2
1
45
0
TEXT
8
scale-inner
420
15791868
10
-6.833443749527215
20
12.582888845636027
11
-6.833443749527215
21
12.582888845636027
40
0.3525908278737345
50
-331.49475142285496
72
1
73
2
1
50
0
TEXT
8
scale-inner
420
15791868
10
-3.3678712678780567
20
13.916985604023077
11
-3.3678712678780567
21
13.916985604023077
40
0.3525908278737345
50
-346.396118079816
72
1
73
2
1
55
0
TEXT
8
scale-inner
420
15791868
10
5.846952185419724
20
13.070508609882005
11
5.846952185419724
21
13.070508609882005
40
0.3525908278737345
50
-24.10084426702076
72
1
73
2
1
70
0
TEXT
8
scale-inner
420
15791868
10
10.120948693785241
20
10.12874339280796
11
10.120948693785241
21
10.12874339280796
40
0.3525908278737345
50
-44.977945178987966
72
1
73
2
1
80
0
TEXT
8
scale-inner
420
15791868
10
12.802322572540367
20
6.412923040876722
11
12.802322572540367
21
6.412923040876722
40
0.3525908278737345
50
-63.39285326004517
72
1
73
2
1
90
0
TEXT
8
scale-inner
420
15791868
10
1.1285495037744473
20
14.274152205897012
11
1.1285495037744473
21
14.274152205897012
40
0.3525908278737345
50
-4.520541479905121
72
1
73
2
1
KM.
0
TEXT
8
scale-inner
420
15791868
10
-13.79238237396807
20
-0.8735458293473796
11
-13.79238237396807
21
-0.8735458293473796
40
0.3525908278737345
50
-266.3759903981628
72
1
73
2
1
NAUT.
0
TEXT
8
scale-inner
420
15791868
10
-13.111961121410472
20
4.344782998040931
11
-13.111961121410472
21
4.344782998040931
40
0.3525908278737345
50
-288.33314537019737
72
1
73
2
1
STAT.
0
LWPOLYLINE
8
scale-inner-pointer
420
15791868
90
3
70
1
43
0.02782608695652175
10
1.448277953774262e-17
20
14.200434782608696
10
-0.2991304347826088
20
14.43695652173913
10
0.2991304347826088
20
14.43695652173913
0
SOLID
8
scale-inner-pointer
420
15654980
10
0.6834955817425925
20
14.351124230595591
11
0.7483488686720813
21
14.250533789659526
12
0.6093759604018257
22
14.257152599953296
13
0.6093759604018257
23
14.257152599953296
0
SOLID
8
scale-inner-pointer
420
13246760
10
-14.435857797304276
20
-0.9143005921651366
11
-14.15306239466832
21
-0.7569804294589434
12
-14.135473877460539
22
-1.0346848687349883
13
-14.135473877460539
23
-1.0346848687349883
0
SOLID
8
scale-inner-pointer
420
13705512
10
-13.7372068424111
20
4.551964589951352
11
-13.398517187830347
21
4.600963049834271
12
-13.494794281756313
22
4.310411942216503
13
-13.494794281756313
23
4.310411942216503
0
SOLID
8
scale-outer-pointer
420
16382974
10
2.6409774451177713e-17
20
15.655652173913044
11
-0.22260869565217403
21
16.086956521739133
12
0.22260869565217398
22
16.086956521739133
13
0.22260869565217398
23
16.086956521739133
0
TEXT
8
dial-typography
420
16317180
10
-8.426488874308758
20
7.070663706551933
11
-8.426488874308758
21
7.070663706551933
40
1.4
72
1
73
2
1
Q
0
TEXT
8
dial-typography
420
16317180
10
-7.778174593052022
20
7.778174593052023
11
-7.778174593052022
21
7.778174593052023
40
1.4
72
1
73
2
1
A
0
TEXT
8
dial-typography
420
16317180
10
-7.070663706551931
20
8.426488874308758
11
-7.070663706551931
21
8.426488874308758
40
1.4
72
1
73
2
1
 
0
TEXT
8
dial-typography
420
16317180
10
-6.3093407998615065
20
9.01067248717891
11
-6.3093407998615065
21
9.01067248717891
40
1.4
72
1
73
2
1
&
0
TEXT
8
dial-typography
420
16317180
10
-5.499999999999999
20
9.526279441628827
11
-5.499999999999999
21
9.526279441628827
40
1.4
72
1
73
2
1
 
0
TEXT
8
dial-typography
420
16317180
10
-4.648800879147694
20
9.96938565740315
11
-4.648800879147694
21
9.96938565740315
40
1.4
72
1
73
2
1
F
0
TEXT
8
dial-typography
420
16317180
10
-3.762221576582356
20
10.336618828644992
11
-3.762221576582356
21
10.336618828644992
40
1.4
72
1
73
2
1
O
0
TEXT
8
dial-typography
420
16317180
10
-2.847009496127728
20
10.62518408917975
11
-2.847009496127728
21
10.62518408917975
40
1.4
72
1
73
2
1
N
0
TEXT
8
dial-typography
420
16317180
10
-1.9101299543362336
20
10.832885283134289
11
-1.9101299543362336
21
10.832885283134289
40
1.4
72
1
73
2
1
T
0
TEXT
8
dial-typography
420
16317180
10
-0.9587131702242399
20
10.9581416790092
11
-0.9587131702242399
21
10.9581416790092
40
1.4
72
1
73
2
1
 
0
TEXT
8
dial-typography
420
16317180
10
0
20
11
11
0
21
11
40
1.4
72
1
73
2
1
-
0
TEXT
8
dial-typography
420
16317180
10
0.9587131702242399
20
10.9581416790092
11
0.9587131702242399
21
10.9581416790092
40
1.4
72
1
73
2
1
-
0
TEXT
8
dial-typography
420
16317180
10
1.9101299543362336
20
10.832885283134289
11
1.9101299543362336
21
10.832885283134289
40
1.4
72
1
73
2
1
 
0
TEXT
8
dial-typography
420
16317180
10
2.847009496127728
20
10.62518408917975
11
2.847009496127728
21
10.62518408917975
40
1.4
72
1
73
2
1
T
0
TEXT
8
dial-typography
420
16317180
10
3.762221576582356
20
10.336618828644992
11
3.762221576582356
21
10.336618828644992
40
1.4
72
1
73
2
1
E
0
TEXT
8
dial-typography
420
16317180
10
4.648800879147694
20
9.96938565740315
11
4.648800879147694
21
9.96938565740315
40
1.4
72
1
73
2
1
S
0
TEXT
8
dial-typography
420
16317180
10
5.499999999999999
20
9.526279441628827
11
5.499999999999999
21
9.526279441628827
40
1.4
72
1
73
2
1
T
0
ENDSEC
0
EOF