0
SECTION
2
HEADER
9
$ACADVER
1
AC1021
9
$INSUNITS
70
4
0
ENDSEC
0
SECTION
2
ENTITIES
999
Scale text uses the DXF viewer font; use SVG with outlined text for font-exact manufacture.
0
LWPOLYLINE
8
scale-outer
420
15790320
90
2
70
0
43
0.08
10
0
20
15.08
10
0
20
14.86
0
LWPOLYLINE
8
scale-outer
420
15790320
90
2
70
0
43
0.08
10
0.9468810345020456
20
15.050243064698336
10
0.9393461721585281
20
14.930479857286944
0
LWPOLYLINE
8
scale-outer
420
15790320
90
2
70
0
43
0.08
10
1.8900251621497082
20
14.961089695822327
10
1.8749851741219918
20
14.84203593166459
0
LWPOLYLINE
8
scale-outer
420
15790320
90
2
70
0
43
0.08
10
2.825710223952727
20
14.812891740988626
10
2.8032244662024404
20
14.695017270901184
0
LWPOLYLINE
8
scale-outer
420
15790320
90
2
70
0
43
0.08
10
3.7502434984460105
20
14.606234069819756
10
3.720400711986228
20
14.490004090484321
0
LWPOLYLINE
8
scale-outer
420
15790320
90
2
70
0
43
0.08
10
4.659976275174206
20
14.341932265730915
10
4.6228942358492136
20
14.227805483775498
0
LWPOLYLINE
8
scale-outer
420
15790320
90
2
70
0
43
0.08
10
5.551318254484943
20
14.021029407194833
10
5.507143308162782
20
13.909456228888242
0
LWPOLYLINE
8
scale-outer
420
15790320
90
2
70
0
43
0.08
10
6.420751716801295
20
13.644791951187575
10
6.369658201813486
20
13.536212704891653
0
LWPOLYLINE
8
scale-outer
420
15790320
90
2
70
0
43
0.08
10
7.264845405453867
20
13.214704735061463
10
7.207034964561662
20
13.1095479334562
0
LWPOLYLINE
8
scale-outer
420
15790320
90
2
70
0
43
0.08
10
8.080268068283267
20
12.732465116570388
10
8.01596885288579
20
12.631145765510148
0
LWPOLYLINE
8
scale-outer
420
15790320
90
2
70
0
43
0.08
10
8.863801604570495
20
12.199976275174208
10
8.73448884906615
20
12.02199253641172
0
LWPOLYLINE
8
scale-outer
420
15790320
90
2
70
0
43
0.08
10
9.61235376541024
20
11.6193397010589
10
9.535862886640398
20
11.526878111925805
0
LWPOLYLINE
8
scale-outer
420
15790320
90
2
70
0
43
0.08
10
10.322970357404625
20
10.992846901514886
10
10.240824704693182
20
10.905370666224318
0
LWPOLYLINE
8
scale-outer
420
15790320
90
2
70
0
43
0.08
10
10.992846901514886
20
10.322970357404625
10
10.905370666224318
20
10.240824704693182
0
LWPOLYLINE
8
scale-outer
420
15790320
90
2
70
0
43
0.08
10
11.6193397010589
20
9.612353765410242
10
11.526878111925805
20
9.5358628866404
0
LWPOLYLINE
8
scale-outer
420
15790320
90
2
70
0
43
0.08
10
12.199976275174208
20
8.863801604570495
10
12.102894235849215
20
8.793267374295398
0
LWPOLYLINE
8
scale-outer
420
15790320
90
2
70
0
43
0.08
10
12.732465116570387
20
8.080268068283267
10
12.631145765510146
20
8.01596885288579
0
LWPOLYLINE
8
scale-outer
420
15790320
90
2
70
0
43
0.08
10
13.214704735061463
20
7.264845405453867
10
13.1095479334562
20
7.207034964561662
0
LWPOLYLINE
8
scale-outer
420
15790320
90
2
70
0
43
0.08
10
13.644791951187573
20
6.420751716801298
10
13.536212704891652
20
6.36965820181349
0
LWPOLYLINE
8
scale-outer
420
15790320
90
2
70
0
43
0.08
10
14.021029407194833
20
5.551318254484943
10
13.909456228888242
20
5.507143308162781
0
LWPOLYLINE
8
scale-outer
420
15790320
90
2
70
0
43
0.08
10
14.341932265730915
20
4.659976275174207
10
14.132699832145981
20
4.591992536411719
0
LWPOLYLINE
8
scale-outer
420
15790320
90
2
70
0
43
0.08
10
14.606234069819756
20
3.7502434984460096
10
14.490004090484321
20
3.720400711986227
0
LWPOLYLINE
8
scale-outer
420
15790320
90
2
70
0
43
0.08
10
14.812891740988626
20
2.8257102239527256
10
14.695017270901184
20
2.803224466202439
0
LWPOLYLINE
8
scale-outer
420
15790320
90
2
70
0
43
0.08
10
14.961089695822327
20
1.8900251621497082
10
14.84203593166459
20
1.8749851741219918
0
LWPOLYLINE
8
scale-outer
420
15790320
90
2
70
0
43
0.08
10
15.050243064698336
20
0.946881034502048
10
14.930479857286944
20
0.9393461721585304
0
LWPOLYLINE
8
scale-outer
420
15790320
90
2
70
0
43
0.08
10
15.08
20
9.233836865571043e-16
10
14.96
20
9.160358057622202e-16
0
LWPOLYLINE
8
scale-outer
420
15790320
90
2
70
0
43
0.08
10
15.050243064698336
20
-0.9468810345020461
10
14.930479857286944
20
-0.9393461721585286
0
LWPOLYLINE
8
scale-outer
420
15790320
90
2
70
0
43
0.08
10
14.961089695822325
20
-1.89002516214971
10
14.842035931664588
20
-1.8749851741219934
0
LWPOLYLINE
8
scale-outer
420
15790320
90
2
70
0
43
0.08
10
14.812891740988626
20
-2.825710223952724
10
14.695017270901184
20
-2.803224466202437
0
LWPOLYLINE
8
scale-outer
420
15790320
90
2
70
0
43
0.08
10
14.606234069819756
20
-3.7502434984460113
10
14.490004090484321
20
-3.720400711986229
0
LWPOLYLINE
8
scale-outer
420
15790320
90
2
70
0
43
0.08
10
14.341932265730916
20
-4.6599762751742055
10
14.132699832145983
20
-4.591992536411717
0
LWPOLYLINE
8
scale-outer
420
15790320
90
2
70
0
43
0.08
10
14.021029407194831
20
-5.551318254484947
10
13.90945622888824
20
-5.507143308162786
0
LWPOLYLINE
8
scale-outer
420
15790320
90
2
70
0
43
0.08
10
13.644791951187573
20
-6.420751716801297
10
13.536212704891652
20
-6.369658201813488
0
LWPOLYLINE
8
scale-outer
420
15790320
90
2
70
0
43
0.08
10
13.214704735061465
20
-7.264845405453863
10
13.109547933456202
20
-7.207034964561657
0
LWPOLYLINE
8
scale-outer
420
15790320
90
2
70
0
43
0.08
10
12.732465116570388
20
-8.080268068283265
10
12.631145765510148
20
-8.015968852885788
0
LWPOLYLINE
8
scale-outer
420
15790320
90
2
70
0
43
0.08
10
12.199976275174208
20
-8.863801604570494
10
12.102894235849215
20
-8.793267374295397
0
LWPOLYLINE
8
scale-outer
420
15790320
90
2
70
0
43
0.08
10
11.619339701058905
20
-9.612353765410237
10
11.52687811192581
20
-9.535862886640395
0
LWPOLYLINE
8
scale-outer
420
15790320
90
2
70
0
43
0.08
10
10.992846901514884
20
-10.322970357404627
10
10.905370666224316
20
-10.240824704693184
0
LWPOLYLINE
8
scale-outer
420
15790320
90
2
70
0
43
0.08
10
10.322970357404623
20
-10.992846901514888
10
10.24082470469318
20
-10.90537066622432
0
LWPOLYLINE
8
scale-outer
420
15790320
90
2
70
0
43
0.08
10
9.612353765410242
20
-11.6193397010589
10
9.5358628866404
20
-11.526878111925805
0
LWPOLYLINE
8
scale-outer
420
15790320
90
2
70
0
43
0.08
10
8.863801604570497
20
-12.199976275174206
10
8.734488849066151
20
-12.021992536411718
0
LWPOLYLINE
8
scale-outer
420
15790320
90
2
70
0
43
0.08
10
8.080268068283269
20
-12.732465116570387
10
8.015968852885791
20
-12.631145765510146
0
LWPOLYLINE
8
scale-outer
420
15790320
90
2
70
0
43
0.08
10
7.264845405453865
20
-13.214704735061463
10
7.20703496456166
20
-13.1095479334562
0
LWPOLYLINE
8
scale-outer
420
15790320
90
2
70
0
43
0.08
10
6.420751716801293
20
-13.644791951187575
10
6.369658201813485
20
-13.536212704891653
0
LWPOLYLINE
8
scale-outer
420
15790320
90
2
70
0
43
0.08
10
5.551318254484941
20
-14.021029407194833
10
5.50714330816278
20
-13.909456228888242
0
LWPOLYLINE
8
scale-outer
420
15790320
90
2
70
0
43
0.08
10
4.659976275174208
20
-14.341932265730915
10
4.622894235849215
20
-14.227805483775498
0
LWPOLYLINE
8
scale-outer
420
15790320
90
2
70
0
43
0.08
10
3.750243498446011
20
-14.606234069819756
10
3.7204007119862283
20
-14.490004090484321
0
LWPOLYLINE
8
scale-outer
420
15790320
90
2
70
0
43
0.08
10
2.82571022395272
20
-14.812891740988626
10
2.8032244662024333
20
-14.695017270901184
0
LWPOLYLINE
8
scale-outer
420
15790320
90
2
70
0
43
0.08
10
1.8900251621497124
20
-14.961089695822325
10
1.874985174121996
20
-14.842035931664588
0
LWPOLYLINE
8
scale-outer
420
15790320
90
2
70
0
43
0.08
10
0.9468810345020489
20
-15.050243064698336
10
0.9393461721585312
20
-14.930479857286944
0
LWPOLYLINE
8
scale-outer
420
15790320
90
2
70
0
43
0.08
10
1.8467673731142086e-15
20
-15.08
10
1.8198251435329667e-15
20
-14.86
0
LWPOLYLINE
8
scale-outer
420
15790320
90
2
70
0
43
0.08
10
-0.9468810345020453
20
-15.050243064698336
10
-0.9393461721585277
20
-14.930479857286944
0
LWPOLYLINE
8
scale-outer
420
15790320
90
2
70
0
43
0.08
10
-1.8900251621497086
20
-14.961089695822327
10
-1.8749851741219923
20
-14.84203593166459
0
LWPOLYLINE
8
scale-outer
420
15790320
90
2
70
0
43
0.08
10
-2.8257102239527296
20
-14.812891740988624
10
-2.8032244662024426
20
-14.695017270901182
0
LWPOLYLINE
8
scale-outer
420
15790320
90
2
70
0
43
0.08
10
-3.7502434984460136
20
-14.606234069819756
10
-3.7204007119862315
20
-14.490004090484321
0
LWPOLYLINE
8
scale-outer
420
15790320
90
2
70
0
43
0.08
10
-4.659976275174212
20
-14.341932265730915
10
-4.622894235849218
20
-14.227805483775498
0
LWPOLYLINE
8
scale-outer
420
15790320
90
2
70
0
43
0.08
10
-5.551318254484936
20
-14.021029407194833
10
-5.507143308162775
20
-13.909456228888244
0
LWPOLYLINE
8
scale-outer
420
15790320
90
2
70
0
43
0.08
10
-6.420751716801296
20
-13.644791951187573
10
-6.369658201813487
20
-13.536212704891652
0
LWPOLYLINE
8
scale-outer
420
15790320
90
2
70
0
43
0.08
10
-7.264845405453868
20
-13.214704735061462
10
-7.207034964561663
20
-13.109547933456199
0
LWPOLYLINE
8
scale-outer
420
15790320
90
2
70
0
43
0.08
10
-8.080268068283265
20
-12.732465116570388
10
-8.015968852885788
20
-12.631145765510148
0
LWPOLYLINE
8
scale-outer
420
15790320
90
2
70
0
43
0.08
10
-8.863801604570494
20
-12.19997627517421
10
-8.73448884906615
20
-12.02199253641172
0
LWPOLYLINE
8
scale-outer
420
15790320
90
2
70
0
43
0.08
10
-9.612353765410239
20
-11.619339701058902
10
-9.535862886640398
20
-11.526878111925807
0
LWPOLYLINE
8
scale-outer
420
15790320
90
2
70
0
43
0.08
10
-10.322970357404632
20
-10.99284690151488
10
-10.240824704693189
20
-10.905370666224313
0
LWPOLYLINE
8
scale-outer
420
15790320
90
2
70
0
43
0.08
10
-10.992846901514882
20
-10.32297035740463
10
-10.905370666224314
20
-10.240824704693187
0
LWPOLYLINE
8
scale-outer
420
15790320
90
2
70
0
43
0.08
10
-11.619339701058903
20
-9.612353765410239
10
-11.526878111925809
20
-9.535862886640396
0
LWPOLYLINE
8
scale-outer
420
15790320
90
2
70
0
43
0.08
10
-12.199976275174206
20
-8.863801604570497
10
-12.102894235849213
20
-8.7932673742954
0
LWPOLYLINE
8
scale-outer
420
15790320
90
2
70
0
43
0.08
10
-12.732465116570385
20
-8.080268068283276
10
-12.631145765510142
20
-8.015968852885797
0
LWPOLYLINE
8
scale-outer
420
15790320
90
2
70
0
43
0.08
10
-13.214704735061463
20
-7.264845405453866
10
-13.1095479334562
20
-7.207034964561661
0
LWPOLYLINE
8
scale-outer
420
15790320
90
2
70
0
43
0.08
10
-13.644791951187573
20
-6.4207517168013
10
-13.53621270489165
20
-6.3696582018134915
0
LWPOLYLINE
8
scale-outer
420
15790320
90
2
70
0
43
0.08
10
-14.021029407194833
20
-5.551318254484942
10
-13.909456228888242
20
-5.507143308162781
0
LWPOLYLINE
8
scale-outer
420
15790320
90
2
70
0
43
0.08
10
-14.341932265730915
20
-4.659976275174209
10
-14.132699832145981
20
-4.591992536411721
0
LWPOLYLINE
8
scale-outer
420
15790320
90
2
70
0
43
0.08
10
-14.606234069819754
20
-3.750243498446018
10
-14.49000409048432
20
-3.7204007119862355
0
LWPOLYLINE
8
scale-outer
420
15790320
90
2
70
0
43
0.08
10
-14.812891740988622
20
-2.8257102239527403
10
-14.69501727090118
20
-2.8032244662024537
0
LWPOLYLINE
8
scale-outer
420
15790320
90
2
70
0
43
0.08
10
-14.961089695822327
20
-1.8900251621497002
10
-14.84203593166459
20
-1.8749851741219838
0
LWPOLYLINE
8
scale-outer
420
15790320
90
2
70
0
43
0.08
10
-15.050243064698336
20
-0.9468810345020432
10
-14.930479857286944
20
-0.9393461721585257
0
LWPOLYLINE
8
scale-outer
420
15790320
90
2
70
0
43
0.08
10
-15.08
20
-2.770151059671313e-15
10
-14.96
20
-2.7481074172866605e-15
0
LWPOLYLINE
8
scale-outer
420
15790320
90
2
70
0
43
0.08
10
-15.050243064698336
20
0.946881034502051
10
-14.930479857286944
20
0.9393461721585333
0
LWPOLYLINE
8
scale-outer
420
15790320
90
2
70
0
43
0.08
10
-14.961089695822327
20
1.8900251621497077
10
-14.84203593166459
20
1.8749851741219914
0
LWPOLYLINE
8
scale-outer
420
15790320
90
2
70
0
43
0.08
10
-14.812891740988626
20
2.825710223952722
10
-14.695017270901184
20
2.803224466202435
0
LWPOLYLINE
8
scale-outer
420
15790320
90
2
70
0
43
0.08
10
-14.606234069819756
20
3.7502434984460122
10
-14.490004090484321
20
3.72040071198623
0
LWPOLYLINE
8
scale-outer
420
15790320
90
2
70
0
43
0.08
10
-14.341932265730916
20
4.659976275174205
10
-14.132699832145983
20
4.591992536411715
0
LWPOLYLINE
8
scale-outer
420
15790320
90
2
70
0
43
0.08
10
-14.02102940719483
20
5.551318254484948
10
-13.909456228888239
20
5.507143308162787
0
LWPOLYLINE
8
scale-outer
420
15790320
90
2
70
0
43
0.08
10
-13.644791951187575
20
6.420751716801295
10
-13.536212704891653
20
6.369658201813486
0
LWPOLYLINE
8
scale-outer
420
15790320
90
2
70
0
43
0.08
10
-13.214704735061467
20
7.264845405453861
10
-13.109547933456204
20
7.207034964561656
0
LWPOLYLINE
8
scale-outer
420
15790320
90
2
70
0
43
0.08
10
-12.732465116570387
20
8.08026806828327
10
-12.631145765510144
20
8.015968852885791
0
LWPOLYLINE
8
scale-outer
420
15790320
90
2
70
0
43
0.08
10
-12.19997627517421
20
8.863801604570492
10
-12.102894235849217
20
8.793267374295395
0
LWPOLYLINE
8
scale-outer
420
15790320
90
2
70
0
43
0.08
10
-11.619339701058898
20
9.612353765410244
10
-11.526878111925804
20
9.535862886640402
0
LWPOLYLINE
8
scale-outer
420
15790320
90
2
70
0
43
0.08
10
-10.992846901514895
20
10.322970357404614
10
-10.905370666224325
20
10.240824704693173
0
LWPOLYLINE
8
scale-outer
420
15790320
90
2
70
0
43
0.08
10
-10.32297035740462
20
10.992846901514891
10
-10.240824704693177
20
10.905370666224323
0
LWPOLYLINE
8
scale-outer
420
15790320
90
2
70
0
43
0.08
10
-9.612353765410239
20
11.619339701058903
10
-9.535862886640398
20
11.526878111925809
0
LWPOLYLINE
8
scale-outer
420
15790320
90
2
70
0
43
0.08
10
-8.863801604570499
20
12.199976275174206
10
-8.734488849066153
20
12.021992536411718
0
LWPOLYLINE
8
scale-outer
420
15790320
90
2
70
0
43
0.08
10
-8.080268068283276
20
12.732465116570383
10
-8.015968852885797
20
12.63114576551014
0
LWPOLYLINE
8
scale-outer
420
15790320
90
2
70
0
43
0.08
10
-7.264845405453867
20
13.214704735061463
10
-7.207034964561662
20
13.1095479334562
0
LWPOLYLINE
8
scale-outer
420
15790320
90
2
70
0
43
0.08
10
-6.420751716801301
20
13.644791951187573
10
-6.369658201813492
20
13.53621270489165
0
LWPOLYLINE
8
scale-outer
420
15790320
90
2
70
0
43
0.08
10
-5.551318254484929
20
14.021029407194836
10
-5.507143308162768
20
13.909456228888248
0
LWPOLYLINE
8
scale-outer
420
15790320
90
2
70
0
43
0.08
10
-4.65997627517421
20
14.341932265730915
10
-4.622894235849216
20
14.227805483775498
0
LWPOLYLINE
8
scale-outer
420
15790320
90
2
70
0
43
0.08
10
-3.750243498446019
20
14.606234069819754
10
-3.7204007119862363
20
14.49000409048432
0
LWPOLYLINE
8
scale-outer
420
15790320
90
2
70
0
43
0.08
10
-2.8257102239527283
20
14.812891740988626
10
-2.8032244662024413
20
14.695017270901184
0
LWPOLYLINE
8
scale-outer
420
15790320
90
2
70
0
43
0.08
10
-1.8900251621497142
20
14.961089695822325
10
-1.8749851741219976
20
14.842035931664588
0
LWPOLYLINE
8
scale-outer
420
15790320
90
2
70
0
43
0.08
10
-0.946881034502044
20
15.050243064698336
10
-0.9393461721585264
20
14.930479857286944
0
TEXT
8
scale-outer
420
15790320
10
0
20
13.794999999999998
11
0
21
13.794999999999998
40
0.4
50
0
72
1
73
2
1
0.00
0
TEXT
8
scale-outer
420
15087942
10
0
20
14.325
11
0
21
14.325
40
0.4
50
0
72
1
73
2
1
0m
0
TEXT
8
scale-outer
420
15790320
10
8.108497555374665
20
11.160389437402399
11
8.108497555374665
21
11.160389437402399
40
0.4
50
-36
72
1
73
2
1
0.10
0
TEXT
8
scale-outer
420
15087942
10
8.420023739089677
20
11.589168444421121
11
8.420023739089677
21
11.589168444421121
40
0.4
50
-36
72
1
73
2
1
6m
0
TEXT
8
scale-outer
420
15790320
10
13.119824642291642
20
4.262889437402399
11
13.119824642291642
21
4.262889437402399
40
0.4
50
-72
72
1
73
2
1
0.20
0
TEXT
8
scale-outer
420
15087942
10
13.623884595928073
20
4.426668444421122
11
13.623884595928073
21
4.426668444421122
40
0.4
50
-72
72
1
73
2
1
12m
0
TEXT
8
scale-outer
420
15790320
10
13.119824642291643
20
-4.262889437402398
11
13.119824642291643
21
-4.262889437402398
40
0.4
50
-108
72
1
73
2
1
0.30
0
TEXT
8
scale-outer
420
15087942
10
13.623884595928075
20
-4.426668444421121
11
13.623884595928075
21
-4.426668444421121
40
0.4
50
-108
72
1
73
2
1
18m
0
TEXT
8
scale-outer
420
15790320
10
8.108497555374667
20
-11.160389437402397
11
8.108497555374667
21
-11.160389437402397
40
0.4
50
-144
72
1
73
2
1
0.40
0
TEXT
8
scale-outer
420
15087942
10
8.420023739089679
20
-11.58916844442112
11
8.420023739089679
21
-11.58916844442112
40
0.4
50
-144
72
1
73
2
1
24m
0
TEXT
8
scale-outer
420
15790320
10
1.6894002594237735e-15
20
-13.794999999999998
11
1.6894002594237735e-15
21
-13.794999999999998
40
0.4
50
-180
72
1
73
2
1
0.50
0
TEXT
8
scale-outer
420
15087942
10
1.7543065397785834e-15
20
-14.325
11
1.7543065397785834e-15
21
-14.325
40
0.4
50
-180
72
1
73
2
1
30m
0
TEXT
8
scale-outer
420
15790320
10
-8.108497555374663
20
-11.1603894374024
11
-8.108497555374663
21
-11.1603894374024
40
0.4
50
-216
72
1
73
2
1
0.60
0
TEXT
8
scale-outer
420
15087942
10
-8.420023739089675
20
-11.589168444421123
11
-8.420023739089675
21
-11.589168444421123
40
0.4
50
-216
72
1
73
2
1
36m
0
TEXT
8
scale-outer
420
15790320
10
-13.119824642291642
20
-4.262889437402401
11
-13.119824642291642
21
-4.262889437402401
40
0.4
50
-252
72
1
73
2
1
0.70
0
TEXT
8
scale-outer
420
15087942
10
-13.623884595928073
20
-4.426668444421123
11
-13.623884595928073
21
-4.426668444421123
40
0.4
50
-252
72
1
73
2
1
42m
0
TEXT
8
scale-outer
420
15790320
10
-13.119824642291643
20
4.2628894374023965
11
-13.119824642291643
21
4.2628894374023965
40
0.4
50
-288
72
1
73
2
1
0.80
0
TEXT
8
scale-outer
420
15087942
10
-13.623884595928075
20
4.426668444421119
11
-13.623884595928075
21
4.426668444421119
40
0.4
50
-288
72
1
73
2
1
48m
0
TEXT
8
scale-outer
420
15790320
10
-8.108497555374669
20
11.160389437402397
11
-8.108497555374669
21
11.160389437402397
40
0.4
50
-324
72
1
73
2
1
0.90
0
TEXT
8
scale-outer
420
15087942
10
-8.42002373908968
20
11.58916844442112
11
-8.42002373908968
21
11.58916844442112
40
0.4
50
-324
72
1
73
2
1
54m
0
ENDSEC
0
EOF