0
SECTION
2
HEADER
9
$ACADVER
1
AC1021
9
$INSUNITS
70
4
0
ENDSEC
0
SECTION
2
ENTITIES
999
Scale text uses the DXF viewer font; use SVG with outlined text for font-exact manufacture.
0
LWPOLYLINE
8
scale-outer
420
15790320
90
2
70
0
43
0.08
10
0
20
15.08
10
0
20
14.86
0
LWPOLYLINE
8
scale-outer
420
15790320
90
2
70
0
43
0.08
10
1.9683349786783777
20
14.95098850951706
10
1.9526718356119717
20
14.832015126152204
0
LWPOLYLINE
8
scale-outer
420
15790320
90
2
70
0
43
0.08
10
3.9029912001460128
20
14.566161460439151
10
3.8719329147337103
20
14.450250361284462
0
LWPOLYLINE
8
scale-outer
420
15790320
90
2
70
0
43
0.08
10
5.7708661600655535
20
13.932103350270204
10
5.724944148181743
20
13.82123780636885
0
LWPOLYLINE
8
scale-outer
420
15790320
90
2
70
0
43
0.08
10
7.539999999999999
20
13.059663089069335
10
7.429999999999999
20
12.869137500236759
0
LWPOLYLINE
8
scale-outer
420
15790320
90
2
70
0
43
0.08
10
9.180122349451507
20
11.963768371591826
10
9.107070977970462
20
11.86856597075688
0
LWPOLYLINE
8
scale-outer
420
15790320
90
2
70
0
43
0.08
10
10.663170260293136
20
10.663170260293137
10
10.57831744655075
20
10.578317446550752
0
LWPOLYLINE
8
scale-outer
420
15790320
90
2
70
0
43
0.08
10
11.963768371591826
20
9.180122349451507
10
11.86856597075688
20
9.107070977970462
0
LWPOLYLINE
8
scale-outer
420
15790320
90
2
70
0
43
0.08
10
13.059663089069334
20
7.540000000000002
10
12.869137500236757
20
7.4300000000000015
0
LWPOLYLINE
8
scale-outer
420
15790320
90
2
70
0
43
0.08
10
13.932103350270204
20
5.770866160065554
10
13.82123780636885
20
5.724944148181744
0
LWPOLYLINE
8
scale-outer
420
15790320
90
2
70
0
43
0.08
10
14.566161460439151
20
3.9029912001460128
10
14.450250361284462
20
3.8719329147337103
0
LWPOLYLINE
8
scale-outer
420
15790320
90
2
70
0
43
0.08
10
14.95098850951706
20
1.96833497867838
10
14.832015126152204
20
1.9526718356119737
0
LWPOLYLINE
8
scale-outer
420
15790320
90
2
70
0
43
0.08
10
15.08
20
9.233836865571043e-16
10
14.86
20
9.099125717664834e-16
0
LWPOLYLINE
8
scale-outer
420
15790320
90
2
70
0
43
0.08
10
14.950988509517062
20
-1.9683349786783748
10
14.832015126152205
20
-1.9526718356119688
0
LWPOLYLINE
8
scale-outer
420
15790320
90
2
70
0
43
0.08
10
14.566161460439151
20
-3.9029912001460145
10
14.450250361284462
20
-3.871932914733712
0
LWPOLYLINE
8
scale-outer
420
15790320
90
2
70
0
43
0.08
10
13.932103350270204
20
-5.7708661600655535
10
13.82123780636885
20
-5.724944148181742
0
LWPOLYLINE
8
scale-outer
420
15790320
90
2
70
0
43
0.08
10
13.059663089069335
20
-7.5399999999999965
10
12.869137500236759
20
-7.429999999999996
0
LWPOLYLINE
8
scale-outer
420
15790320
90
2
70
0
43
0.08
10
11.963768371591826
20
-9.180122349451507
10
11.86856597075688
20
-9.107070977970462
0
LWPOLYLINE
8
scale-outer
420
15790320
90
2
70
0
43
0.08
10
10.663170260293137
20
-10.663170260293136
10
10.578317446550752
20
-10.57831744655075
0
LWPOLYLINE
8
scale-outer
420
15790320
90
2
70
0
43
0.08
10
9.180122349451505
20
-11.963768371591827
10
9.107070977970459
20
-11.86856597075688
0
LWPOLYLINE
8
scale-outer
420
15790320
90
2
70
0
43
0.08
10
7.539999999999999
20
-13.059663089069335
10
7.429999999999999
20
-12.869137500236759
0
LWPOLYLINE
8
scale-outer
420
15790320
90
2
70
0
43
0.08
10
5.770866160065555
20
-13.932103350270204
10
5.724944148181745
20
-13.82123780636885
0
LWPOLYLINE
8
scale-outer
420
15790320
90
2
70
0
43
0.08
10
3.9029912001460167
20
-14.56616146043915
10
3.8719329147337147
20
-14.45025036128446
0
LWPOLYLINE
8
scale-outer
420
15790320
90
2
70
0
43
0.08
10
1.9683349786783777
20
-14.95098850951706
10
1.9526718356119717
20
-14.832015126152204
0
LWPOLYLINE
8
scale-outer
420
15790320
90
2
70
0
43
0.08
10
1.8467673731142086e-15
20
-15.08
10
1.8198251435329667e-15
20
-14.86
0
LWPOLYLINE
8
scale-outer
420
15790320
90
2
70
0
43
0.08
10
-1.968334978678374
20
-14.950988509517062
10
-1.9526718356119679
20
-14.832015126152205
0
LWPOLYLINE
8
scale-outer
420
15790320
90
2
70
0
43
0.08
10
-3.902991200146007
20
-14.566161460439153
10
-3.8719329147337045
20
-14.450250361284464
0
LWPOLYLINE
8
scale-outer
420
15790320
90
2
70
0
43
0.08
10
-5.7708661600655455
20
-13.932103350270207
10
-5.724944148181735
20
-13.821237806368854
0
LWPOLYLINE
8
scale-outer
420
15790320
90
2
70
0
43
0.08
10
-7.540000000000002
20
-13.059663089069334
10
-7.4300000000000015
20
-12.869137500236757
0
LWPOLYLINE
8
scale-outer
420
15790320
90
2
70
0
43
0.08
10
-9.180122349451507
20
-11.963768371591826
10
-9.107070977970462
20
-11.86856597075688
0
LWPOLYLINE
8
scale-outer
420
15790320
90
2
70
0
43
0.08
10
-10.663170260293136
20
-10.663170260293139
10
-10.57831744655075
20
-10.578317446550754
0
LWPOLYLINE
8
scale-outer
420
15790320
90
2
70
0
43
0.08
10
-11.963768371591822
20
-9.18012234945151
10
-11.868565970756876
20
-9.107070977970466
0
LWPOLYLINE
8
scale-outer
420
15790320
90
2
70
0
43
0.08
10
-13.05966308906933
20
-7.540000000000007
10
-12.869137500236754
20
-7.430000000000006
0
LWPOLYLINE
8
scale-outer
420
15790320
90
2
70
0
43
0.08
10
-13.932103350270205
20
-5.77086616006555
10
-13.821237806368853
20
-5.72494414818174
0
LWPOLYLINE
8
scale-outer
420
15790320
90
2
70
0
43
0.08
10
-14.566161460439151
20
-3.902991200146011
10
-14.450250361284462
20
-3.871932914733709
0
LWPOLYLINE
8
scale-outer
420
15790320
90
2
70
0
43
0.08
10
-14.95098850951706
20
-1.9683349786783786
10
-14.832015126152204
20
-1.9526718356119726
0
LWPOLYLINE
8
scale-outer
420
15790320
90
2
70
0
43
0.08
10
-15.08
20
-2.770151059671313e-15
10
-14.86
20
-2.72973771529945e-15
0
LWPOLYLINE
8
scale-outer
420
15790320
90
2
70
0
43
0.08
10
-14.95098850951706
20
1.9683349786783861
10
-14.832015126152204
20
1.9526718356119799
0
LWPOLYLINE
8
scale-outer
420
15790320
90
2
70
0
43
0.08
10
-14.56616146043915
20
3.9029912001460185
10
-14.45025036128446
20
3.8719329147337165
0
LWPOLYLINE
8
scale-outer
420
15790320
90
2
70
0
43
0.08
10
-13.932103350270202
20
5.770866160065557
10
-13.821237806368849
20
5.724944148181747
0
LWPOLYLINE
8
scale-outer
420
15790320
90
2
70
0
43
0.08
10
-13.059663089069334
20
7.540000000000002
10
-12.869137500236757
20
7.4300000000000015
0
TEXT
8
scale-outer
420
15790320
10
0
20
13.794999999999998
11
0
21
13.794999999999998
40
0.4
50
0
72
1
73
2
1
0kt
0
TEXT
8
scale-outer
420
15087942
10
0
20
14.325
11
0
21
14.325
40
0.4
50
0
72
1
73
2
1
0.0mph
0
TEXT
8
scale-outer
420
15790320
10
6.897499999999998
20
11.946820445206331
11
6.897499999999998
21
11.946820445206331
40
0.4
50
-30
72
1
73
2
1
20kt
0
TEXT
8
scale-outer
420
15087942
10
7.162499999999999
20
12.405813909212084
11
7.162499999999999
21
12.405813909212084
40
0.4
50
-30
72
1
73
2
1
23.0mph
0
TEXT
8
scale-outer
420
15790320
10
11.94682044520633
20
6.897500000000001
11
11.94682044520633
21
6.897500000000001
40
0.4
50
-60
72
1
73
2
1
40kt
0
TEXT
8
scale-outer
420
15087942
10
12.405813909212082
20
7.162500000000001
11
12.405813909212082
21
7.162500000000001
40
0.4
50
-60
72
1
73
2
1
46.0mph
0
TEXT
8
scale-outer
420
15790320
10
13.794999999999998
20
8.447001297118868e-16
11
13.794999999999998
21
8.447001297118868e-16
40
0.4
50
-90
72
1
73
2
1
60kt
0
TEXT
8
scale-outer
420
15087942
10
14.325
20
8.771532698892917e-16
11
14.325
21
8.771532698892917e-16
40
0.4
50
-90
72
1
73
2
1
69.0mph
0
TEXT
8
scale-outer
420
15790320
10
11.946820445206331
20
-6.897499999999996
11
11.946820445206331
21
-6.897499999999996
40
0.4
50
-120
72
1
73
2
1
80kt
0
TEXT
8
scale-outer
420
15087942
10
12.405813909212084
20
-7.162499999999996
11
12.405813909212084
21
-7.162499999999996
40
0.4
50
-120
72
1
73
2
1
92.1mph
0
TEXT
8
scale-outer
420
15790320
10
6.897499999999998
20
-11.946820445206331
11
6.897499999999998
21
-11.946820445206331
40
0.4
50
-150
72
1
73
2
1
100kt
0
TEXT
8
scale-outer
420
15087942
10
7.162499999999999
20
-12.405813909212084
11
7.162499999999999
21
-12.405813909212084
40
0.4
50
-150
72
1
73
2
1
115.1mph
0
TEXT
8
scale-outer
420
15790320
10
1.6894002594237735e-15
20
-13.794999999999998
11
1.6894002594237735e-15
21
-13.794999999999998
40
0.4
50
-180
72
1
73
2
1
120kt
0
TEXT
8
scale-outer
420
15087942
10
1.7543065397785834e-15
20
-14.325
11
1.7543065397785834e-15
21
-14.325
40
0.4
50
-180
72
1
73
2
1
138.1mph
0
TEXT
8
scale-outer
420
15790320
10
-6.897500000000001
20
-11.94682044520633
11
-6.897500000000001
21
-11.94682044520633
40
0.4
50
-210
72
1
73
2
1
140kt
0
TEXT
8
scale-outer
420
15087942
10
-7.162500000000001
20
-12.405813909212082
11
-7.162500000000001
21
-12.405813909212082
40
0.4
50
-210
72
1
73
2
1
161.1mph
0
TEXT
8
scale-outer
420
15790320
10
-11.946820445206326
20
-6.897500000000005
11
-11.946820445206326
21
-6.897500000000005
40
0.4
50
-240
72
1
73
2
1
160kt
0
TEXT
8
scale-outer
420
15087942
10
-12.405813909212078
20
-7.162500000000006
11
-12.405813909212078
21
-7.162500000000006
40
0.4
50
-240
72
1
73
2
1
184.1mph
0
TEXT
8
scale-outer
420
15790320
10
-13.794999999999998
20
-2.53410038913566e-15
11
-13.794999999999998
21
-2.53410038913566e-15
40
0.4
50
-270
72
1
73
2
1
180kt
0
TEXT
8
scale-outer
420
15087942
10
-14.325
20
-2.631459809667875e-15
11
-14.325
21
-2.631459809667875e-15
40
0.4
50
-270
72
1
73
2
1
207.1mph
0
TEXT
8
scale-outer
420
15790320
10
-11.94682044520633
20
6.897500000000001
11
-11.94682044520633
21
6.897500000000001
40
0.4
50
-300
72
1
73
2
1
200kt
0
TEXT
8
scale-outer
420
15087942
10
-12.405813909212082
20
7.162500000000001
11
-12.405813909212082
21
7.162500000000001
40
0.4
50
-300
72
1
73
2
1
230.2mph
0
ENDSEC
0
EOF