0
SECTION
2
HEADER
9
$ACADVER
1
AC1021
9
$INSUNITS
70
4
0
ENDSEC
0
SECTION
2
ENTITIES
0
CIRCLE
8
band-group-dial-face
10
0
20
0
40
13.45
0
CIRCLE
8
band-group-dial-face
10
0
20
0
40
0
0
CIRCLE
8
band-group-chapter-ring
10
0
20
0
40
15.25
0
CIRCLE
8
band-group-chapter-ring
10
0
20
0
40
13.45
0
CIRCLE
8
band-group-inner-bezel
10
0
20
0
40
15.5
0
CIRCLE
8
band-group-inner-bezel
10
0
20
0
40
15.25
0
CIRCLE
8
band-group-outer-bezel
10
0
20
0
40
19
0
CIRCLE
8
band-group-outer-bezel
10
0
20
0
40
15.5
999
Scale text uses the DXF viewer font; use SVG with outlined text for font-exact manufacture.
0
HATCH
100
AcDbEntity
8
scale-outer-substrate
420
12759980
100
AcDbHatch
10
0
20
0
30
0
210
0
220
0
230
1
2
SOLID
70
1
71
0
91
2
92
1
93
1
72
2
10
0
20
0
40
19
50
0
51
360
73
1
97
0
92
0
93
1
72
2
10
0
20
0
40
15.5
50
0
51
360
73
0
97
0
75
0
76
1
98
0
0
HATCH
100
AcDbEntity
8
scale-inner-substrate
420
12496550
100
AcDbHatch
10
0
20
0
30
0
210
0
220
0
230
1
2
SOLID
70
1
71
0
91
2
92
1
93
1
72
2
10
0
20
0
40
15.25
50
0
51
360
73
1
97
0
92
0
93
1
72
2
10
0
20
0
40
13.45
50
0
51
360
73
0
97
0
75
0
76
1
98
0
0
LWPOLYLINE
8
scale-outer
420
4007974
90
2
70
0
43
0.04933333333333336
10
15.530936687799759
20
2.342943315006414
10
15.67596241238872
20
2.3648213934996822
0
LWPOLYLINE
8
scale-outer
420
4007974
90
2
70
0
43
0.04933333333333336
10
15.588305563733499
20
1.9246057854670038
10
15.733866990899092
20
1.9425774863499725
0
LWPOLYLINE
8
scale-outer
420
4007974
90
2
70
0
43
0.04933333333333336
10
15.634013021322966
20
1.508978007421482
10
15.780001258364182
20
1.5230686339763515
0
LWPOLYLINE
8
scale-outer
420
4007974
90
2
70
0
43
0.04933333333333336
10
15.668359189946553
20
1.0963111203463827
10
15.814668146728737
20
1.1065483209608225
0
LWPOLYLINE
8
scale-outer
420
4007974
90
2
70
0
43
0.04933333333333336
10
15.691641943461084
20
0.6868412451146739
10
15.838168311354183
20
0.693254873040193
0
LWPOLYLINE
8
scale-outer
420
4007974
90
2
70
0
43
0.04933333333333336
10
15.70415660545727
20
0.28079011565688705
10
15.850799833521812
20
0.28341209466556766
0
LWPOLYLINE
8
scale-outer
420
4007974
90
2
70
0
43
0.04933333333333336
10
15.70619568425003
20
-0.12163431186759964
10
15.85285795294846
20
-0.12277011613801017
0
LWPOLYLINE
8
scale-outer
420
4007974
90
2
70
0
43
0.04933333333333336
10
15.698048635379665
20
-0.5202372718600682
10
15.844634828069967
20
-0.5250951750777768
0
LWPOLYLINE
8
scale-outer
420
4007974
90
2
70
0
43
0.04933333333333336
10
15.680001649557019
20
-0.9148366234836518
10
15.826419322006194
20
-0.9233792405110883
0
LWPOLYLINE
8
scale-outer
420
4007974
90
2
70
0
43
0.10000000000000005
10
15.652337464131728
20
-1.3052623057133481
10
15.90479452000482
20
-1.3263149235474343
0
LWPOLYLINE
8
scale-outer
420
4007974
90
2
70
0
43
0.04933333333333336
10
15.615335196298426
20
-1.6913558126607635
10
15.761149022409873
20
-1.707149457770499
0
LWPOLYLINE
8
scale-outer
420
4007974
90
2
70
0
43
0.04933333333333336
10
15.569270196381911
20
-2.0729696885945468
10
15.714653873937259
20
-2.092326790949844
0
LWPOLYLINE
8
scale-outer
420
4007974
90
2
70
0
43
0.04933333333333336
10
15.514413919659665
20
-2.4499670420738777
10
15.65928535694002
20
-2.4728444932307645
0
LWPOLYLINE
8
scale-outer
420
4007974
90
2
70
0
43
0.04933333333333336
10
15.45103381528923
20
-2.822221078612823
10
15.595313417978687
20
-2.84857458613807
0
LWPOLYLINE
8
scale-outer
420
4007974
90
2
70
0
43
0.04933333333333336
10
15.379393231009242
20
-3.1896146512964343
10
15.523003863896426
20
-3.2193988288552298
0
LWPOLYLINE
8
scale-outer
420
4007974
90
2
70
0
43
0.04933333333333336
10
15.29975133237739
20
-3.552039828773613
10
15.442618280302815
20
-3.585208282183214
0
LWPOLYLINE
8
scale-outer
420
4007974
90
2
70
0
43
0.04933333333333336
10
15.212363035396194
20
-3.909397480058694
10
15.354413963570522
20
-3.9459028894650148
0
LWPOLYLINE
8
scale-outer
420
4007974
90
2
70
0
43
0.04933333333333336
10
15.117478951459145
20
-4.261596875581672
10
15.258643865267338
20
-4.3013910739105325
0
LWPOLYLINE
8
scale-outer
420
4007974
90
2
70
0
43
0.04933333333333336
10
15.01534534362534
20
-4.608555303937078
10
15.15555654802252
20
-4.651589351766711
0
LWPOLYLINE
8
scale-outer
420
4007974
90
2
70
0
43
0.10000000000000005
10
14.90620409330171
20
-4.950197703790539
10
15.146626739967868
20
-5.030039602238773
0
LWPOLYLINE
8
scale-outer
420
4007974
90
2
70
0
43
0.04933333333333336
10
14.790292676477227
20
-5.286456310414556
10
14.928402370400189
20
-5.335820503465965
0
LWPOLYLINE
8
scale-outer
420
4007974
90
2
70
0
43
0.04933333333333336
10
14.667844148714586
20
-5.617270316336669
10
14.804810435332465
20
-5.6697236045197785
0
LWPOLYLINE
8
scale-outer
420
4007974
90
2
70
0
43
0.04933333333333336
10
14.53908713816175
20
-5.942585545595228
10
14.67485110974051
20
-5.998076582099088
0
LWPOLYLINE
8
scale-outer
420
4007974
90
2
70
0
43
0.04933333333333336
10
14.404245845898462
20
-6.262354141111368
10
14.538750688262539
20
-6.320831132242289
0
LWPOLYLINE
8
scale-outer
420
4007974
90
2
70
0
43
0.04933333333333336
10
14.263540052981922
20
-6.576534264698868
10
14.396731004240667
20
-6.637945026084001
0
LWPOLYLINE
8
scale-outer
420
4007974
90
2
70
0
43
0.04933333333333336
10
14.117185133601733
20
-6.885089809246641
10
14.249009442998695
20
-6.949381819349963
0
LWPOLYLINE
8
scale-outer
420
4007974
90
2
70
0
43
0.04933333333333336
10
13.965392073796552
20
-7.187990122622472
10
14.095798960733532
20
-7.255110573682614
0
LWPOLYLINE
8
scale-outer
420
4007974
90
2
70
0
43
0.04933333333333336
10
13.808367495224536
20
-7.485209742859866
10
13.937308108507617
20
-7.555105589355162
0
LWPOLYLINE
8
scale-outer
420
4007974
90
2
70
0
43
0.04933333333333336
10
13.646313683516617
20
-7.7767281442033775
10
13.773741060866943
20
-7.849346148945514
0
LWPOLYLINE
8
scale-outer
420
4007974
90
2
70
0
43
0.10000000000000005
10
13.479428620775728
20
-8.062529493601247
10
13.696838759820498
20
-8.192570291885138
0
LWPOLYLINE
8
scale-outer
420
4007974
90
2
70
0
43
0.04933333333333336
10
13.307906021816974
20
-8.342602417247589
10
13.432173395535129
20
-8.420504477170955
0
LWPOLYLINE
8
scale-outer
420
4007974
90
2
70
0
43
0.04933333333333336
10
13.131935373773821
20
-8.616939776788833
10
13.25455955807901
20
-8.697403560782616
0
LWPOLYLINE
8
scale-outer
420
4007974
90
2
70
0
43
0.04933333333333336
10
12.951701978722301
20
-8.885538454823017
10
13.072643168676414
20
-8.968510375878239
0
LWPOLYLINE
8
scale-outer
420
4007974
90
2
70
0
43
0.04933333333333336
10
12.767386999001646
20
-9.148399149332167
10
12.886607081335278
20
-9.233825626957511
0
LWPOLYLINE
8
scale-outer
420
4007974
90
2
70
0
43
0.04933333333333336
10
12.579167504933197
20
-9.405526176701148
10
12.69663001983495
20
-9.493353670711091
0
LWPOLYLINE
8
scale-outer
420
4007974
90
2
70
0
43
0.04933333333333336
10
12.387216524661747
20
-9.656927282988349
10
12.502886628032952
20
-9.747102325528987
0
LWPOLYLINE
8
scale-outer
420
4007974
90
2
70
0
43
0.04933333333333336
10
12.191703095864643
20
-9.902613463124887
10
12.305547522056928
20
-9.99508268901145
0
LWPOLYLINE
8
scale-outer
420
4007974
90
2
70
0
43
0.04933333333333336
10
11.992792319092516
20
-10.142598787731544
10
12.104779344143465
20
-10.237308963168765
0
LWPOLYLINE
8
scale-outer
420
4007974
90
2
70
0
43
0.04933333333333336
10
11.790645412524032
20
-10.376900237253116
10
11.900744817904137
20
-10.473798287006753
0
LWPOLYLINE
8
scale-outer
420
4007974
90
2
70
0
43
0.10000000000000005
10
11.585419767933628
20
-10.60553754312107
10
11.772281377093849
20
-10.776594600268185
0
LWPOLYLINE
8
scale-outer
420
4007974
90
2
70
0
43
0.04933333333333336
10
11.377269007686188
20
-10.828533035666519
10
11.483508361747774
20
-10.929648369615865
0
LWPOLYLINE
8
scale-outer
420
4007974
90
2
70
0
43
0.04933333333333336
10
11.166343042588382
20
-11.045911498514545
10
11.270612799352788
20
-11.149056682286751
0
LWPOLYLINE
8
scale-outer
420
4007974
90
2
70
0
43
0.04933333333333336
10
10.952788130437968
20
-11.257700029202898
10
11.05506374116362
20
-11.362822864789683
0
LWPOLYLINE
8
scale-outer
420
4007974
90
2
70
0
43
0.04933333333333336
10
10.736746935126625
20
-11.463927905775874
10
10.837005183247502
20
-11.570976468563256
0
LWPOLYLINE
8
scale-outer
420
4007974
90
2
70
0
43
0.04933333333333336
10
10.518358586162437
20
-11.664626459114784
10
10.616577554284497
20
-11.77354911705219
0
LWPOLYLINE
8
scale-outer
420
4007974
90
2
70
0
43
0.04933333333333336
10
10.297758738489328
20
-11.859828950775153
10
10.39391777594551
20
-11.970574382403782
0
LWPOLYLINE
8
scale-outer
420
4007974
90
2
70
0
43
0.04933333333333336
10
10.075079632490956
20
-12.049570456109366
10
10.169159323456492
20
-12.162087667499181
0
LWPOLYLINE
8
scale-outer
420
4007974
90
2
70
0
43
0.04933333333333336
10
9.850450154075315
20
-12.233887752462639
10
9.9424322862441
20
-12.34812609310533
0
LWPOLYLINE
8
scale-outer
420
4007974
90
2
70
0
43
0.04933333333333336
10
9.623995894746207
20
-12.41281921223724
10
9.713863428568114
20
-12.528728389940643
0
LWPOLYLINE
8
scale-outer
420
4007974
90
2
70
0
43
0.10000000000000005
10
9.39583921157409
20
-12.586404700629348
10
9.547385005309158
20
-12.789411228058855
0
LWPOLYLINE
8
scale-outer
420
4007974
90
2
70
0
43
0.04933333333333336
10
8.934892188317436
20
-12.917704105642066
10
9.018324967665052
20
-13.038327828190505
0
LWPOLYLINE
8
scale-outer
420
4007974
90
2
70
0
43
0.04933333333333336
10
8.468525517503345
20
-13.228131135469308
10
8.547603429806006
20
-13.351653582404928
0
LWPOLYLINE
8
scale-outer
420
4007974
90
2
70
0
43
0.04933333333333336
10
7.997607676443059
20
-13.518049017202031
10
8.07228822350662
20
-13.644278676955192
0
LWPOLYLINE
8
scale-outer
420
4007974
90
2
70
0
43
0.04933333333333336
10
7.522961047533255
20
-13.787836482025567
10
7.593209410455891
20
-13.916585379565703
0
LWPOLYLINE
8
scale-outer
420
4007974
90
2
70
0
43
0.10000000000000005
10
7.045363745991984
20
-14.037885434225469
10
7.158998645120887
20
-14.264302941229106
0
LWPOLYLINE
8
scale-outer
420
4007974
90
2
70
0
43
0.04933333333333336
10
6.565551409547944
20
-14.268598826316508
10
6.626859614560701
20
-14.401837015696373
0
LWPOLYLINE
8
scale-outer
420
4007974
90
2
70
0
43
0.04933333333333336
10
6.084218946262005
20
-14.48038872377825
10
6.141032535743229
20
-14.61560457773543
0
LWPOLYLINE
8
scale-outer
420
4007974
90
2
70
0
43
0.04933333333333336
10
5.602022237509164
20
-14.673674544170272
10
5.654333141255005
20
-14.810695274209213
0
LWPOLYLINE
8
scale-outer
420
4007974
90
2
70
0
43
0.04933333333333336
10
5.119579793875759
20
-14.848881456591835
10
5.167385717248114
20
-14.987538244386835
0
LWPOLYLINE
8
scale-outer
420
4007974
90
2
70
0
43
0.10000000000000005
10
4.637474362348601
20
-15.006438928551212
10
4.712272335934869
20
-15.24847826610849
0
LWPOLYLINE
8
scale-outer
420
4007974
90
2
70
0
43
0.04933333333333336
10
4.156254483701554
20
-15.146779408326
10
4.195065009440702
20
-15.288217925721234
0
LWPOLYLINE
8
scale-outer
420
4007974
90
2
70
0
43
0.04933333333333336
10
3.676435999435728
20
-15.270337131832774
10
3.710766046968659
20
-15.41292941404853
0
LWPOLYLINE
8
scale-outer
420
4007974
90
2
70
0
43
0.04933333333333336
10
3.198503508007861
20
-15.377547043889647
10
3.2283706884731296
20
-15.52114043733853
0
LWPOLYLINE
8
scale-outer
420
4007974
90
2
70
0
43
0.04933333333333336
10
2.722911770404777
20
-15.468843824551625
10
2.7483379414357216
20
-15.613289734628083
0
LWPOLYLINE
8
scale-outer
420
4007974
90
2
70
0
43
0.10000000000000005
10
2.250087065387049
20
-15.544661011934474
10
2.2863787922481302
20
-15.795381350836642
0
LWPOLYLINE
8
scale-outer
420
4007974
90
2
70
0
43
0.04933333333333336
10
1.7804284949514044
20
-15.605430213619325
10
1.797053888367759
20
-15.751151548381474
0
LWPOLYLINE
8
scale-outer
420
4007974
90
2
70
0
43
0.04933333333333336
10
1.314309240743574
20
-15.651580399355007
10
1.3265820774567991
20
-15.797732678126573
0
LWPOLYLINE
8
scale-outer
420
4007974
90
2
70
0
43
0.04933333333333336
10
0.8520777723053636
20
-15.683537268349921
10
0.8600343559177227
20
-15.829987955915158
0
LWPOLYLINE
8
scale-outer
420
4007974
90
2
70
0
43
0.04933333333333336
10
0.39405900816141687
20
-15.701722684975195
10
0.39773867631912113
20
-15.848343185429123
0
LWPOLYLINE
8
scale-outer
420
4007974
90
2
70
0
43
0.10000000000000005
10
-0.05944456915272824
20
-15.706554177189089
10
-0.060403352526159346
20
-15.959885696176011
0
LWPOLYLINE
8
scale-outer
420
4007974
90
2
70
0
43
0.04933333333333336
10
-0.508151842943253
20
-15.698444492442274
10
-0.5128968941082579
20
-15.845034381590716
0
LWPOLYLINE
8
scale-outer
420
4007974
90
2
70
0
43
0.04933333333333336
10
-0.9518020358576019
20
-15.677801206237918
10
-0.9606898307594981
20
-15.82419833125372
0
LWPOLYLINE
8
scale-outer
420
4007974
90
2
70
0
43
0.04933333333333336
10
-1.390153725755381
20
-15.645026378902218
10
-1.403134787710652
20
-15.791117457143239
0
LWPOLYLINE
8
scale-outer
420
4007974
90
2
70
0
43
0.04933333333333336
10
-1.8229839026478647
20
-15.600516256472558
10
-1.8400066725367668
20
-15.746191705386988
0
LWPOLYLINE
8
scale-outer
420
4007974
90
2
70
0
43
0.10000000000000005
10
-2.2500870653870177
20
-15.544661011934478
10
-2.2863787922480987
20
-15.795381350836646
0
LWPOLYLINE
8
scale-outer
420
4007974
90
2
70
0
43
0.04933333333333336
10
-2.6712743567788495
20
-15.477844523337012
10
-2.696218344830265
20
-15.62237448068566
0
LWPOLYLINE
8
scale-outer
420
4007974
90
2
70
0
43
0.04933333333333336
10
-3.086372735797435
20
-15.400444185591013
10
-3.1151928547225385
20
-15.544251389361389
0
LWPOLYLINE
8
scale-outer
420
4007974
90
2
70
0
43
0.04933333333333336
10
-3.4952241855850614
20
-15.312830753008376
10
-3.527862102428385
20
-15.455819834742748
0
LWPOLYLINE
8
scale-outer
420
4007974
90
2
70
0
43
0.04933333333333336
10
-3.8976849559380082
20
-15.215368209873604
10
-3.934080995424696
20
-15.357447199948826
0
LWPOLYLINE
8
scale-outer
420
4007974
90
2
70
0
43
0.10000000000000005
10
-4.293624838997082
20
-15.108413666554311
10
-4.362876852529293
20
-15.352097757950348
0
LWPOLYLINE
8
scale-outer
420
4007974
90
2
70
0
43
0.04933333333333336
10
-4.682926476884883
20
-14.992317278855472
10
-4.7266549923736205
20
-15.132313450389777
0
LWPOLYLINE
8
scale-outer
420
4007974
90
2
70
0
43
0.04933333333333336
10
-5.065484700057694
20
-14.867422188505284
10
-5.112785490975041
20
-15.006252107073669
0
LWPOLYLINE
8
scale-outer
420
4007974
90
2
70
0
43
0.04933333333333336
10
-5.441205895170018
20
-14.734064482828384
10
-5.492015118299789
20
-14.871649125707085
0
LWPOLYLINE
8
scale-outer
420
4007974
90
2
70
0
43
0.04933333333333336
10
-5.810007401278226
20
-14.592573171818259
10
-5.864260441527853
20
-14.728836588533031
0
LWPOLYLINE
8
scale-outer
420
4007974
90
2
70
0
43
0.10000000000000005
10
-6.171816933244233
20
-14.443270180963088
10
-6.271362367651398
20
-14.676226151623785
0
LWPOLYLINE
8
scale-outer
420
4007974
90
2
70
0
43
0.04933333333333336
10
-6.5265720312319235
20
-14.286470358311705
10
-6.587516252236636
20
-14.419875429569284
0
LWPOLYLINE
8
scale-outer
420
4007974
90
2
70
0
43
0.04933333333333336
10
-6.874219535223439
20
-14.122481494387955
10
-6.938410040221281
20
-14.254355260464582
0
LWPOLYLINE
8
scale-outer
420
4007974
90
2
70
0
43
0.04933333333333336
10
-7.214715083516842
20
-13.951604353673893
10
-7.2820850885411925
20
-14.08188249279988
0
LWPOLYLINE
8
scale-outer
420
4007974
90
2
70
0
43
0.04933333333333336
10
-7.548022634201332
20
-13.774132716485717
10
-7.618505018731225
20
-13.902753650171066
0
LWPOLYLINE
8
scale-outer
420
4007974
90
2
70
0
43
0.10000000000000005
10
-7.874114008640305
20
-13.590353430161862
10
-8.001115847489343
20
-13.809552679035441
0
LWPOLYLINE
8
scale-outer
420
4007974
90
2
70
0
43
0.04933333333333336
10
-8.192968456027382
20
-13.40054646857053
10
-8.269473254852764
20
-13.525678905883158
0
LWPOLYLINE
8
scale-outer
420
4007974
90
2
70
0
43
0.04933333333333336
10
-8.504572238113777
20
-13.204984999025264
10
-8.58398674967511
20
-13.328291310561152
0
LWPOLYLINE
8
scale-outer
420
4007974
90
2
70
0
43
0.04933333333333336
10
-8.808918233239314
20
-13.00393545577191
10
-8.89117468533238
20
-13.125364394662817
0
LWPOLYLINE
8
scale-outer
420
4007974
90
2
70
0
43
0.04933333333333336
10
-9.106005558832123
20
-12.797657619279251
10
-9.19103617101137
20
-12.917160364450789
0
LWPOLYLINE
8
scale-outer
420
4007974
90
2
70
0
43
0.10000000000000005
10
-9.39583921157407
20
-12.586404700629364
10
-9.547385005309136
20
-12.78941122805887
0
LWPOLYLINE
8
scale-outer
420
4007974
90
2
70
0
43
0.04933333333333336
10
-9.678429724459866
20
-12.370423430362823
10
-9.768805553805416
20
-12.485936722157382
0
LWPOLYLINE
8
scale-outer
420
4007974
90
2
70
0
43
0.04933333333333336
10
-9.953792840009598
20
-12.149954151187217
10
-10.04673997179237
20
-12.263408731546349
0
LWPOLYLINE
8
scale-outer
420
4007974
90
2
70
0
43
0.04933333333333336
10
-10.22194919892313
20
-11.925230914008019
10
-10.317400337452973
20
-12.036587060064122
0
LWPOLYLINE
8
scale-outer
420
4007974
90
2
70
0
43
0.04933333333333336
10
-10.482924043493641
20
-11.696481576787129
10
-10.580812128789423
20
-11.805701693378518
0
LWPOLYLINE
8
scale-outer
420
4007974
90
2
70
0
43
0.10000000000000005
10
-10.736746935126593
20
-11.463927905775904
10
-10.909920272789925
20
-11.64882996877229
0
LWPOLYLINE
8
scale-outer
420
4007974
90
2
70
0
43
0.04933333333333336
10
-11.34024422217584
20
-10.867301355865
10
-11.446137843944886
20
-10.968778702991072
0
LWPOLYLINE
8
scale-outer
420
4007974
90
2
70
0
43
0.060000000000000026
10
-11.899886252983267
20
-10.25144306640961
10
-12.101921673237651
20
-10.425491335788383
0
LWPOLYLINE
8
scale-outer
420
4007974
90
2
70
0
43
0.04933333333333336
10
-12.416422648945384
20
-9.619346463275656
10
-12.532365475039102
20
-9.709170581353783
0
LWPOLYLINE
8
scale-outer
420
4007974
90
2
70
0
43
0.060000000000000026
10
-12.890708333615187
20
-8.973796099502248
10
-13.109565860501693
20
-9.126152569782422
0
LWPOLYLINE
8
scale-outer
420
4007974
90
2
70
0
43
0.04933333333333336
10
-13.323685606183906
20
-8.317378171355776
10
-13.448100327464061
20
-8.395044690782697
0
LWPOLYLINE
8
scale-outer
420
4007974
90
2
70
0
43
0.060000000000000026
10
-13.716368344839404
20
-7.652490915150788
10
-13.949243868520888
20
-7.782414360229749
0
LWPOLYLINE
8
scale-outer
420
4007974
90
2
70
0
43
0.04933333333333336
10
-14.069828105889256
20
-6.981354800359782
10
-14.201210201954435
20
-7.046545719548201
0
LWPOLYLINE
8
scale-outer
420
4007974
90
2
70
0
43
0.060000000000000026
10
-14.385181909543233
20
-6.306022455330133
10
-14.629412502234969
20
-6.41308565491129
0
LWPOLYLINE
8
scale-outer
420
4007974
90
2
70
0
43
0.04933333333333336
10
-14.663581525710256
20
-5.628388278772765
10
-14.80050800854796
20
-5.680945384941271
0
LWPOLYLINE
8
scale-outer
420
4007974
90
2
70
0
43
0.10000000000000005
10
-14.906204093301708
20
-4.950197703790545
10
-15.146626739967866
20
-5.03003960223878
0
LWPOLYLINE
8
scale-outer
420
4007974
90
2
70
0
43
0.04933333333333336
10
-15.114243924558183
20
-4.273056092158614
10
-15.255378630135551
20
-4.312957295056529
0
LWPOLYLINE
8
scale-outer
420
4007974
90
2
70
0
43
0.060000000000000026
10
-15.288905362032343
20
-3.5984372453325437
10
-15.54847930705836
20
-3.659531256288954
0
LWPOLYLINE
8
scale-outer
420
4007974
90
2
70
0
43
0.04933333333333336
10
-15.431396570255629
20
-2.9276915256359555
10
-15.575492803084842
20
-2.9550299015120127
0
LWPOLYLINE
8
scale-outer
420
4007974
90
2
70
0
43
0.060000000000000026
10
-15.542924156965034
20
-2.262053586591307
10
-15.806810814978023
20
-2.3004585710835195
0
LWPOLYLINE
8
scale-outer
420
4007974
90
2
70
0
43
0.04933333333333336
10
-15.624688530227965
20
-1.60264971567102
10
-15.770589696469484
20
-1.6176150355966405
0
LWPOLYLINE
8
scale-outer
420
4007974
90
2
70
0
43
0.060000000000000026
10
-15.677879908023304
20
-0.9505047960831252
10
-15.94405783515443
20
-0.9666423987330934
0
LWPOLYLINE
8
scale-outer
420
4007974
90
2
70
0
43
0.04933333333333336
10
-15.703674905947448
20
-0.3065488967427775
10
-15.850313635969028
20
-0.309411407663126
0
LWPOLYLINE
8
scale-outer
420
4007974
90
2
70
0
43
0.060000000000000026
10
-15.703233636833897
20
0.32837649852919326
10
-15.969842017764863
20
0.33395165130558024
0
LWPOLYLINE
8
scale-outer
420
4007974
90
2
70
0
43
0.04933333333333336
10
-15.677697263310447
20
0.9535126101766559
10
-15.824093417721667
20
0.9624163781833989
0
LWPOLYLINE
8
scale-outer
420
4007974
90
2
70
0
43
0.10000000000000005
10
-15.628185950765834
20
1.5681778171059502
10
-15.880253466100767
20
1.5934710077044332
0
LWPOLYLINE
8
scale-outer
420
4007974
90
2
70
0
43
0.04933333333333336
10
-15.555797173942759
20
2.171762431973686
10
-15.701055042290273
20
2.192042047212829
0
LWPOLYLINE
8
scale-outer
420
4007974
90
2
70
0
43
0.060000000000000026
10
-15.46160433549403
20
2.7637237833057697
10
-15.724110351376783
20
2.810646088625053
0
LWPOLYLINE
8
scale-outer
420
4007974
90
2
70
0
43
0.04933333333333336
10
-15.346655659400923
20
3.3435815900850088
10
-15.48996059340212
20
3.374803489483086
0
LWPOLYLINE
8
scale-outer
420
4007974
90
2
70
0
43
0.060000000000000026
10
-15.211973326219436
20
3.9109136145108327
10
-15.470241124627236
20
3.9773128269813056
0
LWPOLYLINE
8
scale-outer
420
4007974
90
2
70
0
43
0.04933333333333336
10
-15.058552820744536
20
4.465351578837283
10
-15.199167490547753
20
4.507048410218616
0
LWPOLYLINE
8
scale-outer
420
4007974
90
2
70
0
43
0.060000000000000026
10
-14.88736246591416
20
5.006577332496528
10
-15.140119044282823
20
5.09157864544214
0
LWPOLYLINE
8
scale-outer
420
4007974
90
2
70
0
43
0.04933333333333336
10
-14.699343119655595
20
5.534319256097497
10
-14.836603539278864
20
5.585997958828458
0
LWPOLYLINE
8
scale-outer
420
4007974
90
2
70
0
43
0.060000000000000026
10
-14.49540801394609
20
6.048348889325522
10
-14.741510017578452
20
6.151037325477059
0
LWPOLYLINE
8
scale-outer
420
4007974
90
2
70
0
43
0.04933333333333336
10
-14.276442717651427
20
6.548477770245182
10
-14.40975415219656
20
6.609626543991105
0
LWPOLYLINE
8
scale-outer
420
4007974
90
2
70
0
43
0.10000000000000005
10
-14.043305206749427
20
7.034554474013423
10
-14.269810129438934
20
7.148015030045898
0
LWPOLYLINE
8
scale-outer
420
4007974
90
2
70
0
43
0.04933333333333336
10
-13.79682602736944
20
7.506461839527262
10
-13.925658868032482
20
7.576556135142542
0
LWPOLYLINE
8
scale-outer
420
4007974
90
2
70
0
43
0.060000000000000026
10
-13.537808538705516
20
7.964114373056792
10
-13.767652486731079
20
8.099328538983054
0
LWPOLYLINE
8
scale-outer
420
4007974
90
2
70
0
43
0.04933333333333336
10
-13.267029224312854
20
8.407455818439162
10
-13.390914896186741
20
8.485963470394026
0
LWPOLYLINE
8
scale-outer
420
4007974
90
2
70
0
43
0.060000000000000026
10
-12.985238061592488
20
8.836456883929642
10
-13.205700507459934
20
8.986481618801113
0
LWPOLYLINE
8
scale-outer
420
4007974
90
2
70
0
43
0.04933333333333336
10
-12.693158940425642
20
9.251113116315809
10
-12.811685891482249
20
9.337498722665108
0
LWPOLYLINE
8
scale-outer
420
4007974
90
2
70
0
43
0.060000000000000026
10
-12.391490122951096
20
9.651442913398144
10
-12.60187195865485
20
9.815304422963477
0
LWPOLYLINE
8
scale-outer
420
4007974
90
2
70
0
43
0.04933333333333336
10
-12.080904737399669
20
10.03748566642324
10
-12.193714543945847
20
10.131214310167431
0
LWPOLYLINE
8
scale-outer
420
4007974
90
2
70
0
43
0.060000000000000026
10
-11.76205129972242
20
10.409300024520187
10
-11.961746567968982
20
10.586028378077405
0
LWPOLYLINE
8
scale-outer
420
4007974
90
2
70
0
43
0.04933333333333336
10
-11.435554257482577
20
10.766962273638274
10
-11.542337871092347
20
10.867502668383624
0
LWPOLYLINE
8
scale-outer
420
4007974
90
2
70
0
43
0.10000000000000005
10
-11.10201455113584
20
11.110564822912734
10
-11.281079301960613
20
11.289767481346809
0
LWPOLYLINE
8
scale-outer
420
4007974
90
2
70
0
43
0.04933333333333336
10
-10.762010188408224
20
11.4402147917937
10
-10.86250434127112
20
11.547041924824033
0
LWPOLYLINE
8
scale-outer
420
4007974
90
2
70
0
43
0.060000000000000026
10
-10.416096828001246
20
11.756032691664316
10
-10.592940577203306
20
11.955625776412438
0
LWPOLYLINE
8
scale-outer
420
4007974
90
2
70
0
43
0.04933333333333336
10
-10.064808369320376
20
12.058151196043127
10
-10.15879214866038
20
12.170748533187842
0
LWPOLYLINE
8
scale-outer
420
4007974
90
2
70
0
43
0.060000000000000026
10
-9.708657545335331
20
12.346713993819616
10
-9.873490440841875
20
12.55633562359584
0
LWPOLYLINE
8
scale-outer
420
4007974
90
2
70
0
43
0.04933333333333336
10
-9.348136516052762
20
12.621874720302793
10
-9.4354281134013
20
12.739736029236012
0
LWPOLYLINE
8
scale-outer
420
4007974
90
2
70
0
43
0.060000000000000026
10
-8.983717460408798
20
12.883795961180224
10
-9.136242374846978
20
13.102536130300432
0
LWPOLYLINE
8
scale-outer
420
4007974
90
2
70
0
43
0.04933333333333336
10
-8.615853164684703
20
13.132648324780893
10
-8.696306802045935
20
13.255279166523328
0
LWPOLYLINE
8
scale-outer
420
4007974
90
2
70
0
43
0.060000000000000026
10
-8.244977605807858
20
13.368609578318333
10
-8.384960247672169
20
13.595580878459563
0
LWPOLYLINE
8
scale-outer
420
4007974
90
2
70
0
43
0.04933333333333336
10
-7.87150652813488
20
13.591863844054197
10
-7.945009560231216
20
13.718782776384076
0
LWPOLYLINE
8
scale-outer
420
4007974
90
2
70
0
43
0.10000000000000005
10
-7.495838012517956
20
13.802600851573905
10
-7.616738625623085
20
14.02522344595413
0
LWPOLYLINE
8
scale-outer
420
4007974
90
2
70
0
43
0.04933333333333336
10
-7.118353036641686
20
14.001015242599799
10
-7.1848232262877465
20
14.13175477372764
0
LWPOLYLINE
8
scale-outer
420
4007974
90
2
70
0
43
0.060000000000000026
10
-6.739416025778815
20
14.187305924989898
10
-6.853837350494924
20
14.428176993325891
0
LWPOLYLINE
8
scale-outer
420
4007974
90
2
70
0
43
0.04933333333333336
10
-6.359375393258448
20
14.361675472778124
10
-6.418758355334716
20
14.49578279892461
0
LWPOLYLINE
8
scale-outer
420
4007974
90
2
70
0
43
0.060000000000000026
10
-5.97856407006863
20
14.52432956930757
10
-6.080067704534991
20
14.770922601044541
0
LWPOLYLINE
8
scale-outer
420
4007974
90
2
70
0
43
0.04933333333333336
10
-5.597300023128224
20
14.675476490692441
10
-5.649566831493598
20
14.812514047057142
0
LWPOLYLINE
8
scale-outer
420
4007974
90
2
70
0
43
0.060000000000000026
10
-5.215886761863196
20
14.815326627016972
10
-5.3044417153753045
20
15.066860186049519
0
LWPOLYLINE
8
scale-outer
420
4007974
90
2
70
0
43
0.04933333333333336
10
-4.834613832810631
20
14.944092038841767
10
-4.87975878371124
20
15.083637889798693
0
LWPOLYLINE
8
scale-outer
420
4007974
90
2
70
0
43
0.060000000000000026
10
-4.45375730205177
20
15.06198604674026
10
-4.529372875940594
20
15.317707371812253
0
LWPOLYLINE
8
scale-outer
420
4007974
90
2
70
0
43
0.04933333333333336
10
-4.073580225343441
20
15.169222851730694
10
-4.111618750367871
20
15.310870942875887
0
LWPOLYLINE
8
scale-outer
420
4007974
90
2
70
0
43
0.10000000000000005
10
-3.6943331058771065
20
15.266017184603134
10
-3.7539191237138345
20
15.512243268225765
0
LWPOLYLINE
8
scale-outer
420
4007974
90
2
70
0
43
0.04933333333333336
10
-3.3162543396470414
20
15.352583982266632
10
-3.347221060985002
20
15.495944274121413
0
LWPOLYLINE
8
scale-outer
420
4007974
90
2
70
0
43
0.060000000000000026
10
-2.9395706484553745
20
15.429138089359284
10
-2.9894784693120022
20
15.69109289563024
0
LWPOLYLINE
8
scale-outer
420
4007974
90
2
70
0
43
0.04933333333333336
10
-2.564497500620069
20
15.495893983474824
10
-2.5884444212540427
20
15.64059248416941
0
LWPOLYLINE
8
scale-outer
420
4007974
90
2
70
0
43
0.060000000000000026
10
-2.191239519487302
20
15.553065522462601
10
-2.2284422277977827
20
15.817124359855855
0
LWPOLYLINE
8
scale-outer
420
4007974
90
2
70
0
43
0.04933333333333336
10
-1.8199908798784357
20
15.600865712355104
10
-1.8369857013374022
20
15.746544424439914
0
LWPOLYLINE
8
scale-outer
420
4007974
90
2
70
0
43
0.060000000000000026
10
-1.4509356926272017
20
15.639506494568113
10
-1.475569575354319
20
15.905032920621903
0
LWPOLYLINE
8
scale-outer
420
4007974
90
2
70
0
43
0.04933333333333336
10
-1.0842483773844456
20
15.669198551103912
10
-1.09437293778447
20
15.815515345723728
0
LWPOLYLINE
8
scale-outer
420
4007974
90
2
70
0
43
0.060000000000000026
10
-0.7200940238848235
20
15.690151126568002
10
-0.7323197288743791
20
15.956537393572553
0
LWPOLYLINE
8
scale-outer
420
4007974
90
2
70
0
43
0.04933333333333336
10
-0.35862874188552923
20
15.702571865884627
10
-0.361977567149316
20
15.849200295871665
0
LWPOLYLINE
8
scale-outer
420
4007974
90
2
70
0
43
0.04933333333333336
10
0.70819923756595
20
15.690692515554844
10
0.7148123034515403
20
15.837210017822335
0
LWPOLYLINE
8
scale-outer
420
4007974
90
2
70
0
43
0.04933333333333336
10
1.4034845641386842
20
15.643836129798926
10
1.4165901076068723
20
15.789916093659528
0
LWPOLYLINE
8
scale-outer
420
4007974
90
2
70
0
43
0.04933333333333336
10
2.0849552078735734
20
15.567669689421685
10
2.104424229339286
20
15.713038421665859
0
LWPOLYLINE
8
scale-outer
420
4007974
90
2
70
0
43
0.04933333333333336
10
2.751819718184409
20
15.463727429581436
10
2.7775158276071834
20
15.608125563473962
0
LWPOLYLINE
8
scale-outer
420
4007974
90
2
70
0
43
0.10000000000000005
10
3.4033875339290556
20
15.33350354849387
10
3.458280881250492
20
15.580818121856675
0
LWPOLYLINE
8
scale-outer
420
4007974
90
2
70
0
43
0.04933333333333336
10
4.039061118776968
20
15.17845061449165
10
4.076777309189995
20
15.320184873200825
0
LWPOLYLINE
8
scale-outer
420
4007974
90
2
70
0
43
0.04933333333333336
10
4.658328631647062
20
14.999978404562954
10
4.701827455881458
20
15.14004611462254
0
LWPOLYLINE
8
scale-outer
420
4007974
90
2
70
0
43
0.04933333333333336
10
5.260757100869763
20
14.799453115011586
10
5.3098813182802616
20
14.937648347834275
0
LWPOLYLINE
8
scale-outer
420
4007974
90
2
70
0
43
0.04933333333333336
10
5.84598607171428
20
14.57819689217773
10
5.900575075779524
20
14.714326065194669
0
LWPOLYLINE
8
scale-outer
420
4007974
90
2
70
0
43
0.10000000000000005
10
6.413721698064232
20
14.337487637572973
10
6.517168822226559
20
14.568737438178989
0
LWPOLYLINE
8
scale-outer
420
4007974
90
2
70
0
43
0.04933333333333336
10
6.963731250270426
20
14.078559047423315
10
7.028757603201643
20
14.210022671805028
0
LWPOLYLINE
8
scale-outer
420
4007974
90
2
70
0
43
0.04933333333333336
10
7.495838012517928
20
13.80260085157392
10
7.565833104315633
20
13.931487616741418
0
LWPOLYLINE
8
scale-outer
420
4007974
90
2
70
0
43
0.04933333333333336
10
8.009916544383099
20
13.510759221072504
10
8.084712029941855
20
13.636920809724284
0
LWPOLYLINE
8
scale-outer
420
4007974
90
2
70
0
43
0.04933333333333336
10
8.505888282602637
20
13.204137317585763
10
8.58531508320419
20
13.327435713590383
0
LWPOLYLINE
8
scale-outer
420
4007974
90
2
70
0
43
0.10000000000000005
10
8.98371746040878
20
12.883795961180237
10
9.128616129125051
20
13.091599121844435
0
LWPOLYLINE
8
scale-outer
420
4007974
90
2
70
0
43
0.04933333333333336
10
9.443407323091481
20
12.550754395969989
10
9.53158854597264
20
12.66795159321589
0
LWPOLYLINE
8
scale-outer
420
4007974
90
2
70
0
43
0.04933333333333336
10
9.884996619717382
20
12.205991135747793
10
9.977301341972808
20
12.319968981667339
0
LWPOLYLINE
8
scale-outer
420
4007974
90
2
70
0
43
0.04933333333333336
10
10.308556352159854
20
11.850444874017283
10
10.404816216229259
20
11.961102678443591
0
LWPOLYLINE
8
scale-outer
420
4007974
90
2
70
0
43
0.04933333333333336
10
10.714186763769485
20
11.48501544486748
10
10.814234348151032
20
11.592260920159111
0
LWPOLYLINE
8
scale-outer
420
4007974
90
2
70
0
43
0.10000000000000005
10
11.102014551135834
20
11.110564822912739
10
11.281079301960608
20
11.289767481346814
0
LWPOLYLINE
8
scale-outer
420
4007974
90
2
70
0
43
0.04933333333333336
10
11.472190283458593
20
10.727918152087852
10
11.579315999178496
20
10.828093958261848
0
LWPOLYLINE
8
scale-outer
420
4007974
90
2
70
0
43
0.04933333333333336
10
11.824886015057618
20
10.337864794466627
10
11.93530515441724
20
10.43439833669
0
LWPOLYLINE
8
scale-outer
420
4007974
90
2
70
0
43
0.04933333333333336
10
12.160293077507635
20
9.941159391484359
10
12.273844201321372
20
10.033988553883617
0
LWPOLYLINE
8
scale-outer
420
4007974
90
2
70
0
43
0.04933333333333336
10
12.478620038785104
20
9.538522931010267
10
12.595143655446085
20
9.62759233019627
0
LWPOLYLINE
8
scale-outer
420
4007974
90
2
70
0
43
0.10000000000000005
10
12.78009081766344
20
9.130643814652524
10
12.98622131472253
20
9.277912263275953
0
LWPOLYLINE
8
scale-outer
420
4007974
90
2
70
0
43
0.04933333333333336
10
13.064942942389976
20
8.718178920501238
10
13.186941560697521
20
8.799588061524595
0
LWPOLYLINE
8
scale-outer
420
4007974
90
2
70
0
43
0.04933333333333336
10
13.333425943426358
20
8.301754657236188
10
13.457931618619643
20
8.37927528646335
0
LWPOLYLINE
8
scale-outer
420
4007974
90
2
70
0
43
0.04933333333333336
10
13.585799870733931
20
7.881968006160879
10
13.712662178525164
20
7.955568726082585
0
LWPOLYLINE
8
scale-outer
420
4007974
90
2
70
0
43
0.04933333333333336
10
13.822333926742001
20
7.459387548278672
10
13.951404956618198
20
7.529042270715909
0
LWPOLYLINE
8
scale-outer
420
4007974
90
2
70
0
43
0.10000000000000005
10
14.043305206749409
20
7.034554474013458
10
14.269810129438916
20
7.148015030045934
0
LWPOLYLINE
8
scale-outer
420
4007974
90
2
70
0
43
0.04933333333333336
10
14.248997539082016
20
6.607983573603406
10
14.382052694370557
20
6.669688004256749
0
LWPOLYLINE
8
scale-outer
420
4007974
90
2
70
0
43
0.04933333333333336
10
14.43970041786334
20
6.1801642065672535
10
14.574536330084475
20
6.2378737195318035
0
LWPOLYLINE
8
scale-outer
420
4007974
90
2
70
0
43
0.04933333333333336
10
14.615708021753644
20
5.751561248967449
10
14.7521874684763
20
5.805268527183613
0
LWPOLYLINE
8
scale-outer
420
4007974
90
2
70
0
43
0.04933333333333336
10
14.777318312477103
20
5.322616017477369
10
14.915306853595311
20
5.3723178648392125
0
LWPOLYLINE
8
scale-outer
420
4007974
90
2
70
0
43
0.10000000000000005
10
14.924832207389878
20
4.893747169504736
10
15.16555530750907
20
4.9726785754644895
0
LWPOLYLINE
8
scale-outer
420
4007974
90
2
70
0
43
0.04933333333333336
10
15.058552820744525
20
4.465351578837313
10
15.199167490547742
20
4.507048410218646
0
LWPOLYLINE
8
scale-outer
420
4007974
90
2
70
0
43
0.04933333333333336
10
15.178784768681636
20
4.037805186461597
10
15.320522147676115
20
4.075509649153513
0
LWPOLYLINE
8
scale-outer
420
4007974
90
2
70
0
43
0.04933333333333336
10
15.285833533329093
20
3.611463826363155
10
15.428570518784626
20
3.6451871727892966
0
LWPOLYLINE
8
scale-outer
420
4007974
90
2
70
0
43
0.04933333333333336
10
15.380004881713857
20
3.1866640262562482
10
15.523621226110167
20
3.2164206512892015
0
LWPOLYLINE
8
scale-inner
420
4007974
90
2
70
0
43
0.04000000000000002
10
14.875024887954226
20
2.243994732730039
10
14.55860512521467
20
2.19626074329018
0
LWPOLYLINE
8
scale-inner
420
4007974
90
2
70
0
43
0.04000000000000002
10
14.929970927234566
20
1.8433246837463046
10
14.612382358873273
20
1.8041137000016458
0
LWPOLYLINE
8
scale-inner
420
4007974
90
2
70
0
43
0.04000000000000002
10
14.973748040159283
20
1.4452499464119584
10
14.655228250251175
20
1.414506761201334
0
LWPOLYLINE
8
scale-inner
420
4007974
90
2
70
0
43
0.04000000000000002
10
15.006643680863496
20
1.050011053931075
10
14.687424138793277
20
1.0276753434995696
0
LWPOLYLINE
8
scale-inner
420
4007974
90
2
70
0
43
0.04000000000000002
10
15.028943143217289
20
0.6578341551788037
10
14.709249249632343
20
0.6438407851594895
0
LWPOLYLINE
8
scale-inner
420
4007974
90
2
70
0
43
0.04000000000000002
10
15.040929278529001
20
0.2689316196858088
10
14.720980417297275
20
0.2632109382123239
0
LWPOLYLINE
8
scale-inner
420
4007974
90
2
70
0
43
0.04000000000000002
10
15.042882241727586
20
-0.11649737891733386
10
14.722891837294648
20
-0.11401926050916544
0
LWPOLYLINE
8
scale-inner
420
4007974
90
2
70
0
43
0.04000000000000002
10
15.035079263893978
20
-0.49826630048906784
10
14.715254843478773
20
-0.48766723892315816
0
LWPOLYLINE
8
scale-inner
420
4007974
90
2
70
0
43
0.04000000000000002
10
15.01779444916189
20
-0.8762006964732004
10
14.698337709272781
20
-0.8575622593224299
0
LWPOLYLINE
8
scale-inner
420
4007974
90
2
70
0
43
0.08000000000000004
10
14.991298594148235
20
-1.2501376879635695
10
14.552820549737076
20
-1.2135726148833144
0
LWPOLYLINE
8
scale-inner
420
4007974
90
2
70
0
43
0.04000000000000002
10
14.95585902820348
20
-1.619925463187187
10
14.637719771233053
20
-1.5854666011295824
0
LWPOLYLINE
8
scale-inner
420
4007974
90
2
70
0
43
0.04000000000000002
10
14.911739472892945
20
-1.9854227938512712
10
14.594538721863094
20
-1.9431891159851684
0
LWPOLYLINE
8
scale-inner
420
4007974
90
2
70
0
43
0.04000000000000002
10
14.859199919232612
20
-2.3464985697961396
10
14.543116783348204
20
-2.2965841309083865
0
LWPOLYLINE
8
scale-inner
420
4007974
90
2
70
0
43
0.04000000000000002
10
14.798496521307362
20
-2.703031351396364
10
14.483704660893999
20
-2.645532789523098
0
LWPOLYLINE
8
scale-inner
420
4007974
90
2
70
0
43
0.04000000000000002
10
14.729881504996756
20
-3.0549089391555193
10
14.416549215061083
20
-2.989925279027239
0
LWPOLYLINE
8
scale-inner
420
4007974
90
2
70
0
43
0.04000000000000002
10
14.65360309062376
20
-3.4020279599438275
10
14.341893386059194
20
-3.329660425231971
0
LWPOLYLINE
8
scale-inner
420
4007974
90
2
70
0
43
0.04000000000000002
10
14.569905428425939
20
-3.7442934693346532
10
14.259976130591042
20
-3.6646453033572266
0
LWPOLYLINE
8
scale-inner
420
4007974
90
2
70
0
43
0.04000000000000002
10
14.479028545826639
20
-4.081618569503413
10
14.171032370245127
20
-3.9947948640586257
0
LWPOLYLINE
8
scale-inner
420
4007974
90
2
70
0
43
0.04000000000000002
10
14.381208305556273
20
-4.413924042162146
10
14.075292950507878
20
-4.320031574170219
0
LWPOLYLINE
8
scale-inner
420
4007974
90
2
70
0
43
0.08000000000000004
10
14.276676373741642
20
-4.7411379960116085
10
13.859100197953055
20
-4.60246522502257
0
LWPOLYLINE
8
scale-inner
420
4007974
90
2
70
0
43
0.04000000000000002
10
14.16566019714383
20
-5.063195528204773
10
13.864329955857366
20
-4.955491834274425
0
LWPOLYLINE
8
scale-inner
420
4007974
90
2
70
0
43
0.04000000000000002
10
14.048382988783727
20
-5.380038399326695
10
13.74954745434472
20
-5.265594861472637
0
LWPOLYLINE
8
scale-inner
420
4007974
90
2
70
0
43
0.04000000000000002
10
13.925063721248721
20
-5.691614721407314
10
13.628851419622336
20
-5.570543369035255
0
LWPOLYLINE
8
scale-inner
420
4007974
90
2
70
0
43
0.04000000000000002
10
13.795917127024566
20
-5.9978786584965205
10
13.502452016412033
20
-5.870292496029056
0
LWPOLYLINE
8
scale-inner
420
4007974
90
2
70
0
43
0.04000000000000002
10
13.661153705243509
20
-6.298790139343376
10
13.37055526613352
20
-6.1648030235939935
0
LWPOLYLINE
8
scale-inner
420
4007974
90
2
70
0
43
0.04000000000000002
10
13.520979734283664
20
-6.59431458173389
10
13.233363059235751
20
-6.4540411051448245
0
LWPOLYLINE
8
scale-inner
420
4007974
90
2
70
0
43
0.04000000000000002
10
13.375597289695213
20
-6.884422628055011
10
13.091073172741801
20
-6.737978007560156
0
LWPOLYLINE
8
scale-inner
420
4007974
90
2
70
0
43
0.04000000000000002
10
13.225204266966962
20
-7.169089891665233
10
12.943879292531149
20
-7.016589862948224
0
LWPOLYLINE
8
scale-inner
420
4007974
90
2
70
0
43
0.04000000000000002
10
13.069994408682193
20
-7.448296713665076
10
12.791971039917847
20
-7.289857430591324
0
LWPOLYLINE
8
scale-inner
420
4007974
90
2
70
0
43
0.08000000000000004
10
12.910157335645343
20
-7.722027929673689
10
12.53255025204127
20
-7.496167595812194
0
LWPOLYLINE
8
scale-inner
420
4007974
90
2
70
0
43
0.04000000000000002
10
12.74587858159168
20
-7.9902726462305536
10
12.474749766206616
20
-7.820304515488667
0
LWPOLYLINE
8
scale-inner
420
4007974
90
2
70
0
43
0.04000000000000002
10
12.57733963112081
20
-8.25302402645331
10
12.309795956273124
20
-8.077466679557782
0
LWPOLYLINE
8
scale-inner
420
4007974
90
2
70
0
43
0.04000000000000002
10
12.404717960520744
20
-8.510279084595982
10
12.140846273348133
20
-8.329249438657314
0
LWPOLYLINE
8
scale-inner
420
4007974
90
2
70
0
43
0.04000000000000002
10
12.22818708117454
20
-8.762038489163004
10
11.968070537901161
20
-8.575653447071346
0
LWPOLYLINE
8
scale-inner
420
4007974
90
2
70
0
43
0.04000000000000002
10
12.047916585263904
20
-9.00830637424709
10
11.79163473456917
20
-8.816682750952667
0
LWPOLYLINE
8
scale-inner
420
4007974
90
2
70
0
43
0.04000000000000002
10
11.864072193505617
20
-9.249090158770462
10
11.611701058877532
20
-9.052344611409069
0
LWPOLYLINE
8
scale-inner
420
4007974
90
2
70
0
43
0.04000000000000002
10
11.67681580467681
20
-9.484400373319739
10
11.428427965711826
20
-9.282649335021778
0
LWPOLYLINE
8
scale-inner
420
4007974
90
2
70
0
43
0.04000000000000002
10
11.486305546702997
20
-9.714250494276836
10
11.241970219319109
20
-9.507610111504716
0
LWPOLYLINE
8
scale-inner
420
4007974
90
2
70
0
43
0.04000000000000002
10
11.292695829100373
20
-9.938656784958258
10
11.052478944634688
20
-9.72724285822305
0
LWPOLYLINE
8
scale-inner
420
4007974
90
2
70
0
43
0.08000000000000004
10
11.096137396579895
20
-10.157638143485864
10
10.771588285933197
20
-9.86053904423035
0
LWPOLYLINE
8
scale-inner
420
4007974
90
2
70
0
43
0.04000000000000002
10
10.896777383634925
20
-10.371215957122876
10
10.664982429318737
20
-10.150600683051572
0
LWPOLYLINE
8
scale-inner
420
4007974
90
2
70
0
43
0.04000000000000002
10
10.694759369949356
20
-10.579413962817517
10
10.467261718827011
20
-10.354369925496338
0
LWPOLYLINE
8
scale-inner
420
4007974
90
2
70
0
43
0.04000000000000002
10
10.490223436474226
20
-10.782258113708123
10
10.26707664943644
20
-10.552899199700594
0
LWPOLYLINE
8
scale-inner
420
4007974
90
2
70
0
43
0.04000000000000002
10
10.283306222034478
20
-10.979776451351128
10
10.06456095340711
20
-10.746215950724116
0
LWPOLYLINE
8
scale-inner
420
4007974
90
2
70
0
43
0.04000000000000002
10
10.074140980337665
20
-11.17199898344334
10
9.859845049889532
20
-10.934349547943548
0
LWPOLYLINE
8
scale-inner
420
4007974
90
2
70
0
43
0.04000000000000002
10
9.86285763726705
20
-11.358957566818392
10
9.653056100999017
20
-11.117331170537744
0
LWPOLYLINE
8
scale-inner
420
4007974
90
2
70
0
43
0.04000000000000002
10
9.649582848351375
20
-11.540685795505425
10
9.444318068062936
20
-11.295193697927646
0
LWPOLYLINE
8
scale-inner
420
4007974
90
2
70
0
43
0.04000000000000002
10
9.434440056311947
20
-11.717218893646836
10
9.233751767943689
20
-11.467971604971876
0
LWPOLYLINE
8
scale-inner
420
4007974
90
2
70
0
43
0.04000000000000002
10
9.21754954859712
20
-11.888593613078664
10
9.021474929349319
20
-11.635700861725782
0
LWPOLYLINE
8
scale-inner
420
4007974
90
2
70
0
43
0.08000000000000004
10
8.99902851482043
20
-12.0548481353863
10
8.735817399385843
20
-11.702257850903475
0
LWPOLYLINE
8
scale-inner
420
4007974
90
2
70
0
43
0.04000000000000002
10
8.557548481722534
20
-12.372155905934346
10
8.375513326782281
20
-12.108976874919566
0
LWPOLYLINE
8
scale-inner
420
4007974
90
2
70
0
43
0.04000000000000002
10
8.110877686861755
20
-12.669472795919564
10
7.938344060019582
20
-12.399969275332753
0
LWPOLYLINE
8
scale-inner
420
4007974
90
2
70
0
43
0.04000000000000002
10
7.659847929496504
20
-12.947146692409332
10
7.4969085540851
20
-12.671736525675163
0
LWPOLYLINE
8
scale-inner
420
4007974
90
2
70
0
43
0.04000000000000002
10
7.205246860678603
20
-13.205540331787219
10
7.051977705211033
20
-12.924633646245102
0
LWPOLYLINE
8
scale-inner
420
4007974
90
2
70
0
43
0.08000000000000004
10
6.747819733799198
20
-13.445029067202789
10
6.550453856364788
20
-13.051777607670157
0
LWPOLYLINE
8
scale-inner
420
4007974
90
2
70
0
43
0.04000000000000002
10
6.288271118694794
20
-13.665998833439387
10
6.154507762303325
20
-13.375297329337862
0
LWPOLYLINE
8
scale-inner
420
4007974
90
2
70
0
43
0.04000000000000002
10
5.827266575653741
20
-13.868844293380992
10
5.703309653149252
20
-13.57382788474714
0
LWPOLYLINE
8
scale-inner
420
4007974
90
2
70
0
43
0.04000000000000002
10
5.365434286476837
20
-14.053967151494149
10
5.25130140557682
20
-13.755012831409186
0
LWPOLYLINE
8
scale-inner
420
4007974
90
2
70
0
43
0.04000000000000002
10
4.9033666404417025
20
-14.221774620882629
10
4.7990628076292925
20
-13.919250720238992
0
LWPOLYLINE
8
scale-inner
420
4007974
90
2
70
0
43
0.08000000000000004
10
4.441621773616136
20
-14.372678031526235
10
4.3117095037031445
20
-13.952293918926753
0
LWPOLYLINE
8
scale-inner
420
4007974
90
2
70
0
43
0.04000000000000002
10
3.9807250604722224
20
-14.507091568288462
10
3.896047549768625
20
-14.198498439426132
0
LWPOLYLINE
8
scale-inner
420
4007974
90
2
70
0
43
0.04000000000000002
10
3.521170557184516
20
-14.62543112817515
10
3.446268635294484
20
-14.314320694249863
0
LWPOLYLINE
8
scale-inner
420
4007974
90
2
70
0
43
0.04000000000000002
10
3.0634223963581233
20
-14.728113287154917
10
2.9982576389793554
20
-14.41481861053917
0
LWPOLYLINE
8
scale-inner
420
4007974
90
2
70
0
43
0.04000000000000002
10
2.607916133242097
20
-14.815554367614915
10
2.552440850992763
20
-14.500399654720823
0
LWPOLYLINE
8
scale-inner
420
4007974
90
2
70
0
43
0.08000000000000004
10
2.155060043737638
20
-14.88816959823011
10
2.0920270444526023
20
-14.452707956978974
0
LWPOLYLINE
8
scale-inner
420
4007974
90
2
70
0
43
0.04000000000000002
10
1.7052363747274382
20
-14.946372358672328
10
1.6689627890917558
20
-14.628434901009456
0
LWPOLYLINE
8
scale-inner
420
4007974
90
2
70
0
43
0.04000000000000002
10
1.2588025474269415
20
-14.990573502183604
10
1.2320254491435412
20
-14.671695803045642
0
LWPOLYLINE
8
scale-inner
420
4007974
90
2
70
0
43
0.04000000000000002
10
0.8160923146040123
20
-15.021180749588963
10
0.7987324958134107
20
-14.701651976719354
0
LWPOLYLINE
8
scale-inner
420
4007974
90
2
70
0
43
0.04000000000000002
10
0.3774168726299818
20
-15.038598148831293
10
0.3693885057404453
20
-14.718698875113631
0
LWPOLYLINE
8
scale-inner
420
4007974
90
2
70
0
43
0.08000000000000004
10
-0.05693407058282312
20
-15.0432255945786
10
-0.05526881525002174
20
-14.603228745811842
0
LWPOLYLINE
8
scale-inner
420
4007974
90
2
70
0
43
0.04000000000000002
10
-0.48669127062879897
20
-15.035458402884547
10
-0.4763384317233337
20
-14.715625917469763
0
LWPOLYLINE
8
scale-inner
420
4007974
90
2
70
0
43
0.04000000000000002
10
-0.91160496346039
20
-15.015686936280076
10
-0.892213410947162
20
-14.696275027154686
0
LWPOLYLINE
8
scale-inner
420
4007974
90
2
70
0
43
0.04000000000000002
10
-1.3314439228213146
20
-14.98429627503941
10
-1.3031216058279962
20
-14.665552104331725
0
LWPOLYLINE
8
scale-inner
420
4007974
90
2
70
0
43
0.04000000000000002
10
-1.7459945570139672
20
-14.941665930700479
10
-1.7088539681654538
20
-14.62382858761445
0
LWPOLYLINE
8
scale-inner
420
4007974
90
2
70
0
43
0.08000000000000004
10
-2.1550600437376084
20
-14.888169598230114
10
-2.092027044452573
20
-14.452707956978978
0
LWPOLYLINE
8
scale-inner
420
4007974
90
2
70
0
43
0.04000000000000002
10
-2.5584595017281297
20
-14.824174943510172
10
-2.504036255070496
20
-14.508836854749486
0
LWPOLYLINE
8
scale-inner
420
4007974
90
2
70
0
43
0.04000000000000002
10
-2.9560271979316264
20
-14.750043423084092
10
-2.8931469384586737
20
-14.436282251221456
0
LWPOLYLINE
8
scale-inner
420
4007974
90
2
70
0
43
0.04000000000000002
10
-3.347611788952755
20
-14.666130133346094
10
-3.2764017885673207
20
-14.354153955016551
0
LWPOLYLINE
8
scale-inner
420
4007974
90
2
70
0
43
0.04000000000000002
10
-3.733075595532307
20
-14.572783686578857
10
-3.653666054834079
20
-14.262793162778376
0
LWPOLYLINE
8
scale-inner
420
4007974
90
2
70
0
43
0.08000000000000004
10
-4.112293908827214
20
-14.470346111451528
10
-3.992014095850216
20
-14.047105321132095
0
LWPOLYLINE
8
scale-inner
420
4007974
90
2
70
0
43
0.04000000000000002
10
-4.485154327288089
20
-14.359152775779869
10
-4.389746657130842
20
-14.053706583341388
0
LWPOLYLINE
8
scale-inner
420
4007974
90
2
70
0
43
0.04000000000000002
10
-4.851556122954238
20
-14.23953232952554
10
-4.74835439731639
20
-13.936630689012699
0
LWPOLYLINE
8
scale-inner
420
4007974
90
2
70
0
43
0.04000000000000002
10
-5.211409636014917
20
-14.11180666617243
10
-5.100553149186326
20
-13.811621990800713
0
LWPOLYLINE
8
scale-inner
420
4007974
90
2
70
0
43
0.04000000000000002
10
-5.564635696512868
20
-13.97629090076736
10
-5.446265426877319
20
-13.678988900662404
0
LWPOLYLINE
8
scale-inner
420
4007974
90
2
70
0
43
0.08000000000000004
10
-5.9111650720991555
20
-13.8332933630489
10
-5.73827037023408
20
-13.428685624532957
0
LWPOLYLINE
8
scale-inner
420
4007974
90
2
70
0
43
0.04000000000000002
10
-6.250937940778792
20
-13.683115604214924
10
-6.117968731313965
20
-13.392049994198386
0
LWPOLYLINE
8
scale-inner
420
4007974
90
2
70
0
43
0.04000000000000002
10
-6.5839033876195625
20
-13.526052415995933
10
-6.4438513767151795
20
-13.238327835465109
0
LWPOLYLINE
8
scale-inner
420
4007974
90
2
70
0
43
0.04000000000000002
10
-6.910018924429437
20
-13.362391860808632
10
-6.763029822558126
20
-13.078148648170115
0
LWPOLYLINE
8
scale-inner
420
4007974
90
2
70
0
43
0.04000000000000002
10
-7.229250031441131
20
-13.192415311863336
10
-7.075470283375909
20
-12.911787820186207
0
LWPOLYLINE
8
scale-inner
420
4007974
90
2
70
0
43
0.08000000000000004
10
-7.541569720075063
20
-13.016397502190255
10
-7.320987578916209
20
-12.635683017304567
0
LWPOLYLINE
8
scale-inner
420
4007974
90
2
70
0
43
0.04000000000000002
10
-7.8469581158853074
20
-12.83460658163387
10
-7.680038554811745
20
-12.561590354769955
0
LWPOLYLINE
8
scale-inner
420
4007974
90
2
70
0
43
0.04000000000000002
10
-8.145402060825015
20
-12.64730418094249
10
-7.972134035600286
20
-12.378272228500549
0
LWPOLYLINE
8
scale-inner
420
4007974
90
2
70
0
43
0.04000000000000002
10
-8.436894734000216
20
-12.45474548215166
10
-8.257426111251707
20
-12.189809615480586
0
LWPOLYLINE
8
scale-inner
420
4007974
90
2
70
0
43
0.04000000000000002
10
-8.721435290112346
20
-12.257179294526157
10
-8.535913954448533
20
-11.996446032333711
0
LWPOLYLINE
8
scale-inner
420
4007974
90
2
70
0
43
0.08000000000000004
10
-8.999028514820411
20
-12.054848135386315
10
-8.735817399385823
20
-11.70225785090349
0
LWPOLYLINE
8
scale-inner
420
4007974
90
2
70
0
43
0.04000000000000002
10
-9.269684496283398
20
-11.847988315201064
10
-9.072500868620379
20
-11.595959314922025
0
LWPOLYLINE
8
scale-inner
420
4007974
90
2
70
0
43
0.04000000000000002
10
-9.533418312173877
20
-11.636830026381134
10
-9.330624570102374
20
-11.389292760143023
0
LWPOLYLINE
8
scale-inner
420
4007974
90
2
70
0
43
0.04000000000000002
10
-9.790249731481342
20
-11.421597435254284
10
-9.581992701961687
20
-11.178638571131879
0
LWPOLYLINE
8
scale-inner
420
4007974
90
2
70
0
43
0.04000000000000002
10
-10.04020293045136
20
-11.202508776748791
10
-9.826628926169654
20
-10.964210340549393
0
LWPOLYLINE
8
scale-inner
420
4007974
90
2
70
0
43
0.08000000000000004
10
-10.283306222034446
20
-10.979776451351157
10
-9.982531477671817
20
-10.658630762989015
0
LWPOLYLINE
8
scale-inner
420
4007974
90
2
70
0
43
0.04000000000000002
10
-10.861316250993116
20
-10.408346990453891
10
-10.630275621678837
20
-10.186941869451548
0
LWPOLYLINE
8
scale-inner
420
4007974
90
2
70
0
43
0.04666666666666669
10
-11.397323145100485
20
-9.818497996329917
10
-11.094270014718907
20
-9.55742559226176
0
LWPOLYLINE
8
scale-inner
420
4007974
90
2
70
0
43
0.04000000000000002
10
-11.892044867294251
20
-9.213096474695043
10
-11.639078701271595
20
-9.017116580706404
0
LWPOLYLINE
8
scale-inner
420
4007974
90
2
70
0
43
0.04666666666666669
10
-12.346300235485003
20
-8.594809379680315
10
-12.018013945155245
20
-8.366274674260053
0
LWPOLYLINE
8
scale-inner
420
4007974
90
2
70
0
43
0.04000000000000002
10
-12.760991753121385
20
-7.966113685765835
10
-12.4895414521465
20
-7.796659461561643
0
LWPOLYLINE
8
scale-inner
420
4007974
90
2
70
0
43
0.04666666666666669
10
-13.137090479681712
20
-7.329306345516873
10
-12.787777194159485
20
-7.134421177898432
0
LWPOLYLINE
8
scale-inner
420
4007974
90
2
70
0
43
0.04000000000000002
10
-13.475622716867191
20
-6.686514052212159
10
-13.188970870906799
20
-6.544279319437426
0
LWPOLYLINE
8
scale-inner
420
4007974
90
2
70
0
43
0.04666666666666669
10
-13.77765831022254
20
-6.039702746372005
10
-13.411312421184936
20
-5.87910794700027
0
LWPOLYLINE
8
scale-inner
420
4007974
90
2
70
0
43
0.04000000000000002
10
-14.04430038742156
20
-5.390686821328838
10
-13.745551697593847
20
-5.276016771506643
0
LWPOLYLINE
8
scale-inner
420
4007974
90
2
70
0
43
0.08000000000000004
10
-14.27667637374164
20
-4.741137996011616
10
-13.859100197953053
20
-4.602465225022576
0
LWPOLYLINE
8
scale-inner
420
4007974
90
2
70
0
43
0.04000000000000002
10
-14.475930142515084
20
-4.0925938335975856
10
-14.167999875800826
20
-4.005536663638496
0
LWPOLYLINE
8
scale-inner
420
4007974
90
2
70
0
43
0.04666666666666669
10
-14.643215173780128
20
-3.4464658930784737
10
-14.253854256241103
20
-3.354824876643859
0
LWPOLYLINE
8
scale-inner
420
4007974
90
2
70
0
43
0.04000000000000002
10
-14.779688608141692
20
-2.8040475074692415
10
-14.46529682742341
20
-2.74440014192148
0
LWPOLYLINE
8
scale-inner
420
4007974
90
2
70
0
43
0.04666666666666669
10
-14.886506095157724
20
-2.1665211876669286
10
-14.49067610813824
20
-2.10891371092861
0
LWPOLYLINE
8
scale-inner
420
4007974
90
2
70
0
43
0.04000000000000002
10
-14.964817346544738
20
-1.5349656550983262
10
-14.646487529290518
20
-1.502314047987881
0
LWPOLYLINE
8
scale-inner
420
4007974
90
2
70
0
43
0.04666666666666669
10
-15.015762314284627
20
-0.9103625094913294
10
-14.616495423587939
20
-0.886156105516377
0
LWPOLYLINE
8
scale-inner
420
4007974
90
2
70
0
43
0.04000000000000002
10
-15.040467922440753
20
-0.2936025405348376
10
-14.72052887512094
20
-0.2873570621631681
0
LWPOLYLINE
8
scale-inner
420
4007974
90
2
70
0
43
0.04666666666666669
10
-15.040045289268118
20
0.3145083059979306
10
-14.640132717871667
20
0.30614557683335014
0
LWPOLYLINE
8
scale-inner
420
4007974
90
2
70
0
43
0.04000000000000002
10
-15.015587383132438
20
0.913243295782523
10
-14.69617759168978
20
0.8938168928587201
0
LWPOLYLINE
8
scale-inner
420
4007974
90
2
70
0
43
0.08000000000000004
10
-14.968167061928312
20
1.5019495943546588
10
-14.530365587925534
20
1.4580193159467671
0
LWPOLYLINE
8
scale-inner
420
4007974
90
2
70
0
43
0.04000000000000002
10
-14.898835451189234
20
2.080043263051198
10
-14.581909192976477
20
2.0357968298021585
0
LWPOLYLINE
8
scale-inner
420
4007974
90
2
70
0
43
0.04666666666666669
10
-14.808620620985687
20
2.6470045488240532
10
-14.414861597161561
20
2.5766210908451286
0
LWPOLYLINE
8
scale-inner
420
4007974
90
2
70
0
43
0.04000000000000002
10
-14.698526526077327
20
3.202373454170977
10
-14.38586121552926
20
3.134252946393354
0
LWPOLYLINE
8
scale-inner
420
4007974
90
2
70
0
43
0.04666666666666669
10
-14.569532177680031
20
3.7457455734905323
10
-14.18213048006833
20
3.6461467547848234
0
LWPOLYLINE
8
scale-inner
420
4007974
90
2
70
0
43
0.04000000000000002
10
-14.422591018679984
20
4.276768182362618
10
-14.115795375472965
20
4.185793277530619
0
LWPOLYLINE
8
scale-inner
420
4007974
90
2
70
0
43
0.04666666666666669
10
-14.258630477222114
20
4.795136566544318
10
-13.879495609669123
20
4.667634597125901
0
LWPOLYLINE
8
scale-inner
420
4007974
90
2
70
0
43
0.04000000000000002
10
-14.078551676359442
20
5.300590577837013
10
-13.779074397181398
20
5.187837044605824
0
LWPOLYLINE
8
scale-inner
420
4007974
90
2
70
0
43
0.04666666666666669
10
-13.883229279910589
20
5.792911404398574
10
-13.514076274462047
20
5.638878750171268
0
LWPOLYLINE
8
scale-inner
420
4007974
90
2
70
0
43
0.04000000000000002
10
-13.673511456867761
20
6.271918543530668
10
-13.382650145132928
20
6.138503037175927
0
LWPOLYLINE
8
scale-inner
420
4007974
90
2
70
0
43
0.08000000000000004
10
-13.450219948654532
20
6.737466965454707
10
-13.05681666187802
20
6.540403894450935
0
LWPOLYLINE
8
scale-inner
420
4007974
90
2
70
0
43
0.04000000000000002
10
-13.21415022527977
20
7.189444457085426
10
-12.93306039110586
20
7.03651144847027
0
LWPOLYLINE
8
scale-inner
420
4007974
90
2
70
0
43
0.04666666666666669
10
-12.966071717991934
20
7.627769135315217
10
-12.621305795953592
20
7.424947886425825
0
LWPOLYLINE
8
scale-inner
420
4007974
90
2
70
0
43
0.04000000000000002
10
-12.706728117428671
20
8.052387119825113
10
-12.436432106067459
20
7.881097697378135
0
LWPOLYLINE
8
scale-inner
420
4007974
90
2
70
0
43
0.04666666666666669
10
-12.436837727497219
20
8.463270355936858
10
-12.106144058696053
20
8.238233253629652
0
LWPOLYLINE
8
scale-inner
420
4007974
90
2
70
0
43
0.04000000000000002
10
-12.157093866328719
20
8.860414578508752
10
-11.89848960947794
20
8.671936891928464
0
LWPOLYLINE
8
scale-inner
420
4007974
90
2
70
0
43
0.04666666666666669
10
-11.868165306638009
20
9.243837408354375
10
-11.552592553082377
20
8.998045144006376
0
LWPOLYLINE
8
scale-inner
420
4007974
90
2
70
0
43
0.04000000000000002
10
-11.570696748702186
20
9.613576573125654
10
-11.324566261692347
20
9.409077714047422
0
LWPOLYLINE
8
scale-inner
420
4007974
90
2
70
0
43
0.04666666666666669
10
-11.2653093199591
20
9.969688245046603
10
-10.96576641758926
20
9.704595714710775
0
LWPOLYLINE
8
scale-inner
420
4007974
90
2
70
0
43
0.04000000000000002
10
-10.952601095929301
20
10.312245488312719
10
-10.71961866623526
20
10.09288462705014
0
LWPOLYLINE
8
scale-inner
420
4007974
90
2
70
0
43
0.08000000000000004
10
-10.63314763779203
20
10.641336809381402
10
-10.322140438991111
20
10.330090086838005
0
LWPOLYLINE
8
scale-inner
420
4007974
90
2
70
0
43
0.04000000000000002
10
-10.307502542505585
20
10.957064803770153
10
-10.088242572622905
20
10.723987422613067
0
LWPOLYLINE
8
scale-inner
420
4007974
90
2
70
0
43
0.04666666666666669
10
-9.976198001861125
20
11.259544893353366
10
-9.710932378058038
20
10.960155266231185
0
LWPOLYLINE
8
scale-inner
420
4007974
90
2
70
0
43
0.04000000000000002
10
-9.63974536730536
20
11.548904148502256
10
-9.434689848745354
20
11.303237231095604
0
LWPOLYLINE
8
scale-inner
420
4007974
90
2
70
0
43
0.04666666666666669
10
-9.298635717762808
20
11.825280189751258
10
-9.051386374502995
20
11.51084774508692
0
LWPOLYLINE
8
scale-inner
420
4007974
90
2
70
0
43
0.04000000000000002
10
-8.95334042804459
20
12.088820163991194
10
-8.762886033829593
20
11.83166821722781
0
LWPOLYLINE
8
scale-inner
420
4007974
90
2
70
0
43
0.04666666666666669
10
-8.604311735743824
20
12.339679790493708
10
-8.375524364086555
20
12.011569536813397
0
LWPOLYLINE
8
scale-inner
420
4007974
90
2
70
0
43
0.04000000000000002
10
-8.251983304800948
20
12.578022472354874
10
-8.076448096012804
20
12.31046427218956
0
LWPOLYLINE
8
scale-inner
420
4007974
90
2
70
0
43
0.04666666666666669
10
-7.8967707841703865
20
12.804018469217029
10
-7.686796821373921
20
12.463561519005186
0
LWPOLYLINE
8
scale-inner
420
4007974
90
2
70
0
43
0.04000000000000002
10
-7.539072360244633
20
13.017844127380432
10
-7.378702108398082
20
12.740930093206153
0
LWPOLYLINE
8
scale-inner
420
4007974
90
2
70
0
43
0.08000000000000004
10
-7.179269301887422
20
13.219681163657263
10
-6.969284026494305
20
12.833020868154769
0
LWPOLYLINE
8
scale-inner
420
4007974
90
2
70
0
43
0.04000000000000002
10
-6.817726497106097
20
13.40971599954433
10
-6.672700628787421
20
13.124466113447221
0
LWPOLYLINE
8
scale-inner
420
4007974
90
2
70
0
43
0.04666666666666669
10
-6.454792980547493
20
13.588139142504119
10
-6.28316099347333
20
13.226832540000132
0
LWPOLYLINE
8
scale-inner
420
4007974
90
2
70
0
43
0.04000000000000002
10
-6.090802451140784
20
13.755144611342885
10
-5.961239624792564
20
13.462546808841463
0
LWPOLYLINE
8
scale-inner
420
4007974
90
2
70
0
43
0.04666666666666669
10
-5.726073779333558
20
13.910929402861854
10
-5.573818327634018
20
13.541039855256399
0
LWPOLYLINE
8
scale-inner
420
4007974
90
2
70
0
43
0.04000000000000002
10
-5.360911503475737
20
14.05569299713391
10
-5.246874830678558
20
13.756701965065474
0
LWPOLYLINE
8
scale-inner
420
4007974
90
2
70
0
43
0.04666666666666669
10
-4.995606315001825
20
14.189636898923512
10
-4.862773884733662
20
13.812336560374693
0
LWPOLYLINE
8
scale-inner
420
4007974
90
2
70
0
43
0.04000000000000002
10
-4.630435532146515
20
14.312964212922939
10
-4.531937457454278
20
14.008500538107826
0
LWPOLYLINE
8
scale-inner
420
4007974
90
2
70
0
43
0.04666666666666669
10
-4.2656635620033185
20
14.425879250623684
10
-4.152240201170081
20
14.042297263015698
0
LWPOLYLINE
8
scale-inner
420
4007974
90
2
70
0
43
0.04000000000000002
10
-3.9015423508011358
20
14.52858716677857
10
-3.8185492052932895
20
14.219536786098148
0
LWPOLYLINE
8
scale-inner
420
4007974
90
2
70
0
43
0.08000000000000004
10
-3.538311822330938
20
14.621293623538612
10
-3.434820317667149
20
14.19363779408878
0
LWPOLYLINE
8
scale-inner
420
4007974
90
2
70
0
43
0.04000000000000002
10
-3.176200304504902
20
14.704204480468867
10
-3.1086365488584424
20
14.391418389149344
0
LWPOLYLINE
8
scale-inner
420
4007974
90
2
70
0
43
0.04666666666666669
10
-2.815424944074513
20
14.77752550876028
10
-2.740563212789571
20
14.384593299353847
0
LWPOLYLINE
8
scale-inner
420
4007974
90
2
70
0
43
0.04000000000000002
10
-2.456192109570962
20
14.84146212806067
10
-2.4039442827332014
20
14.52575630836339
0
LWPOLYLINE
8
scale-inner
420
4007974
90
2
70
0
43
0.04666666666666669
10
-2.0986977825649817
20
14.896219164446883
10
-2.042893720099261
20
14.500130908357004
0
LWPOLYLINE
8
scale-inner
420
4007974
90
2
70
0
43
0.04000000000000002
10
-1.7431279373708362
20
14.94200062815335
10
-1.7060483269149087
20
14.624156165422855
0
LWPOLYLINE
8
scale-inner
420
4007974
90
2
70
0
43
0.04666666666666669
10
-1.3896589093434977
20
14.979009509759315
10
-1.352708085252822
20
14.580719870678633
0
LWPOLYLINE
8
scale-inner
420
4007974
90
2
70
0
43
0.04000000000000002
10
-1.03845775193888
20
15.007447593618837
10
-1.01636780197519
20
14.688210950811964
0
LWPOLYLINE
8
scale-inner
420
4007974
90
2
70
0
43
0.04666666666666669
10
-0.689682582723304
20
15.027515287394182
10
-0.6713440252389705
20
14.627935886887357
0
LWPOLYLINE
8
scale-inner
420
4007974
90
2
70
0
43
0.04000000000000002
10
-0.3434829185334027
20
15.039411466625067
10
-0.3361763906851406
20
14.719494892107893
0
LWPOLYLINE
8
scale-inner
420
4007974
90
2
70
0
43
0.04000000000000002
10
0.6782901441288481
20
15.028033812117785
10
0.6638616367421055
20
14.708359261715989
0
LWPOLYLINE
8
scale-inner
420
4007974
90
2
70
0
43
0.04000000000000002
10
1.3442117652711973
20
14.983156293247571
10
1.315617852249696
20
14.664436372097168
0
LWPOLYLINE
8
scale-inner
420
4007974
90
2
70
0
43
0.04000000000000002
10
1.9969021335172827
20
14.910206559499164
10
1.9544242685011828
20
14.593038416420962
0
LWPOLYLINE
8
scale-inner
420
4007974
90
2
70
0
43
0.04000000000000002
10
2.6356032232950417
20
14.810654051294783
10
2.5795389845544427
20
14.495603577347453
0
LWPOLYLINE
8
scale-inner
420
4007974
90
2
70
0
43
0.08000000000000004
10
3.259653637653189
20
14.685929862978105
10
3.1643125607264837
20
14.256383498716392
0
LWPOLYLINE
8
scale-inner
420
4007974
90
2
70
0
43
0.04000000000000002
10
3.8684810757725927
20
14.53742521714788
10
3.786191205780532
20
14.22818683450968
0
LWPOLYLINE
8
scale-inner
420
4007974
90
2
70
0
43
0.04000000000000002
10
4.4615953129505925
20
14.366490352248007
10
4.366688787348275
20
14.060888075754365
0
LWPOLYLINE
8
scale-inner
420
4007974
90
2
70
0
43
0.04000000000000002
10
5.038581663035917
20
14.174433766563515
10
4.931401552322101
20
13.872916894950375
0
LWPOLYLINE
8
scale-inner
420
4007974
90
2
70
0
43
0.04000000000000002
10
5.599094894237382
20
13.962521768760206
10
5.479991612640487
20
13.665512663995974
0
LWPOLYLINE
8
scale-inner
420
4007974
90
2
70
0
43
0.08000000000000004
10
6.142853570323403
20
13.731978291249327
10
5.96318224940989
20
13.330333900723089
0
LWPOLYLINE
8
scale-inner
420
4007974
90
2
70
0
43
0.04000000000000002
10
6.669634790422417
20
13.483984928060574
10
6.527759111299759
20
13.197155202136837
0
LWPOLYLINE
8
scale-inner
420
4007974
90
2
70
0
43
0.04000000000000002
10
7.179269301887396
20
13.21968116365728
10
7.026552737965129
20
12.9384736760191
0
LWPOLYLINE
8
scale-inner
420
4007974
90
2
70
0
43
0.04000000000000002
10
7.671636961969637
20
12.940164763306496
10
7.508446811659624
20
12.664903115338975
0
LWPOLYLINE
8
scale-inner
420
4007974
90
2
70
0
43
0.04000000000000002
10
8.146662525336524
20
12.646492299292136
10
7.973367687660409
20
12.377477617100235
0
LWPOLYLINE
8
scale-inner
420
4007974
90
2
70
0
43
0.08000000000000004
10
8.604311735743808
20
12.33967979049372
10
8.352645626920811
20
11.978758511445378
0
LWPOLYLINE
8
scale-inner
420
4007974
90
2
70
0
43
0.04000000000000002
10
9.044587701424417
20
12.02070343569876
10
8.85219230604734
20
11.765000459889524
0
LWPOLYLINE
8
scale-inner
420
4007974
90
2
70
0
43
0.04000000000000002
10
9.467527534971254
20
11.690500423520753
10
9.266135413686689
20
11.441821486969014
0
LWPOLYLINE
8
scale-inner
420
4007974
90
2
70
0
43
0.04000000000000002
10
9.873199239664139
20
11.349969803998302
10
9.663177718058165
20
11.108534594340904
0
LWPOLYLINE
8
scale-inner
420
4007974
90
2
70
0
43
0.04000000000000002
10
10.261698825316572
20
10.999973408889417
10
10.04341318666592
20
10.765983280980402
0
LWPOLYLINE
8
scale-inner
420
4007974
90
2
70
0
43
0.08000000000000004
10
10.633147637792025
20
10.641336809381405
10
10.322140438991106
20
10.33009008683801
0
LWPOLYLINE
8
scale-inner
420
4007974
90
2
70
0
43
0.04000000000000002
10
10.987689887361764
20
10.274850301437283
10
10.753961053063795
20
10.056284906148566
0
LWPOLYLINE
8
scale-inner
420
4007974
90
2
70
0
43
0.04000000000000002
10
11.325490362044786
20
9.90126991032001
10
11.084575876169248
20
9.690651272741743
0
LWPOLYLINE
8
scale-inner
420
4007974
90
2
70
0
43
0.04000000000000002
10
11.646732312986408
20
9.521318406996796
10
11.398984406483706
20
9.31878205267114
0
LWPOLYLINE
8
scale-inner
420
4007974
90
2
70
0
43
0.04000000000000002
10
11.951615499795665
20
9.135686330146292
10
11.697382154353523
20
8.941353095558647
0
LWPOLYLINE
8
scale-inner
420
4007974
90
2
70
0
43
0.08000000000000004
10
12.240354384574513
20
8.745033008388548
10
11.882338258103466
20
8.489250966042595
0
LWPOLYLINE
8
scale-inner
420
4007974
90
2
70
0
43
0.04000000000000002
10
12.51317646413539
20
8.349987578145605
10
12.246997660555289
20
8.172367634094645
0
LWPOLYLINE
8
scale-inner
420
4007974
90
2
70
0
43
0.04000000000000002
10
12.770320730620364
20
7.9511499932315175
10
12.498671984744105
20
7.782014074917708
0
LWPOLYLINE
8
scale-inner
420
4007974
90
2
70
0
43
0.04000000000000002
10
13.012036251405396
20
7.549092022878617
10
12.735245761679067
20
7.388508633958532
0
LWPOLYLINE
8
scale-inner
420
4007974
90
2
70
0
43
0.04000000000000002
10
13.23858085980192
20
7.14435823543753
10
12.95697134007203
20
6.9923842955744675
0
LWPOLYLINE
8
scale-inner
420
4007974
90
2
70
0
43
0.08000000000000004
10
13.450219948654516
20
6.73746696545474
10
13.056816661878004
20
6.540403894450968
0
LWPOLYLINE
8
scale-inner
420
4007974
90
2
70
0
43
0.04000000000000002
10
13.647225359481565
20
6.328911262239425
10
13.356923202488383
20
6.194283413541223
0
LWPOLYLINE
8
scale-inner
420
4007974
90
2
70
0
43
0.04000000000000002
10
13.829874360317755
20
5.919159818386675
10
13.535686915471642
20
5.793248153736748
0
LWPOLYLINE
8
scale-inner
420
4007974
90
2
70
0
43
0.04000000000000002
10
13.998448705894353
20
5.508657877035249
10
13.700675367590373
20
5.391478360927254
0
LWPOLYLINE
8
scale-inner
420
4007974
90
2
70
0
43
0.04000000000000002
10
14.153233774237938
20
5.097828116909033
10
13.852167866343667
20
4.989387722665012
0
LWPOLYLINE
8
scale-inner
420
4007974
90
2
70
0
43
0.08000000000000004
10
14.294517774183046
20
4.687071514425906
10
13.876419758186556
20
4.549980125127386
0
LWPOLYLINE
8
scale-inner
420
4007974
90
2
70
0
43
0.04000000000000002
10
14.422591018679974
20
4.276768182362647
10
14.115795375472954
20
4.185793277530648
0
LWPOLYLINE
8
scale-inner
420
4007974
90
2
70
0
43
0.04000000000000002
10
14.537745259138417
20
3.8672781847413384
10
14.228500068605005
20
3.78501390250443
0
LWPOLYLINE
8
scale-inner
420
4007974
90
2
70
0
43
0.04000000000000002
10
14.640273076382469
20
3.4589423277540146
10
14.328846926297665
20
3.385364117369706
0
LWPOLYLINE
8
scale-inner
420
4007974
90
2
70
0
43
0.04000000000000002
10
14.730467324103277
20
3.052082926675392
10
14.417122572693145
20
2.987159381148949
0
TEXT
8
scale-outer
420
10761532
10
16.249122383142282
20
2.9044906992636443
11
16.249122383142282
21
2.9044906992636443
40
0.5114155251141556
50
-79.86554986188827
72
1
73
2
1
10
0
TEXT
8
scale-outer
420
4007974
10
16.44957027215202
20
-1.3717442567683573
11
16.44957027215202
21
-1.3717442567683573
40
0.5114155251141556
50
-94.76691651884931
72
1
73
2
1
11
0
TEXT
8
scale-outer
420
4007974
10
15.665433503826415
20
-5.2023300146797
11
15.665433503826415
21
-5.2023300146797
40
0.5114155251141556
50
-108.37079843903325
72
1
73
2
1
12
0
TEXT
8
scale-outer
420
4007974
10
14.165986954601317
20
-8.473184646076692
11
14.165986954601317
21
-8.473184646076692
40
0.5114155251141556
50
-120.88515669234948
72
1
73
2
1
13
0
TEXT
8
scale-outer
420
4007974
10
12.175509060018534
20
-11.14571772358564
11
12.175509060018534
21
-11.14571772358564
40
0.5114155251141556
50
-132.4716427060539
72
1
73
2
1
14
0
TEXT
8
scale-outer
420
4007974
10
9.874404876000616
20
-13.227477945143576
11
9.874404876000616
21
-13.227477945143576
40
0.5114155251141556
50
-143.25840312193355
72
1
73
2
1
15
0
TEXT
8
scale-outer
420
4007974
10
7.40421079587273
20
-14.752888087921164
11
7.40421079587273
21
-14.752888087921164
40
0.5114155251141556
50
-153.34874361802122
72
1
73
2
1
16
0
TEXT
8
scale-outer
420
4007974
10
4.87367848946313
20
-15.77077367873209
11
4.87367848946313
21
-15.77077367873209
40
0.5114155251141556
50
-162.8271615580668
72
1
73
2
1
17
0
TEXT
8
scale-outer
420
4007974
10
2.3646925186325696
20
-16.3364094505729
11
2.3646925186325696
21
-16.3364094505729
40
0.5114155251141556
50
-171.76365169907842
72
1
73
2
1
18
0
TEXT
8
scale-outer
420
4007974
10
-0.062472306121458036
20
-16.506548447674103
11
-0.062472306121458036
21
-16.506548447674103
40
0.5114155251141556
50
-180.2168462049067
72
1
73
2
1
19
0
TEXT
8
scale-outer
420
4007974
10
-2.3646925186325363
20
-16.336409450572905
11
-2.3646925186325363
21
-16.336409450572905
40
0.5114155251141556
50
-188.23634830092146
72
1
73
2
1
20
0
TEXT
8
scale-outer
420
4007974
10
-4.512315408046169
20
-15.877942376226008
11
-4.512315408046169
21
-15.877942376226008
40
0.5114155251141556
50
-195.86449596609918
72
1
73
2
1
21
0
TEXT
8
scale-outer
420
4007974
10
-6.486170936635281
20
-15.178920614628442
11
-6.486170936635281
21
-15.178920614628442
40
0.5114155251141556
50
-203.1377149578825
72
1
73
2
1
22
0
TEXT
8
scale-outer
420
4007974
10
-8.275172447110949
20
-14.28256158449948
11
-8.275172447110949
21
-14.28256158449948
40
0.5114155251141556
50
-210.08757082822171
72
1
73
2
1
23
0
TEXT
8
scale-outer
420
4007974
10
-9.874404876000593
20
-13.227477945143594
11
-9.874404876000593
21
-13.227477945143594
40
0.5114155251141556
50
-216.7415968780664
72
1
73
2
1
24
0
TEXT
8
scale-outer
420
4007974
10
-11.28361010669501
20
-12.047829157343438
11
-11.28361010669501
21
-12.047829157343438
40
0.5114155251141556
50
-223.1239529838217
72
1
73
2
1
25
0
TEXT
8
scale-outer
420
4007974
10
-15.665433503826414
20
-5.202330014679708
11
-15.665433503826414
21
-5.202330014679708
40
0.5114155251141556
50
-251.62920156096675
72
1
73
2
1
30
0
TEXT
8
scale-outer
420
4007974
10
-16.424188630770885
20
1.648051050574844
11
-16.424188630770885
21
1.648051050574844
40
0.5114155251141556
50
-275.7300458279875
72
1
73
2
1
35
0
TEXT
8
scale-outer
420
4007974
10
-14.758583909979448
20
7.392850966747553
11
-14.758583909979448
21
7.392850966747553
40
0.5114155251141556
50
-296.6071467399547
72
1
73
2
1
40
0
TEXT
8
scale-outer
420
4007974
10
-11.66748218531933
20
11.676467954809818
11
-11.66748218531933
21
11.676467954809818
40
0.5114155251141556
50
-315.02205482101203
72
1
73
2
1
45
0
TEXT
8
scale-outer
420
4007974
10
-7.877629422323625
20
14.50561957066935
11
-7.877629422323625
21
14.50561957066935
40
0.5114155251141556
50
-331.49475142285496
72
1
73
2
1
50
0
TEXT
8
scale-outer
420
4007974
10
-3.8824994779930884
20
16.043573238148287
11
-3.8824994779930884
21
16.043573238148287
40
0.5114155251141556
50
-346.396118079816
72
1
73
2
1
55
0
TEXT
8
scale-outer
420
12926789
10
0
20
16.506666666666668
11
0
21
16.506666666666668
40
0.5114155251141556
50
0
72
1
73
2
1
60
0
TEXT
8
scale-outer
420
4007974
10
3.5767349465230653
20
16.114496938060622
11
3.5767349465230653
21
16.114496938060622
40
0.5114155251141556
50
-12.514358253316288
72
1
73
2
1
65
0
TEXT
8
scale-outer
420
4007974
10
6.740396826997895
20
15.067750165802497
11
6.740396826997895
21
15.067750165802497
40
0.5114155251141556
50
-24.10084426702076
72
1
73
2
1
70
0
TEXT
8
scale-outer
420
4007974
10
9.44129220372332
20
13.54001646854086
11
9.44129220372332
21
13.54001646854086
40
0.5114155251141556
50
-34.8876046829003
72
1
73
2
1
75
0
TEXT
8
scale-outer
420
4007974
10
11.667482185319324
20
11.676467954809823
11
11.667482185319324
21
11.676467954809823
40
0.5114155251141556
50
-44.977945178987966
72
1
73
2
1
80
0
TEXT
8
scale-outer
420
4007974
10
13.431029229428981
20
9.595702073463348
11
13.431029229428981
21
9.595702073463348
40
0.5114155251141556
50
-54.45636311903371
72
1
73
2
1
85
0
TEXT
8
scale-outer
420
4007974
10
14.75858390997943
20
7.392850966747591
11
14.75858390997943
21
7.392850966747591
40
0.5114155251141556
50
-63.39285326004517
72
1
73
2
1
90
0
TEXT
8
scale-outer
420
4007974
10
15.685010418292588
20
5.14300424095659
11
15.685010418292588
21
5.14300424095659
40
0.5114155251141556
50
-71.84604776587338
72
1
73
2
1
95
0
TEXT
8
scale-inner
420
11539490
10
13.916100166984332
20
2.4874687107385127
11
13.916100166984332
21
2.4874687107385127
40
0.4347031963470322
50
-79.86554986188827
72
1
73
2
1
10
0
TEXT
8
scale-inner
420
4007974
10
14.087768078391905
20
-1.1747914767678924
11
14.087768078391905
21
-1.1747914767678924
40
0.4347031963470322
50
-94.76691651884931
72
1
73
2
1
11
0
TEXT
8
scale-inner
420
4007974
10
13.416216375146977
20
-4.455388043670559
11
13.416216375146977
21
-4.455388043670559
40
0.4347031963470322
50
-108.37079843903325
72
1
73
2
1
12
0
TEXT
8
scale-inner
420
4007974
10
12.13205789064301
20
-7.256618756868185
11
12.13205789064301
21
-7.256618756868185
40
0.4347031963470322
50
-120.88515669234948
72
1
73
2
1
13
0
TEXT
8
scale-inner
420
4007974
10
10.427369532217003
20
-9.54543393895935
11
10.427369532217003
21
-9.54543393895935
40
0.4347031963470322
50
-132.4716427060539
72
1
73
2
1
14
0
TEXT
8
scale-inner
420
4007974
10
8.456654095137036
20
-11.328298458270176
11
8.456654095137036
21
-11.328298458270176
40
0.4347031963470322
50
-143.25840312193355
72
1
73
2
1
15
0
TEXT
8
scale-inner
420
4007974
10
6.341126410601019
20
-12.634692726347668
11
6.341126410601019
21
-12.634692726347668
40
0.4347031963470322
50
-153.34874361802122
72
1
73
2
1
16
0
TEXT
8
scale-inner
420
4007974
10
4.173923762886336
20
-13.50643198132124
11
4.173923762886336
21
-13.50643198132124
40
0.4347031963470322
50
-162.8271615580668
72
1
73
2
1
17
0
TEXT
8
scale-inner
420
4007974
10
2.025173863392715
20
-13.990854701106558
11
2.025173863392715
21
-13.990854701106558
40
0.4347031963470322
50
-171.76365169907842
72
1
73
2
1
18
0
TEXT
8
scale-inner
420
4007974
10
-0.05350263535159602
20
-14.136565421362251
11
-0.05350263535159602
21
-14.136565421362251
40
0.4347031963470322
50
-180.2168462049067
72
1
73
2
1
19
0
TEXT
8
scale-inner
420
4007974
10
-2.0251738633926872
20
-13.990854701106562
11
-2.0251738633926872
21
-13.990854701106562
40
0.4347031963470322
50
-188.23634830092146
72
1
73
2
1
20
0
TEXT
8
scale-inner
420
4007974
10
-3.864444597238248
20
-13.598213573823607
11
-3.864444597238248
21
-13.598213573823607
40
0.4347031963470322
50
-195.86449596609918
72
1
73
2
1
21
0
TEXT
8
scale-inner
420
4007974
10
-5.554897201589302
20
-12.999556204894834
11
-5.554897201589302
21
-12.999556204894834
40
0.4347031963470322
50
-203.1377149578825
72
1
73
2
1
22
0
TEXT
8
scale-inner
420
4007974
10
-7.087036823141666
20
-12.23189492727429
11
-7.087036823141666
21
-12.23189492727429
40
0.4347031963470322
50
-210.08757082822171
72
1
73
2
1
23
0
TEXT
8
scale-inner
420
4007974
10
-8.456654095137019
20
-11.32829845827019
11
-8.456654095137019
21
-11.32829845827019
40
0.4347031963470322
50
-216.7415968780664
72
1
73
2
1
24
0
TEXT
8
scale-inner
420
4007974
10
-9.663527960923574
20
-10.31802169957462
11
-9.663527960923574
21
-10.31802169957462
40
0.4347031963470322
50
-223.1239529838217
72
1
73
2
1
25
0
TEXT
8
scale-inner
420
4007974
10
-13.416216375146975
20
-4.455388043670565
11
-13.416216375146975
21
-4.455388043670565
40
0.4347031963470322
50
-251.62920156096675
72
1
73
2
1
30
0
TEXT
8
scale-inner
420
4007974
10
-14.066030691255921
20
1.4114265964232457
11
-14.066030691255921
21
1.4114265964232457
40
0.4347031963470322
50
-275.7300458279875
72
1
73
2
1
35
0
TEXT
8
scale-inner
420
4007974
10
-12.639570751660507
20
6.3313976070226925
11
-12.639570751660507
21
6.3313976070226925
40
0.4347031963470322
50
-296.6071467399547
72
1
73
2
1
40
0
TEXT
8
scale-inner
420
4007974
10
-9.992284319050743
20
9.999979926564707
11
-9.992284319050743
21
9.999979926564707
40
0.4347031963470322
50
-315.02205482101203
72
1
73
2
1
45
0
TEXT
8
scale-inner
420
4007974
10
-6.746572370774332
20
12.422926615349093
11
-6.746572370774332
21
12.422926615349093
40
0.4347031963470322
50
-331.49475142285496
72
1
73
2
1
50
0
TEXT
8
scale-inner
420
4007974
10
-3.325056600599493
20
13.740063429520774
11
-3.325056600599493
21
13.740063429520774
40
0.4347031963470322
50
-346.396118079816
72
1
73
2
1
55
0
TEXT
8
scale-inner
420
4007974
10
5.77262175753192
20
12.904347425922534
11
5.77262175753192
21
12.904347425922534
40
0.4347031963470322
50
-24.10084426702076
72
1
73
2
1
7
0
TEXT
8
scale-inner
420
4007974
10
9.992284319050738
20
9.999979926564713
11
9.992284319050738
21
9.999979926564713
40
0.4347031963470322
50
-44.977945178987966
72
1
73
2
1
8
0
TEXT
8
scale-inner
420
4007974
10
12.639570751660493
20
6.331397607022724
11
12.639570751660493
21
6.331397607022724
40
0.4347031963470322
50
-63.39285326004517
72
1
73
2
1
9
0
TEXT
8
scale-inner
420
3941923
10
0
20
14.136666666666667
11
0
21
14.136666666666667
40
0.2825570776255709
50
0
72
1
73
2
1
MPH
0
TEXT
8
scale-inner
420
3547170
10
0.6374093731997441
20
14.122289252646029
11
0.6374093731997441
21
14.122289252646029
40
0.2825570776255709
50
-2.584290465764468
72
1
73
2
1
KM
0
TEXT
8
scale-inner
420
2364695
10
-14.106132729472366
20
-0.9286354844355869
11
-14.106132729472366
21
-0.9286354844355869
40
0.2825570776255709
50
-266.2335368212348
72
1
73
2
1
NAUT.
0
TEXT
8
scale-inner
420
2626069
10
-13.430155374536168
20
4.413192841952601
11
-13.430155374536168
21
4.413192841952601
40
0.2825570776255709
50
-288.19069179326937
72
1
73
2
1
STAT.
0
SOLID
8
scale-inner-pointer
420
11539490
10
14.808620620985684
20
2.6470045488240763
11
14.500208414061605
21
2.402251340791082
12
14.434517186614608
22
2.7697597630269337
13
14.434517186614608
23
2.7697597630269337
0
SOLID
8
scale-inner-pointer
420
3021338
10
0
20
15.043333333333333
11
0.0666666666666667
21
14.75
12
-0.0666666666666667
22
14.75
13
-0.0666666666666667
23
14.75
0
SOLID
8
scale-inner-pointer
420
12657961
10
-14.808620620985687
20
2.6470045488240532
11
-14.441555532412504
21
2.730383860644498
12
-14.493170068263716
22
2.4416272431734716
13
-14.493170068263716
23
2.4416272431734716
0
SOLID
8
scale-inner-pointer
420
12657961
10
0.6782901441288481
20
15.028033812117787
11
0.7583024228915247
21
14.730790492928339
12
0.5718256018238099
22
14.739207122237271
13
0.5718256018238099
23
14.739207122237271
0
SOLID
8
scale-inner-pointer
420
12652315
10
-15.010841077130108
20
-0.9881942799476074
11
-14.649700350765983
21
-0.7907111212139717
12
-14.626927870129034
22
-1.1366290188478145
13
-14.626927870129034
23
-1.1366290188478145
0
SOLID
8
scale-inner-pointer
420
13177630
10
-14.291509362245161
20
4.696236570556965
11
-13.979896245265149
21
4.790326000789887
12
-14.096443662925768
22
4.435650829380301
13
-14.096443662925768
23
4.435650829380301
0
SOLID
8
scale-outer-pointer
420
10761532
10
15.461604335494027
20
2.763723783305794
11
15.65518634133848
21
2.8931387331201837
12
15.688031955061978
22
2.7093845220022583
13
15.688031955061978
23
2.7093845220022583
0
SOLID
8
scale-outer-pointer
420
12926789
10
1.4695761589768246e-17
20
15.706666666666667
11
-0.17333333333333345
21
15.946666666666665
12
0.1733333333333334
22
15.946666666666665
13
0.1733333333333334
23
15.946666666666665
0
SOLID
8
scale-outer-pointer
420
12657961
10
-15.46160433549403
20
2.7637237833057697
11
-15.702108646657766
21
2.6306327172374084
12
-15.641109649742699
22
2.9718905378849847
13
-15.641109649742699
23
2.9718905378849847
0
ENDSEC
0
EOF