0
SECTION
2
HEADER
9
$ACADVER
1
AC1021
9
$INSUNITS
70
4
0
ENDSEC
0
SECTION
2
ENTITIES
0
CIRCLE
8
band-group-dial-face
10
0
20
0
40
13.45
0
CIRCLE
8
band-group-dial-face
10
0
20
0
40
0
0
CIRCLE
8
band-group-chapter-ring
10
0
20
0
40
15.25
0
CIRCLE
8
band-group-chapter-ring
10
0
20
0
40
13.45
0
CIRCLE
8
band-group-inner-bezel
10
0
20
0
40
15.5
0
CIRCLE
8
band-group-inner-bezel
10
0
20
0
40
15.25
0
CIRCLE
8
band-group-outer-bezel
10
0
20
0
40
19
0
CIRCLE
8
band-group-outer-bezel
10
0
20
0
40
15.5
999
Scale text uses the DXF viewer font; use SVG with outlined text for font-exact manufacture.
0
HATCH
100
AcDbEntity
8
scale-outer-substrate
420
1121325
100
AcDbHatch
10
0
20
0
30
0
210
0
220
0
230
1
2
SOLID
70
1
71
0
91
2
92
1
93
1
72
2
10
0
20
0
40
19
50
0
51
360
73
1
97
0
92
0
93
1
72
2
10
0
20
0
40
15.9
50
0
51
360
73
0
97
0
75
0
76
1
98
0
0
HATCH
100
AcDbEntity
8
scale-inner-substrate
420
860988
100
AcDbHatch
10
0
20
0
30
0
210
0
220
0
230
1
2
SOLID
70
1
71
0
91
2
92
1
93
1
72
2
10
0
20
0
40
14.64913043478261
50
0
51
360
73
1
97
0
92
0
93
1
72
2
10
0
20
0
40
13.45
50
0
51
360
73
0
97
0
75
0
76
1
98
0
0
HATCH
100
AcDbEntity
8
scale-inner-substrate
420
16711678
100
AcDbHatch
10
0
20
0
30
0
210
0
220
0
230
1
2
SOLID
70
1
71
0
91
2
92
1
93
1
72
2
10
0
20
0
40
15.25
50
0
51
360
73
1
97
0
92
0
93
1
72
2
10
0
20
0
40
14.64913043478261
50
0
51
360
73
0
97
0
75
0
76
1
98
0
0
LWPOLYLINE
8
scale-outer
420
16382974
90
2
70
0
43
0.111304347826087
10
15.805144817149278
20
2.825130800267117
10
16.291351611784286
20
2.9120390701193553
0
LWPOLYLINE
8
scale-outer
420
16382974
90
2
70
0
43
0.0556521739130435
10
15.876017660932387
20
2.395001035373796
10
16.213073495154955
20
2.4458481110814723
0
LWPOLYLINE
8
scale-outer
420
16382974
90
2
70
0
43
0.0556521739130435
10
15.934661212562299
20
1.967368488753751
10
16.2729620788602
20
2.009136710568714
0
LWPOLYLINE
8
scale-outer
420
16382974
90
2
70
0
43
0.0556521739130435
10
15.981384241476372
20
1.5425059014374165
10
16.320677061161096
20
1.5752540769878642
0
LWPOLYLINE
8
scale-outer
420
16382974
90
2
70
0
43
0.0556521739130435
10
16.01649354561009
20
1.1206699929546546
10
16.356531753467497
20
1.144462380153432
0
LWPOLYLINE
8
scale-outer
420
16382974
90
2
70
0
43
0.111304347826087
10
16.040293617262055
20
0.7021021305342883
10
16.533734192143168
20
0.7237005929554038
0
LWPOLYLINE
8
scale-outer
420
16382974
90
2
70
0
43
0.0556521739130435
10
16.053086341800565
20
0.2870289748000717
10
16.393901433112624
20
0.2931227441957405
0
LWPOLYLINE
8
scale-outer
420
16382974
90
2
70
0
43
0.0556521739130435
10
16.05517072676566
20
-0.12433689752288475
10
16.39603007061814
20
-0.12697663234897721
0
LWPOLYLINE
8
scale-outer
420
16382974
90
2
70
0
43
0.0556521739130435
10
16.046842659093347
20
-0.5317963933504262
10
16.38752519388346
20
-0.5430866980619388
0
LWPOLYLINE
8
scale-outer
420
16382974
90
2
70
0
43
0.0556521739130435
10
16.028394688349124
20
-0.9351633248690935
10
16.36868556344839
20
-0.9550173122688274
0
LWPOLYLINE
8
scale-outer
420
16382974
90
2
70
0
43
0.111304347826087
10
16.000115834007246
20
-1.3342638524779245
10
16.492320437219774
20
-1.375309230955365
0
LWPOLYLINE
8
scale-outer
420
16382974
90
2
70
0
43
0.0556521739130435
10
15.962291414950956
20
-1.7289359484554698
10
16.301178884332497
20
-1.7656421276037881
0
LWPOLYLINE
8
scale-outer
420
16382974
90
2
70
0
43
0.0556521739130435
10
15.9152028994978
20
-2.1190288807601156
10
16.2530906560296
20
-2.164016928921834
0
LWPOLYLINE
8
scale-outer
420
16382974
90
2
70
0
43
0.0556521739130435
10
15.859127774374182
20
-2.50440271636813
10
16.19582502781627
20
-2.557572444748563
0
LWPOLYLINE
8
scale-outer
420
16382974
90
2
70
0
43
0.0556521739130435
10
15.794339431174816
20
-2.8849278435543195
10
16.129661195528183
20
-2.946176311636712
0
LWPOLYLINE
8
scale-outer
420
16382974
90
2
70
0
43
0.111304347826087
10
15.721107068946333
20
-3.260484512523291
10
16.204728646890523
20
-3.3607853792430284
0
LWPOLYLINE
8
scale-outer
420
16382974
90
2
70
0
43
0.0556521739130435
10
15.639695611630772
20
-3.630962393803572
10
15.971734209971288
20
-3.708049550344463
0
LWPOLYLINE
8
scale-outer
420
16382974
90
2
70
0
43
0.0556521739130435
10
15.550365639194396
20
-3.996260153823931
10
15.880507717322875
20
-4.081102765408581
0
LWPOLYLINE
8
scale-outer
420
16382974
90
2
70
0
43
0.0556521739130435
10
15.453373331350575
20
-4.356285047099357
10
15.781456214035227
20
-4.4487711681166315
0
LWPOLYLINE
8
scale-outer
420
16382974
90
2
70
0
43
0.0556521739130435
10
15.3489704228629
20
-4.710952524464505
10
15.674836779327494
20
-4.810968414281993
0
LWPOLYLINE
8
scale-outer
420
16382974
90
2
70
0
43
0.111304347826087
10
15.237404169487125
20
-5.060185856801607
10
15.706145805550204
20
-5.215850153089699
0
LWPOLYLINE
8
scale-outer
420
16382974
90
2
70
0
43
0.0556521739130435
10
15.118917323677318
20
-5.403915773722652
10
15.439899537221594
20
-5.518643621604979
0
LWPOLYLINE
8
scale-outer
420
16382974
90
2
70
0
43
0.0556521739130435
10
14.993748119244081
20
-5.742080116677507
10
15.312072927668241
20
-5.863987363522047
0
LWPOLYLINE
8
scale-outer
420
16382974
90
2
70
0
43
0.0556521739130435
10
14.862130264210814
20
-6.074623505972002
10
15.17766075942153
20
-6.203590816107456
0
LWPOLYLINE
8
scale-outer
420
16382974
90
2
70
0
43
0.0556521739130435
10
14.724292941167924
20
-6.401497021193639
10
15.03689708073345
20
-6.5374040203437636
0
LWPOLYLINE
8
scale-outer
420
16382974
90
2
70
0
43
0.111304347826087
10
14.58046081447506
20
-6.722657894555984
10
15.028993187883955
20
-6.92946409495177
0
LWPOLYLINE
8
scale-outer
420
16382974
90
2
70
0
43
0.0556521739130435
10
14.430854043708333
20
-7.038069216686165
10
14.737228327998503
20
-7.187490963487562
0
LWPOLYLINE
8
scale-outer
420
16382974
90
2
70
0
43
0.0556521739130435
10
14.275688302792844
20
-7.3476996543940345
10
14.57876834041713
20
-7.50369501100812
0
LWPOLYLINE
8
scale-outer
420
16382974
90
2
70
0
43
0.0556521739130435
10
14.115174804301274
20
-7.651523179975155
10
14.414847059678555
20
-7.813968862738926
0
LWPOLYLINE
8
scale-outer
420
16382974
90
2
70
0
43
0.0556521739130435
10
13.949520328437153
20
-7.949518811613521
10
14.245675656033956
20
-8.118291091409475
0
LWPOLYLINE
8
scale-outer
420
16382974
90
2
70
0
43
0.111304347826087
10
13.778927256256164
20
-8.241670364463722
10
14.202802401487615
20
-8.495205284687694
0
LWPOLYLINE
8
scale-outer
420
16382974
90
2
70
0
43
0.0556521739130435
10
13.603593606711556
20
-8.52796621200595
10
13.892404736143474
20
-8.7090192208397
0
LWPOLYLINE
8
scale-outer
420
16382974
90
2
70
0
43
0.0556521739130435
10
13.423713077140315
20
-8.808399057279969
10
13.708705252521545
20
-8.995405796364336
0
LWPOLYLINE
8
scale-outer
420
16382974
90
2
70
0
43
0.0556521739130435
10
13.239475086834458
20
-9.082965713618448
10
13.520555797083546
20
-9.275801640813988
0
LWPOLYLINE
8
scale-outer
420
16382974
90
2
70
0
43
0.0556521739130435
10
13.051064823368627
20
-9.351666894511837
10
13.3281454890294
20
-9.550207482826863
0
LWPOLYLINE
8
scale-outer
420
16382974
90
2
70
0
43
0.111304347826087
10
12.858663291379266
20
-9.614507012250497
10
13.254228756582007
20
-9.910273909074496
0
LWPOLYLINE
8
scale-outer
420
16382974
90
2
70
0
43
0.0556521739130435
10
12.662447363513389
20
-9.87149398500204
10
12.931277485182434
20
-10.08107076371309
0
LWPOLYLINE
8
scale-outer
420
16382974
90
2
70
0
43
0.0556521739130435
10
12.4625898332866
20
-10.122639051993314
10
12.727176879140606
20
-10.337547766702011
0
LWPOLYLINE
8
scale-outer
420
16382974
90
2
70
0
43
0.0556521739130435
10
12.259259469609002
20
-10.367956596479397
10
12.519529709648362
20
-10.588073525954048
0
LWPOLYLINE
8
scale-outer
420
16382974
90
2
70
0
43
0.0556521739130435
10
12.052621072756535
20
-10.6074639761926
10
12.30850427577433
20
-10.832665767714888
0
LWPOLYLINE
8
scale-outer
420
16382974
90
2
70
0
43
0.111304347826087
10
11.84283553158226
20
-10.841181360975904
10
12.207151529304245
20
-11.174683907175769
0
LWPOLYLINE
8
scale-outer
420
16382974
90
2
70
0
43
0.0556521739130435
10
11.630059881777392
20
-11.069131577316744
10
11.876971898331592
20
-11.304134804044873
0
LWPOLYLINE
8
scale-outer
420
16382974
90
2
70
0
43
0.0556521739130435
10
11.414447365008037
20
-11.29133995950612
10
11.656781819464449
20
-11.531060781869986
0
LWPOLYLINE
8
scale-outer
420
16382974
90
2
70
0
43
0.0556521739130435
10
11.196147488765408
20
-11.507834207160384
10
11.433847327131746
20
-11.752151311211883
0
LWPOLYLINE
8
scale-outer
420
16382974
90
2
70
0
43
0.0556521739130435
10
10.975306086781833
20
-11.718644248850985
10
11.208317351189248
20
-11.967436956040629
0
LWPOLYLINE
8
scale-outer
420
16382974
90
2
70
0
43
0.111304347826087
10
10.752065379875797
20
-11.923802111598253
10
11.082826489915304
20
-12.290608849000105
0
LWPOLYLINE
8
scale-outer
420
16382974
90
2
70
0
43
0.0556521739130435
10
10.526564037100481
20
-12.123341795994264
10
10.75004828225556
20
-12.380726435510608
0
LWPOLYLINE
8
scale-outer
420
16382974
90
2
70
0
43
0.0556521739130435
10
10.298937237080885
20
-12.31729915672861
10
10.5175888508664
20
-12.578801608496246
0
LWPOLYLINE
8
scale-outer
420
16382974
90
2
70
0
43
0.0556521739130435
10
10.069316729433451
20
-12.505711788300186
10
10.283093384434421
20
-12.77121433493221
0
LWPOLYLINE
8
scale-outer
420
16382974
90
2
70
0
43
0.0556521739130435
10
9.83783089617225
20
-12.688618915705417
10
10.046692990588385
20
-12.958004672581312
0
LWPOLYLINE
8
scale-outer
420
16382974
90
2
70
0
43
0.111304347826087
10
9.604604813012328
20
-12.866061289902945
10
9.900067092788705
20
-13.261854336516079
0
LWPOLYLINE
8
scale-outer
420
16382974
90
2
70
0
43
0.0556521739130435
10
9.133416034828363
20
-13.204721817002385
10
9.327323047699503
20
-13.485064697865955
0
LWPOLYLINE
8
scale-outer
420
16382974
90
2
70
0
43
0.0556521739130435
10
8.656687190255134
20
-13.522046206833908
10
8.840473010152232
20
-13.80912604398073
0
LWPOLYLINE
8
scale-outer
420
16382974
90
2
70
0
43
0.0556521739130435
10
8.175306053250424
20
-13.818405757009945
10
8.348871909666919
20
-14.111777456357212
0
LWPOLYLINE
8
scale-outer
420
16382974
90
2
70
0
43
0.0556521739130435
10
7.690113278677235
20
-14.094187613721859
10
7.853378248631822
20
-14.393414300494983
0
LWPOLYLINE
8
scale-outer
420
16382974
90
2
70
0
43
0.111304347826087
10
7.201904270650106
20
-14.34979238895359
10
7.42345331883735
20
-14.791228809930933
0
LWPOLYLINE
8
scale-outer
420
16382974
90
2
70
0
43
0.0556521739130435
10
6.711431011989364
20
-14.58563198839824
10
6.853918065536799
20
-14.89529228624552
0
LWPOLYLINE
8
scale-outer
420
16382974
90
2
70
0
43
0.0556521739130435
10
6.219403850877407
20
-14.802127633194152
10
6.351444920501755
20
-15.116384242391083
0
LWPOLYLINE
8
scale-outer
420
16382974
90
2
70
0
43
0.0556521739130435
10
5.72649324167911
20
-14.999708059915102
10
5.848069571333476
20
-15.318159400875173
0
LWPOLYLINE
8
scale-outer
420
16382974
90
2
70
0
43
0.0556521739130435
10
5.233331437631321
20
-15.178807884467684
10
5.344437694322801
20
-15.501061604718515
0
LWPOLYLINE
8
scale-outer
420
16382974
90
2
70
0
43
0.111304347826087
10
4.74051413374204
20
-15.339866116673592
10
4.88634450787362
20
-15.811759745046135
0
LWPOLYLINE
8
scale-outer
420
16382974
90
2
70
0
43
0.0556521739130435
10
4.2486020587804765
20
-15.483324813353393
10
4.338802015834308
20
-15.81204358105457
0
LWPOLYLINE
8
scale-outer
420
16382974
90
2
70
0
43
0.0556521739130435
10
3.7581225156998563
20
-15.609627858686073
10
3.8379093455392383
20
-15.941028103519532
0
LWPOLYLINE
8
scale-outer
420
16382974
90
2
70
0
43
0.0556521739130435
10
3.269570870221662
20
-15.719219861503197
10
3.338985503081654
20
-16.052946799637365
0
LWPOLYLINE
8
scale-outer
420
16382974
90
2
70
0
43
0.0556521739130435
10
2.783411987640463
20
-15.812545159990469
10
2.8425052230799706
20
-16.148253441116783
0
LWPOLYLINE
8
scale-outer
420
16382974
90
2
70
0
43
0.111304347826087
10
2.30008161817966
20
-15.890046925021672
10
2.3708380284442856
20
-16.378865526268005
0
LWPOLYLINE
8
scale-outer
420
16382974
90
2
70
0
43
0.0556521739130435
10
1.819987731459884
20
-15.952166354041514
10
1.8586269857239803
20
-16.290838863291096
0
LWPOLYLINE
8
scale-outer
420
16382974
90
2
70
0
43
0.0556521739130435
10
1.343511800828007
20
-15.999341948052567
10
1.372035231608151
20
-16.33901601887344
0
LWPOLYLINE
8
scale-outer
420
16382974
90
2
70
0
43
0.0556521739130435
10
0.8710100384501863
20
-16.032008864849022
10
0.8895020193358273
20
-16.372376470731865
0
LWPOLYLINE
8
scale-outer
420
16382974
90
2
70
0
43
0.0556521739130435
10
0.4028145821967447
20
-16.05059834218177
10
0.411366538231251
20
-16.391360612011457
0
LWPOLYLINE
8
scale-outer
420
16382974
90
2
70
0
43
0.111304347826087
10
-0.060765364555029205
20
-16.055537185038347
10
-0.06263466303137542
20
-16.54944669116388
0
LWPOLYLINE
8
scale-outer
420
16382974
90
2
70
0
43
0.0556521739130435
10
-0.5194424389959523
20
-16.04724731168086
10
-0.5304704630474263
20
-16.38793843744878
0
LWPOLYLINE
8
scale-outer
420
16382974
90
2
70
0
43
0.0556521739130435
10
-0.9729500695767381
20
-16.02614535350872
10
-0.99360628855822
20
-16.366388474098812
0
LWPOLYLINE
8
scale-outer
420
16382974
90
2
70
0
43
0.0556521739130435
10
-1.4210414700125868
20
-15.992642304202988
10
-1.4512108946359046
20
-16.3321741382177
0
LWPOLYLINE
8
scale-outer
420
16382974
90
2
70
0
43
0.0556521739130435
10
-1.8634886752688882
20
-15.947143213968552
10
-1.903051476433609
20
-16.285709079429758
0
LWPOLYLINE
8
scale-outer
420
16382974
90
2
70
0
43
0.111304347826087
10
-2.3000816181796275
20
-15.890046925021675
10
-2.3708380284442523
20
-16.378865526268008
0
LWPOLYLINE
8
scale-outer
420
16382974
90
2
70
0
43
0.0556521739130435
10
-2.730627245343877
20
-15.821745844775295
10
-2.7885998341748346
20
-16.157649461063855
0
LWPOLYLINE
8
scale-outer
420
16382974
90
2
70
0
43
0.0556521739130435
10
-3.1549486709472854
20
-15.742625753455698
10
-3.221929816907605
20
-16.07684961043981
0
LWPOLYLINE
8
scale-outer
420
16382974
90
2
70
0
43
0.0556521739130435
10
-3.572884367164828
20
-15.653065643143128
10
-3.6487384980101822
20
-15.985388093972425
0
LWPOLYLINE
8
scale-outer
420
16382974
90
2
70
0
43
0.0556521739130435
10
-3.9842873898154227
20
-15.553437585467607
10
-4.0688758136026655
20
-15.883644882559425
0
LWPOLYLINE
8
scale-outer
420
16382974
90
2
70
0
43
0.111304347826087
10
-4.389024637959075
20
-15.444106625411093
10
-4.52404229363286
20
-15.919206959208402
0
LWPOLYLINE
8
scale-outer
420
16382974
90
2
70
0
43
0.0556521739130435
10
-4.786976146150575
20
-15.325430698869901
10
-4.888606055665905
20
-15.650797295163068
0
LWPOLYLINE
8
scale-outer
420
16382974
90
2
70
0
43
0.0556521739130435
10
-5.178034408090274
20
-15.197760571818199
10
-5.287966681052329
20
-15.520416667147096
0
LWPOLYLINE
8
scale-outer
420
16382974
90
2
70
0
43
0.0556521739130435
10
-5.562103730443227
20
-15.061439799085218
10
-5.680189988151945
20
-15.38120173589422
0
LWPOLYLINE
8
scale-outer
420
16382974
90
2
70
0
43
0.0556521739130435
10
-5.93909961562714
20
-14.91680470091823
10
-6.065189685456313
20
-15.233495961899596
0
LWPOLYLINE
8
scale-outer
420
16382974
90
2
70
0
43
0.111304347826087
10
-6.3089481724046745
20
-14.764184355648988
10
-6.503027600585235
20
-15.218368536433685
0
LWPOLYLINE
8
scale-outer
420
16382974
90
2
70
0
43
0.0556521739130435
10
-6.671585553148274
20
-14.603900606916696
10
-6.813226667578199
20
-14.913948756716922
0
LWPOLYLINE
8
scale-outer
420
16382974
90
2
70
0
43
0.0556521739130435
10
-7.026957416680753
20
-14.436268084024832
10
-7.176143254383248
20
-14.742757311112014
0
LWPOLYLINE
8
scale-outer
420
16382974
90
2
70
0
43
0.0556521739130435
10
-7.375018415630119
20
-14.26159423412387
10
-7.531593763275646
20
-14.564375047586639
0
LWPOLYLINE
8
scale-outer
420
16382974
90
2
70
0
43
0.0556521739130435
10
-7.715731707272461
20
-14.080179365017656
10
-7.879540569341938
20
-14.37910864963025
0
LWPOLYLINE
8
scale-outer
420
16382974
90
2
70
0
43
0.111304347826087
10
-8.0490684868717
20
-13.89231669748885
10
-8.296678479318794
20
-14.319679992775553
0
LWPOLYLINE
8
scale-outer
420
16382974
90
2
70
0
43
0.0556521739130435
10
-8.375007542560505
20
-13.69829242612864
10
-8.552813161964954
20
-13.989114059092376
0
LWPOLYLINE
8
scale-outer
420
16382974
90
2
70
0
43
0.0556521739130435
10
-8.693534830840745
20
-13.498385787739117
10
-8.878102944667086
20
-13.784963302296838
0
LWPOLYLINE
8
scale-outer
420
16382974
90
2
70
0
43
0.0556521739130435
10
-9.004643071816492
20
-13.292869136453044
10
-9.195816169961642
20
-13.575083429211363
0
LWPOLYLINE
8
scale-outer
420
16382974
90
2
70
0
43
0.0556521739130435
10
-9.308331363306063
20
-13.082008024786228
10
-9.505951916513169
20
-13.35974563016514
0
LWPOLYLINE
8
scale-outer
420
16382974
90
2
70
0
43
0.111304347826087
10
-9.604604813012307
20
-12.86606128990296
10
-9.900067092788682
20
-13.261854336516095
0
LWPOLYLINE
8
scale-outer
420
16382974
90
2
70
0
43
0.0556521739130435
10
-9.893474187961926
20
-12.645281144435252
10
-10.103517617429056
20
-12.913746818645533
0
LWPOLYLINE
8
scale-outer
420
16382974
90
2
70
0
43
0.0556521739130435
10
-10.17495558045714
20
-12.419913271251241
10
-10.390975001359395
20
-12.68359427224401
0
LWPOLYLINE
8
scale-outer
420
16382974
90
2
70
0
43
0.0556521739130435
10
-10.44907008981232
20
-12.190196921619771
10
-10.670909099518042
20
-12.449000929054506
0
LWPOLYLINE
8
scale-outer
420
16382974
90
2
70
0
43
0.0556521739130435
10
-10.715843519177673
20
-11.956365016265456
10
-10.943346262869055
20
-12.210204654825686
0
LWPOLYLINE
8
scale-outer
420
16382974
90
2
70
0
43
0.111304347826087
10
-10.9753060867818
20
-11.718644248851016
10
-11.312934653576214
20
-12.079139804166624
0
LWPOLYLINE
8
scale-outer
420
16382974
90
2
70
0
43
0.048695652173913063
10
-11.227492150951381
20
-11.477255191464716
10
-11.39288848246453
20
-11.646330874527887
0
LWPOLYLINE
8
scale-outer
420
16382974
90
2
70
0
43
0.048695652173913063
10
-11.472439948293369
20
-11.232412401727467
10
-11.641444696231833
20
-11.397881215271113
0
LWPOLYLINE
8
scale-outer
420
16382974
90
2
70
0
43
0.048695652173913063
10
-11.710191344452006
20
-10.984324531167127
10
-11.882698495973397
20
-11.146138670707717
0
LWPOLYLINE
8
scale-outer
420
16382974
90
2
70
0
43
0.048695652173913063
10
-11.940791596875707
20
-10.733194434540962
10
-12.116695805841815
20
-10.891309083923282
0
LWPOLYLINE
8
scale-outer
420
16382974
90
2
70
0
43
0.0556521739130435
10
-12.164289129055309
20
-10.479219279814002
10
-12.422543101032653
20
-10.70169837197643
0
LWPOLYLINE
8
scale-outer
420
16382974
90
2
70
0
43
0.048695652173913063
10
-12.380735315716363
20
-10.222590658529386
10
-12.563120498010278
20
-10.373183415197497
0
LWPOLYLINE
8
scale-outer
420
16382974
90
2
70
0
43
0.048695652173913063
10
-12.59018427847186
20
-9.96349469633013
10
-12.775654930754374
20
-10.110270614733608
0
LWPOLYLINE
8
scale-outer
420
16382974
90
2
70
0
43
0.048695652173913063
10
-12.79269269146212
20
-9.702112163415258
10
-12.981146569932532
20
-9.8450375592368
0
LWPOLYLINE
8
scale-outer
420
16382974
90
2
70
0
43
0.048695652173913063
10
-12.988319596529747
20
-9.438618584733678
10
-13.179655327154535
20
-9.5776623593788
0
LWPOLYLINE
8
scale-outer
420
16382974
90
2
70
0
43
0.0556521739130435
10
-13.17712622749709
20
-9.173184349738476
10
-13.45688324012593
20
-9.367935663922697
0
LWPOLYLINE
8
scale-outer
420
16382974
90
2
70
0
43
0.048695652173913063
10
-13.359175843132846
20
-8.905974821541683
10
-13.555974794028216
20
-9.037172024285365
0
LWPOLYLINE
8
scale-outer
420
16382974
90
2
70
0
43
0.048695652173913063
10
-13.534533568411945
20
-8.637150445326794
10
-13.733915778691843
20
-8.764387496947725
0
LWPOLYLINE
8
scale-outer
420
16382974
90
2
70
0
43
0.048695652173913063
10
-13.703266243691417
20
-8.366866855889722
10
-13.905134117298655
20
-8.490122260179257
0
LWPOLYLINE
8
scale-outer
420
16382974
90
2
70
0
43
0.048695652173913063
10
-13.865442281440307
20
-8.095274984194544
10
-14.069699230127036
20
-8.21452946836379
0
LWPOLYLINE
8
scale-outer
420
16382974
90
2
70
0
43
0.0556521739130435
10
-14.021131530179083
20
-7.822521162841079
10
-14.318807199580634
20
-7.988597218724622
0
LWPOLYLINE
8
scale-outer
420
16382974
90
2
70
0
43
0.048695652173913063
10
-14.170405145298055
20
-7.548747230354784
10
-14.37915461450955
20
-7.659950612431068
0
LWPOLYLINE
8
scale-outer
420
16382974
90
2
70
0
43
0.048695652173913063
10
-14.313335466440057
20
-7.274090634218673
10
-14.524190494975135
20
-7.381247948587579
0
LWPOLYLINE
8
scale-outer
420
16382974
90
2
70
0
43
0.048695652173913063
10
-14.4499959011459
20
-6.998684532577908
10
-14.662864124992938
20
-7.101784737997167
0
LWPOLYLINE
8
scale-outer
420
16382974
90
2
70
0
43
0.048695652173913063
10
-14.580460814475042
20
-6.722657894556019
10
-14.795250965121555
20
-6.821691849675129
0
LWPOLYLINE
8
scale-outer
420
16382974
90
2
70
0
43
0.0556521739130435
10
-14.704805424326764
20
-6.44613559912982
10
-15.016995834115331
20
-6.582990297724865
0
LWPOLYLINE
8
scale-outer
420
16382974
90
2
70
0
43
0.048695652173913063
10
-14.823105702198914
20
-6.169238532518953
10
-15.041470344259038
20
-6.260119862720706
0
LWPOLYLINE
8
scale-outer
420
16382974
90
2
70
0
43
0.048695652173913063
10
-14.93543827913394
20
-5.892083684050934
10
-15.155457733852552
20
-5.978882143867976
0
LWPOLYLINE
8
scale-outer
420
16382974
90
2
70
0
43
0.048695652173913063
10
-15.041880356612442
20
-5.614784240470455
10
-15.263467848867565
20
-5.697497699818807
0
LWPOLYLINE
8
scale-outer
420
16382974
90
2
70
0
43
0.048695652173913063
10
-15.142509622165433
20
-5.337449678667322
10
-15.365579521278788
20
-5.416077620207481
0
LWPOLYLINE
8
scale-outer
420
16382974
90
2
70
0
43
0.111304347826087
10
-15.237404169487123
20
-5.060185856801614
10
-15.706145805550202
20
-5.215850153089706
0
LWPOLYLINE
8
scale-outer
420
16382974
90
2
70
0
43
0.048695652173913063
10
-15.450066425576267
20
-4.3679988753386345
10
-15.677667057495503
20
-4.432345479221439
0
LWPOLYLINE
8
scale-outer
420
16382974
90
2
70
0
43
0.0556521739130435
10
-15.62860865530552
20
-3.6783907118450623
10
-15.96041187199095
20
-3.7564847954154303
0
LWPOLYLINE
8
scale-outer
420
16382974
90
2
70
0
43
0.048695652173913063
10
-15.774265867343319
20
-2.9927417322659413
10
-16.0066424009177
20
-3.0368289154968955
0
LWPOLYLINE
8
scale-outer
420
16382974
90
2
70
0
43
0.0556521739130435
10
-15.888271478973335
20
-2.3123140228180716
10
-16.225587467911676
20
-2.3614056116907256
0
LWPOLYLINE
8
scale-outer
420
16382974
90
2
70
0
43
0.048695652173913063
10
-15.97185257005956
20
-1.6382588958892952
10
-16.20713982629094
20
-1.6623926924491894
0
LWPOLYLINE
8
scale-outer
420
16382974
90
2
70
0
43
0.0556521739130435
10
-16.026225803964472
20
-0.9716240065076487
10
-16.366470632558173
20
-0.992252072503695
0
LWPOLYLINE
8
scale-outer
420
16382974
90
2
70
0
43
0.048695652173913063
10
-16.052593939437532
20
-0.3133600887350692
10
-16.28907062658696
20
-0.31797631187934666
0
LWPOLYLINE
8
scale-outer
420
16382974
90
2
70
0
43
0.0556521739130435
10
-16.052142865791375
20
0.3356726767278562
10
-16.392937926633568
20
0.3427991763637596
0
LWPOLYLINE
8
scale-outer
420
16382974
90
2
70
0
43
0.048695652173913063
10
-16.026039101079434
20
0.9746986510464554
10
-16.262124599102265
20
0.9890572966857879
0
LWPOLYLINE
8
scale-outer
420
16382974
90
2
70
0
43
0.111304347826087
10
-15.97542769957963
20
1.6030210682278876
10
-16.466872832452314
20
1.6523341080217266
0
LWPOLYLINE
8
scale-outer
420
16382974
90
2
70
0
43
0.048695652173913063
10
-15.90143052076174
20
2.2200166943213704
10
-16.135680363788563
20
2.2527205797663123
0
LWPOLYLINE
8
scale-outer
420
16382974
90
2
70
0
43
0.0556521739130435
10
-15.805144817149282
20
2.825130800267092
10
-16.14069598527767
20
2.8851097470665237
0
LWPOLYLINE
8
scale-outer
420
16382974
90
2
70
0
43
0.048695652173913063
10
-15.687642103150806
20
3.4178724337120543
10
-15.918742550077638
20
3.468222374243341
0
LWPOLYLINE
8
scale-outer
420
16382974
90
2
70
0
43
0.0556521739130435
10
-15.549967271092251
20
3.9978099751787117
10
-15.880100891665702
20
4.082685490249664
0
LWPOLYLINE
8
scale-outer
420
16382974
90
2
70
0
43
0.048695652173913063
10
-15.393137924386972
20
4.564566964179426
10
-15.619899921539986
20
4.631809285142208
0
LWPOLYLINE
8
scale-outer
420
16382974
90
2
70
0
43
0.0556521739130435
10
-15.21814390108358
20
5.117818181177523
10
-15.541232744737437
20
5.226472033377567
0
LWPOLYLINE
8
scale-outer
420
16382974
90
2
70
0
43
0.048695652173913063
10
-15.025946963976574
20
5.657285971686583
10
-15.247299735542953
20
5.740625539727026
0
LWPOLYLINE
8
scale-outer
420
16382974
90
2
70
0
43
0.0556521739130435
10
-14.817480636091048
20
6.182736799245577
10
-15.132063197255894
20
6.313999408934933
0
LWPOLYLINE
8
scale-outer
420
16382974
90
2
70
0
43
0.048695652173913063
10
-14.593650162695575
20
6.693978014494373
10
-14.808634610499583
20
6.792589475713095
0
LWPOLYLINE
8
scale-outer
420
16382974
90
2
70
0
43
0.111304347826087
10
-14.355332583086
20
7.190854828090195
10
-14.796939434645404
20
7.412063967082572
0
LWPOLYLINE
8
scale-outer
420
16382974
90
2
70
0
43
0.048695652173913063
10
-14.103376897247507
20
7.67324747573437
10
-14.311138948593442
20
7.7862849168847035
0
LWPOLYLINE
8
scale-outer
420
16382974
90
2
70
0
43
0.0556521739130435
10
-13.838604314165053
20
8.141068564116813
10
-14.13240483903251
20
8.31390754143125
0
LWPOLYLINE
8
scale-outer
420
16382974
90
2
70
0
43
0.048695652173913063
10
-13.561808570036494
20
8.594260587122278
10
-13.76159257843391
20
8.720865812409174
0
LWPOLYLINE
8
scale-outer
420
16382974
90
2
70
0
43
0.0556521739130435
10
-13.273756305966838
20
9.032793602174479
10
-13.555564823727835
20
9.224564350227578
0
LWPOLYLINE
8
scale-outer
420
16382974
90
2
70
0
43
0.048695652173913063
10
-12.975187495904205
20
9.456663057115325
10
-13.166329772706954
20
9.595972651544233
0
LWPOLYLINE
8
scale-outer
420
16382974
90
2
70
0
43
0.0556521739130435
10
-12.666815916632963
20
9.865887758524948
10
-12.935738784880371
20
10.075345514230202
0
LWPOLYLINE
8
scale-outer
420
16382974
90
2
70
0
43
0.048695652173913063
10
-12.349329652580689
20
10.260507972881747
10
-12.531252186457529
20
10.411659303504788
0
LWPOLYLINE
8
scale-outer
420
16382974
90
2
70
0
43
0.0556521739130435
10
-12.023391629036396
20
10.640583652436371
10
-12.278654276273304
20
10.866488591331251
0
LWPOLYLINE
8
scale-outer
420
16382974
90
2
70
0
43
0.048695652173913063
10
-11.689640168127166
20
11.00619277813116
10
-11.861844572683632
20
11.168329066890458
0
LWPOLYLINE
8
scale-outer
420
16382974
90
2
70
0
43
0.111304347826087
10
-11.348689562569506
20
11.357429812334503
10
-11.697804362804531
20
11.706813485070963
0
LWPOLYLINE
8
scale-outer
420
16382974
90
2
70
0
43
0.048695652173913063
10
-11.001130662809262
20
11.694404254577334
10
-11.163192379679069
20
11.866678840649964
0
LWPOLYLINE
8
scale-outer
420
16382974
90
2
70
0
43
0.0556521739130435
10
-10.647531473696112
20
12.017239293878161
10
-10.873583918328311
20
12.2723713239475
0
LWPOLYLINE
8
scale-outer
420
16382974
90
2
70
0
43
0.048695652173913063
10
-10.288437757315167
20
12.326070551620669
10
-10.440000531903
20
12.50765044709515
0
LWPOLYLINE
8
scale-outer
420
16382974
90
2
70
0
43
0.0556521739130435
10
-9.92437363901998
20
12.621044909309369
10
-10.135073079363126
20
12.888996036066805
0
LWPOLYLINE
8
scale-outer
420
16382974
90
2
70
0
43
0.048695652173913063
10
-9.55584221409158
20
12.90231941586721
10
-9.696612853293969
20
13.092388246083624
0
LWPOLYLINE
8
scale-outer
420
16382974
90
2
70
0
43
0.0556521739130435
10
-9.183326152782241
20
13.170060269463626
10
-9.37829278254235
20
13.449667268252066
0
LWPOLYLINE
8
scale-outer
420
16382974
90
2
70
0
43
0.048695652173913063
10
-8.807288301805105
20
13.42444186916408
10
-8.937031716996342
20
13.622202277981922
0
LWPOLYLINE
8
scale-outer
420
16382974
90
2
70
0
43
0.0556521739130435
10
-8.428172280595497
20
13.665645931981418
10
-8.607106614109007
20
13.955774463466293
0
LWPOLYLINE
8
scale-outer
420
16382974
90
2
70
0
43
0.048695652173913063
10
-8.04640307090956
20
13.893860671179045
10
-8.164937604883098
20
14.098536261655685
0
LWPOLYLINE
8
scale-outer
420
16382974
90
2
70
0
43
0.111304347826087
10
-7.662387598534631
20
14.109280031932931
10
-7.898102295023349
20
14.543317675896207
0
LWPOLYLINE
8
scale-outer
420
16382974
90
2
70
0
43
0.048695652173913063
10
-7.276515306076184
20
14.312102980698457
10
-7.383708339181292
20
14.522939853031103
0
LWPOLYLINE
8
scale-outer
420
16382974
90
2
70
0
43
0.0556521739130435
10
-6.8891587159507655
20
14.502532844855695
10
-7.035419017979184
20
14.810428906119963
0
LWPOLYLINE
8
scale-outer
420
16382974
90
2
70
0
43
0.048695652173913063
10
-6.500673982862847
20
14.680776699419168
10
-6.59643781103327
20
14.897044640398478
0
LWPOLYLINE
8
scale-outer
420
16382974
90
2
70
0
43
0.0556521739130435
10
-6.1114014351746055
20
14.847044797798125
10
-6.241149559231606
20
15.16225502097495
0
LWPOLYLINE
8
scale-outer
420
16382974
90
2
70
0
43
0.048695652173913063
10
-5.721666104693264
20
15.001550043781569
10
-5.805954080239005
20
15.222543415310414
0
LWPOLYLINE
8
scale-outer
420
16382974
90
2
70
0
43
0.0556521739130435
10
-5.331778244502955
20
15.144507502098694
10
-5.44497457638365
20
15.466033007992472
0
LWPOLYLINE
8
scale-outer
420
16382974
90
2
70
0
43
0.048695652173913063
10
-4.942033834558324
20
15.27613394507129
10
-5.014836759330847
20
15.501172313412894
0
LWPOLYLINE
8
scale-outer
420
16382974
90
2
70
0
43
0.0556521739130435
10
-4.552715074836709
20
15.396647433030127
10
-4.649371504068512
20
15.723525996383021
0
LWPOLYLINE
8
scale-outer
420
16382974
90
2
70
0
43
0.048695652173913063
10
-4.164090865915404
20
15.506266926313327
10
-4.225433625638594
20
15.734695468555376
0
LWPOLYLINE
8
scale-outer
420
16382974
90
2
70
0
43
0.111304347826087
10
-3.7764172769016144
20
15.605211926801815
10
-3.8925895588166988
20
16.085268272903605
0
LWPOLYLINE
8
scale-outer
420
16382974
90
2
70
0
43
0.048695652173913063
10
-3.3899380006962594
20
15.693702147075241
10
-3.4398764287827728
20
15.924891866746194
0
LWPOLYLINE
8
scale-outer
420
16382974
90
2
70
0
43
0.0556521739130435
10
-3.0048847966199177
20
15.771957205392141
10
-3.068680011106216
20
16.106803783842842
0
LWPOLYLINE
8
scale-outer
420
16382974
90
2
70
0
43
0.048695652173913063
10
-2.621477920468496
20
15.840196344811348
10
-2.6600958794355365
20
16.0735441245876
0
LWPOLYLINE
8
scale-outer
420
16382974
90
2
70
0
43
0.0556521739130435
10
-2.239926542102322
20
15.898638174877249
10
-2.287481308377458
20
16.23617425397993
0
LWPOLYLINE
8
scale-outer
420
16382974
90
2
70
0
43
0.048695652173913063
10
-1.8604291507017476
20
15.947500434390895
10
-1.887835819299607
20
16.18242895032213
0
LWPOLYLINE
8
scale-outer
420
16382974
90
2
70
0
43
0.0556521739130435
10
-1.483173947848342
20
15.986999773881983
10
-1.5146624762038745
20
16.326411814142045
0
LWPOLYLINE
8
scale-outer
420
16382974
90
2
70
0
43
0.048695652173913063
10
-1.1083392286129623
20
16.01735155648387
10
-1.1246665829339506
20
16.253309075080253
0
LWPOLYLINE
8
scale-outer
420
16382974
90
2
70
0
43
0.0556521739130435
10
-0.7360937508494158
20
16.038769675995695
10
-0.7517213911404129
20
16.379280817297165
0
LWPOLYLINE
8
scale-outer
420
16382974
90
2
70
0
43
0.048695652173913063
10
-0.36659709290845266
20
16.051466390992122
10
-0.3719975700136898
20
16.287926467809164
0
LWPOLYLINE
8
scale-outer
420
16382974
90
2
70
0
43
0.0556521739130435
10
0.7239346749696077
20
16.039323094072742
10
0.7393041719685293
20
16.379845984718138
0
LWPOLYLINE
8
scale-outer
420
16382974
90
2
70
0
43
0.0556521739130435
10
1.4346685055135822
20
15.991425609024546
10
1.4651272389495291
20
16.330931611989104
0
LWPOLYLINE
8
scale-outer
420
16382974
90
2
70
0
43
0.0556521739130435
10
2.131280705590407
20
15.913566830967111
10
2.176528866151035
20
16.25141985294172
0
LWPOLYLINE
8
scale-outer
420
16382974
90
2
70
0
43
0.0556521739130435
10
2.8129622394196274
20
15.807315084139935
10
2.872682841556353
20
16.14291232812731
0
LWPOLYLINE
8
scale-outer
420
16382974
90
2
70
0
43
0.111304347826087
10
3.4790072023215144
20
15.674197766261393
10
3.586030387488251
20
16.15637629373304
0
LWPOLYLINE
8
scale-outer
420
16382974
90
2
70
0
43
0.0556521739130435
10
4.128804781340773
20
15.515699720194903
10
4.21646138198449
20
15.845105823439942
0
LWPOLYLINE
8
scale-outer
420
16382974
90
2
70
0
43
0.0556521739130435
10
4.761831762829299
20
15.333262046681021
10
4.862927844449159
20
15.65879490642425
0
LWPOLYLINE
8
scale-outer
420
16382974
90
2
70
0
43
0.0556521739130435
10
5.377645554945336
20
15.128281297459248
10
5.491815672879618
20
15.449462312873244
0
LWPOLYLINE
8
scale-outer
420
16382974
90
2
70
0
43
0.0556521739130435
10
5.975877694035531
20
14.902108995561909
10
6.102748580953963
20
15.218488259332505
0
LWPOLYLINE
8
scale-outer
420
16382974
90
2
70
0
43
0.111304347826087
10
6.556227805033844
20
14.656051436119474
10
6.757914188984191
20
15.106909170939442
0
LWPOLYLINE
8
scale-outer
420
16382974
90
2
70
0
43
0.0556521739130435
10
7.118457987284627
20
14.39136972678217
10
7.269586428089197
20
14.696905739179194
0
LWPOLYLINE
8
scale-outer
420
16382974
90
2
70
0
43
0.0556521739130435
10
7.662387598534602
20
14.109280031932947
10
7.825063938364844
20
14.408827138330137
0
LWPOLYLINE
8
scale-outer
420
16382974
90
2
70
0
43
0.0556521739130435
10
8.1878884112067
20
13.810953989326938
10
8.361721397406496
20
14.104167483901037
0
LWPOLYLINE
8
scale-outer
420
16382974
90
2
70
0
43
0.0556521739130435
10
8.694880116445066
20
13.497519271715333
10
8.87947679136093
20
13.784078389702358
0
LWPOLYLINE
8
scale-outer
420
16382974
90
2
70
0
43
0.111304347826087
10
9.183326152782223
20
13.170060269463638
10
9.465828820393808
20
13.575205104442807
0
LWPOLYLINE
8
scale-outer
420
16382974
90
2
70
0
43
0.0556521739130435
10
9.65322983761503
20
12.829618873211219
10
9.858172758777568
20
13.101998130051493
0
LWPOLYLINE
8
scale-outer
420
16382974
90
2
70
0
43
0.0556521739130435
10
10.104630780973375
20
12.477195338291533
10
10.319157171037368
20
12.742092466357517
0
LWPOLYLINE
8
scale-outer
420
16382974
90
2
70
0
43
0.0556521739130435
10
10.537601562317093
20
12.113749214984228
10
10.761320139679977
20
12.3709301991845
0
LWPOLYLINE
8
scale-outer
420
16382974
90
2
70
0
43
0.0556521739130435
10
10.952244652297912
20
11.740200330739267
10
11.184766310860564
20
11.98945068438148
0
LWPOLYLINE
8
scale-outer
420
16382974
90
2
70
0
43
0.111304347826087
10
11.3486895625695
20
11.357429812334509
10
11.697804362804526
20
11.706813485070969
0
LWPOLYLINE
8
scale-outer
420
16382974
90
2
70
0
43
0.0556521739130435
10
11.727090207819781
20
10.966281137529531
10
11.97606222696327
20
11.199100797728384
0
LWPOLYLINE
8
scale-outer
420
16382974
90
2
70
0
43
0.0556521739130435
10
12.087622465233475
20
10.567561207187854
10
12.344248765405244
20
10.791915842869052
0
LWPOLYLINE
8
scale-outer
420
16382974
90
2
70
0
43
0.0556521739130435
10
12.430481917570363
20
10.162041430078643
10
12.694387296236286
20
10.377786677077713
0
LWPOLYLINE
8
scale-outer
420
16382974
90
2
70
0
43
0.0556521739130435
10
12.755881766966569
20
9.750458813658385
10
13.026695547981024
20
9.957465954849575
0
LWPOLYLINE
8
scale-outer
420
16382974
90
2
70
0
43
0.111304347826087
10
13.064050907433625
20
9.333517055090288
10
13.465934622523655
20
9.620639980095234
0
LWPOLYLINE
8
scale-outer
420
16382974
90
2
70
0
43
0.0556521739130435
10
13.355232144845084
20
8.91188762760029
10
13.638770435615195
20
9.101091481045879
0
LWPOLYLINE
8
scale-outer
420
16382974
90
2
70
0
43
0.0556521739130435
10
13.62968055396532
20
8.486210858005958
10
13.919045522398727
20
8.666377379688061
0
LWPOLYLINE
8
scale-outer
420
16382974
90
2
70
0
43
0.0556521739130435
10
13.88766196279054
20
8.057096991903435
10
14.182504006194673
20
8.228153210535702
0
LWPOLYLINE
8
scale-outer
420
16382974
90
2
70
0
43
0.0556521739130435
10
14.129451555143072
20
7.625127243564113
10
14.429426913116215
20
7.787012527331289
0
LWPOLYLINE
8
scale-outer
420
16382974
90
2
70
0
43
0.111304347826087
10
14.355332583085982
20
7.190854828090231
10
14.796939434645386
20
7.4120639670826085
0
LWPOLYLINE
8
scale-outer
420
16382974
90
2
70
0
43
0.0556521739130435
10
14.565595181310087
20
6.7548059738141255
10
14.87483008767239
20
6.898213899601341
0
LWPOLYLINE
8
scale-outer
420
16382974
90
2
70
0
43
0.0556521739130435
10
14.76053527619189
20
6.317480913305036
10
15.073908858745359
20
6.451604208258219
0
LWPOLYLINE
8
scale-outer
420
16382974
90
2
70
0
43
0.0556521739130435
10
14.940453582730083
20
5.879354851679429
10
15.257646921358235
20
6.004176510142294
0
LWPOLYLINE
8
scale-outer
420
16382974
90
2
70
0
43
0.0556521739130435
10
15.105654683042955
20
5.440878911200015
10
15.426355324060765
20
5.556391505068647
0
LWPOLYLINE
8
scale-outer
420
16382974
90
2
70
0
43
0.111304347826087
10
15.256446180551784
20
5.0024810513989495
10
15.725773597717804
20
5.15637019986053
0
LWPOLYLINE
8
scale-outer
420
16382974
90
2
70
0
43
0.0556521739130435
10
15.393137924386961
20
4.564566964179457
10
15.719941979107483
20
4.661475014978762
0
LWPOLYLINE
8
scale-outer
420
16382974
90
2
70
0
43
0.0556521739130435
10
15.516041298937276
20
4.127520943538805
10
15.845454654070695
20
4.215150287660729
0
LWPOLYLINE
8
scale-outer
420
16382974
90
2
70
0
43
0.0556521739130435
10
15.625468573820127
20
3.6917067297170565
10
15.957205124997419
20
3.770083519039473
0
LWPOLYLINE
8
scale-outer
420
16382974
90
2
70
0
43
0.0556521739130435
10
15.72173230988215
20
3.2574683277180574
10
16.05551258855816
20
3.3266260175179645
0
LWPOLYLINE
8
scale-inner
420
1842203
90
2
70
0
43
0.09739130434782613
10
14.858839163154558
20
2.6559809898416784
10
14.509592028980116
20
2.593553922764719
0
LWPOLYLINE
8
scale-inner
420
1842203
90
2
70
0
43
0.03478260869565219
10
14.925468618246038
20
2.2516044991624806
10
14.760380046381922
20
2.2266998090199452
0
LWPOLYLINE
8
scale-inner
420
1842203
90
2
70
0
43
0.03478260869565219
10
14.98060098885738
20
1.8495757101403807
10
14.814902605364532
20
1.82911780557795
0
LWPOLYLINE
8
scale-inner
420
1842203
90
2
70
0
43
0.03478260869565219
10
15.024526557391011
20
1.4501510339093042
10
14.858342319178083
20
1.4341111111907177
0
LWPOLYLINE
8
scale-inner
420
1842203
90
2
70
0
43
0.03478260869565219
10
15.057533752787734
20
1.0535718193621844
10
14.890984426490228
20
1.0419184052240078
0
LWPOLYLINE
8
scale-inner
420
1842203
90
2
70
0
43
0.0556521739130435
10
15.079908836397498
20
0.6600649822833321
10
14.70461600479778
20
0.6436379826954415
0
LWPOLYLINE
8
scale-inner
420
1842203
90
2
70
0
43
0.03478260869565219
10
15.091935618725364
20
0.26984361238448035
10
14.925005778082722
20
0.2668589090070099
0
LWPOLYLINE
8
scale-inner
420
1842203
90
2
70
0
43
0.03478260869565219
10
15.093895204753126
20
-0.11689244127225927
10
14.926943689396811
20
-0.11559950992886704
0
LWPOLYLINE
8
scale-inner
420
1842203
90
2
70
0
43
0.03478260869565219
10
15.086065765699301
20
-0.49995600595609696
10
14.919200850700063
20
-0.4944260607912745
0
LWPOLYLINE
8
scale-inner
420
1842203
90
2
70
0
43
0.03478260869565219
10
15.068722335231167
20
-0.8791720415262219
10
14.902049253549894
20
-0.8694476395345154
0
LWPOLYLINE
8
scale-inner
420
1842203
90
2
70
0
43
0.09739130434782613
10
15.042136628282863
20
-1.2543771167264977
10
14.660851372273159
20
-1.2225814010045366
0
LWPOLYLINE
8
scale-inner
420
1842203
90
2
70
0
43
0.03478260869565219
10
15.006576880763982
20
-1.6254189049644863
10
14.840591181475064
20
-1.6074403682387794
0
LWPOLYLINE
8
scale-inner
420
1842203
90
2
70
0
43
0.03478260869565219
10
14.96230770856437
20
-1.9921556990183311
10
14.796811664548796
20
-1.970120736653408
0
LWPOLYLINE
8
scale-inner
420
1842203
90
2
70
0
43
0.03478260869565219
10
14.909589984373603
20
-2.3544559441115784
10
14.744677043912175
20
-2.328413628170142
0
LWPOLYLINE
8
scale-inner
420
1842203
90
2
70
0
43
0.03478260869565219
10
14.848680730938478
20
-2.71219778879645
10
14.684441499418462
20
-2.6821985391234415
0
LWPOLYLINE
8
scale-inner
420
1842203
90
2
70
0
43
0.0556521739130435
10
14.779833029479255
20
-3.0652686530890136
10
14.412008167380856
20
-2.988983486851467
0
LWPOLYLINE
8
scale-inner
420
1842203
90
2
70
0
43
0.03478260869565219
10
14.703295942076082
20
-3.413564813303689
10
14.540664791868481
20
-3.375807838671416
0
LWPOLYLINE
8
scale-inner
420
1842203
90
2
70
0
43
0.03478260869565219
10
14.619314446921358
20
-3.7569910030411995
10
14.457612204572715
20
-3.7154354381834116
0
LWPOLYLINE
8
scale-inner
420
1842203
90
2
70
0
43
0.03478260869565219
10
14.528129385412097
20
-4.095460029791713
10
14.36743572858696
20
-4.050160705211823
0
LWPOLYLINE
8
scale-inner
420
1842203
90
2
70
0
43
0.03478260869565219
10
14.429977420129205
20
-4.428892406624628
10
14.270369408799608
20
-4.379905032020144
0
LWPOLYLINE
8
scale-inner
420
1842203
90
2
70
0
43
0.09739130434782613
10
14.32509100281858
20
-4.75721599844512
10
13.961981284741547
20
-4.636630980193782
0
LWPOLYLINE
8
scale-inner
420
1842203
90
2
70
0
43
0.03478260869565219
10
14.213698351551816
20
-5.080365682309611
10
14.056482573489312
20
-5.0241724506937775
0
LWPOLYLINE
8
scale-inner
420
1842203
90
2
70
0
43
0.03478260869565219
10
14.096023436302989
20
-5.3982830213034285
10
13.940109244421768
20
-5.338573349379573
0
LWPOLYLINE
8
scale-inner
420
1842203
90
2
70
0
43
0.03478260869565219
10
13.972285972232639
20
-5.710915951495613
10
13.817740423558002
20
-5.647748289388452
0
LWPOLYLINE
8
scale-inner
420
1842203
90
2
70
0
43
0.03478260869565219
10
13.842701420020767
20
-6.01821848149858
10
13.689589188396836
20
-5.951651788037294
0
LWPOLYLINE
8
scale-inner
420
1842203
90
2
70
0
43
0.0556521739130435
10
13.707480992637855
20
-6.3201504041729875
10
13.366343694552217
20
-6.162861181336757
0
LWPOLYLINE
8
scale-inner
420
1842203
90
2
70
0
43
0.03478260869565219
10
13.566831667986953
20
-6.616677020030697
10
13.416770794048912
20
-6.543490858332055
0
LWPOLYLINE
8
scale-inner
420
1842203
90
2
70
0
43
0.03478260869565219
10
13.420956206890683
20
-6.907768871902017
10
13.272508841523686
20
-6.83136298294818
0
LWPOLYLINE
8
scale-inner
420
1842203
90
2
70
0
43
0.03478260869565219
10
13.27005317593499
20
-7.193401490446205
10
13.12327492840326
20
-7.113836258072113
0
LWPOLYLINE
8
scale-inner
420
1842203
90
2
70
0
43
0.03478260869565219
10
13.114316974717088
20
-7.473555150097124
10
12.96926130405743
20
-7.3908911763195135
0
LWPOLYLINE
8
scale-inner
420
1842203
90
2
70
0
43
0.09739130434782613
10
12.953937867077698
20
-7.748214635048934
10
12.625583881335027
20
-7.551814344734591
0
LWPOLYLINE
8
scale-inner
420
1842203
90
2
70
0
43
0.03478260869565219
10
12.78910201592843
20
-8.01736901489955
10
12.647643503553613
20
-7.928689990164653
0
LWPOLYLINE
8
scale-inner
420
1842203
90
2
70
0
43
0.03478260869565219
10
12.619991521313917
20
-8.281011429581584
10
12.480403517045561
20
-8.189416292070874
0
LWPOLYLINE
8
scale-inner
420
1842203
90
2
70
0
43
0.03478260869565219
10
12.446784461374348
20
-8.539138883223886
10
12.309112276762551
20
-8.444688633168928
0
LWPOLYLINE
8
scale-inner
420
1842203
90
2
70
0
43
0.03478260869565219
10
12.26965493589928
20
-8.791752046597905
10
12.133941956800125
20
-8.694507676810954
0
LWPOLYLINE
8
scale-inner
420
1842203
90
2
70
0
43
0.0556521739130435
10
12.088773112186253
20
-9.038855067815765
10
11.787920504848957
20
-8.81390559699188
0
LWPOLYLINE
8
scale-inner
420
1842203
90
2
70
0
43
0.03478260869565219
10
11.904305272939078
20
-9.28045539095851
10
11.772633376611383
20
-9.17780554016126
0
LWPOLYLINE
8
scale-inner
420
1842203
90
2
70
0
43
0.03478260869565219
10
11.716413865961083
20
-9.516563582323762
10
11.586820210848918
20
-9.41130217103787
0
LWPOLYLINE
8
scale-inner
420
1842203
90
2
70
0
43
0.03478260869565219
10
11.52525755541637
20
-9.747193163994131
10
11.397778254172602
20
-9.639380790373894
0
LWPOLYLINE
8
scale-inner
420
1842203
90
2
70
0
43
0.03478260869565219
10
11.330991274449975
20
-9.972360454437784
10
11.205660726033095
20
-9.862057536141153
0
LWPOLYLINE
8
scale-inner
420
1842203
90
2
70
0
43
0.09739130434782613
10
11.133766278973715
20
-10.192084415863315
10
10.851549661020064
20
-9.933737373032432
0
LWPOLYLINE
8
scale-inner
420
1842203
90
2
70
0
43
0.03478260869565219
10
10.933730202438955
20
-10.40638650806178
10
10.812793704534856
20
-10.291282886807187
0
LWPOLYLINE
8
scale-inner
420
1842203
90
2
70
0
43
0.03478260869565219
10
10.731027111432628
20
-10.615290548477414
10
10.6123326847601
20
-10.49787626813593
0
LWPOLYLINE
8
scale-inner
420
1842203
90
2
70
0
43
0.03478260869565219
10
10.525797561944017
20
-10.818822578260049
10
10.409373151315608
20
-10.699157057908293
0
LWPOLYLINE
8
scale-inner
420
1842203
90
2
70
0
43
0.03478260869565219
10
10.318178656163479
20
-11.017010734059783
10
10.204050689923113
20
-10.895153081558732
0
LWPOLYLINE
8
scale-inner
420
1842203
90
2
70
0
43
0.0556521739130435
10
10.108304099684467
20
-11.209885125334612
10
9.856739311767097
20
-10.93090535322616
0
LWPOLYLINE
8
scale-inner
420
1842203
90
2
70
0
43
0.03478260869565219
10
9.89630425899094
20
-11.397477716950089
10
9.786842587894574
20
-11.271411771064534
0
LWPOLYLINE
8
scale-inner
420
1842203
90
2
70
0
43
0.03478260869565219
10
9.682306219121998
20
-11.579822216858405
10
9.575211551145419
20
-11.451739383339563
0
LWPOLYLINE
8
scale-inner
420
1842203
90
2
70
0
43
0.03478260869565219
10
9.466433841414133
20
-11.756953968652988
10
9.361726908352434
20
-11.626911904996488
0
LWPOLYLINE
8
scale-inner
420
1842203
90
2
70
0
43
0.03478260869565219
10
9.248807821230827
20
-11.928909848801586
10
9.146508019884148
20
-11.796965804617473
0
LWPOLYLINE
8
scale-inner
420
1842203
90
2
70
0
43
0.09739130434782613
10
9.029545745595456
20
-12.095728168369815
10
8.80066651478277
20
-11.789127920993446
0
LWPOLYLINE
8
scale-inner
420
1842203
90
2
70
0
43
0.03478260869565219
10
8.586568578886924
20
-12.414111983342499
10
8.491593715439834
20
-12.276801184552179
0
LWPOLYLINE
8
scale-inner
420
1842203
90
2
70
0
43
0.03478260869565219
10
8.138383047662682
20
-12.712437125288476
10
8.048365503223286
20
-12.5718265928084
0
LWPOLYLINE
8
scale-inner
420
1842203
90
2
70
0
43
0.03478260869565219
10
7.685823771953395
20
-12.991052661019125
10
7.600811923912662
20
-12.847360400114342
0
LWPOLYLINE
8
scale-inner
420
1842203
90
2
70
0
43
0.03478260869565219
10
7.229681073869085
20
-13.25032255701857
10
7.1497145579729615
20
-13.10376254717051
0
LWPOLYLINE
8
scale-inner
420
1842203
90
2
70
0
43
0.09739130434782613
10
6.770702734081449
20
-13.490623439322514
10
6.59908023196457
20
-13.148665648424574
0
LWPOLYLINE
8
scale-inner
420
1842203
90
2
70
0
43
0.03478260869565219
10
6.309595711742709
20
-13.712342551484557
10
6.2398061344949864
20
-13.560672201518544
0
LWPOLYLINE
8
scale-inner
420
1842203
90
2
70
0
43
0.03478260869565219
10
5.84702782416895
20
-13.915875894757404
10
5.782354647210085
20
-13.761954290252785
0
LWPOLYLINE
8
scale-inner
420
1842203
90
2
70
0
43
0.03478260869565219
10
5.383629383431913
20
-14.10162653585552
10
5.324081793397121
20
-13.94565036885467
0
LWPOLYLINE
8
scale-inner
420
1842203
90
2
70
0
43
0.03478260869565219
10
4.919994787701651
20
-14.270003068811326
10
4.86557539666909
20
-14.112164511953775
0
LWPOLYLINE
8
scale-inner
420
1842203
90
2
70
0
43
0.09739130434782613
10
4.456684065779961
20
-14.42141821849429
10
4.343716874551273
20
-14.055866816233872
0
LWPOLYLINE
8
scale-inner
420
1842203
90
2
70
0
43
0.03478260869565219
10
3.994224373772796
20
-14.556287574338977
10
3.9500448029709188
20
-14.395282463628197
0
LWPOLYLINE
8
scale-inner
420
1842203
90
2
70
0
43
0.03478260869565219
10
3.5331114432829267
20
-14.675028443728456
10
3.4940321796881277
20
-14.51270995646309
0
LWPOLYLINE
8
scale-inner
420
1842203
90
2
70
0
43
0.03478260869565219
10
3.073810980867782
20
-14.778058815311052
10
3.03981197701799
20
-14.614600723163704
0
LWPOLYLINE
8
scale-inner
420
1842203
90
2
70
0
43
0.03478260869565219
10
2.6167600188180775
20
-14.865796423293682
10
2.587816393296686
20
-14.701367877435896
0
LWPOLYLINE
8
scale-inner
420
1842203
90
2
70
0
43
0.09739130434782613
10
2.162368217567787
20
-14.938657904462126
10
2.107556913841669
20
-14.559995607722009
0
LWPOLYLINE
8
scale-inner
420
1842203
90
2
70
0
43
0.03478260869565219
10
1.7110191202635614
20
-14.997058040328728
10
1.6920937712362487
20
-14.831177627635055
0
LWPOLYLINE
8
scale-inner
420
1842203
90
2
70
0
43
0.03478260869565219
10
1.2630713601967591
20
-15.041409077408497
10
1.249100700222811
20
-14.875038103945212
0
LWPOLYLINE
8
scale-inner
420
1842203
90
2
70
0
43
0.03478260869565219
10
0.8188598219474416
20
-15.072120119176871
10
0.8098025251871276
20
-14.905409455070988
0
LWPOLYLINE
8
scale-inner
420
1842203
90
2
70
0
43
0.03478260869565219
10
0.3786967572065746
20
-15.089596583771788
10
0.3745080440468164
20
-14.922692614875618
0
LWPOLYLINE
8
scale-inner
420
1842203
90
2
70
0
43
0.09739130434782613
10
-0.057127143664887046
20
-15.094239721971846
10
-0.05567909554940759
20
-14.711633766522493
0
LWPOLYLINE
8
scale-inner
420
1842203
90
2
70
0
43
0.03478260869565219
10
-0.48834172320793107
20
-15.086446190414438
10
-0.48294024203986224
20
-14.919577067589335
0
LWPOLYLINE
8
scale-inner
420
1842203
90
2
70
0
43
0.03478260869565219
10
-0.9146963703827886
20
-15.066607675416007
10
-0.9045790386367566
20
-14.899957983698412
0
LWPOLYLINE
8
scale-inner
420
1842203
90
2
70
0
43
0.03478260869565219
10
-1.3359590748057566
20
-15.035110563123244
10
-1.3211822137657645
20
-14.86880925666706
0
LWPOLYLINE
8
scale-inner
420
1842203
90
2
70
0
43
0.03478260869565219
10
-1.7519155204535852
20
-14.99233565206202
10
-1.732537821923926
20
-14.826507473060612
0
LWPOLYLINE
8
scale-inner
420
1842203
90
2
70
0
43
0.09739130434782613
10
-2.162368217567757
20
-14.93865790446213
10
-2.1075569138416395
20
-14.559995607722012
0
LWPOLYLINE
8
scale-inner
420
1842203
90
2
70
0
43
0.03478260869565219
10
-2.5671356714851434
20
-14.874446233022747
10
-2.538740934098552
20
-14.709922012799778
0
LWPOLYLINE
8
scale-inner
420
1842203
90
2
70
0
43
0.03478260869565219
10
-2.9660515871229665
20
-14.8000633200477
10
-2.933244495224035
20
-14.63636183907589
0
LWPOLYLINE
8
scale-inner
420
1842203
90
2
70
0
43
0.03478260869565219
10
-3.3589641078547805
20
-14.715865466123267
10
-3.3218110641754235
20
-14.553095286125245
0
LWPOLYLINE
8
scale-inner
420
1842203
90
2
70
0
43
0.03478260869565219
10
-3.7457350875276765
20
-14.622202465735455
10
-3.7043040228155575
20
-14.46046827940477
0
LWPOLYLINE
8
scale-inner
420
1842203
90
2
70
0
43
0.09739130434782613
10
-4.126239394389764
20
-14.519417507430592
10
-4.021648252670635
20
-14.151382037587608
0
LWPOLYLINE
8
scale-inner
420
1842203
90
2
70
0
43
0.03478260869565219
10
-4.500364245718954
20
-14.40784709631354
10
-4.450586330854303
20
-14.248483865476071
0
LWPOLYLINE
8
scale-inner
420
1842203
90
2
70
0
43
0.03478260869565219
10
-4.868008571968968
20
-14.287820996853673
10
-4.814164193375308
20
-14.129785358325234
0
LWPOLYLINE
8
scale-inner
420
1842203
90
2
70
0
43
0.03478260869565219
10
-5.229082409277447
20
-14.15966219413024
10
-5.171244242236442
20
-14.003044102631952
0
LWPOLYLINE
8
scale-inner
420
1842203
90
2
70
0
43
0.03478260869565219
10
-5.58350631920839
20
-14.023686871798585
10
-5.5217479176594075
20
-13.868572784787304
0
LWPOLYLINE
8
scale-inner
420
1842203
90
2
70
0
43
0.09739130434782613
10
-5.931210834634237
20
-13.880204405195677
10
-5.780867615621127
20
-13.528371589094856
0
LWPOLYLINE
8
scale-inner
420
1842203
90
2
70
0
43
0.03478260869565219
10
-6.272135930693475
20
-13.729517368130603
10
-6.202760690972696
20
-13.577657049861106
0
LWPOLYLINE
8
scale-inner
420
1842203
90
2
70
0
43
0.03478260869565219
10
-6.6062305197927245
20
-13.571921552022587
10
-6.533159905407829
20
-13.421804379571721
0
LWPOLYLINE
8
scale-inner
420
1842203
90
2
70
0
43
0.03478260869565219
10
-6.933451969655298
20
-13.407705996156801
10
-6.85676200346157
20
-13.259405189562793
0
LWPOLYLINE
8
scale-inner
420
1842203
90
2
70
0
43
0.03478260869565219
10
-7.253765643451529
20
-13.237153027927805
10
-7.1735327314175
20
-13.090738684444085
0
LWPOLYLINE
8
scale-inner
420
1842203
90
2
70
0
43
0.09739130434782613
10
-7.567144461078987
20
-13.060538312032074
10
-7.375333903549549
20
-12.72948223821843
0
LWPOLYLINE
8
scale-inner
420
1842203
90
2
70
0
43
0.03478260869565219
10
-7.873568480694137
20
-12.878130907655654
10
-7.78648001404706
20
-12.735687658857088
0
LWPOLYLINE
8
scale-inner
420
1842203
90
2
70
0
43
0.03478260869565219
10
-8.173024499628957
20
-12.69019333278106
10
-8.082623790816054
20
-12.549828835854829
0
LWPOLYLINE
8
scale-inner
420
1842203
90
2
70
0
43
0.03478260869565219
10
-8.465505673858674
20
-12.496981634809368
10
-8.37186987068554
20
-12.358754226111415
0
LWPOLYLINE
8
scale-inner
420
1842203
90
2
70
0
43
0.03478260869565219
10
-8.75101115521817
20
-12.298745466759737
10
-8.654217414871834
20
-12.162710721268024
0
LWPOLYLINE
8
scale-inner
420
1842203
90
2
70
0
43
0.09739130434782613
10
-9.029545745595435
20
-12.095728168369831
10
-8.800666514782751
20
-11.789127920993462
0
LWPOLYLINE
8
scale-inner
420
1842203
90
2
70
0
43
0.03478260869565219
10
-9.30111956736011
20
-11.888166851477433
10
-9.198241152927231
20
-11.7566734600275
0
LWPOLYLINE
8
scale-inner
420
1842203
90
2
70
0
43
0.03478260869565219
10
-9.565747749315712
20
-11.676292489114745
10
-9.45994231866971
20
-11.54714261107747
0
LWPOLYLINE
8
scale-inner
420
1842203
90
2
70
0
43
0.03478260869565219
10
-9.823450127491723
20
-11.460330007795537
10
-9.714794286003206
20
-11.333568861296891
0
LWPOLYLINE
8
scale-inner
420
1842203
90
2
70
0
43
0.03478260869565219
10
-10.074250960119457
20
-11.24049838251971
10
-9.962821044842046
20
-11.116168763633068
0
LWPOLYLINE
8
scale-inner
420
1842203
90
2
70
0
43
0.09739130434782613
10
-10.318178656163447
20
-11.017010734059811
10
-10.056635400195942
20
-10.737753613744905
0
LWPOLYLINE
8
scale-inner
420
1842203
90
2
70
0
43
0.03478260869565219
10
-10.555265516805111
20
-10.790074428132597
10
-10.43851516514877
20
-10.670726887146827
0
LWPOLYLINE
8
scale-inner
420
1842203
90
2
70
0
43
0.03478260869565219
10
-10.785547489300827
20
-10.559891176093277
10
-10.666250020167793
20
-10.443089660650703
0
LWPOLYLINE
8
scale-inner
420
1842203
90
2
70
0
43
0.03478260869565219
10
-11.009063932661945
20
-10.326657136821089
10
-10.887294178646846
20
-10.212435391263025
0
LWPOLYLINE
8
scale-inner
420
1842203
90
2
70
0
43
0.03478260869565219
10
-11.225857394625594
20
-10.09056301949628
10
-11.101689717708341
20
-9.97895267875582
0
LWPOLYLINE
8
scale-inner
420
1842203
90
2
70
0
43
0.041739130434782626
10
-11.435973399410019
20
-9.851794186993683
10
-11.240965298121003
20
-9.683799770462867
0
LWPOLYLINE
8
scale-inner
420
1842203
90
2
70
0
43
0.03478260869565219
10
-11.639460245768115
20
-9.610530759644842
10
-11.51071776414888
20
-9.504229990232059
0
LWPOLYLINE
8
scale-inner
420
1842203
90
2
70
0
43
0.03478260869565219
10
-11.836368814875096
20
-9.366947719142471
10
-11.70544835444038
20
-9.263341188504722
0
LWPOLYLINE
8
scale-inner
420
1842203
90
2
70
0
43
0.03478260869565219
10
-12.026752387605352
20
-9.12121501238322
10
-11.893726120449767
20
-9.02032649768566
0
LWPOLYLINE
8
scale-inner
420
1842203
90
2
70
0
43
0.03478260869565219
10
-12.210666470773484
20
-8.873497655063884
10
-12.07560595503834
20
-8.775349108255561
0
LWPOLYLINE
8
scale-inner
420
1842203
90
2
70
0
43
0.041739130434782626
10
-12.388168631932857
20
-8.623955834864347
10
-12.176923540764141
20
-8.47689872007218
0
LWPOLYLINE
8
scale-inner
420
1842203
90
2
70
0
43
0.03478260869565219
10
-12.559318342343019
20
-8.372745014066902
10
-12.420401435828639
20
-8.280135223894893
0
LWPOLYLINE
8
scale-inner
420
1842203
90
2
70
0
43
0.03478260869565219
10
-12.724176827733901
20
-8.120016031477748
10
-12.583436444006914
20
-8.030201642098268
0
LWPOLYLINE
8
scale-inner
420
1842203
90
2
70
0
43
0.03478260869565219
10
-12.882806926511995
20
-7.865915203529123
10
-12.740311956906883
20
-7.778911388736509
0
LWPOLYLINE
8
scale-inner
420
1842203
90
2
70
0
43
0.03478260869565219
10
-13.035272955068326
20
-7.610584424455211
10
-12.891091579524753
20
-7.526404788571038
0
LWPOLYLINE
8
scale-inner
420
1842203
90
2
70
0
43
0.041739130434782626
10
-13.181640579864256
20
-7.354161265445022
10
-12.95686507439778
20
-7.228756896716633
0
LWPOLYLINE
8
scale-inner
420
1842203
90
2
70
0
43
0.03478260869565219
10
-13.321976695984418
20
-7.096779072688125
10
-13.174624129482185
20
-7.018282567693101
0
LWPOLYLINE
8
scale-inner
420
1842203
90
2
70
0
43
0.03478260869565219
10
-13.456349311860903
20
-6.838567064237697
10
-13.307510468189083
20
-6.762926607036116
0
LWPOLYLINE
8
scale-inner
420
1842203
90
2
70
0
43
0.03478260869565219
10
-13.584827439885244
20
-6.579650425625737
10
-13.434567517169688
20
-6.506873810035673
0
LWPOLYLINE
8
scale-inner
420
1842203
90
2
70
0
43
0.03478260869565219
10
-13.707480992637837
20
-6.320150404173021
10
-13.555864415710888
20
-6.250244082912474
0
LWPOLYLINE
8
scale-inner
420
1842203
90
2
70
0
43
0.041739130434782626
10
-13.82438068447661
20
-6.060184401944053
10
-13.588645068921979
20
-5.956845139739631
0
LWPOLYLINE
8
scale-inner
420
1842203
90
2
70
0
43
0.03478260869565219
10
-13.935597938237645
20
-5.799866067305581
10
-13.781458190901088
20
-5.735714540104344
0
LWPOLYLINE
8
scale-inner
420
1842203
90
2
70
0
43
0.03478260869565219
10
-14.041204796812528
20
-5.539305385051892
10
-13.88589694642292
20
-5.478035884004568
0
LWPOLYLINE
8
scale-inner
420
1842203
90
2
70
0
43
0.03478260869565219
10
-14.141273839377009
20
-5.278608765067504
10
-13.984859138961628
20
-5.220222793762785
0
LWPOLYLINE
8
scale-inner
420
1842203
90
2
70
0
43
0.03478260869565219
10
-14.235878102055821
20
-5.0178791295031795
10
-14.078416996799334
20
-4.96237705312189
0
LWPOLYLINE
8
scale-inner
420
1842203
90
2
70
0
43
0.09739130434782613
10
-14.325091002818578
20
-4.757215998445127
10
-13.961981284741546
20
-4.636630980193789
0
LWPOLYLINE
8
scale-inner
420
1842203
90
2
70
0
43
0.03478260869565219
10
-14.525020474889821
20
-4.106472512866426
10
-14.364361205299772
20
-4.061051380713858
0
LWPOLYLINE
8
scale-inner
420
1842203
90
2
70
0
43
0.041739130434782626
10
-14.692872798045974
20
-3.45815344300057
10
-14.442327511977384
20
-3.3991844411209042
0
LWPOLYLINE
8
scale-inner
420
1842203
90
2
70
0
43
0.03478260869565219
10
-14.829809036951852
20
-2.8135565077739573
10
-14.665778542664054
20
-2.7824361431403424
0
LWPOLYLINE
8
scale-inner
420
1842203
90
2
70
0
43
0.041739130434782626
10
-14.936988760168903
20
-2.173868228178482
10
-14.682280768521583
20
-2.136799069233825
0
LWPOLYLINE
8
scale-inner
420
1842203
90
2
70
0
43
0.03478260869565219
10
-15.015565578280919
20
-1.5401709837681072
10
-14.849480456235238
20
-1.5231353626670052
0
LWPOLYLINE
8
scale-inner
420
1842203
90
2
70
0
43
0.041739130434782626
10
-15.066683309040148
20
-0.913449703041758
10
-14.809763744591843
20
-0.8978734083100496
0
LWPOLYLINE
8
scale-inner
420
1842203
90
2
70
0
43
0.03478260869565219
10
-15.091472698100434
20
-0.29459819650713276
10
-14.924547977759662
20
-0.29133968605234867
0
LWPOLYLINE
8
scale-inner
420
1842203
90
2
70
0
43
0.041739130434782626
10
-15.091048631707086
20
0.3155748569638481
10
-14.833713585765022
20
0.3101936225449007
0
LWPOLYLINE
8
scale-inner
420
1842203
90
2
70
0
43
0.03478260869565219
10
-15.066507784666776
20
0.916340258567477
10
-14.899859197827126
20
0.9062047439985363
0
LWPOLYLINE
8
scale-inner
420
1842203
90
2
70
0
43
0.09739130434782613
10
-15.01892665311704
20
1.507042959967168
10
-14.638229719201581
20
1.4688427178733492
0
LWPOLYLINE
8
scale-inner
420
1842203
90
2
70
0
43
0.03478260869565219
10
-14.949359927136195
20
2.087097042264813
10
-14.784007096764322
20
2.0640119466566182
0
LWPOLYLINE
8
scale-inner
420
1842203
90
2
70
0
43
0.041739130434782626
10
-14.858839163154562
20
2.655980989841655
10
-14.605463791302514
20
2.6106907647073903
0
LWPOLYLINE
8
scale-inner
420
1842203
90
2
70
0
43
0.03478260869565219
10
-14.748371720512527
20
3.2132332452659607
10
-14.585241993270056
20
3.1776921107732874
0
LWPOLYLINE
8
scale-inner
420
1842203
90
2
70
0
43
0.041739130434782626
10
-14.618939930418914
20
3.7584480315283617
10
-14.36965535978182
20
3.694358356882949
0
LWPOLYLINE
8
scale-inner
420
1842203
90
2
70
0
43
0.03478260869565219
10
-14.47150046904632
20
4.2912714280604725
10
-14.31143317693831
20
4.243806260322039
0
LWPOLYLINE
8
scale-inner
420
1842203
90
2
70
0
43
0.041739130434782626
10
-14.306983909605684
20
4.81139768728174
10
-14.063018864397671
20
4.729352941742932
0
LWPOLYLINE
8
scale-inner
420
1842203
90
2
70
0
43
0.03478260869565219
10
-14.126294431011015
20
5.318565778786912
10
-13.970045415787688
20
5.259737848405423
0
LWPOLYLINE
8
scale-inner
420
1842203
90
2
70
0
43
0.041739130434782626
10
-13.930309663214173
20
5.812556148705824
10
-13.69276772927337
20
5.713439484246515
0
LWPOLYLINE
8
scale-inner
420
1842203
90
2
70
0
43
0.03478260869565219
10
-13.719880651492154
20
6.293187682224902
10
-13.568126923630503
20
6.223579591952863
0
LWPOLYLINE
8
scale-inner
420
1842203
90
2
70
0
43
0.09739130434782613
10
-13.495831923932968
20
6.760314857744999
10
-13.153742109344698
20
6.5889556655678065
0
LWPOLYLINE
8
scale-inner
420
1842203
90
2
70
0
43
0.03478260869565219
10
-13.25896164811909
20
7.213825081647263
10
-13.112306082463135
20
7.134033946717616
0
LWPOLYLINE
8
scale-inner
420
1842203
90
2
70
0
43
0.041739130434782626
10
-13.010041864570736
20
7.653636193144589
10
-12.788192488650413
20
7.523125128641849
0
LWPOLYLINE
8
scale-inner
420
1842203
90
2
70
0
43
0.03478260869565219
10
-12.749818785906546
20
8.07969412920072
10
-12.608794779978957
20
7.990325734880556
0
LWPOLYLINE
8
scale-inner
420
1842203
90
2
70
0
43
0.041739130434782626
10
-12.479013151924034
20
8.491970739999227
10
-12.266218965043283
20
8.347164256775457
0
LWPOLYLINE
8
scale-inner
420
1842203
90
2
70
0
43
0.03478260869565219
10
-12.198320631913624
20
8.890461745934596
10
-12.063396671817566
20
8.792125561631837
0
LWPOLYLINE
8
scale-inner
420
1842203
90
2
70
0
43
0.041739130434782626
10
-11.90841226651177
20
9.27518482757557
10
-11.705348059875972
20
9.117022848777726
0
LWPOLYLINE
8
scale-inner
420
1842203
90
2
70
0
43
0.03478260869565219
10
-11.609934942283466
20
9.646177840514937
10
-11.481519036017461
20
9.539482783604555
0
LWPOLYLINE
8
scale-inner
420
1842203
90
2
70
0
43
0.041739130434782626
10
-11.303511893014964
20
10.003497147466245
10
-11.110762547142196
20
9.832915867076233
0
LWPOLYLINE
8
scale-inner
420
1842203
90
2
70
0
43
0.03478260869565219
10
-10.989743222402264
20
10.347216060398058
10
-10.868187172127111
20
10.232766915391494
0
LWPOLYLINE
8
scale-inner
420
1842203
90
2
70
0
43
0.09739130434782613
10
-10.669206443450108
20
10.677423385908172
10
-10.398765401014526
20
10.406774061957393
0
LWPOLYLINE
8
scale-inner
420
1842203
90
2
70
0
43
0.03478260869565219
10
-10.342457030457895
20
10.994222067432878
10
-10.228060524432149
20
10.872616477263962
0
LWPOLYLINE
8
scale-inner
420
1842203
90
2
70
0
43
0.041739130434782626
10
-10.010028979969345
20
11.297727918261701
10
-9.839336317696054
20
11.105077201678732
0
LWPOLYLINE
8
scale-inner
420
1842203
90
2
70
0
43
0.03478260869565219
10
-9.67243537751058
20
11.588068439683026
10
-9.565449889566228
20
11.459894395818687
0
LWPOLYLINE
8
scale-inner
420
1842203
90
2
70
0
43
0.041739130434782626
10
-9.330168967337972
20
11.865381718925839
10
-9.171069389936005
20
11.663051276272265
0
LWPOLYLINE
8
scale-inner
420
1842203
90
2
70
0
43
0.03478260869565219
10
-8.983702722774517
20
12.12981540188101
10
-8.884335212749301
20
11.995649168787068
0
LWPOLYLINE
8
scale-inner
420
1842203
90
2
70
0
43
0.041739130434782626
10
-8.63349041502765
20
12.381525735890618
10
-8.48627071500471
20
12.170393920478938
0
LWPOLYLINE
8
scale-inner
420
1842203
90
2
70
0
43
0.03478260869565219
10
-8.279967178665723
20
12.62067667817833
10
-8.18838359147191
20
12.481081095483383
0
LWPOLYLINE
8
scale-inner
420
1842203
90
2
70
0
43
0.03478260869565219
10
-7.923550072179211
20
12.847439065765785
10
-7.8724259768896365
20
12.764545199627248
0
LWPOLYLINE
8
scale-inner
420
1842203
90
2
70
0
43
0.03478260869565219
10
-7.564638632278141
20
13.061989842973432
10
-7.515830294759626
20
12.977711658659521
0
LWPOLYLINE
8
scale-inner
420
1842203
90
2
70
0
43
0.09739130434782613
10
-7.2036154207735805
20
13.264511342845958
10
-7.1438567653257365
20
13.15447363029189
0
LWPOLYLINE
8
scale-inner
420
1842203
90
2
70
0
43
0.03478260869565219
10
-6.8408465630699435
20
13.455190619067059
10
-6.7651808926428085
20
13.30636459153813
0
LWPOLYLINE
8
scale-inner
420
1842203
90
2
70
0
43
0.041739130434782626
10
-6.476682277449706
20
13.634218825142309
10
-6.366240824897635
20
13.401725880922351
0
LWPOLYLINE
8
scale-inner
420
1842203
90
2
70
0
43
0.03478260869565219
10
-6.1114573944716595
20
13.801790637828619
10
-6.043859398116067
20
13.649130914784399
0
LWPOLYLINE
8
scale-inner
420
1842203
90
2
70
0
43
0.041739130434782626
10
-5.745491865927123
20
13.958103721976753
10
-5.647518792659592
20
13.720087839169762
0
LWPOLYLINE
8
scale-inner
420
1842203
90
2
70
0
43
0.03478260869565219
10
-5.379091262907171
20
14.103358234130328
10
-5.319593868404295
20
13.947362913051142
0
LWPOLYLINE
8
scale-inner
420
1842203
90
2
70
0
43
0.041739130434782626
10
-5.012547262630228
20
14.237756362390607
10
-4.927072481414193
20
13.994971796715715
0
LWPOLYLINE
8
scale-inner
420
1842203
90
2
70
0
43
0.03478260869565219
10
-4.646138123764118
20
14.361501900212305
10
-4.594747823924689
20
14.202651287265288
0
LWPOLYLINE
8
scale-inner
420
1842203
90
2
70
0
43
0.041739130434782626
10
-4.280129150051615
20
14.474799851941803
10
-4.2071436830806626
20
14.227973181654924
0
LWPOLYLINE
8
scale-inner
420
1842203
90
2
70
0
43
0.03478260869565219
10
-3.914773142113981
20
14.577856068046462
10
-3.87147237054467
20
14.41661239116972
0
LWPOLYLINE
8
scale-inner
420
1842203
90
2
70
0
43
0.09739130434782613
10
-3.5503108373644214
20
14.670876908112506
10
-3.4603182246132995
20
14.299002273808304
0
LWPOLYLINE
8
scale-inner
420
1842203
90
2
70
0
43
0.03478260869565219
10
-3.1869713380137576
20
14.754068929809662
10
-3.151720682893866
20
14.590876186512519
0
LWPOLYLINE
8
scale-inner
420
1842203
90
2
70
0
43
0.041739130434782626
10
-2.824972527194911
20
14.827638602133856
10
-2.776800630541992
20
14.574795267385367
0
LWPOLYLINE
8
scale-inner
420
1842203
90
2
70
0
43
0.03478260869565219
10
-2.4645214732697354
20
14.891792041345743
10
-2.4372617375282952
20
14.727075961503683
0
LWPOLYLINE
8
scale-inner
420
1842203
90
2
70
0
43
0.041739130434782626
10
-2.1058148224156823
20
14.946734768122115
10
-2.0699061213507837
20
14.691860585942539
0
LWPOLYLINE
8
scale-inner
420
1842203
90
2
70
0
43
0.03478260869565219
10
-1.7490391796174332
20
14.992671484530675
10
-1.7296932959012972
20
14.826839590932154
0
LWPOLYLINE
8
scale-inner
420
1842203
90
2
70
0
43
0.041739130434782626
10
-1.3943714782130332
20
15.029805869526127
10
-1.3705944261894678
20
14.773515145248123
0
LWPOLYLINE
8
scale-inner
420
1842203
90
2
70
0
43
0.03478260869565219
10
-1.0419793381649756
20
15.058340391747468
10
-1.030454146879572
20
14.891782143326491
0
LWPOLYLINE
8
scale-inner
420
1842203
90
2
70
0
43
0.03478260869565219
10
-0.692021413243045
20
15.078476138473315
10
-0.6875563731599029
20
14.981187240958608
0
LWPOLYLINE
8
scale-inner
420
1842203
90
2
70
0
43
0.03478260869565219
10
-0.3446477273208068
20
15.090412659664036
10
-0.34242400145394436
20
14.993046745680548
0
LWPOLYLINE
8
scale-inner
420
1842203
90
2
70
0
43
0.0904347826086957
10
0
20
15.094347826086956
10
0
20
14.969130434782608
0
LWPOLYLINE
8
scale-inner
420
1842203
90
2
70
0
43
0.03478260869565219
10
0.6805903409586187
20
15.078996421602131
10
0.676199056101784
20
14.981704167132017
0
LWPOLYLINE
8
scale-inner
420
1842203
90
2
70
0
43
0.03478260869565219
10
1.3487702151731757
20
15.033966715459954
10
1.3338516518576098
20
14.8676780609467
0
LWPOLYLINE
8
scale-inner
420
1842203
90
2
70
0
43
0.03478260869565219
10
2.003673967070574
20
14.960769596801486
10
1.981511602714348
20
14.79529056563025
0
LWPOLYLINE
8
scale-inner
420
1842203
90
2
70
0
43
0.03478260869565219
10
2.6445410004855723
20
14.860879489170445
10
2.6152900933165637
20
14.696505328850098
0
LWPOLYLINE
8
scale-inner
420
1842203
90
2
70
0
43
0.09739130434782613
10
3.2707076755577345
20
14.735732339993955
10
3.187802391273643
20
14.362213762375076
0
LWPOLYLINE
8
scale-inner
420
1842203
90
2
70
0
43
0.03478260869565219
10
3.881599750698863
20
14.586724089742376
10
3.838665905485614
20
14.425382324887662
0
LWPOLYLINE
8
scale-inner
420
1842203
90
2
70
0
43
0.03478260869565219
10
4.476725338771251
20
14.415209555746994
10
4.427208890630912
20
14.25576488975031
0
LWPOLYLINE
8
scale-inner
420
1842203
90
2
70
0
43
0.03478260869565219
10
5.055668347352611
20
14.222501673632276
10
4.999748289588882
20
14.065188523225421
0
LWPOLYLINE
8
scale-inner
420
1842203
90
2
70
0
43
0.03478260869565219
10
5.618082373912249
20
14.009871046331316
10
5.555941531339956
20
13.854909774280411
0
LWPOLYLINE
8
scale-inner
420
1842203
90
2
70
0
43
0.09739130434782613
10
6.163685027820622
20
13.778545756817586
10
6.00744909659148
20
13.42928976505564
0
LWPOLYLINE
8
scale-inner
420
1842203
90
2
70
0
43
0.03478260869565219
10
6.692252652311536
20
13.529711406106387
10
6.6182305588562365
20
13.380061114320089
0
LWPOLYLINE
8
scale-inner
420
1842203
90
2
70
0
43
0.03478260869565219
10
7.203615420773554
20
13.264511342845974
10
7.1239372135097625
20
13.117794392773881
0
LWPOLYLINE
8
scale-inner
420
1842203
90
2
70
0
43
0.03478260869565219
10
7.6976527830335515
20
12.984047055011462
10
7.612510095915284
20
12.840432282158844
0
LWPOLYLINE
8
scale-inner
420
1842203
90
2
70
0
43
0.03478260869565219
10
8.174289238589237
20
12.68937869790244
10
8.083874540671264
20
12.549023211541448
0
LWPOLYLINE
8
scale-inner
420
1842203
90
2
70
0
43
0.09739130434782613
10
8.633490415027634
20
12.381525735890628
10
8.414650320398941
20
12.06768114541381
0
LWPOLYLINE
8
scale-inner
420
1842203
90
2
70
0
43
0.03478260869565219
10
9.07525943112221
20
12.061467678219072
10
8.974879224838519
20
11.928057429970776
0
LWPOLYLINE
8
scale-inner
420
1842203
90
2
70
0
43
0.03478260869565219
10
9.499633525320966
20
11.730144891666681
10
9.394559375085542
20
11.60039935955273
0
LWPOLYLINE
8
scale-inner
420
1842203
90
2
70
0
43
0.03478260869565219
10
9.906680931514366
20
11.388459475103105
10
9.797104485459075
20
11.262493278760115
0
LWPOLYLINE
8
scale-inner
420
1842203
90
2
70
0
43
0.03478260869565219
10
10.296497985101457
20
11.037276182903899
10
10.182609825805464
20
10.915194377038326
0
LWPOLYLINE
8
scale-inner
420
1842203
90
2
70
0
43
0.09739130434782613
10
10.669206443450102
20
10.677423385908178
10
10.39876540101452
20
10.406774061957398
0
LWPOLYLINE
8
scale-inner
420
1842203
90
2
70
0
43
0.03478260869565219
10
11.024951005873033
20
10.309694060106498
10
10.903005527108876
20
10.19565994082543
0
LWPOLYLINE
8
scale-inner
420
1842203
90
2
70
0
43
0.03478260869565219
10
11.363897019213349
20
9.934846794571618
10
11.238202504843503
20
9.824958809748175
0
LWPOLYLINE
8
scale-inner
420
1842203
90
2
70
0
43
0.03478260869565219
10
11.686228356052055
20
9.553606811309583
10
11.556968578746298
20
9.447935669922282
0
LWPOLYLINE
8
scale-inner
420
1842203
90
2
70
0
43
0.03478260869565219
10
11.992145453416875
20
9.166666990732729
10
11.859501968838366
20
9.065275737904392
0
LWPOLYLINE
8
scale-inner
420
1842203
90
2
70
0
43
0.09739130434782613
10
12.281863500687098
20
8.774688897356196
10
11.97054512984271
20
8.552269730098844
0
LWPOLYLINE
8
scale-inner
420
1842203
90
2
70
0
43
0.03478260869565219
10
12.555610766155405
20
8.378303801110249
10
12.416734868635352
20
8.285632525953227
0
LWPOLYLINE
8
scale-inner
420
1842203
90
2
70
0
43
0.03478260869565219
10
12.813627052426723
20
7.978113690354009
10
12.671897271969545
20
7.889868863407673
0
LWPOLYLINE
8
scale-inner
420
1842203
90
2
70
0
43
0.03478260869565219
10
13.056162271506695
20
7.574692273286168
10
12.911749842084262
20
7.490909635588731
0
LWPOLYLINE
8
scale-inner
420
1842203
90
2
70
0
43
0.03478260869565219
10
13.283475131063206
20
7.168585964980918
10
13.136548425117176
20
7.089295213748015
0
LWPOLYLINE
8
scale-inner
420
1842203
90
2
70
0
43
0.09739130434782613
10
13.495831923932952
20
6.7603148577450325
10
13.153742109344682
20
6.588955665567839
0
LWPOLYLINE
8
scale-inner
420
1842203
90
2
70
0
43
0.03478260869565219
10
13.693505413494972
20
6.350373672901457
10
13.542043418542006
20
6.280133056189351
0
LWPOLYLINE
8
scale-inner
420
1842203
90
2
70
0
43
0.03478260869565219
10
13.876773808046844
20
5.939232692461301
10
13.723284706388002
20
5.873539650035252
0
LWPOLYLINE
8
scale-inner
420
1842203
90
2
70
0
43
0.03478260869565219
10
14.045919817797886
20
5.527338669458263
10
13.890559815204504
20
5.466201530619309
0
LWPOLYLINE
8
scale-inner
420
1842203
90
2
70
0
43
0.03478260869565219
10
14.201229788539923
20
5.115115715991414
10
14.044151923551608
20
5.058538118994533
0
LWPOLYLINE
8
scale-inner
420
1842203
90
2
70
0
43
0.09739130434782613
10
14.342992906472494
20
4.7029661682576185
10
13.979429414301633
20
4.583756264519775
0
LWPOLYLINE
8
scale-inner
420
1842203
90
2
70
0
43
0.03478260869565219
10
14.47150046904631
20
4.291271428060502
10
14.3114331769383
20
4.243806260322067
0
LWPOLYLINE
8
scale-inner
420
1842203
90
2
70
0
43
0.03478260869565219
10
14.58704521704954
20
3.880392780460266
10
14.4256999002495
20
3.8374722853801395
0
LWPOLYLINE
8
scale-inner
420
1842203
90
2
70
0
43
0.03478260869565219
10
14.689920723497437
20
3.4706721873804987
10
14.527437514757539
20
3.432283555875642
0
LWPOLYLINE
8
scale-inner
420
1842203
90
2
70
0
43
0.03478260869565219
10
14.780420835197644
20
3.0624330571216367
10
14.61693661707062
20
3.028559902933927
0
SOLID
8
scale-outer-unit-box
420
16382974
10
16.699592102625065
20
3.3288781997281487
11
16.81871680146475
21
2.662437156969182
12
16.362469932555488
22
2.5808841502240356
13
16.362469932555488
23
2.5808841502240356
0
SOLID
8
scale-outer-unit-box
420
16382974
10
16.699592102625065
20
3.3288781997281487
11
16.362469932555488
21
2.5808841502240356
12
16.243345233715804
22
3.2473251929830025
13
16.243345233715804
23
3.2473251929830025
0
TEXT
8
scale-outer
420
461327
10
16.531031017590276
20
2.954881174976092
11
16.531031017590276
21
2.954881174976092
40
0.5336509827278144
50
-79.86554986188827
72
1
73
2
1
10
0
TEXT
8
scale-outer
420
16382974
10
16.73495650922595
20
-1.3955428682329765
11
16.73495650922595
21
-1.3955428682329765
40
0.5336509827278144
50
-94.76691651884931
72
1
73
2
1
11
0
TEXT
8
scale-outer
420
16382974
10
15.93721562614468
20
-5.292586073795095
11
15.93721562614468
21
-5.292586073795095
40
0.5336509827278144
50
-108.37079843903325
72
1
73
2
1
12
0
TEXT
8
scale-outer
420
16382974
10
14.411754937869317
20
-8.620187287615003
11
14.411754937869317
21
-8.620187287615003
40
0.5336509827278144
50
-120.88515669234948
72
1
73
2
1
13
0
TEXT
8
scale-outer
420
16382974
10
12.386743922547478
20
-11.339086570795422
11
12.386743922547478
21
-11.339086570795422
40
0.5336509827278144
50
-132.4716427060539
72
1
73
2
1
14
0
TEXT
8
scale-outer
420
16382974
10
10.045717512396777
20
-13.456963584846497
11
10.045717512396777
21
-13.456963584846497
40
0.5336509827278144
50
-143.25840312193355
72
1
73
2
1
15
0
TEXT
8
scale-outer
420
16382974
10
7.532667638366273
20
-15.008838313229623
11
7.532667638366273
21
-15.008838313229623
40
0.5336509827278144
50
-153.34874361802122
72
1
73
2
1
16
0
TEXT
8
scale-outer
420
16382974
10
4.958232720473694
20
-16.044383364666402
11
4.958232720473694
21
-16.044383364666402
40
0.5336509827278144
50
-162.8271615580668
72
1
73
2
1
17
0
TEXT
8
scale-outer
420
16382974
10
2.40571794899727
20
-16.619832442375355
11
2.40571794899727
21
-16.619832442375355
40
0.5336509827278144
50
-171.76365169907842
72
1
73
2
1
18
0
TEXT
8
scale-outer
420
16382974
10
-0.06355614819577145
20
-16.792923208268014
11
-0.06355614819577145
21
-16.792923208268014
40
0.5336509827278144
50
-180.2168462049067
72
1
73
2
1
19
0
TEXT
8
scale-outer
420
16382974
10
-2.4057179489972365
20
-16.61983244237536
11
-2.4057179489972365
21
-16.61983244237536
40
0.5336509827278144
50
-188.23634830092146
72
1
73
2
1
20
0
TEXT
8
scale-outer
420
16382974
10
-4.590600292908669
20
-16.153411349108485
11
-4.590600292908669
21
-16.153411349108485
40
0.5336509827278144
50
-195.86449596609918
72
1
73
2
1
21
0
TEXT
8
scale-outer
420
16382974
10
-6.598700558139032
20
-15.442262146679662
11
-6.598700558139032
21
-15.442262146679662
40
0.5336509827278144
50
-203.1377149578825
72
1
73
2
1
22
0
TEXT
8
scale-outer
420
16382974
10
-8.418739743201165
20
-14.530352039747871
11
-8.418739743201165
21
-14.530352039747871
40
0.5336509827278144
50
-210.08757082822171
72
1
73
2
1
23
0
TEXT
8
scale-outer
420
16382974
10
-10.045717512396754
20
-13.456963584846513
11
-10.045717512396754
21
-13.456963584846513
40
0.5336509827278144
50
-216.7415968780664
72
1
73
2
1
24
0
TEXT
8
scale-outer
420
16382974
10
-11.47937127101008
20
-12.256848880730656
11
-11.47937127101008
21
-12.256848880730656
40
0.5336509827278144
50
-223.1239529838217
72
1
73
2
1
25
0
TEXT
8
scale-outer
420
16382974
10
-15.937215626144678
20
-5.292586073795103
11
-15.937215626144678
21
-5.292586073795103
40
0.5336509827278144
50
-251.62920156096675
72
1
73
2
1
30
0
TEXT
8
scale-outer
420
16382974
10
-16.709134517671245
20
1.6766433529905205
11
-16.709134517671245
21
1.6766433529905205
40
0.5336509827278144
50
-275.7300458279875
72
1
73
2
1
35
0
TEXT
8
scale-outer
420
16382974
10
-15.01463295301976
20
7.521110725740786
11
-15.01463295301976
21
7.521110725740786
40
0.5336509827278144
50
-296.6071467399547
72
1
73
2
1
40
0
TEXT
8
scale-outer
420
16382974
10
-11.869903207990811
20
11.879044873039641
11
-11.869903207990811
21
11.879044873039641
40
0.5336509827278144
50
-315.02205482101203
72
1
73
2
1
45
0
TEXT
8
scale-outer
420
16382974
10
-8.014299680616379
20
14.757279894751342
11
-8.014299680616379
21
14.757279894751342
40
0.5336509827278144
50
-331.49475142285496
72
1
73
2
1
50
0
TEXT
8
scale-outer
420
16382974
10
-3.949857585112867
20
16.321915767460826
11
-3.949857585112867
21
16.321915767460826
40
0.5336509827278144
50
-346.396118079816
72
1
73
2
1
55
0
TEXT
8
scale-outer
420
16382974
10
0
20
16.79304347826087
11
0
21
16.79304347826087
40
0.5336509827278144
50
0
72
1
73
2
1
60
0
TEXT
8
scale-outer
420
16382974
10
6.857337054311828
20
15.329162983878863
11
6.857337054311828
21
15.329162983878863
40
0.5336509827278144
50
-24.10084426702076
72
1
73
2
1
70
0
TEXT
8
scale-outer
420
16382974
10
11.869903207990806
20
11.879044873039648
11
11.869903207990806
21
11.879044873039648
40
0.5336509827278144
50
-44.977945178987966
72
1
73
2
1
80
0
TEXT
8
scale-outer
420
16382974
10
15.01463295301974
20
7.521110725740822
11
15.01463295301974
21
7.521110725740822
40
0.5336509827278144
50
-63.39285326004517
72
1
73
2
1
90
0
SOLID
8
scale-inner-unit-box
420
14597684
10
14.217586704328872
20
2.782910314959435
11
14.301266594011357
21
2.314764636681564
12
13.972991407844939
22
2.256086253779569
13
13.972991407844939
23
2.256086253779569
0
SOLID
8
scale-inner-unit-box
420
14597684
10
14.217586704328872
20
2.782910314959435
11
13.972991407844939
21
2.256086253779569
12
13.889311518162453
22
2.72423193205744
13
13.889311518162453
23
2.72423193205744
0
TEXT
8
scale-inner
420
1314304
10
14.095289056086905
20
2.519498284369502
11
14.095289056086905
21
2.519498284369502
40
0.3525908278737345
50
-79.86554986188827
72
1
73
2
1
10
0
TEXT
8
scale-inner
420
15791868
10
14.26916742746319
20
-1.1899185293992496
11
14.26916742746319
21
-1.1899185293992496
40
0.3525908278737345
50
-94.76691651884931
72
1
73
2
1
11
0
TEXT
8
scale-inner
420
15791868
10
13.588968574353322
20
-4.5127572796264985
11
13.588968574353322
21
-4.5127572796264985
40
0.3525908278737345
50
-108.37079843903325
72
1
73
2
1
12
0
TEXT
8
scale-inner
420
15791868
10
12.28827478689028
20
-7.35005768286622
11
12.28827478689028
21
-7.35005768286622
40
0.3525908278737345
50
-120.88515669234948
72
1
73
2
1
13
0
TEXT
8
scale-inner
420
15791868
10
10.561636226213134
20
-9.668344501760709
11
10.561636226213134
21
-9.668344501760709
40
0.3525908278737345
50
-132.4716427060539
72
1
73
2
1
14
0
TEXT
8
scale-inner
420
15791868
10
8.56554512312974
20
-11.47416584868863
11
8.56554512312974
21
-11.47416584868863
40
0.3525908278737345
50
-143.25840312193355
72
1
73
2
1
15
0
TEXT
8
scale-inner
420
15791868
10
6.422777116153595
20
-12.797381735956689
11
6.422777116153595
21
-12.797381735956689
40
0.3525908278737345
50
-153.34874361802122
72
1
73
2
1
16
0
TEXT
8
scale-inner
420
15791868
10
4.2276687599254394
20
-13.68034583027544
11
4.2276687599254394
21
-13.68034583027544
40
0.3525908278737345
50
-162.8271615580668
72
1
73
2
1
17
0
TEXT
8
scale-inner
420
15791868
10
2.0512507563775655
20
-14.171006157434432
11
2.0512507563775655
21
-14.171006157434432
40
0.3525908278737345
50
-171.76365169907842
72
1
73
2
1
18
0
TEXT
8
scale-inner
420
15791868
10
-0.05419155521259686
20
-14.318593103197246
11
-0.05419155521259686
21
-14.318593103197246
40
0.3525908278737345
50
-180.2168462049067
72
1
73
2
1
19
0
TEXT
8
scale-inner
420
15791868
10
-2.051250756377537
20
-14.171006157434435
11
-2.051250756377537
21
-14.171006157434435
40
0.3525908278737345
50
-188.23634830092146
72
1
73
2
1
20
0
TEXT
8
scale-inner
420
15791868
10
-3.914204625268258
20
-13.773309236748906
11
-3.914204625268258
21
-13.773309236748906
40
0.3525908278737345
50
-195.86449596609918
72
1
73
2
1
21
0
TEXT
8
scale-inner
420
15791868
10
-5.626424126998569
20
-13.166943332554922
11
-5.626424126998569
21
-13.166943332554922
40
0.3525908278737345
50
-203.1377149578825
72
1
73
2
1
22
0
TEXT
8
scale-inner
420
15791868
10
-7.178292148996581
20
-12.38939736239169
11
-7.178292148996581
21
-12.38939736239169
40
0.3525908278737345
50
-210.08757082822171
72
1
73
2
1
23
0
TEXT
8
scale-inner
420
15791868
10
-8.56554512312972
20
-11.474165848688644
11
-8.56554512312972
21
-11.474165848688644
40
0.3525908278737345
50
-216.7415968780664
72
1
73
2
1
24
0
TEXT
8
scale-inner
420
15791868
10
-9.787959146338416
20
-10.450880390148681
11
-9.787959146338416
21
-10.450880390148681
40
0.3525908278737345
50
-223.1239529838217
72
1
73
2
1
25
0
TEXT
8
scale-inner
420
15791868
10
-13.58896857435332
20
-4.512757279626505
11
-13.58896857435332
21
-4.512757279626505
40
0.3525908278737345
50
-251.62920156096675
72
1
73
2
1
30
0
TEXT
8
scale-inner
420
15791868
10
-14.247150141633881
20
1.4296006509951535
11
-14.247150141633881
21
1.4296006509951535
40
0.3525908278737345
50
-275.7300458279875
72
1
73
2
1
35
0
TEXT
8
scale-inner
420
15791868
10
-12.802322572540383
20
6.41292304087669
11
-12.802322572540383
21
6.41292304087669
40
0.3525908278737345
50
-296.6071467399547
72
1
73
2
1
40
0
TEXT
8
scale-inner
420
15791868
10
-10.120948693785246
20
10.128743392807957
11
-10.120948693785246
21
10.128743392807957
40
0.3525908278737345
50
-315.02205482101203
72
1
73
2
1
45
0
TEXT
8
scale-inner
420
15791868
10
-6.833443749527215
20
12.582888845636027
11
-6.833443749527215
21
12.582888845636027
40
0.3525908278737345
50
-331.49475142285496
72
1
73
2
1
50
0
TEXT
8
scale-inner
420
15791868
10
-3.3678712678780567
20
13.916985604023077
11
-3.3678712678780567
21
13.916985604023077
40
0.3525908278737345
50
-346.396118079816
72
1
73
2
1
55
0
TEXT
8
scale-inner
420
15791868
10
5.846952185419724
20
13.070508609882005
11
5.846952185419724
21
13.070508609882005
40
0.3525908278737345
50
-24.10084426702076
72
1
73
2
1
70
0
TEXT
8
scale-inner
420
15791868
10
10.120948693785241
20
10.12874339280796
11
10.120948693785241
21
10.12874339280796
40
0.3525908278737345
50
-44.977945178987966
72
1
73
2
1
80
0
TEXT
8
scale-inner
420
15791868
10
12.802322572540367
20
6.412923040876722
11
12.802322572540367
21
6.412923040876722
40
0.3525908278737345
50
-63.39285326004517
72
1
73
2
1
90
0
TEXT
8
scale-inner
420
15791868
10
1.1285495037744473
20
14.274152205897012
11
1.1285495037744473
21
14.274152205897012
40
0.3525908278737345
50
-4.520541479905121
72
1
73
2
1
KM.
0
TEXT
8
scale-inner
420
15791868
10
-13.79238237396807
20
-0.8735458293473796
11
-13.79238237396807
21
-0.8735458293473796
40
0.3525908278737345
50
-266.3759903981628
72
1
73
2
1
NAUT.
0
TEXT
8
scale-inner
420
15791868
10
-13.111961121410472
20
4.344782998040931
11
-13.111961121410472
21
4.344782998040931
40
0.3525908278737345
50
-288.33314537019737
72
1
73
2
1
STAT.
0
LWPOLYLINE
8
scale-inner-pointer
420
15791868
90
3
70
1
43
0.02782608695652175
10
1.448277953774262e-17
20
14.200434782608696
10
-0.2991304347826088
20
14.43695652173913
10
0.2991304347826088
20
14.43695652173913
0
SOLID
8
scale-inner-pointer
420
15654980
10
0.6834955817425925
20
14.351124230595591
11
0.7483488686720813
21
14.250533789659526
12
0.6093759604018257
22
14.257152599953296
13
0.6093759604018257
23
14.257152599953296
0
SOLID
8
scale-inner-pointer
420
13246760
10
-14.435857797304276
20
-0.9143005921651366
11
-14.15306239466832
21
-0.7569804294589434
12
-14.135473877460539
22
-1.0346848687349883
13
-14.135473877460539
23
-1.0346848687349883
0
SOLID
8
scale-inner-pointer
420
13705512
10
-13.7372068424111
20
4.551964589951352
11
-13.398517187830347
21
4.600963049834271
12
-13.494794281756313
22
4.310411942216503
13
-13.494794281756313
23
4.310411942216503
0
SOLID
8
scale-outer-pointer
420
16382974
10
2.6409774451177713e-17
20
16.055652173913042
11
-0.22260869565217403
21
16.486956521739128
12
0.22260869565217398
22
16.486956521739128
13
0.22260869565217398
23
16.486956521739128
0
ENDSEC
0
EOF