0
SECTION
2
HEADER
9
$ACADVER
1
AC1021
9
$INSUNITS
70
4
0
ENDSEC
0
SECTION
2
ENTITIES
0
CIRCLE
8
band-group-dial-face
10
0
20
0
40
13.45
0
CIRCLE
8
band-group-dial-face
10
0
20
0
40
0
0
CIRCLE
8
band-group-chapter-ring
10
0
20
0
40
15.25
0
CIRCLE
8
band-group-chapter-ring
10
0
20
0
40
13.45
0
CIRCLE
8
band-group-inner-bezel
10
0
20
0
40
15.5
0
CIRCLE
8
band-group-inner-bezel
10
0
20
0
40
15.25
0
CIRCLE
8
band-group-outer-bezel
10
0
20
0
40
19
0
CIRCLE
8
band-group-outer-bezel
10
0
20
0
40
15.5
999
Scale text uses the DXF viewer font; use SVG with outlined text for font-exact manufacture.
0
HATCH
100
AcDbEntity
8
scale-outer-substrate
420
12759980
100
AcDbHatch
10
0
20
0
30
0
210
0
220
0
230
1
2
SOLID
70
1
71
0
91
2
92
1
93
1
72
2
10
0
20
0
40
19
50
0
51
360
73
1
97
0
92
0
93
1
72
2
10
0
20
0
40
15.9
50
0
51
360
73
0
97
0
75
0
76
1
98
0
0
HATCH
100
AcDbEntity
8
scale-inner-substrate
420
12496550
100
AcDbHatch
10
0
20
0
30
0
210
0
220
0
230
1
2
SOLID
70
1
71
0
91
2
92
1
93
1
72
2
10
0
20
0
40
15.25
50
0
51
360
73
1
97
0
92
0
93
1
72
2
10
0
20
0
40
13.45
50
0
51
360
73
0
97
0
75
0
76
1
98
0
0
LWPOLYLINE
8
scale-outer
420
4007974
90
2
70
0
43
0.04933333333333336
10
15.9264613912242
20
2.402610801806237
10
16.071487115813163
20
2.4244888802995064
0
LWPOLYLINE
8
scale-outer
420
4007974
90
2
70
0
43
0.04933333333333336
10
15.985291274185114
20
1.973619515147827
10
16.130852701350708
20
1.991591216030796
0
LWPOLYLINE
8
scale-outer
420
4007974
90
2
70
0
43
0.04933333333333336
10
16.0321627587081
20
1.5474069889347624
10
16.178150995749316
20
1.561497615489632
0
LWPOLYLINE
8
scale-outer
420
4007974
90
2
70
0
43
0.04933333333333336
10
16.067383617534325
20
1.124230758385764
10
16.21369257431651
20
1.1344679590002043
0
LWPOLYLINE
8
scale-outer
420
4007974
90
2
70
0
43
0.04933333333333336
10
16.091259310442265
20
0.7043329576388166
10
16.237785678335367
20
0.7107465855643358
0
LWPOLYLINE
8
scale-outer
420
4007974
90
2
70
0
43
0.04933333333333336
10
16.104092681996928
20
0.28794096749874326
10
16.25073591006147
20
0.29056294650742387
0
LWPOLYLINE
8
scale-outer
420
4007974
90
2
70
0
43
0.04933333333333336
10
16.1061836897912
20
-0.12473195987781015
10
16.252845958489633
20
-0.12586776414822068
0
LWPOLYLINE
8
scale-outer
420
4007974
90
2
70
0
43
0.04933333333333336
10
16.09782916089867
20
-0.5334860988174553
10
16.244415353588973
20
-0.538344002035164
0
LWPOLYLINE
8
scale-outer
420
4007974
90
2
70
0
43
0.04933333333333336
10
16.079322574418402
20
-0.9381346699221148
10
16.225740246867577
20
-0.9466772869495514
0
LWPOLYLINE
8
scale-outer
420
4007974
90
2
70
0
43
0.10000000000000005
10
16.05095386814187
20
-1.3385032812408526
10
16.303410924014965
20
-1.3595558990749388
0
LWPOLYLINE
8
scale-outer
420
4007974
90
2
70
0
43
0.04933333333333336
10
16.013009267511457
20
-1.7344293902327692
10
16.158823093622907
20
-1.7502230353425048
0
LWPOLYLINE
8
scale-outer
420
4007974
90
2
70
0
43
0.04933333333333336
10
15.965771135169225
20
-2.125761785927175
10
16.111154812724575
20
-2.1451188882824725
0
LWPOLYLINE
8
scale-outer
420
4007974
90
2
70
0
43
0.04933333333333336
10
15.909517839515173
20
-2.512360090683569
10
16.05438927679553
20
-2.535237541840456
0
LWPOLYLINE
8
scale-outer
420
4007974
90
2
70
0
43
0.04933333333333336
10
15.844523640805932
20
-2.8940942809544055
10
15.988803243495392
20
-2.920447788479653
0
LWPOLYLINE
8
scale-outer
420
4007974
90
2
70
0
43
0.04933333333333336
10
15.771058593428831
20
-3.2708442264567847
10
15.914669226316017
20
-3.30062840401558
0
LWPOLYLINE
8
scale-outer
420
4007974
90
2
70
0
43
0.04933333333333336
10
15.689388463083095
20
-3.642499247163433
10
15.832255411008521
20
-3.6756677005730345
0
LWPOLYLINE
8
scale-outer
420
4007974
90
2
70
0
43
0.04933333333333336
10
15.599774657689814
20
-4.0089576875304775
10
15.741825585864143
20
-4.045463096936798
0
LWPOLYLINE
8
scale-outer
420
4007974
90
2
70
0
43
0.04933333333333336
10
15.502474170936033
20
-4.370126507387656
10
15.643639084744226
20
-4.409920705716518
0
LWPOLYLINE
8
scale-outer
420
4007974
90
2
70
0
43
0.04933333333333336
10
15.397739537435832
20
-4.725920888926987
10
15.537950741833013
20
-4.76895493675662
0
LWPOLYLINE
8
scale-outer
420
4007974
90
2
70
0
43
0.10000000000000005
10
15.285818798564062
20
-5.076263859235119
10
15.52624144523022
20
-5.1561057576833536
0
LWPOLYLINE
8
scale-outer
420
4007974
90
2
70
0
43
0.04933333333333336
10
15.166955478085304
20
-5.421085927827489
10
15.305065172008268
20
-5.470450120878899
0
LWPOLYLINE
8
scale-outer
420
4007974
90
2
70
0
43
0.04933333333333336
10
15.041388566763343
20
-5.760324738654241
10
15.178354853381222
20
-5.812778026837352
0
LWPOLYLINE
8
scale-outer
420
4007974
90
2
70
0
43
0.04933333333333336
10
14.909352515194731
20
-6.093924736060301
10
15.045116486773493
20
-6.149415772564162
0
LWPOLYLINE
8
scale-outer
420
4007974
90
2
70
0
43
0.04933333333333336
10
14.771077234164126
20
-6.421836844195698
10
14.905582076528205
20
-6.48031383532662
0
LWPOLYLINE
8
scale-outer
420
4007974
90
2
70
0
43
0.04933333333333336
10
14.626788101869407
20
-6.744018159385595
10
14.759979053128152
20
-6.80542892077073
0
LWPOLYLINE
8
scale-outer
420
4007974
90
2
70
0
43
0.04933333333333336
10
14.476705977411624
20
-7.060431654982972
10
14.608530286808586
20
-7.124723665086295
0
LWPOLYLINE
8
scale-outer
420
4007974
90
2
70
0
43
0.04933333333333336
10
14.321047219988314
20
-7.37104589824104
10
14.451454106925295
20
-7.438166349301183
0
LWPOLYLINE
8
scale-outer
420
4007974
90
2
70
0
43
0.04933333333333336
10
14.160023713269302
20
-7.675834778756127
10
14.288964326552385
20
-7.745730625251424
0
LWPOLYLINE
8
scale-outer
420
4007974
90
2
70
0
43
0.04933333333333336
10
13.993842894472047
20
-7.9747772480455685
10
14.121270271822373
20
-8.047395252787705
0
LWPOLYLINE
8
scale-outer
420
4007974
90
2
70
0
43
0.10000000000000005
10
13.82270778768852
20
-8.267857069838968
10
14.040117926733291
20
-8.39789786812286
0
LWPOLYLINE
8
scale-outer
420
4007974
90
2
70
0
43
0.04933333333333336
10
13.646817041048305
20
-8.555062580674946
10
13.771084414766461
20
-8.632964640598312
0
LWPOLYLINE
8
scale-outer
420
4007974
90
2
70
0
43
0.04933333333333336
10
13.466364967333424
20
-8.836386460408242
10
13.588989151638614
20
-8.916850244402026
0
LWPOLYLINE
8
scale-outer
420
4007974
90
2
70
0
43
0.04933333333333336
10
13.281541587688064
20
-9.111825512246352
10
13.402482777642177
20
-9.194797433301575
0
LWPOLYLINE
8
scale-outer
420
4007974
90
2
70
0
43
0.04933333333333336
10
13.092532678093368
20
-9.381380451946738
10
13.211752760427
20
-9.466806929572082
0
LWPOLYLINE
8
scale-outer
420
4007974
90
2
70
0
43
0.04933333333333336
10
12.899519818301615
20
-9.645055705819173
10
13.016982333203368
20
-9.732883199829118
0
LWPOLYLINE
8
scale-outer
420
4007974
90
2
70
0
43
0.04933333333333336
10
12.70268044294685
20
-9.902859217190088
10
12.818350546318056
20
-9.993034259730727
0
LWPOLYLINE
8
scale-outer
420
4007974
90
2
70
0
43
0.04933333333333336
10
12.502187894570872
20
-10.154802260997336
10
12.616032320763157
20
-10.247271486883902
0
LWPOLYLINE
8
scale-outer
420
4007974
90
2
70
0
43
0.04933333333333336
10
12.298211478322376
20
-10.400899266196692
10
12.410198503373325
20
-10.495609441633915
0
LWPOLYLINE
8
scale-outer
420
4007974
90
2
70
0
43
0.04933333333333336
10
12.090916518106138
20
-10.641167645672125
10
12.201015923486244
20
-10.738065695425764
0
LWPOLYLINE
8
scale-outer
420
4007974
90
2
70
0
43
0.10000000000000005
10
11.88046441397608
20
-10.875627633353355
10
12.0673260231363
20
-11.046684690500468
0
LWPOLYLINE
8
scale-outer
420
4007974
90
2
70
0
43
0.04933333333333336
10
11.66701270058142
20
-11.104302128255647
10
11.773252054643008
20
-11.205417462204997
0
LWPOLYLINE
8
scale-outer
420
4007974
90
2
70
0
43
0.04933333333333336
10
11.45071510649131
20
-11.327216545166019
10
11.554984863255719
20
-11.430361728938227
0
LWPOLYLINE
8
scale-outer
420
4007974
90
2
70
0
43
0.04933333333333336
10
11.2317216142352
20
-11.544398671712308
10
11.333997224960852
20
-11.649521507299093
0
LWPOLYLINE
8
scale-outer
420
4007974
90
2
70
0
43
0.04933333333333336
10
11.010178520910834
20
-11.75587853155964
10
11.110436769031711
20
-11.862927094347022
0
LWPOLYLINE
8
scale-outer
420
4007974
90
2
70
0
43
0.04933333333333336
10
10.7862284992226
20
-11.961688253489523
10
10.88444746734466
20
-12.070610911426929
0
LWPOLYLINE
8
scale-outer
420
4007974
90
2
70
0
43
0.04933333333333336
10
10.56001065882437
20
-12.161861946125962
10
10.656169696280553
20
-12.272607377754595
0
LWPOLYLINE
8
scale-outer
420
4007974
90
2
70
0
43
0.04933333333333336
10
10.331660607851505
20
-12.356435578081589
10
10.425740298817042
20
-12.468952789471407
0
LWPOLYLINE
8
scale-outer
420
4007974
90
2
70
0
43
0.04933333333333336
10
10.101310514535637
20
-12.545446863306339
10
10.193292646704423
20
-12.65968520394903
0
LWPOLYLINE
8
scale-outer
420
4007974
90
2
70
0
43
0.04933333333333336
10
9.869089168805957
20
-12.72893515142834
10
9.958956702627866
20
-12.844844329131744
0
LWPOLYLINE
8
scale-outer
420
4007974
90
2
70
0
43
0.10000000000000005
10
9.635122043787351
20
-12.90694132288646
10
9.786667837522419
20
-13.109947850315967
0
LWPOLYLINE
8
scale-outer
420
4007974
90
2
70
0
43
0.04933333333333336
10
9.162436131992752
20
-13.246677894410539
10
9.245868911340368
20
-13.36730161695898
0
LWPOLYLINE
8
scale-outer
420
4007974
90
2
70
0
43
0.04933333333333336
10
8.68419255105606
20
-13.56501053620282
10
8.763270463358724
20
-13.688532983138444
0
LWPOLYLINE
8
scale-outer
420
4007974
90
2
70
0
43
0.04933333333333336
10
8.201281895707313
20
-13.86231172561974
10
8.275962442770874
20
-13.988541385372901
0
LWPOLYLINE
8
scale-outer
420
4007974
90
2
70
0
43
0.04933333333333336
10
7.714547491867718
20
-14.13896983895321
10
7.784795854790355
20
-14.267718736493348
0
LWPOLYLINE
8
scale-outer
420
4007974
90
2
70
0
43
0.10000000000000005
10
7.224787270932357
20
-14.395386761073315
10
7.33842217006126
20
-14.621804268076952
0
LWPOLYLINE
8
scale-outer
420
4007974
90
2
70
0
43
0.04933333333333336
10
6.73275560503728
20
-14.631975706443411
10
6.794063810050037
20
-14.765213895823278
0
LWPOLYLINE
8
scale-outer
420
4007974
90
2
70
0
43
0.04933333333333336
10
6.239165099392616
20
-14.849159234570562
10
6.2959786888738405
20
-14.984375088527747
0
LWPOLYLINE
8
scale-outer
420
4007974
90
2
70
0
43
0.04933333333333336
10
5.744688338634185
20
-15.047367444276473
10
5.796999242380027
20
-15.184388174315416
0
LWPOLYLINE
8
scale-outer
420
4007974
90
2
70
0
43
0.04933333333333336
10
5.24995958489127
20
-15.227036332396379
10
5.297765508263625
20
-15.36569312019138
0
LWPOLYLINE
8
scale-outer
420
4007974
90
2
70
0
43
0.10000000000000005
10
4.755576425905865
20
-15.388606303641648
10
4.830374399492133
20
-15.630645641198926
0
LWPOLYLINE
8
scale-outer
420
4007974
90
2
70
0
43
0.04933333333333336
10
4.26210137208105
20
-15.53252081940391
10
4.300911897820199
20
-15.673959336799145
0
LWPOLYLINE
8
scale-outer
420
4007974
90
2
70
0
43
0.04933333333333336
10
3.7700634017982675
20
-15.65922517423938
10
3.804393449331199
20
-15.801817456455138
0
LWPOLYLINE
8
scale-outer
420
4007974
90
2
70
0
43
0.04933333333333336
10
3.279959454731321
20
-15.769165389659332
10
3.3098266351965897
20
-15.912758783108217
0
LWPOLYLINE
8
scale-outer
420
4007974
90
2
70
0
43
0.04933333333333336
10
2.7922558732164435
20
-15.862787215669236
10
2.8176820442473884
20
-16.007233125745696
0
LWPOLYLINE
8
scale-outer
420
4007974
90
2
70
0
43
0.10000000000000005
10
2.307389792009809
20
-15.940535231253687
10
2.3436815188708904
20
-16.191255570155857
0
LWPOLYLINE
8
scale-outer
420
4007974
90
2
70
0
43
0.04933333333333336
10
1.8257704769960073
20
-16.002852035697913
10
1.8423958704123617
20
-16.148573370460067
0
LWPOLYLINE
8
scale-outer
420
4007974
90
2
70
0
43
0.04933333333333336
10
1.3477806135978243
20
-16.05017752327746
10
1.3600534503110497
20
-16.19632980204903
0
LWPOLYLINE
8
scale-outer
420
4007974
90
2
70
0
43
0.04933333333333336
10
0.8737775457936156
20
-16.08294823443693
10
0.8817341294059747
20
-16.22939892200217
0
LWPOLYLINE
8
scale-outer
420
4007974
90
2
70
0
43
0.04933333333333336
10
0.4040944667733375
20
-16.101596777122268
10
0.40777413493104175
20
-16.2482172775762
0
LWPOLYLINE
8
scale-outer
420
4007974
90
2
70
0
43
0.10000000000000005
10
-0.06095843763709313
20
-16.106551312431595
10
-0.061917221010524236
20
-16.359882831418517
0
LWPOLYLINE
8
scale-outer
420
4007974
90
2
70
0
43
0.04933333333333336
10
-0.5210928915750845
20
-16.09823509921075
10
-0.5258379427400894
20
-16.244824988359195
0
LWPOLYLINE
8
scale-outer
420
4007974
90
2
70
0
43
0.04933333333333336
10
-0.9760414764991368
20
-16.077066092644653
10
-0.9849292714010329
20
-16.22346321766046
0
LWPOLYLINE
8
scale-outer
420
4007974
90
2
70
0
43
0.04933333333333336
10
-1.425556621997029
20
-16.043456592286823
10
-1.4385376839523
20
-16.189547670527848
0
LWPOLYLINE
8
scale-outer
420
4007974
90
2
70
0
43
0.04933333333333336
10
-1.8694096387085062
20
-15.997812935330092
10
-1.8864324085974085
20
-16.143488384244524
0
LWPOLYLINE
8
scale-outer
420
4007974
90
2
70
0
43
0.10000000000000005
10
-2.3073897920097766
20
-15.94053523125369
10
-2.3436815188708575
20
-16.19125557015586
0
LWPOLYLINE
8
scale-outer
420
4007974
90
2
70
0
43
0.04933333333333336
10
-2.739303415100891
20
-15.87201713428787
10
-2.7642474031523068
20
-16.016547091636518
0
LWPOLYLINE
8
scale-outer
420
4007974
90
2
70
0
43
0.04933333333333336
10
-3.164973060138626
20
-15.792645650419306
10
-3.1937931790637295
20
-15.936452854189682
0
LWPOLYLINE
8
scale-outer
420
4007974
90
2
70
0
43
0.04933333333333336
10
-3.5842366860668537
20
-15.7028009759203
10
-3.6168746029101784
20
-15.845790057654677
0
LWPOLYLINE
8
scale-outer
420
4007974
90
2
70
0
43
0.04933333333333336
10
-3.9969468818107923
20
-15.602856364624206
10
-4.03334292129748
20
-15.744935354699427
0
LWPOLYLINE
8
scale-outer
420
4007974
90
2
70
0
43
0.10000000000000005
10
-4.402970123521626
20
-15.493178021390158
10
-4.472222137053836
20
-15.736862112786195
0
LWPOLYLINE
8
scale-outer
420
4007974
90
2
70
0
43
0.04933333333333336
10
-4.802186064581441
20
-15.374125019403573
10
-4.84591458007018
20
-15.514121190937878
0
LWPOLYLINE
8
scale-outer
420
4007974
90
2
70
0
43
0.04933333333333336
10
-5.194486857105003
20
-15.246049239146334
10
-5.24178764802235
20
-15.384879157714721
0
LWPOLYLINE
8
scale-outer
420
4007974
90
2
70
0
43
0.04933333333333336
10
-5.579776503705756
20
-15.109295327043027
10
-5.630585726835528
20
-15.24687996992173
0
LWPOLYLINE
8
scale-outer
420
4007974
90
2
70
0
43
0.04933333333333336
10
-5.9579702383226625
20
-14.964200671949452
10
-6.01222327857229
20
-15.100464088664227
0
LWPOLYLINE
8
scale-outer
420
4007974
90
2
70
0
43
0.10000000000000005
10
-6.328993934939756
20
-14.811095397795764
10
-6.428539369346922
20
-15.04405136845646
0
LWPOLYLINE
8
scale-outer
420
4007974
90
2
70
0
43
0.04933333333333336
10
-6.692783543062957
20
-14.650302370832375
10
-6.75372776406767
20
-14.783707442089955
0
LWPOLYLINE
8
scale-outer
420
4007974
90
2
70
0
43
0.04933333333333336
10
-7.049284548853916
20
-14.482137220051484
10
-7.113475053851759
20
-14.614010986128113
0
LWPOLYLINE
8
scale-outer
420
4007974
90
2
70
0
43
0.04933333333333336
10
-7.39845146085598
20
-14.306908369472039
10
-7.465821465880332
20
-14.437186508598026
0
LWPOLYLINE
8
scale-outer
420
4007974
90
2
70
0
43
0.04933333333333336
10
-7.740247319282859
20
-14.124917081082126
10
-7.810729703812753
20
-14.253538014767477
0
LWPOLYLINE
8
scale-outer
420
4007974
90
2
70
0
43
0.10000000000000005
10
-8.074643227875626
20
-13.936457507330669
10
-8.201645066724664
20
-14.155656756204248
0
LWPOLYLINE
8
scale-outer
420
4007974
90
2
70
0
43
0.04933333333333336
10
-8.401617907369333
20
-13.741816752150424
10
-8.478122706194718
20
-13.866949189463053
0
LWPOLYLINE
8
scale-outer
420
4007974
90
2
70
0
43
0.04933333333333336
10
-8.721157269644687
20
-13.541274939577688
10
-8.800571781206022
20
-13.664581251113578
0
LWPOLYLINE
8
scale-outer
420
4007974
90
2
70
0
43
0.04933333333333336
10
-9.033254011674948
20
-13.335105289110752
10
-9.115510463768016
20
-13.456534228001662
0
LWPOLYLINE
8
scale-outer
420
4007974
90
2
70
0
43
0.04933333333333336
10
-9.337907228411888
20
-13.123574197019808
10
-9.422937840591137
20
-13.243076942191347
0
LWPOLYLINE
8
scale-outer
420
4007974
90
2
70
0
43
0.10000000000000005
10
-9.63512204378733
20
-12.906941322886476
10
-9.786667837522396
20
-13.109947850315983
0
LWPOLYLINE
8
scale-outer
420
4007974
90
2
70
0
43
0.04933333333333336
10
-9.924909259038639
20
-12.68545968071162
10
-10.015285088384191
20
-12.80097297250618
0
LWPOLYLINE
8
scale-outer
420
4007974
90
2
70
0
43
0.04933333333333336
10
-10.207285017598975
20
-12.459375733984851
10
-10.300232149381749
20
-12.572830314343987
0
LWPOLYLINE
8
scale-outer
420
4007974
90
2
70
0
43
0.04933333333333336
10
-10.482270485822701
20
-12.228929494161024
10
-10.577721624352543
20
-12.340285640217127
0
LWPOLYLINE
8
scale-outer
420
4007974
90
2
70
0
43
0.04933333333333336
10
-10.74989154884577
20
-11.994354622036374
10
-10.847779634141553
20
-12.103574738627767
0
LWPOLYLINE
8
scale-outer
420
4007974
90
2
70
0
43
0.10000000000000005
10
-11.0101785209108
20
-11.75587853155967
10
-11.183351858574133
20
-11.940780594556056
0
LWPOLYLINE
8
scale-outer
420
4007974
90
2
70
0
43
0.04933333333333336
10
-11.629045008818688
20
-11.144057757117928
10
-11.734938630587733
20
-11.245535104244002
0
LWPOLYLINE
8
scale-outer
420
4007974
90
2
70
0
43
0.060000000000000026
10
-12.202939383364843
20
-10.512515470477766
10
-12.404974803619227
20
-10.686563739856537
0
LWPOLYLINE
8
scale-outer
420
4007974
90
2
70
0
43
0.04933333333333336
10
-12.732630356473702
20
-9.864321330761454
10
-12.848573182567423
20
-9.954145448839581
0
LWPOLYLINE
8
scale-outer
420
4007974
90
2
70
0
43
0.060000000000000026
10
-13.218994623944944
20
-9.202330804922507
10
-13.43785215083145
20
-9.354687275202682
0
LWPOLYLINE
8
scale-outer
420
4007974
90
2
70
0
43
0.04933333333333336
10
-13.66299848240251
20
-8.529195951611015
10
-13.787413203682668
20
-8.606862471037939
0
LWPOLYLINE
8
scale-outer
420
4007974
90
2
70
0
43
0.060000000000000026
10
-14.065681630361627
20
-7.8473760827692285
10
-14.298557154043111
20
-7.977299527848189
0
LWPOLYLINE
8
scale-outer
420
4007974
90
2
70
0
43
0.04933333333333336
10
-14.428142913339745
20
-7.159148216328196
10
-14.559525009404926
20
-7.224339135516616
0
LWPOLYLINE
8
scale-outer
420
4007974
90
2
70
0
43
0.060000000000000026
10
-14.751527798580835
20
-6.466617254701868
10
-14.99575839127257
20
-6.573680454283024
0
LWPOLYLINE
8
scale-outer
420
4007974
90
2
70
0
43
0.04933333333333336
10
-15.037017387994897
20
-5.771725841050509
10
-15.1739438708326
20
-5.824282947219015
0
LWPOLYLINE
8
scale-outer
420
4007974
90
2
70
0
43
0.10000000000000005
10
-15.28581879856406
20
-5.076263859235126
10
-15.526241445230216
20
-5.156105757683361
0
LWPOLYLINE
8
scale-outer
420
4007974
90
2
70
0
43
0.04933333333333336
10
-15.499156757951004
20
-4.381877554607475
10
-15.640291463528374
20
-4.421778757505391
0
LWPOLYLINE
8
scale-outer
420
4007974
90
2
70
0
43
0.060000000000000026
10
-15.678266279571366
20
-3.6900782617671584
10
-15.937840224597382
20
-3.751172272723568
0
LWPOLYLINE
8
scale-outer
420
4007974
90
2
70
0
43
0.04933333333333336
10
-15.82438629615348
20
-3.002250732570657
10
-15.968482528982692
20
-3.0295891084467144
0
LWPOLYLINE
8
scale-outer
420
4007974
90
2
70
0
43
0.060000000000000026
10
-15.938754143984514
20
-2.319661063329625
10
-16.202640801997504
20
-2.358066047821837
0
LWPOLYLINE
8
scale-outer
420
4007974
90
2
70
0
43
0.04933333333333336
10
-16.02260080179574
20
-1.6434642245590763
10
-16.16850196803726
20
-1.6584295444846973
0
LWPOLYLINE
8
scale-outer
420
4007974
90
2
70
0
43
0.060000000000000026
10
-16.07714679871999
20
-0.9747112000580773
10
-16.343324725851115
20
-0.9908488027080454
0
LWPOLYLINE
8
scale-outer
420
4007974
90
2
70
0
43
0.04933333333333336
10
-16.103598715097213
20
-0.3143557447073643
10
-16.250237445118795
20
-0.3172182556277129
0
LWPOLYLINE
8
scale-outer
420
4007974
90
2
70
0
43
0.060000000000000026
10
-16.103146208230342
20
0.33673922769377373
10
-16.36975458916131
20
0.34231438047016066
0
LWPOLYLINE
8
scale-outer
420
4007974
90
2
70
0
43
0.04933333333333336
10
-16.076959502613768
20
0.9777956138314093
10
-16.22335565702499
20
0.9866993818381524
0
LWPOLYLINE
8
scale-outer
420
4007974
90
2
70
0
43
0.10000000000000005
10
-16.02618729076836
20
1.6081144338403968
10
-16.27825480610329
20
1.63340762443888
0
LWPOLYLINE
8
scale-outer
420
4007974
90
2
70
0
43
0.04933333333333336
10
-15.951954996708702
20
2.2270704735349853
10
-16.097212865056218
20
2.2473500887741285
0
LWPOLYLINE
8
scale-outer
420
4007974
90
2
70
0
43
0.060000000000000026
10
-15.855363359318156
20
2.834107241284694
10
-16.117869375200907
20
2.881029546603977
0
LWPOLYLINE
8
scale-outer
420
4007974
90
2
70
0
43
0.04933333333333336
10
-15.737487297586005
20
3.4287322248070375
10
-15.880792231587204
20
3.4599541242051153
0
LWPOLYLINE
8
scale-outer
420
4007974
90
2
70
0
43
0.060000000000000026
10
-15.599375023831135
20
4.010512433216541
10
-15.857642822238933
20
4.076911645687014
0
LWPOLYLINE
8
scale-outer
420
4007974
90
2
70
0
43
0.04933333333333336
10
-15.442047374753308
20
4.579070209877281
10
-15.582662044556526
20
4.620767041258614
0
LWPOLYLINE
8
scale-outer
420
4007974
90
2
70
0
43
0.060000000000000026
10
-15.266497333467152
20
5.134079301914945
10
-15.519253911835811
20
5.219080614860556
0
LWPOLYLINE
8
scale-outer
420
4007974
90
2
70
0
43
0.04933333333333336
10
-15.073689718628145
20
5.675261172636482
10
-15.210950138251416
20
5.726939875367444
0
LWPOLYLINE
8
scale-outer
420
4007974
90
2
70
0
43
0.060000000000000026
10
-14.86456101939463
20
6.202381543552828
10
-15.11066302302699
20
6.3050699797043634
0
LWPOLYLINE
8
scale-outer
420
4007974
90
2
70
0
43
0.04933333333333336
10
-14.64001935731997
20
6.715247153188607
10
-14.773330791865103
20
6.776395926934531
0
LWPOLYLINE
8
scale-outer
420
4007974
90
2
70
0
43
0.10000000000000005
10
-14.400944558364435
20
7.213702720380487
10
-14.627449481053942
20
7.327163276412962
0
LWPOLYLINE
8
scale-outer
420
4007974
90
2
70
0
43
0.04933333333333336
10
-14.148188320086827
20
7.697628100296207
10
-14.27702116074987
20
7.767722395911488
0
LWPOLYLINE
8
scale-outer
420
4007974
90
2
70
0
43
0.060000000000000026
10
-13.882574460743855
20
8.166935621946184
10
-14.112418408769416
20
8.302149787872445
0
LWPOLYLINE
8
scale-outer
420
4007974
90
2
70
0
43
0.04933333333333336
10
-13.604899238514367
20
8.621567596497883
10
-13.728784910388258
20
8.700075248452748
0
LWPOLYLINE
8
scale-outer
420
4007974
90
2
70
0
43
0.060000000000000026
10
-13.315931730393654
20
9.061493986236847
10
-13.536394176261098
20
9.211518721108318
0
LWPOLYLINE
8
scale-outer
420
4007974
90
2
70
0
43
0.04933333333333336
10
-13.016414261489112
20
9.486710224541168
10
-13.13494121254572
20
9.573095830890468
0
LWPOLYLINE
8
scale-outer
420
4007974
90
2
70
0
43
0.060000000000000026
10
-12.707062876506726
20
9.897235177746143
10
-12.917444712210479
20
10.061096687311476
0
LWPOLYLINE
8
scale-outer
420
4007974
90
2
70
0
43
0.04933333333333336
10
-12.388567846161969
20
10.293109240271031
10
-12.501377652708147
20
10.386837884015222
0
LWPOLYLINE
8
scale-outer
420
4007974
90
2
70
0
43
0.060000000000000026
10
-12.06159420209226
20
10.674392554856013
10
-12.26128947033882
20
10.85112090841323
0
LWPOLYLINE
8
scale-outer
420
4007974
90
2
70
0
43
0.04933333333333336
10
-11.72678229460013
20
11.041163350216499
10
-11.8335659082099
20
11.141703744961848
0
LWPOLYLINE
8
scale-outer
420
4007974
90
2
70
0
43
0.10000000000000005
10
-11.384748368227584
20
11.393516388861274
10
-11.563813119052355
20
11.572719047295351
0
LWPOLYLINE
8
scale-outer
420
4007974
90
2
70
0
43
0.04933333333333336
10
-11.036085150761574
20
11.731561518240058
10
-11.13657930362447
20
11.83838865127039
0
LWPOLYLINE
8
scale-outer
420
4007974
90
2
70
0
43
0.060000000000000026
10
-10.681362451804333
20
12.055422318786498
10
-10.858206201006391
20
12.255015403534617
0
LWPOLYLINE
8
scale-outer
420
4007974
90
2
70
0
43
0.04933333333333336
10
-10.321127767520386
20
12.36523484280144
10
-10.41511154686039
20
12.477832179946157
0
LWPOLYLINE
8
scale-outer
420
4007974
90
2
70
0
43
0.060000000000000026
10
-9.955906888595145
20
12.661146438483952
10
-10.120739784101685
20
12.870768068260174
0
LWPOLYLINE
8
scale-outer
420
4007974
90
2
70
0
43
0.04933333333333336
10
-9.586204508821506
20
12.943314653757025
10
-9.673496106170047
20
13.061175962690243
0
LWPOLYLINE
8
scale-outer
420
4007974
90
2
70
0
43
0.060000000000000026
10
-9.212504832066067
20
13.211906214860536
10
-9.365029746504247
20
13.430646383980742
0
LWPOLYLINE
8
scale-outer
420
4007974
90
2
70
0
43
0.04933333333333336
10
-8.835272175669882
20
13.467096074987536
10
-8.915725813031115
20
13.589726916729973
0
LWPOLYLINE
8
scale-outer
420
4007974
90
2
70
0
43
0.060000000000000026
10
-8.454951568604322
20
13.709066528530174
10
-8.594934210468631
20
13.936037828671402
0
LWPOLYLINE
8
scale-outer
420
4007974
90
2
70
0
43
0.04933333333333336
10
-8.071969342943069
20
13.938006386772045
10
-8.145472375039406
20
14.064925319101924
0
LWPOLYLINE
8
scale-outer
420
4007974
90
2
70
0
43
0.10000000000000005
10
-7.68673371742079
20
14.154110211121626
10
-7.807634330525918
20
14.37673280550185
0
LWPOLYLINE
8
scale-outer
420
4007974
90
2
70
0
43
0.04933333333333336
10
-7.299635372040031
20
14.357577600221184
10
-7.3661055616860915
20
14.488317131349028
0
LWPOLYLINE
8
scale-outer
420
4007974
90
2
70
0
43
0.060000000000000026
10
-6.911048012852977
20
14.548612527493885
10
-7.025469337569086
20
14.789483595829875
0
LWPOLYLINE
8
scale-outer
420
4007974
90
2
70
0
43
0.04933333333333336
10
-6.521328926193722
20
14.727422725904901
10
-6.58071188826999
20
14.861530052051387
0
LWPOLYLINE
8
scale-outer
420
4007974
90
2
70
0
43
0.060000000000000026
10
-6.130819521768171
20
14.894219116913025
10
-6.23232315623453
20
15.140812148649994
0
LWPOLYLINE
8
scale-outer
420
4007974
90
2
70
0
43
0.04933333333333336
10
-5.739845864124698
20
15.049215280777986
10
-5.792112672490072
20
15.186252837142689
0
LWPOLYLINE
8
scale-outer
420
4007974
90
2
70
0
43
0.060000000000000026
10
-5.348719192131358
20
15.19262696556579
10
-5.437274145643467
20
15.444160524598335
0
LWPOLYLINE
8
scale-outer
420
4007974
90
2
70
0
43
0.04933333333333336
10
-4.957736426175927
20
15.324671632360655
10
-5.002881377076536
20
15.464217483317583
0
LWPOLYLINE
8
scale-outer
420
4007974
90
2
70
0
43
0.060000000000000026
10
-4.567180662885006
20
15.445568034348247
10
-4.6427962367738305
20
15.701289359420237
0
LWPOLYLINE
8
scale-outer
420
4007974
90
2
70
0
43
0.04933333333333336
10
-4.177321657228249
20
15.555535827581219
10
-4.215360182252678
20
15.697183918726415
0
LWPOLYLINE
8
scale-outer
420
4007974
90
2
70
0
43
0.10000000000000005
10
-3.788416291935097
20
15.654795211375708
10
-3.848002309771825
20
15.90102129499834
0
LWPOLYLINE
8
scale-outer
420
4007974
90
2
70
0
43
0.04933333333333336
10
-3.400709034205115
20
15.743566596416034
10
-3.4316757555430764
20
15.886926888270818
0
LWPOLYLINE
8
scale-outer
420
4007974
90
2
70
0
43
0.060000000000000026
10
-3.014432379740316
20
15.822070298765716
10
-3.0643402005969436
20
16.08402510503667
0
LWPOLYLINE
8
scale-outer
420
4007974
90
2
70
0
43
0.04933333333333336
10
-2.6298072841672697
20
15.890526258096422
10
-2.6537542048012432
20
16.03522475879101
0
LWPOLYLINE
8
scale-outer
420
4007974
90
2
70
0
43
0.060000000000000026
10
-2.2470435819530223
20
15.949153778552478
10
-2.284246290263503
20
16.213212615945732
0
LWPOLYLINE
8
scale-outer
420
4007974
90
2
70
0
43
0.04933333333333336
10
-1.8663403929483446
20
15.998171290768221
10
-1.8833352144073117
20
16.143850002853032
0
LWPOLYLINE
8
scale-outer
420
4007974
90
2
70
0
43
0.060000000000000026
10
-1.4878865167178774
20
16.037796133648794
10
-1.5125203994449945
20
16.303322559702583
0
LWPOLYLINE
8
scale-outer
420
4007974
90
2
70
0
43
0.04933333333333336
10
-1.1118608148390579
20
16.0682443546125
10
-1.1219853752390825
20
16.214561149232317
0
LWPOLYLINE
8
scale-outer
420
4007974
90
2
70
0
43
0.060000000000000026
10
-0.7384325813691568
20
16.089730527074824
10
-0.7506582863587123
20
16.356116794079373
0
LWPOLYLINE
8
scale-outer
420
4007974
90
2
70
0
43
0.04933333333333336
10
-0.36776190169585676
20
16.102467584031093
10
-0.3711107269596436
20
16.249096014018132
0
LWPOLYLINE
8
scale-outer
420
4007974
90
2
70
0
43
0.04933333333333336
10
0.7262348717993783
20
16.09028570355709
10
0.7328479376849687
20
16.23680320582458
0
LWPOLYLINE
8
scale-outer
420
4007974
90
2
70
0
43
0.04933333333333336
10
1.4392269554155606
20
16.04223603123693
10
1.4523324988837487
20
16.188315995097533
0
LWPOLYLINE
8
scale-outer
420
4007974
90
2
70
0
43
0.04933333333333336
10
2.138052539143698
20
15.964129868269433
10
2.157521560609411
20
16.10949860051361
0
LWPOLYLINE
8
scale-outer
420
4007974
90
2
70
0
43
0.04933333333333336
10
2.8219000166101575
20
15.857540522015597
10
2.8475961260329328
20
16.001938655908123
0
LWPOLYLINE
8
scale-outer
420
4007974
90
2
70
0
43
0.10000000000000005
10
3.49006124022606
20
15.724000243277244
10
3.5449545875474966
20
15.971314816640048
0
LWPOLYLINE
8
scale-outer
420
4007974
90
2
70
0
43
0.04933333333333336
10
4.141923456267043
20
15.564998592789399
10
4.179639646680071
20
15.706732851498575
0
LWPOLYLINE
8
scale-outer
420
4007974
90
2
70
0
43
0.04933333333333336
10
4.776961788649958
20
15.381981250180006
10
4.820460612884354
20
15.522048960239594
0
LWPOLYLINE
8
scale-outer
420
4007974
90
2
70
0
43
0.04933333333333336
10
5.394732239262031
20
15.176349204528009
10
5.44385645667253
20
15.3145444373507
0
LWPOLYLINE
8
scale-outer
420
4007974
90
2
70
0
43
0.04933333333333336
10
5.994865173710399
20
14.949458273133018
10
6.049454177775643
20
15.08558744614996
0
LWPOLYLINE
8
scale-outer
420
4007974
90
2
70
0
43
0.10000000000000005
10
6.577059262531062
20
14.702618901687734
10
6.680506386693389
20
14.93386870229375
0
LWPOLYLINE
8
scale-outer
420
4007974
90
2
70
0
43
0.04933333333333336
10
7.141075849173746
20
14.437096204827983
10
7.206102202104965
20
14.568559829209695
0
LWPOLYLINE
8
scale-outer
420
4007974
90
2
70
0
43
0.04933333333333336
10
7.68673371742076
20
14.154110211121642
10
7.756728809218467
20
14.282996976289141
0
LWPOLYLINE
8
scale-outer
420
4007974
90
2
70
0
43
0.04933333333333336
10
8.213904232270615
20
13.854836281031904
10
8.28869971782937
20
13.980997869683687
0
LWPOLYLINE
8
scale-outer
420
4007974
90
2
70
0
43
0.04933333333333336
10
8.72250682969778
20
13.540405670325637
10
8.801933630299335
20
13.663704066330258
0
LWPOLYLINE
8
scale-outer
420
4007974
90
2
70
0
43
0.10000000000000005
10
9.212504832066049
20
13.211906214860548
10
9.35740350078232
20
13.419709375524745
0
LWPOLYLINE
8
scale-outer
420
4007974
90
2
70
0
43
0.04933333333333336
10
9.683901567312825
20
12.870383115731533
10
9.772082790193986
20
12.987580312977434
0
LWPOLYLINE
8
scale-outer
420
4007974
90
2
70
0
43
0.04933333333333336
10
10.136736771323088
20
12.516839806437464
10
10.229041493578514
20
12.630817652357011
0
LWPOLYLINE
8
scale-outer
420
4007974
90
2
70
0
43
0.04933333333333336
10
10.57108325416732
20
12.15223888608903
10
10.667343118236726
20
12.262896690515339
0
LWPOLYLINE
8
scale-outer
420
4007974
90
2
70
0
43
0.04933333333333336
10
10.987043812082797
20
11.777503104753748
10
11.087091396464348
20
11.88474858004538
0
LWPOLYLINE
8
scale-outer
420
4007974
90
2
70
0
43
0.10000000000000005
10
11.384748368227578
20
11.39351638886128
10
11.56381311905235
20
11.572719047295356
0
LWPOLYLINE
8
scale-outer
420
4007974
90
2
70
0
43
0.04933333333333336
10
11.764351326331052
20
11.001124896198748
10
11.871477042050955
20
11.101300702372743
0
LWPOLYLINE
8
scale-outer
420
4007974
90
2
70
0
43
0.04933333333333336
10
12.12602912240204
20
10.601138091439461
10
12.23644826176166
20
10.697671633662836
0
LWPOLYLINE
8
scale-outer
420
4007974
90
2
70
0
43
0.04933333333333336
10
12.469977960636012
20
10.194329834391429
10
12.58352908444975
20
10.28715899679069
0
LWPOLYLINE
8
scale-outer
420
4007974
90
2
70
0
43
0.04933333333333336
10
12.796411720587779
20
9.781439474244822
10
12.912935337248761
20
9.870508873430827
0
LWPOLYLINE
8
scale-outer
420
4007974
90
2
70
0
43
0.10000000000000005
10
13.105560023546209
20
9.363172944057936
10
13.311690520605298
20
9.510441392681363
0
LWPOLYLINE
8
scale-outer
420
4007974
90
2
70
0
43
0.04933333333333336
10
13.3976664468651
20
8.940203850564936
10
13.51966506517265
20
9.021612991588293
0
LWPOLYLINE
8
scale-outer
420
4007974
90
2
70
0
43
0.04933333333333336
10
13.67298687577168
20
8.51317455512845
10
13.797492550964966
20
8.590695184355614
0
LWPOLYLINE
8
scale-outer
420
4007974
90
2
70
0
43
0.04933333333333336
10
13.931787982891839
20
8.082697242310985
10
14.058650290683074
20
8.156297962232692
0
LWPOLYLINE
8
scale-outer
420
4007974
90
2
70
0
43
0.04933333333333336
10
14.174345826404359
20
7.649354973107499
10
14.30341685628056
20
7.719009695544737
0
LWPOLYLINE
8
scale-outer
420
4007974
90
2
70
0
43
0.10000000000000005
10
14.400944558364417
20
7.213702720380524
10
14.627449481053924
20
7.327163276412999
0
LWPOLYLINE
8
scale-outer
420
4007974
90
2
70
0
43
0.04933333333333336
10
14.611875235323492
20
6.7762683844761575
10
14.744930390612035
20
6.8379728151295005
0
LWPOLYLINE
8
scale-outer
420
4007974
90
2
70
0
43
0.04933333333333336
10
14.80743472392098
20
6.337553787379662
10
14.942270636142116
20
6.3952633003442125
0
LWPOLYLINE
8
scale-outer
420
4007974
90
2
70
0
43
0.04933333333333336
10
14.987924694633616
20
5.898035644102443
10
15.124404141356274
20
5.9517429223186085
0
LWPOLYLINE
8
scale-outer
420
4007974
90
2
70
0
43
0.04933333333333336
10
15.15365069734494
20
5.458166510282395
10
15.291639238463148
20
5.507868357644239
0
LWPOLYLINE
8
scale-outer
420
4007974
90
2
70
0
43
0.10000000000000005
10
15.30492131284123
20
5.018375705230662
10
15.545644412960423
20
5.097307111190416
0
LWPOLYLINE
8
scale-outer
420
4007974
90
2
70
0
43
0.04933333333333336
10
15.442047374753297
20
4.579070209877313
10
15.582662044556516
20
4.620767041258646
0
LWPOLYLINE
8
scale-outer
420
4007974
90
2
70
0
43
0.04933333333333336
10
15.565341256848399
20
4.140635539257732
10
15.707078635842882
20
4.17834000194965
0
LWPOLYLINE
8
scale-outer
420
4007974
90
2
70
0
43
0.04933333333333336
10
15.675116220935095
20
3.7034365893435406
10
15.817853206390632
20
3.7371599357696823
0
LWPOLYLINE
8
scale-outer
420
4007974
90
2
70
0
43
0.04933333333333336
10
15.771685820976518
20
3.2678184581643017
10
15.915302165372829
20
3.2975750831972555
0
LWPOLYLINE
8
scale-inner
420
4007974
90
2
70
0
43
0.04000000000000002
10
14.875024887954226
20
2.243994732730039
10
14.55860512521467
20
2.19626074329018
0
LWPOLYLINE
8
scale-inner
420
4007974
90
2
70
0
43
0.04000000000000002
10
14.929970927234566
20
1.8433246837463046
10
14.612382358873273
20
1.8041137000016458
0
LWPOLYLINE
8
scale-inner
420
4007974
90
2
70
0
43
0.04000000000000002
10
14.973748040159283
20
1.4452499464119584
10
14.655228250251175
20
1.414506761201334
0
LWPOLYLINE
8
scale-inner
420
4007974
90
2
70
0
43
0.04000000000000002
10
15.006643680863496
20
1.050011053931075
10
14.687424138793277
20
1.0276753434995696
0
LWPOLYLINE
8
scale-inner
420
4007974
90
2
70
0
43
0.04000000000000002
10
15.028943143217289
20
0.6578341551788037
10
14.709249249632343
20
0.6438407851594895
0
LWPOLYLINE
8
scale-inner
420
4007974
90
2
70
0
43
0.04000000000000002
10
15.040929278529001
20
0.2689316196858088
10
14.720980417297275
20
0.2632109382123239
0
LWPOLYLINE
8
scale-inner
420
4007974
90
2
70
0
43
0.04000000000000002
10
15.042882241727586
20
-0.11649737891733386
10
14.722891837294648
20
-0.11401926050916544
0
LWPOLYLINE
8
scale-inner
420
4007974
90
2
70
0
43
0.04000000000000002
10
15.035079263893978
20
-0.49826630048906784
10
14.715254843478773
20
-0.48766723892315816
0
LWPOLYLINE
8
scale-inner
420
4007974
90
2
70
0
43
0.04000000000000002
10
15.01779444916189
20
-0.8762006964732004
10
14.698337709272781
20
-0.8575622593224299
0
LWPOLYLINE
8
scale-inner
420
4007974
90
2
70
0
43
0.08000000000000004
10
14.991298594148235
20
-1.2501376879635695
10
14.552820549737076
20
-1.2135726148833144
0
LWPOLYLINE
8
scale-inner
420
4007974
90
2
70
0
43
0.04000000000000002
10
14.95585902820348
20
-1.619925463187187
10
14.637719771233053
20
-1.5854666011295824
0
LWPOLYLINE
8
scale-inner
420
4007974
90
2
70
0
43
0.04000000000000002
10
14.911739472892945
20
-1.9854227938512712
10
14.594538721863094
20
-1.9431891159851684
0
LWPOLYLINE
8
scale-inner
420
4007974
90
2
70
0
43
0.04000000000000002
10
14.859199919232612
20
-2.3464985697961396
10
14.543116783348204
20
-2.2965841309083865
0
LWPOLYLINE
8
scale-inner
420
4007974
90
2
70
0
43
0.04000000000000002
10
14.798496521307362
20
-2.703031351396364
10
14.483704660893999
20
-2.645532789523098
0
LWPOLYLINE
8
scale-inner
420
4007974
90
2
70
0
43
0.04000000000000002
10
14.729881504996756
20
-3.0549089391555193
10
14.416549215061083
20
-2.989925279027239
0
LWPOLYLINE
8
scale-inner
420
4007974
90
2
70
0
43
0.04000000000000002
10
14.65360309062376
20
-3.4020279599438275
10
14.341893386059194
20
-3.329660425231971
0
LWPOLYLINE
8
scale-inner
420
4007974
90
2
70
0
43
0.04000000000000002
10
14.569905428425939
20
-3.7442934693346532
10
14.259976130591042
20
-3.6646453033572266
0
LWPOLYLINE
8
scale-inner
420
4007974
90
2
70
0
43
0.04000000000000002
10
14.479028545826639
20
-4.081618569503413
10
14.171032370245127
20
-3.9947948640586257
0
LWPOLYLINE
8
scale-inner
420
4007974
90
2
70
0
43
0.04000000000000002
10
14.381208305556273
20
-4.413924042162146
10
14.075292950507878
20
-4.320031574170219
0
LWPOLYLINE
8
scale-inner
420
4007974
90
2
70
0
43
0.08000000000000004
10
14.276676373741642
20
-4.7411379960116085
10
13.859100197953055
20
-4.60246522502257
0
LWPOLYLINE
8
scale-inner
420
4007974
90
2
70
0
43
0.04000000000000002
10
14.16566019714383
20
-5.063195528204773
10
13.864329955857366
20
-4.955491834274425
0
LWPOLYLINE
8
scale-inner
420
4007974
90
2
70
0
43
0.04000000000000002
10
14.048382988783727
20
-5.380038399326695
10
13.74954745434472
20
-5.265594861472637
0
LWPOLYLINE
8
scale-inner
420
4007974
90
2
70
0
43
0.04000000000000002
10
13.925063721248721
20
-5.691614721407314
10
13.628851419622336
20
-5.570543369035255
0
LWPOLYLINE
8
scale-inner
420
4007974
90
2
70
0
43
0.04000000000000002
10
13.795917127024566
20
-5.9978786584965205
10
13.502452016412033
20
-5.870292496029056
0
LWPOLYLINE
8
scale-inner
420
4007974
90
2
70
0
43
0.04000000000000002
10
13.661153705243509
20
-6.298790139343376
10
13.37055526613352
20
-6.1648030235939935
0
LWPOLYLINE
8
scale-inner
420
4007974
90
2
70
0
43
0.04000000000000002
10
13.520979734283664
20
-6.59431458173389
10
13.233363059235751
20
-6.4540411051448245
0
LWPOLYLINE
8
scale-inner
420
4007974
90
2
70
0
43
0.04000000000000002
10
13.375597289695213
20
-6.884422628055011
10
13.091073172741801
20
-6.737978007560156
0
LWPOLYLINE
8
scale-inner
420
4007974
90
2
70
0
43
0.04000000000000002
10
13.225204266966962
20
-7.169089891665233
10
12.943879292531149
20
-7.016589862948224
0
LWPOLYLINE
8
scale-inner
420
4007974
90
2
70
0
43
0.04000000000000002
10
13.069994408682193
20
-7.448296713665076
10
12.791971039917847
20
-7.289857430591324
0
LWPOLYLINE
8
scale-inner
420
4007974
90
2
70
0
43
0.08000000000000004
10
12.910157335645343
20
-7.722027929673689
10
12.53255025204127
20
-7.496167595812194
0
LWPOLYLINE
8
scale-inner
420
4007974
90
2
70
0
43
0.04000000000000002
10
12.74587858159168
20
-7.9902726462305536
10
12.474749766206616
20
-7.820304515488667
0
LWPOLYLINE
8
scale-inner
420
4007974
90
2
70
0
43
0.04000000000000002
10
12.57733963112081
20
-8.25302402645331
10
12.309795956273124
20
-8.077466679557782
0
LWPOLYLINE
8
scale-inner
420
4007974
90
2
70
0
43
0.04000000000000002
10
12.404717960520744
20
-8.510279084595982
10
12.140846273348133
20
-8.329249438657314
0
LWPOLYLINE
8
scale-inner
420
4007974
90
2
70
0
43
0.04000000000000002
10
12.22818708117454
20
-8.762038489163004
10
11.968070537901161
20
-8.575653447071346
0
LWPOLYLINE
8
scale-inner
420
4007974
90
2
70
0
43
0.04000000000000002
10
12.047916585263904
20
-9.00830637424709
10
11.79163473456917
20
-8.816682750952667
0
LWPOLYLINE
8
scale-inner
420
4007974
90
2
70
0
43
0.04000000000000002
10
11.864072193505617
20
-9.249090158770462
10
11.611701058877532
20
-9.052344611409069
0
LWPOLYLINE
8
scale-inner
420
4007974
90
2
70
0
43
0.04000000000000002
10
11.67681580467681
20
-9.484400373319739
10
11.428427965711826
20
-9.282649335021778
0
LWPOLYLINE
8
scale-inner
420
4007974
90
2
70
0
43
0.04000000000000002
10
11.486305546702997
20
-9.714250494276836
10
11.241970219319109
20
-9.507610111504716
0
LWPOLYLINE
8
scale-inner
420
4007974
90
2
70
0
43
0.04000000000000002
10
11.292695829100373
20
-9.938656784958258
10
11.052478944634688
20
-9.72724285822305
0
LWPOLYLINE
8
scale-inner
420
4007974
90
2
70
0
43
0.08000000000000004
10
11.096137396579895
20
-10.157638143485864
10
10.771588285933197
20
-9.86053904423035
0
LWPOLYLINE
8
scale-inner
420
4007974
90
2
70
0
43
0.04000000000000002
10
10.896777383634925
20
-10.371215957122876
10
10.664982429318737
20
-10.150600683051572
0
LWPOLYLINE
8
scale-inner
420
4007974
90
2
70
0
43
0.04000000000000002
10
10.694759369949356
20
-10.579413962817517
10
10.467261718827011
20
-10.354369925496338
0
LWPOLYLINE
8
scale-inner
420
4007974
90
2
70
0
43
0.04000000000000002
10
10.490223436474226
20
-10.782258113708123
10
10.26707664943644
20
-10.552899199700594
0
LWPOLYLINE
8
scale-inner
420
4007974
90
2
70
0
43
0.04000000000000002
10
10.283306222034478
20
-10.979776451351128
10
10.06456095340711
20
-10.746215950724116
0
LWPOLYLINE
8
scale-inner
420
4007974
90
2
70
0
43
0.04000000000000002
10
10.074140980337665
20
-11.17199898344334
10
9.859845049889532
20
-10.934349547943548
0
LWPOLYLINE
8
scale-inner
420
4007974
90
2
70
0
43
0.04000000000000002
10
9.86285763726705
20
-11.358957566818392
10
9.653056100999017
20
-11.117331170537744
0
LWPOLYLINE
8
scale-inner
420
4007974
90
2
70
0
43
0.04000000000000002
10
9.649582848351375
20
-11.540685795505425
10
9.444318068062936
20
-11.295193697927646
0
LWPOLYLINE
8
scale-inner
420
4007974
90
2
70
0
43
0.04000000000000002
10
9.434440056311947
20
-11.717218893646836
10
9.233751767943689
20
-11.467971604971876
0
LWPOLYLINE
8
scale-inner
420
4007974
90
2
70
0
43
0.04000000000000002
10
9.21754954859712
20
-11.888593613078664
10
9.021474929349319
20
-11.635700861725782
0
LWPOLYLINE
8
scale-inner
420
4007974
90
2
70
0
43
0.08000000000000004
10
8.99902851482043
20
-12.0548481353863
10
8.735817399385843
20
-11.702257850903475
0
LWPOLYLINE
8
scale-inner
420
4007974
90
2
70
0
43
0.04000000000000002
10
8.557548481722534
20
-12.372155905934346
10
8.375513326782281
20
-12.108976874919566
0
LWPOLYLINE
8
scale-inner
420
4007974
90
2
70
0
43
0.04000000000000002
10
8.110877686861755
20
-12.669472795919564
10
7.938344060019582
20
-12.399969275332753
0
LWPOLYLINE
8
scale-inner
420
4007974
90
2
70
0
43
0.04000000000000002
10
7.659847929496504
20
-12.947146692409332
10
7.4969085540851
20
-12.671736525675163
0
LWPOLYLINE
8
scale-inner
420
4007974
90
2
70
0
43
0.04000000000000002
10
7.205246860678603
20
-13.205540331787219
10
7.051977705211033
20
-12.924633646245102
0
LWPOLYLINE
8
scale-inner
420
4007974
90
2
70
0
43
0.08000000000000004
10
6.747819733799198
20
-13.445029067202789
10
6.550453856364788
20
-13.051777607670157
0
LWPOLYLINE
8
scale-inner
420
4007974
90
2
70
0
43
0.04000000000000002
10
6.288271118694794
20
-13.665998833439387
10
6.154507762303325
20
-13.375297329337862
0
LWPOLYLINE
8
scale-inner
420
4007974
90
2
70
0
43
0.04000000000000002
10
5.827266575653741
20
-13.868844293380992
10
5.703309653149252
20
-13.57382788474714
0
LWPOLYLINE
8
scale-inner
420
4007974
90
2
70
0
43
0.04000000000000002
10
5.365434286476837
20
-14.053967151494149
10
5.25130140557682
20
-13.755012831409186
0
LWPOLYLINE
8
scale-inner
420
4007974
90
2
70
0
43
0.04000000000000002
10
4.9033666404417025
20
-14.221774620882629
10
4.7990628076292925
20
-13.919250720238992
0
LWPOLYLINE
8
scale-inner
420
4007974
90
2
70
0
43
0.08000000000000004
10
4.441621773616136
20
-14.372678031526235
10
4.3117095037031445
20
-13.952293918926753
0
LWPOLYLINE
8
scale-inner
420
4007974
90
2
70
0
43
0.04000000000000002
10
3.9807250604722224
20
-14.507091568288462
10
3.896047549768625
20
-14.198498439426132
0
LWPOLYLINE
8
scale-inner
420
4007974
90
2
70
0
43
0.04000000000000002
10
3.521170557184516
20
-14.62543112817515
10
3.446268635294484
20
-14.314320694249863
0
LWPOLYLINE
8
scale-inner
420
4007974
90
2
70
0
43
0.04000000000000002
10
3.0634223963581233
20
-14.728113287154917
10
2.9982576389793554
20
-14.41481861053917
0
LWPOLYLINE
8
scale-inner
420
4007974
90
2
70
0
43
0.04000000000000002
10
2.607916133242097
20
-14.815554367614915
10
2.552440850992763
20
-14.500399654720823
0
LWPOLYLINE
8
scale-inner
420
4007974
90
2
70
0
43
0.08000000000000004
10
2.155060043737638
20
-14.88816959823011
10
2.0920270444526023
20
-14.452707956978974
0
LWPOLYLINE
8
scale-inner
420
4007974
90
2
70
0
43
0.04000000000000002
10
1.7052363747274382
20
-14.946372358672328
10
1.6689627890917558
20
-14.628434901009456
0
LWPOLYLINE
8
scale-inner
420
4007974
90
2
70
0
43
0.04000000000000002
10
1.2588025474269415
20
-14.990573502183604
10
1.2320254491435412
20
-14.671695803045642
0
LWPOLYLINE
8
scale-inner
420
4007974
90
2
70
0
43
0.04000000000000002
10
0.8160923146040123
20
-15.021180749588963
10
0.7987324958134107
20
-14.701651976719354
0
LWPOLYLINE
8
scale-inner
420
4007974
90
2
70
0
43
0.04000000000000002
10
0.3774168726299818
20
-15.038598148831293
10
0.3693885057404453
20
-14.718698875113631
0
LWPOLYLINE
8
scale-inner
420
4007974
90
2
70
0
43
0.08000000000000004
10
-0.05693407058282312
20
-15.0432255945786
10
-0.05526881525002174
20
-14.603228745811842
0
LWPOLYLINE
8
scale-inner
420
4007974
90
2
70
0
43
0.04000000000000002
10
-0.48669127062879897
20
-15.035458402884547
10
-0.4763384317233337
20
-14.715625917469763
0
LWPOLYLINE
8
scale-inner
420
4007974
90
2
70
0
43
0.04000000000000002
10
-0.91160496346039
20
-15.015686936280076
10
-0.892213410947162
20
-14.696275027154686
0
LWPOLYLINE
8
scale-inner
420
4007974
90
2
70
0
43
0.04000000000000002
10
-1.3314439228213146
20
-14.98429627503941
10
-1.3031216058279962
20
-14.665552104331725
0
LWPOLYLINE
8
scale-inner
420
4007974
90
2
70
0
43
0.04000000000000002
10
-1.7459945570139672
20
-14.941665930700479
10
-1.7088539681654538
20
-14.62382858761445
0
LWPOLYLINE
8
scale-inner
420
4007974
90
2
70
0
43
0.08000000000000004
10
-2.1550600437376084
20
-14.888169598230114
10
-2.092027044452573
20
-14.452707956978978
0
LWPOLYLINE
8
scale-inner
420
4007974
90
2
70
0
43
0.04000000000000002
10
-2.5584595017281297
20
-14.824174943510172
10
-2.504036255070496
20
-14.508836854749486
0
LWPOLYLINE
8
scale-inner
420
4007974
90
2
70
0
43
0.04000000000000002
10
-2.9560271979316264
20
-14.750043423084092
10
-2.8931469384586737
20
-14.436282251221456
0
LWPOLYLINE
8
scale-inner
420
4007974
90
2
70
0
43
0.04000000000000002
10
-3.347611788952755
20
-14.666130133346094
10
-3.2764017885673207
20
-14.354153955016551
0
LWPOLYLINE
8
scale-inner
420
4007974
90
2
70
0
43
0.04000000000000002
10
-3.733075595532307
20
-14.572783686578857
10
-3.653666054834079
20
-14.262793162778376
0
LWPOLYLINE
8
scale-inner
420
4007974
90
2
70
0
43
0.08000000000000004
10
-4.112293908827214
20
-14.470346111451528
10
-3.992014095850216
20
-14.047105321132095
0
LWPOLYLINE
8
scale-inner
420
4007974
90
2
70
0
43
0.04000000000000002
10
-4.485154327288089
20
-14.359152775779869
10
-4.389746657130842
20
-14.053706583341388
0
LWPOLYLINE
8
scale-inner
420
4007974
90
2
70
0
43
0.04000000000000002
10
-4.851556122954238
20
-14.23953232952554
10
-4.74835439731639
20
-13.936630689012699
0
LWPOLYLINE
8
scale-inner
420
4007974
90
2
70
0
43
0.04000000000000002
10
-5.211409636014917
20
-14.11180666617243
10
-5.100553149186326
20
-13.811621990800713
0
LWPOLYLINE
8
scale-inner
420
4007974
90
2
70
0
43
0.04000000000000002
10
-5.564635696512868
20
-13.97629090076736
10
-5.446265426877319
20
-13.678988900662404
0
LWPOLYLINE
8
scale-inner
420
4007974
90
2
70
0
43
0.08000000000000004
10
-5.9111650720991555
20
-13.8332933630489
10
-5.73827037023408
20
-13.428685624532957
0
LWPOLYLINE
8
scale-inner
420
4007974
90
2
70
0
43
0.04000000000000002
10
-6.250937940778792
20
-13.683115604214924
10
-6.117968731313965
20
-13.392049994198386
0
LWPOLYLINE
8
scale-inner
420
4007974
90
2
70
0
43
0.04000000000000002
10
-6.5839033876195625
20
-13.526052415995933
10
-6.4438513767151795
20
-13.238327835465109
0
LWPOLYLINE
8
scale-inner
420
4007974
90
2
70
0
43
0.04000000000000002
10
-6.910018924429437
20
-13.362391860808632
10
-6.763029822558126
20
-13.078148648170115
0
LWPOLYLINE
8
scale-inner
420
4007974
90
2
70
0
43
0.04000000000000002
10
-7.229250031441131
20
-13.192415311863336
10
-7.075470283375909
20
-12.911787820186207
0
LWPOLYLINE
8
scale-inner
420
4007974
90
2
70
0
43
0.08000000000000004
10
-7.541569720075063
20
-13.016397502190255
10
-7.320987578916209
20
-12.635683017304567
0
LWPOLYLINE
8
scale-inner
420
4007974
90
2
70
0
43
0.04000000000000002
10
-7.8469581158853074
20
-12.83460658163387
10
-7.680038554811745
20
-12.561590354769955
0
LWPOLYLINE
8
scale-inner
420
4007974
90
2
70
0
43
0.04000000000000002
10
-8.145402060825015
20
-12.64730418094249
10
-7.972134035600286
20
-12.378272228500549
0
LWPOLYLINE
8
scale-inner
420
4007974
90
2
70
0
43
0.04000000000000002
10
-8.436894734000216
20
-12.45474548215166
10
-8.257426111251707
20
-12.189809615480586
0
LWPOLYLINE
8
scale-inner
420
4007974
90
2
70
0
43
0.04000000000000002
10
-8.721435290112346
20
-12.257179294526157
10
-8.535913954448533
20
-11.996446032333711
0
LWPOLYLINE
8
scale-inner
420
4007974
90
2
70
0
43
0.08000000000000004
10
-8.999028514820411
20
-12.054848135386315
10
-8.735817399385823
20
-11.70225785090349
0
LWPOLYLINE
8
scale-inner
420
4007974
90
2
70
0
43
0.04000000000000002
10
-9.269684496283398
20
-11.847988315201064
10
-9.072500868620379
20
-11.595959314922025
0
LWPOLYLINE
8
scale-inner
420
4007974
90
2
70
0
43
0.04000000000000002
10
-9.533418312173877
20
-11.636830026381134
10
-9.330624570102374
20
-11.389292760143023
0
LWPOLYLINE
8
scale-inner
420
4007974
90
2
70
0
43
0.04000000000000002
10
-9.790249731481342
20
-11.421597435254284
10
-9.581992701961687
20
-11.178638571131879
0
LWPOLYLINE
8
scale-inner
420
4007974
90
2
70
0
43
0.04000000000000002
10
-10.04020293045136
20
-11.202508776748791
10
-9.826628926169654
20
-10.964210340549393
0
LWPOLYLINE
8
scale-inner
420
4007974
90
2
70
0
43
0.08000000000000004
10
-10.283306222034446
20
-10.979776451351157
10
-9.982531477671817
20
-10.658630762989015
0
LWPOLYLINE
8
scale-inner
420
4007974
90
2
70
0
43
0.04000000000000002
10
-10.861316250993116
20
-10.408346990453891
10
-10.630275621678837
20
-10.186941869451548
0
LWPOLYLINE
8
scale-inner
420
4007974
90
2
70
0
43
0.04666666666666669
10
-11.397323145100485
20
-9.818497996329917
10
-11.094270014718907
20
-9.55742559226176
0
LWPOLYLINE
8
scale-inner
420
4007974
90
2
70
0
43
0.04000000000000002
10
-11.892044867294251
20
-9.213096474695043
10
-11.639078701271595
20
-9.017116580706404
0
LWPOLYLINE
8
scale-inner
420
4007974
90
2
70
0
43
0.04666666666666669
10
-12.346300235485003
20
-8.594809379680315
10
-12.018013945155245
20
-8.366274674260053
0
LWPOLYLINE
8
scale-inner
420
4007974
90
2
70
0
43
0.04000000000000002
10
-12.760991753121385
20
-7.966113685765835
10
-12.4895414521465
20
-7.796659461561643
0
LWPOLYLINE
8
scale-inner
420
4007974
90
2
70
0
43
0.04666666666666669
10
-13.137090479681712
20
-7.329306345516873
10
-12.787777194159485
20
-7.134421177898432
0
LWPOLYLINE
8
scale-inner
420
4007974
90
2
70
0
43
0.04000000000000002
10
-13.475622716867191
20
-6.686514052212159
10
-13.188970870906799
20
-6.544279319437426
0
LWPOLYLINE
8
scale-inner
420
4007974
90
2
70
0
43
0.04666666666666669
10
-13.77765831022254
20
-6.039702746372005
10
-13.411312421184936
20
-5.87910794700027
0
LWPOLYLINE
8
scale-inner
420
4007974
90
2
70
0
43
0.04000000000000002
10
-14.04430038742156
20
-5.390686821328838
10
-13.745551697593847
20
-5.276016771506643
0
LWPOLYLINE
8
scale-inner
420
4007974
90
2
70
0
43
0.08000000000000004
10
-14.27667637374164
20
-4.741137996011616
10
-13.859100197953053
20
-4.602465225022576
0
LWPOLYLINE
8
scale-inner
420
4007974
90
2
70
0
43
0.04000000000000002
10
-14.475930142515084
20
-4.0925938335975856
10
-14.167999875800826
20
-4.005536663638496
0
LWPOLYLINE
8
scale-inner
420
4007974
90
2
70
0
43
0.04666666666666669
10
-14.643215173780128
20
-3.4464658930784737
10
-14.253854256241103
20
-3.354824876643859
0
LWPOLYLINE
8
scale-inner
420
4007974
90
2
70
0
43
0.04000000000000002
10
-14.779688608141692
20
-2.8040475074692415
10
-14.46529682742341
20
-2.74440014192148
0
LWPOLYLINE
8
scale-inner
420
4007974
90
2
70
0
43
0.04666666666666669
10
-14.886506095157724
20
-2.1665211876669286
10
-14.49067610813824
20
-2.10891371092861
0
LWPOLYLINE
8
scale-inner
420
4007974
90
2
70
0
43
0.04000000000000002
10
-14.964817346544738
20
-1.5349656550983262
10
-14.646487529290518
20
-1.502314047987881
0
LWPOLYLINE
8
scale-inner
420
4007974
90
2
70
0
43
0.04666666666666669
10
-15.015762314284627
20
-0.9103625094913294
10
-14.616495423587939
20
-0.886156105516377
0
LWPOLYLINE
8
scale-inner
420
4007974
90
2
70
0
43
0.04000000000000002
10
-15.040467922440753
20
-0.2936025405348376
10
-14.72052887512094
20
-0.2873570621631681
0
LWPOLYLINE
8
scale-inner
420
4007974
90
2
70
0
43
0.04666666666666669
10
-15.040045289268118
20
0.3145083059979306
10
-14.640132717871667
20
0.30614557683335014
0
LWPOLYLINE
8
scale-inner
420
4007974
90
2
70
0
43
0.04000000000000002
10
-15.015587383132438
20
0.913243295782523
10
-14.69617759168978
20
0.8938168928587201
0
LWPOLYLINE
8
scale-inner
420
4007974
90
2
70
0
43
0.08000000000000004
10
-14.968167061928312
20
1.5019495943546588
10
-14.530365587925534
20
1.4580193159467671
0
LWPOLYLINE
8
scale-inner
420
4007974
90
2
70
0
43
0.04000000000000002
10
-14.898835451189234
20
2.080043263051198
10
-14.581909192976477
20
2.0357968298021585
0
LWPOLYLINE
8
scale-inner
420
4007974
90
2
70
0
43
0.04666666666666669
10
-14.808620620985687
20
2.6470045488240532
10
-14.414861597161561
20
2.5766210908451286
0
LWPOLYLINE
8
scale-inner
420
4007974
90
2
70
0
43
0.04000000000000002
10
-14.698526526077327
20
3.202373454170977
10
-14.38586121552926
20
3.134252946393354
0
LWPOLYLINE
8
scale-inner
420
4007974
90
2
70
0
43
0.04666666666666669
10
-14.569532177680031
20
3.7457455734905323
10
-14.18213048006833
20
3.6461467547848234
0
LWPOLYLINE
8
scale-inner
420
4007974
90
2
70
0
43
0.04000000000000002
10
-14.422591018679984
20
4.276768182362618
10
-14.115795375472965
20
4.185793277530619
0
LWPOLYLINE
8
scale-inner
420
4007974
90
2
70
0
43
0.04666666666666669
10
-14.258630477222114
20
4.795136566544318
10
-13.879495609669123
20
4.667634597125901
0
LWPOLYLINE
8
scale-inner
420
4007974
90
2
70
0
43
0.04000000000000002
10
-14.078551676359442
20
5.300590577837013
10
-13.779074397181398
20
5.187837044605824
0
LWPOLYLINE
8
scale-inner
420
4007974
90
2
70
0
43
0.04666666666666669
10
-13.883229279910589
20
5.792911404398574
10
-13.514076274462047
20
5.638878750171268
0
LWPOLYLINE
8
scale-inner
420
4007974
90
2
70
0
43
0.04000000000000002
10
-13.673511456867761
20
6.271918543530668
10
-13.382650145132928
20
6.138503037175927
0
LWPOLYLINE
8
scale-inner
420
4007974
90
2
70
0
43
0.08000000000000004
10
-13.450219948654532
20
6.737466965454707
10
-13.05681666187802
20
6.540403894450935
0
LWPOLYLINE
8
scale-inner
420
4007974
90
2
70
0
43
0.04000000000000002
10
-13.21415022527977
20
7.189444457085426
10
-12.93306039110586
20
7.03651144847027
0
LWPOLYLINE
8
scale-inner
420
4007974
90
2
70
0
43
0.04666666666666669
10
-12.966071717991934
20
7.627769135315217
10
-12.621305795953592
20
7.424947886425825
0
LWPOLYLINE
8
scale-inner
420
4007974
90
2
70
0
43
0.04000000000000002
10
-12.706728117428671
20
8.052387119825113
10
-12.436432106067459
20
7.881097697378135
0
LWPOLYLINE
8
scale-inner
420
4007974
90
2
70
0
43
0.04666666666666669
10
-12.436837727497219
20
8.463270355936858
10
-12.106144058696053
20
8.238233253629652
0
LWPOLYLINE
8
scale-inner
420
4007974
90
2
70
0
43
0.04000000000000002
10
-12.157093866328719
20
8.860414578508752
10
-11.89848960947794
20
8.671936891928464
0
LWPOLYLINE
8
scale-inner
420
4007974
90
2
70
0
43
0.04666666666666669
10
-11.868165306638009
20
9.243837408354375
10
-11.552592553082377
20
8.998045144006376
0
LWPOLYLINE
8
scale-inner
420
4007974
90
2
70
0
43
0.04000000000000002
10
-11.570696748702186
20
9.613576573125654
10
-11.324566261692347
20
9.409077714047422
0
LWPOLYLINE
8
scale-inner
420
4007974
90
2
70
0
43
0.04666666666666669
10
-11.2653093199591
20
9.969688245046603
10
-10.96576641758926
20
9.704595714710775
0
LWPOLYLINE
8
scale-inner
420
4007974
90
2
70
0
43
0.04000000000000002
10
-10.952601095929301
20
10.312245488312719
10
-10.71961866623526
20
10.09288462705014
0
LWPOLYLINE
8
scale-inner
420
4007974
90
2
70
0
43
0.08000000000000004
10
-10.63314763779203
20
10.641336809381402
10
-10.322140438991111
20
10.330090086838005
0
LWPOLYLINE
8
scale-inner
420
4007974
90
2
70
0
43
0.04000000000000002
10
-10.307502542505585
20
10.957064803770153
10
-10.088242572622905
20
10.723987422613067
0
LWPOLYLINE
8
scale-inner
420
4007974
90
2
70
0
43
0.04666666666666669
10
-9.976198001861125
20
11.259544893353366
10
-9.710932378058038
20
10.960155266231185
0
LWPOLYLINE
8
scale-inner
420
4007974
90
2
70
0
43
0.04000000000000002
10
-9.63974536730536
20
11.548904148502256
10
-9.434689848745354
20
11.303237231095604
0
LWPOLYLINE
8
scale-inner
420
4007974
90
2
70
0
43
0.04666666666666669
10
-9.298635717762808
20
11.825280189751258
10
-9.051386374502995
20
11.51084774508692
0
LWPOLYLINE
8
scale-inner
420
4007974
90
2
70
0
43
0.04000000000000002
10
-8.95334042804459
20
12.088820163991194
10
-8.762886033829593
20
11.83166821722781
0
LWPOLYLINE
8
scale-inner
420
4007974
90
2
70
0
43
0.04666666666666669
10
-8.604311735743824
20
12.339679790493708
10
-8.375524364086555
20
12.011569536813397
0
LWPOLYLINE
8
scale-inner
420
4007974
90
2
70
0
43
0.04000000000000002
10
-8.251983304800948
20
12.578022472354874
10
-8.076448096012804
20
12.31046427218956
0
LWPOLYLINE
8
scale-inner
420
4007974
90
2
70
0
43
0.04666666666666669
10
-7.8967707841703865
20
12.804018469217029
10
-7.686796821373921
20
12.463561519005186
0
LWPOLYLINE
8
scale-inner
420
4007974
90
2
70
0
43
0.04000000000000002
10
-7.539072360244633
20
13.017844127380432
10
-7.378702108398082
20
12.740930093206153
0
LWPOLYLINE
8
scale-inner
420
4007974
90
2
70
0
43
0.08000000000000004
10
-7.179269301887422
20
13.219681163657263
10
-6.969284026494305
20
12.833020868154769
0
LWPOLYLINE
8
scale-inner
420
4007974
90
2
70
0
43
0.04000000000000002
10
-6.817726497106097
20
13.40971599954433
10
-6.672700628787421
20
13.124466113447221
0
LWPOLYLINE
8
scale-inner
420
4007974
90
2
70
0
43
0.04666666666666669
10
-6.454792980547493
20
13.588139142504119
10
-6.28316099347333
20
13.226832540000132
0
LWPOLYLINE
8
scale-inner
420
4007974
90
2
70
0
43
0.04000000000000002
10
-6.090802451140784
20
13.755144611342885
10
-5.961239624792564
20
13.462546808841463
0
LWPOLYLINE
8
scale-inner
420
4007974
90
2
70
0
43
0.04666666666666669
10
-5.726073779333558
20
13.910929402861854
10
-5.573818327634018
20
13.541039855256399
0
LWPOLYLINE
8
scale-inner
420
4007974
90
2
70
0
43
0.04000000000000002
10
-5.360911503475737
20
14.05569299713391
10
-5.246874830678558
20
13.756701965065474
0
LWPOLYLINE
8
scale-inner
420
4007974
90
2
70
0
43
0.04666666666666669
10
-4.995606315001825
20
14.189636898923512
10
-4.862773884733662
20
13.812336560374693
0
LWPOLYLINE
8
scale-inner
420
4007974
90
2
70
0
43
0.04000000000000002
10
-4.630435532146515
20
14.312964212922939
10
-4.531937457454278
20
14.008500538107826
0
LWPOLYLINE
8
scale-inner
420
4007974
90
2
70
0
43
0.04666666666666669
10
-4.2656635620033185
20
14.425879250623684
10
-4.152240201170081
20
14.042297263015698
0
LWPOLYLINE
8
scale-inner
420
4007974
90
2
70
0
43
0.04000000000000002
10
-3.9015423508011358
20
14.52858716677857
10
-3.8185492052932895
20
14.219536786098148
0
LWPOLYLINE
8
scale-inner
420
4007974
90
2
70
0
43
0.08000000000000004
10
-3.538311822330938
20
14.621293623538612
10
-3.434820317667149
20
14.19363779408878
0
LWPOLYLINE
8
scale-inner
420
4007974
90
2
70
0
43
0.04000000000000002
10
-3.176200304504902
20
14.704204480468867
10
-3.1086365488584424
20
14.391418389149344
0
LWPOLYLINE
8
scale-inner
420
4007974
90
2
70
0
43
0.04666666666666669
10
-2.815424944074513
20
14.77752550876028
10
-2.740563212789571
20
14.384593299353847
0
LWPOLYLINE
8
scale-inner
420
4007974
90
2
70
0
43
0.04000000000000002
10
-2.456192109570962
20
14.84146212806067
10
-2.4039442827332014
20
14.52575630836339
0
LWPOLYLINE
8
scale-inner
420
4007974
90
2
70
0
43
0.04666666666666669
10
-2.0986977825649817
20
14.896219164446883
10
-2.042893720099261
20
14.500130908357004
0
LWPOLYLINE
8
scale-inner
420
4007974
90
2
70
0
43
0.04000000000000002
10
-1.7431279373708362
20
14.94200062815335
10
-1.7060483269149087
20
14.624156165422855
0
LWPOLYLINE
8
scale-inner
420
4007974
90
2
70
0
43
0.04666666666666669
10
-1.3896589093434977
20
14.979009509759315
10
-1.352708085252822
20
14.580719870678633
0
LWPOLYLINE
8
scale-inner
420
4007974
90
2
70
0
43
0.04000000000000002
10
-1.03845775193888
20
15.007447593618837
10
-1.01636780197519
20
14.688210950811964
0
LWPOLYLINE
8
scale-inner
420
4007974
90
2
70
0
43
0.04666666666666669
10
-0.689682582723304
20
15.027515287394182
10
-0.6713440252389705
20
14.627935886887357
0
LWPOLYLINE
8
scale-inner
420
4007974
90
2
70
0
43
0.04000000000000002
10
-0.3434829185334027
20
15.039411466625067
10
-0.3361763906851406
20
14.719494892107893
0
LWPOLYLINE
8
scale-inner
420
4007974
90
2
70
0
43
0.04000000000000002
10
0.6782901441288481
20
15.028033812117785
10
0.6638616367421055
20
14.708359261715989
0
LWPOLYLINE
8
scale-inner
420
4007974
90
2
70
0
43
0.04000000000000002
10
1.3442117652711973
20
14.983156293247571
10
1.315617852249696
20
14.664436372097168
0
LWPOLYLINE
8
scale-inner
420
4007974
90
2
70
0
43
0.04000000000000002
10
1.9969021335172827
20
14.910206559499164
10
1.9544242685011828
20
14.593038416420962
0
LWPOLYLINE
8
scale-inner
420
4007974
90
2
70
0
43
0.04000000000000002
10
2.6356032232950417
20
14.810654051294783
10
2.5795389845544427
20
14.495603577347453
0
LWPOLYLINE
8
scale-inner
420
4007974
90
2
70
0
43
0.08000000000000004
10
3.259653637653189
20
14.685929862978105
10
3.1643125607264837
20
14.256383498716392
0
LWPOLYLINE
8
scale-inner
420
4007974
90
2
70
0
43
0.04000000000000002
10
3.8684810757725927
20
14.53742521714788
10
3.786191205780532
20
14.22818683450968
0
LWPOLYLINE
8
scale-inner
420
4007974
90
2
70
0
43
0.04000000000000002
10
4.4615953129505925
20
14.366490352248007
10
4.366688787348275
20
14.060888075754365
0
LWPOLYLINE
8
scale-inner
420
4007974
90
2
70
0
43
0.04000000000000002
10
5.038581663035917
20
14.174433766563515
10
4.931401552322101
20
13.872916894950375
0
LWPOLYLINE
8
scale-inner
420
4007974
90
2
70
0
43
0.04000000000000002
10
5.599094894237382
20
13.962521768760206
10
5.479991612640487
20
13.665512663995974
0
LWPOLYLINE
8
scale-inner
420
4007974
90
2
70
0
43
0.08000000000000004
10
6.142853570323403
20
13.731978291249327
10
5.96318224940989
20
13.330333900723089
0
LWPOLYLINE
8
scale-inner
420
4007974
90
2
70
0
43
0.04000000000000002
10
6.669634790422417
20
13.483984928060574
10
6.527759111299759
20
13.197155202136837
0
LWPOLYLINE
8
scale-inner
420
4007974
90
2
70
0
43
0.04000000000000002
10
7.179269301887396
20
13.21968116365728
10
7.026552737965129
20
12.9384736760191
0
LWPOLYLINE
8
scale-inner
420
4007974
90
2
70
0
43
0.04000000000000002
10
7.671636961969637
20
12.940164763306496
10
7.508446811659624
20
12.664903115338975
0
LWPOLYLINE
8
scale-inner
420
4007974
90
2
70
0
43
0.04000000000000002
10
8.146662525336524
20
12.646492299292136
10
7.973367687660409
20
12.377477617100235
0
LWPOLYLINE
8
scale-inner
420
4007974
90
2
70
0
43
0.08000000000000004
10
8.604311735743808
20
12.33967979049372
10
8.352645626920811
20
11.978758511445378
0
LWPOLYLINE
8
scale-inner
420
4007974
90
2
70
0
43
0.04000000000000002
10
9.044587701424417
20
12.02070343569876
10
8.85219230604734
20
11.765000459889524
0
LWPOLYLINE
8
scale-inner
420
4007974
90
2
70
0
43
0.04000000000000002
10
9.467527534971254
20
11.690500423520753
10
9.266135413686689
20
11.441821486969014
0
LWPOLYLINE
8
scale-inner
420
4007974
90
2
70
0
43
0.04000000000000002
10
9.873199239664139
20
11.349969803998302
10
9.663177718058165
20
11.108534594340904
0
LWPOLYLINE
8
scale-inner
420
4007974
90
2
70
0
43
0.04000000000000002
10
10.261698825316572
20
10.999973408889417
10
10.04341318666592
20
10.765983280980402
0
LWPOLYLINE
8
scale-inner
420
4007974
90
2
70
0
43
0.08000000000000004
10
10.633147637792025
20
10.641336809381405
10
10.322140438991106
20
10.33009008683801
0
LWPOLYLINE
8
scale-inner
420
4007974
90
2
70
0
43
0.04000000000000002
10
10.987689887361764
20
10.274850301437283
10
10.753961053063795
20
10.056284906148566
0
LWPOLYLINE
8
scale-inner
420
4007974
90
2
70
0
43
0.04000000000000002
10
11.325490362044786
20
9.90126991032001
10
11.084575876169248
20
9.690651272741743
0
LWPOLYLINE
8
scale-inner
420
4007974
90
2
70
0
43
0.04000000000000002
10
11.646732312986408
20
9.521318406996796
10
11.398984406483706
20
9.31878205267114
0
LWPOLYLINE
8
scale-inner
420
4007974
90
2
70
0
43
0.04000000000000002
10
11.951615499795665
20
9.135686330146292
10
11.697382154353523
20
8.941353095558647
0
LWPOLYLINE
8
scale-inner
420
4007974
90
2
70
0
43
0.08000000000000004
10
12.240354384574513
20
8.745033008388548
10
11.882338258103466
20
8.489250966042595
0
LWPOLYLINE
8
scale-inner
420
4007974
90
2
70
0
43
0.04000000000000002
10
12.51317646413539
20
8.349987578145605
10
12.246997660555289
20
8.172367634094645
0
LWPOLYLINE
8
scale-inner
420
4007974
90
2
70
0
43
0.04000000000000002
10
12.770320730620364
20
7.9511499932315175
10
12.498671984744105
20
7.782014074917708
0
LWPOLYLINE
8
scale-inner
420
4007974
90
2
70
0
43
0.04000000000000002
10
13.012036251405396
20
7.549092022878617
10
12.735245761679067
20
7.388508633958532
0
LWPOLYLINE
8
scale-inner
420
4007974
90
2
70
0
43
0.04000000000000002
10
13.23858085980192
20
7.14435823543753
10
12.95697134007203
20
6.9923842955744675
0
LWPOLYLINE
8
scale-inner
420
4007974
90
2
70
0
43
0.08000000000000004
10
13.450219948654516
20
6.73746696545474
10
13.056816661878004
20
6.540403894450968
0
LWPOLYLINE
8
scale-inner
420
4007974
90
2
70
0
43
0.04000000000000002
10
13.647225359481565
20
6.328911262239425
10
13.356923202488383
20
6.194283413541223
0
LWPOLYLINE
8
scale-inner
420
4007974
90
2
70
0
43
0.04000000000000002
10
13.829874360317755
20
5.919159818386675
10
13.535686915471642
20
5.793248153736748
0
LWPOLYLINE
8
scale-inner
420
4007974
90
2
70
0
43
0.04000000000000002
10
13.998448705894353
20
5.508657877035249
10
13.700675367590373
20
5.391478360927254
0
LWPOLYLINE
8
scale-inner
420
4007974
90
2
70
0
43
0.04000000000000002
10
14.153233774237938
20
5.097828116909033
10
13.852167866343667
20
4.989387722665012
0
LWPOLYLINE
8
scale-inner
420
4007974
90
2
70
0
43
0.08000000000000004
10
14.294517774183046
20
4.687071514425906
10
13.876419758186556
20
4.549980125127386
0
LWPOLYLINE
8
scale-inner
420
4007974
90
2
70
0
43
0.04000000000000002
10
14.422591018679974
20
4.276768182362647
10
14.115795375472954
20
4.185793277530648
0
LWPOLYLINE
8
scale-inner
420
4007974
90
2
70
0
43
0.04000000000000002
10
14.537745259138417
20
3.8672781847413384
10
14.228500068605005
20
3.78501390250443
0
LWPOLYLINE
8
scale-inner
420
4007974
90
2
70
0
43
0.04000000000000002
10
14.640273076382469
20
3.4589423277540146
10
14.328846926297665
20
3.385364117369706
0
LWPOLYLINE
8
scale-inner
420
4007974
90
2
70
0
43
0.04000000000000002
10
14.730467324103277
20
3.052082926675392
10
14.417122572693145
20
2.987159381148949
0
TEXT
8
scale-outer
420
10761532
10
16.642881406966406
20
2.9748741572425694
11
16.642881406966406
21
2.9748741572425694
40
0.5114155251141556
50
-79.86554986188827
72
1
73
2
1
10
0
TEXT
8
scale-outer
420
4007974
10
16.848186676162165
20
-1.4049852322958618
11
16.848186676162165
21
-1.4049852322958618
40
0.5114155251141556
50
-94.76691651884931
72
1
73
2
1
11
0
TEXT
8
scale-outer
420
4007974
10
16.04504820908877
20
-5.328396170124281
11
16.04504820908877
21
-5.328396170124281
40
0.5114155251141556
50
-108.37079843903325
72
1
73
2
1
12
0
TEXT
8
scale-outer
420
4007974
10
14.50926612151411
20
-8.678512222314414
11
14.50926612151411
21
-8.678512222314414
40
0.5114155251141556
50
-120.88515669234948
72
1
73
2
1
13
0
TEXT
8
scale-outer
420
4007974
10
12.470553706060985
20
-11.415807813817926
11
12.470553706060985
21
-11.415807813817926
40
0.5114155251141556
50
-132.4716427060539
72
1
73
2
1
14
0
TEXT
8
scale-outer
420
4007974
10
10.113687708213877
20
-13.54801456740069
11
10.113687708213877
21
-13.54801456740069
40
0.5114155251141556
50
-143.25840312193355
72
1
73
2
1
15
0
TEXT
8
scale-outer
420
4007974
10
7.583634320813103
20
-15.11038941476901
11
7.583634320813103
21
-15.11038941476901
40
0.5114155251141556
50
-153.34874361802122
72
1
73
2
1
16
0
TEXT
8
scale-outer
420
4007974
10
4.991780553020395
20
-16.152941053822527
11
4.991780553020395
21
-16.152941053822527
40
0.5114155251141556
50
-162.8271615580668
72
1
73
2
1
17
0
TEXT
8
scale-outer
420
4007974
10
2.4219952452553293
20
-16.732283669892116
11
2.4219952452553293
21
-16.732283669892116
40
0.5114155251141556
50
-171.76365169907842
72
1
73
2
1
18
0
TEXT
8
scale-outer
420
4007974
10
-0.06398617460582293
20
-16.906545582916607
11
-0.06398617460582293
21
-16.906545582916607
40
0.5114155251141556
50
-180.2168462049067
72
1
73
2
1
19
0
TEXT
8
scale-outer
420
4007974
10
-2.4219952452552955
20
-16.73228366989212
11
-2.4219952452552955
21
-16.73228366989212
40
0.5114155251141556
50
-188.23634830092146
72
1
73
2
1
20
0
TEXT
8
scale-outer
420
4007974
10
-4.621660692570713
20
-16.262706731061854
11
-4.621660692570713
21
-16.262706731061854
40
0.5114155251141556
50
-195.86449596609918
72
1
73
2
1
21
0
TEXT
8
scale-outer
420
4007974
10
-6.643347938330804
20
-15.546745831461116
11
-6.643347938330804
21
-15.546745831461116
40
0.5114155251141556
50
-203.1377149578825
72
1
73
2
1
22
0
TEXT
8
scale-outer
420
4007974
10
-8.47570166634627
20
-14.628665661668286
11
-8.47570166634627
21
-14.628665661668286
40
0.5114155251141556
50
-210.08757082822171
72
1
73
2
1
23
0
TEXT
8
scale-outer
420
4007974
10
-10.113687708213854
20
-13.548014567400706
11
-10.113687708213854
21
-13.548014567400706
40
0.5114155251141556
50
-216.7415968780664
72
1
73
2
1
24
0
TEXT
8
scale-outer
420
4007974
10
-11.557041692479217
20
-12.339779783127204
11
-11.557041692479217
21
-12.339779783127204
40
0.5114155251141556
50
-223.1239529838217
72
1
73
2
1
25
0
TEXT
8
scale-outer
420
4007974
10
-16.045048209088765
20
-5.328396170124288
11
-16.045048209088765
21
-5.328396170124288
40
0.5114155251141556
50
-251.62920156096675
72
1
73
2
1
30
0
TEXT
8
scale-outer
420
4007974
10
-16.822189970773408
20
1.6879876673092908
11
-16.822189970773408
21
1.6879876673092908
40
0.5114155251141556
50
-275.7300458279875
72
1
73
2
1
35
0
TEXT
8
scale-outer
420
4007974
10
-15.116223261594458
20
7.571999213114618
11
-15.116223261594458
21
7.571999213114618
40
0.5114155251141556
50
-296.6071467399547
72
1
73
2
1
40
0
TEXT
8
scale-outer
420
4007974
10
-11.950216002411073
20
11.959419520758358
11
-11.950216002411073
21
11.959419520758358
40
0.5114155251141556
50
-315.02205482101203
72
1
73
2
1
45
0
TEXT
8
scale-outer
420
4007974
10
-8.068525127226458
20
14.85712893021707
11
-8.068525127226458
21
14.85712893021707
40
0.5114155251141556
50
-331.49475142285496
72
1
73
2
1
50
0
TEXT
8
scale-outer
420
4007974
10
-3.976582664051079
20
16.43235126492086
11
-3.976582664051079
21
16.43235126492086
40
0.5114155251141556
50
-346.396118079816
72
1
73
2
1
55
0
TEXT
8
scale-outer
420
12926789
10
0
20
16.906666666666666
11
0
21
16.906666666666666
40
0.5114155251141556
50
0
72
1
73
2
1
60
0
TEXT
8
scale-outer
420
4007974
10
3.6634086528200696
20
16.504993632843995
11
3.6634086528200696
21
16.504993632843995
40
0.5114155251141556
50
-12.514358253316288
72
1
73
2
1
65
0
TEXT
8
scale-outer
420
4007974
10
6.903734391464725
20
15.432881429917257
11
6.903734391464725
21
15.432881429917257
40
0.5114155251141556
50
-24.10084426702076
72
1
73
2
1
70
0
TEXT
8
scale-outer
420
4007974
10
9.670079575380587
20
13.868126722221172
11
9.670079575380587
21
13.868126722221172
40
0.5114155251141556
50
-34.8876046829003
72
1
73
2
1
75
0
TEXT
8
scale-outer
420
4007974
10
11.950216002411068
20
11.959419520758363
11
11.950216002411068
21
11.959419520758363
40
0.5114155251141556
50
-44.977945178987966
72
1
73
2
1
80
0
TEXT
8
scale-outer
420
4007974
10
13.75649843531175
20
9.82823120286876
11
13.75649843531175
21
9.82823120286876
40
0.5114155251141556
50
-54.45636311903371
72
1
73
2
1
85
0
TEXT
8
scale-outer
420
4007974
10
15.116223261594438
20
7.571999213114656
11
15.116223261594438
21
7.571999213114656
40
0.5114155251141556
50
-63.39285326004517
72
1
73
2
1
90
0
TEXT
8
scale-outer
420
4007974
10
16.065099523743942
20
5.267632776682516
11
16.065099523743942
21
5.267632776682516
40
0.5114155251141556
50
-71.84604776587338
72
1
73
2
1
95
0
TEXT
8
scale-inner
420
11539490
10
13.916100166984332
20
2.4874687107385127
11
13.916100166984332
21
2.4874687107385127
40
0.4347031963470322
50
-79.86554986188827
72
1
73
2
1
10
0
TEXT
8
scale-inner
420
4007974
10
14.087768078391905
20
-1.1747914767678924
11
14.087768078391905
21
-1.1747914767678924
40
0.4347031963470322
50
-94.76691651884931
72
1
73
2
1
11
0
TEXT
8
scale-inner
420
4007974
10
13.416216375146977
20
-4.455388043670559
11
13.416216375146977
21
-4.455388043670559
40
0.4347031963470322
50
-108.37079843903325
72
1
73
2
1
12
0
TEXT
8
scale-inner
420
4007974
10
12.13205789064301
20
-7.256618756868185
11
12.13205789064301
21
-7.256618756868185
40
0.4347031963470322
50
-120.88515669234948
72
1
73
2
1
13
0
TEXT
8
scale-inner
420
4007974
10
10.427369532217003
20
-9.54543393895935
11
10.427369532217003
21
-9.54543393895935
40
0.4347031963470322
50
-132.4716427060539
72
1
73
2
1
14
0
TEXT
8
scale-inner
420
4007974
10
8.456654095137036
20
-11.328298458270176
11
8.456654095137036
21
-11.328298458270176
40
0.4347031963470322
50
-143.25840312193355
72
1
73
2
1
15
0
TEXT
8
scale-inner
420
4007974
10
6.341126410601019
20
-12.634692726347668
11
6.341126410601019
21
-12.634692726347668
40
0.4347031963470322
50
-153.34874361802122
72
1
73
2
1
16
0
TEXT
8
scale-inner
420
4007974
10
4.173923762886336
20
-13.50643198132124
11
4.173923762886336
21
-13.50643198132124
40
0.4347031963470322
50
-162.8271615580668
72
1
73
2
1
17
0
TEXT
8
scale-inner
420
4007974
10
2.025173863392715
20
-13.990854701106558
11
2.025173863392715
21
-13.990854701106558
40
0.4347031963470322
50
-171.76365169907842
72
1
73
2
1
18
0
TEXT
8
scale-inner
420
4007974
10
-0.05350263535159602
20
-14.136565421362251
11
-0.05350263535159602
21
-14.136565421362251
40
0.4347031963470322
50
-180.2168462049067
72
1
73
2
1
19
0
TEXT
8
scale-inner
420
4007974
10
-2.0251738633926872
20
-13.990854701106562
11
-2.0251738633926872
21
-13.990854701106562
40
0.4347031963470322
50
-188.23634830092146
72
1
73
2
1
20
0
TEXT
8
scale-inner
420
4007974
10
-3.864444597238248
20
-13.598213573823607
11
-3.864444597238248
21
-13.598213573823607
40
0.4347031963470322
50
-195.86449596609918
72
1
73
2
1
21
0
TEXT
8
scale-inner
420
4007974
10
-5.554897201589302
20
-12.999556204894834
11
-5.554897201589302
21
-12.999556204894834
40
0.4347031963470322
50
-203.1377149578825
72
1
73
2
1
22
0
TEXT
8
scale-inner
420
4007974
10
-7.087036823141666
20
-12.23189492727429
11
-7.087036823141666
21
-12.23189492727429
40
0.4347031963470322
50
-210.08757082822171
72
1
73
2
1
23
0
TEXT
8
scale-inner
420
4007974
10
-8.456654095137019
20
-11.32829845827019
11
-8.456654095137019
21
-11.32829845827019
40
0.4347031963470322
50
-216.7415968780664
72
1
73
2
1
24
0
TEXT
8
scale-inner
420
4007974
10
-9.663527960923574
20
-10.31802169957462
11
-9.663527960923574
21
-10.31802169957462
40
0.4347031963470322
50
-223.1239529838217
72
1
73
2
1
25
0
TEXT
8
scale-inner
420
4007974
10
-13.416216375146975
20
-4.455388043670565
11
-13.416216375146975
21
-4.455388043670565
40
0.4347031963470322
50
-251.62920156096675
72
1
73
2
1
30
0
TEXT
8
scale-inner
420
4007974
10
-14.066030691255921
20
1.4114265964232457
11
-14.066030691255921
21
1.4114265964232457
40
0.4347031963470322
50
-275.7300458279875
72
1
73
2
1
35
0
TEXT
8
scale-inner
420
4007974
10
-12.639570751660507
20
6.3313976070226925
11
-12.639570751660507
21
6.3313976070226925
40
0.4347031963470322
50
-296.6071467399547
72
1
73
2
1
40
0
TEXT
8
scale-inner
420
4007974
10
-9.992284319050743
20
9.999979926564707
11
-9.992284319050743
21
9.999979926564707
40
0.4347031963470322
50
-315.02205482101203
72
1
73
2
1
45
0
TEXT
8
scale-inner
420
4007974
10
-6.746572370774332
20
12.422926615349093
11
-6.746572370774332
21
12.422926615349093
40
0.4347031963470322
50
-331.49475142285496
72
1
73
2
1
50
0
TEXT
8
scale-inner
420
4007974
10
-3.325056600599493
20
13.740063429520774
11
-3.325056600599493
21
13.740063429520774
40
0.4347031963470322
50
-346.396118079816
72
1
73
2
1
55
0
TEXT
8
scale-inner
420
4007974
10
5.77262175753192
20
12.904347425922534
11
5.77262175753192
21
12.904347425922534
40
0.4347031963470322
50
-24.10084426702076
72
1
73
2
1
7
0
TEXT
8
scale-inner
420
4007974
10
9.992284319050738
20
9.999979926564713
11
9.992284319050738
21
9.999979926564713
40
0.4347031963470322
50
-44.977945178987966
72
1
73
2
1
8
0
TEXT
8
scale-inner
420
4007974
10
12.639570751660493
20
6.331397607022724
11
12.639570751660493
21
6.331397607022724
40
0.4347031963470322
50
-63.39285326004517
72
1
73
2
1
9
0
TEXT
8
scale-inner
420
3941923
10
0
20
14.136666666666667
11
0
21
14.136666666666667
40
0.2825570776255709
50
0
72
1
73
2
1
MPH
0
TEXT
8
scale-inner
420
3547170
10
0.6374093731997441
20
14.122289252646029
11
0.6374093731997441
21
14.122289252646029
40
0.2825570776255709
50
-2.584290465764468
72
1
73
2
1
KM
0
TEXT
8
scale-inner
420
2364695
10
-14.106132729472366
20
-0.9286354844355869
11
-14.106132729472366
21
-0.9286354844355869
40
0.2825570776255709
50
-266.2335368212348
72
1
73
2
1
NAUT.
0
TEXT
8
scale-inner
420
2626069
10
-13.430155374536168
20
4.413192841952601
11
-13.430155374536168
21
4.413192841952601
40
0.2825570776255709
50
-288.19069179326937
72
1
73
2
1
STAT.
0
SOLID
8
scale-inner-pointer
420
11539490
10
14.808620620985684
20
2.6470045488240763
11
14.500208414061605
21
2.402251340791082
12
14.434517186614608
22
2.7697597630269337
13
14.434517186614608
23
2.7697597630269337
0
SOLID
8
scale-inner-pointer
420
3021338
10
0
20
15.043333333333333
11
0.0666666666666667
21
14.75
12
-0.0666666666666667
22
14.75
13
-0.0666666666666667
23
14.75
0
SOLID
8
scale-inner-pointer
420
12657961
10
-14.808620620985687
20
2.6470045488240532
11
-14.441555532412504
21
2.730383860644498
12
-14.493170068263716
22
2.4416272431734716
13
-14.493170068263716
23
2.4416272431734716
0
SOLID
8
scale-inner-pointer
420
12657961
10
0.6782901441288481
20
15.028033812117787
11
0.7583024228915247
21
14.730790492928339
12
0.5718256018238099
22
14.739207122237271
13
0.5718256018238099
23
14.739207122237271
0
SOLID
8
scale-inner-pointer
420
12652315
10
-15.010841077130108
20
-0.9881942799476074
11
-14.649700350765983
21
-0.7907111212139717
12
-14.626927870129034
22
-1.1366290188478145
13
-14.626927870129034
23
-1.1366290188478145
0
SOLID
8
scale-inner-pointer
420
13177630
10
-14.291509362245161
20
4.696236570556965
11
-13.979896245265149
21
4.790326000789887
12
-14.096443662925768
22
4.435650829380301
13
-14.096443662925768
23
4.435650829380301
0
SOLID
8
scale-outer-pointer
420
10761532
10
15.85536335931815
20
2.834107241284719
11
16.048945365162602
21
2.9635221910991083
12
16.0817909788861
22
2.779767979981183
13
16.0817909788861
23
2.779767979981183
0
SOLID
8
scale-outer-pointer
420
12926789
10
1.4695761589768246e-17
20
16.106666666666666
11
-0.17333333333333345
21
16.346666666666668
12
0.1733333333333334
22
16.346666666666668
13
0.1733333333333334
23
16.346666666666668
0
SOLID
8
scale-outer-pointer
420
12657961
10
-15.855363359318154
20
2.8341072412846935
11
-16.09586767048189
21
2.701016175216332
12
-16.034868673566823
22
3.0422739958639085
13
-16.034868673566823
23
3.0422739958639085
0
ENDSEC
0
EOF